<?xml version="1.0" encoding="utf-8" standalone="no"?>
<!DOCTYPE svg PUBLIC "-//W3C//DTD SVG 1.1//EN"
  "http://www.w3.org/Graphics/SVG/1.1/DTD/svg11.dtd">
<!-- Created with matplotlib (https://matplotlib.org/) -->
<svg height="64.08pt" version="1.1" viewBox="0 0 84.96 64.08" width="84.96pt" xmlns="http://www.w3.org/2000/svg" xmlns:xlink="http://www.w3.org/1999/xlink">
 <metadata>
  <rdf:RDF xmlns:cc="http://creativecommons.org/ns#" xmlns:dc="http://purl.org/dc/elements/1.1/" xmlns:rdf="http://www.w3.org/1999/02/22-rdf-syntax-ns#">
   <cc:Work>
    <dc:type rdf:resource="http://purl.org/dc/dcmitype/StillImage"/>
    <dc:date>2022-04-01T08:06:39.115010</dc:date>
    <dc:format>image/svg+xml</dc:format>
    <dc:creator>
     <cc:Agent>
      <dc:title>Matplotlib v3.3.1, https://matplotlib.org/</dc:title>
     </cc:Agent>
    </dc:creator>
   </cc:Work>
  </rdf:RDF>
 </metadata>
 <defs>
  <style type="text/css">*{stroke-linecap:butt;stroke-linejoin:round;}</style>
 </defs>
 <g id="figure_1">
  <g id="patch_1">
   <path d="M 0 64.08 
L 84.96 64.08 
L 84.96 0 
L 0 0 
z
" style="fill:none;"/>
  </g>
  <g id="axes_1">
   <g id="patch_2">
    <path d="M 28.8 42.48 
L 77.76 42.48 
L 77.76 1.8 
L 28.8 1.8 
z
" style="fill:none;"/>
   </g>
   <g id="matplotlib.axis_1">
    <g id="xtick_1">
     <g id="line2d_1">
      <defs>
       <path d="M 0 0 
L 0 3.5 
" id="maef5e601ca" style="stroke:#000000;stroke-width:0.8;"/>
      </defs>
      <g>
       <use style="stroke:#000000;stroke-width:0.8;" x="28.8" xlink:href="#maef5e601ca" y="42.48"/>
      </g>
     </g>
     <g id="text_1">
      <text style="font-family:DejaVu Sans;font-size:6px;font-stretch:normal;font-style:normal;font-weight:normal;text-anchor:middle;" transform="rotate(-0, 28.8, 54.039062)" x="28.8" y="54.039062">0</text>
     </g>
    </g>
    <g id="xtick_2">
     <g id="line2d_2">
      <g>
       <use style="stroke:#000000;stroke-width:0.8;" x="53.28" xlink:href="#maef5e601ca" y="42.48"/>
      </g>
     </g>
     <g id="text_2">
      <text style="font-family:DejaVu Sans;font-size:6px;font-stretch:normal;font-style:normal;font-weight:normal;text-anchor:middle;" transform="rotate(-0, 53.28, 54.039062)" x="53.28" y="54.039062">15</text>
     </g>
    </g>
    <g id="xtick_3">
     <g id="line2d_3">
      <g>
       <use style="stroke:#000000;stroke-width:0.8;" x="77.76" xlink:href="#maef5e601ca" y="42.48"/>
      </g>
     </g>
     <g id="text_3">
      <text style="font-family:DejaVu Sans;font-size:6px;font-stretch:normal;font-style:normal;font-weight:normal;text-anchor:middle;" transform="rotate(-0, 77.76, 54.039062)" x="77.76" y="54.039062">30</text>
     </g>
    </g>
    <g id="text_4">
     <text style="font-family:DejaVu Sans;font-size:6px;font-stretch:normal;font-style:normal;font-weight:normal;text-anchor:middle;" transform="rotate(-0, 53.28, 61.752187)" x="53.28" y="61.752187">frequency (Hz)</text>
    </g>
   </g>
   <g id="matplotlib.axis_2">
    <g id="ytick_1">
     <g id="line2d_4">
      <defs>
       <path d="M 0 0 
L -3.5 0 
" id="mbbdb64bdf5" style="stroke:#000000;stroke-width:0.8;"/>
      </defs>
      <g>
       <use style="stroke:#000000;stroke-width:0.8;" x="28.8" xlink:href="#mbbdb64bdf5" y="42.48"/>
      </g>
     </g>
     <g id="text_5">
      <text style="font-family:DejaVu Sans;font-size:6px;font-stretch:normal;font-style:normal;font-weight:normal;text-anchor:end;" transform="rotate(-0, 21.8, 44.759531)" x="21.8" y="44.759531">0</text>
     </g>
    </g>
    <g id="ytick_2">
     <g id="line2d_5">
      <g>
       <use style="stroke:#000000;stroke-width:0.8;" x="28.8" xlink:href="#mbbdb64bdf5" y="22.14"/>
      </g>
     </g>
     <g id="text_6">
      <text style="font-family:DejaVu Sans;font-size:6px;font-stretch:normal;font-style:normal;font-weight:normal;text-anchor:end;" transform="rotate(-0, 21.8, 24.419531)" x="21.8" y="24.419531">0.12</text>
     </g>
    </g>
    <g id="ytick_3">
     <g id="line2d_6">
      <g>
       <use style="stroke:#000000;stroke-width:0.8;" x="28.8" xlink:href="#mbbdb64bdf5" y="1.8"/>
      </g>
     </g>
     <g id="text_7">
      <text style="font-family:DejaVu Sans;font-size:6px;font-stretch:normal;font-style:normal;font-weight:normal;text-anchor:end;" transform="rotate(-0, 21.8, 4.079531)" x="21.8" y="4.079531">0.24</text>
     </g>
    </g>
    <g id="text_8">
     <text style="font-family:DejaVu Sans;font-size:6px;font-stretch:normal;font-style:normal;font-weight:normal;text-anchor:middle;" transform="rotate(-90, 5.999063, 22.14)" x="5.999063" y="22.14">amplitude</text>
    </g>
   </g>
   <g id="line2d_7">
    <path clip-path="url(#p1c2810242f)" d="M 28.8 42.141 
L 30.079488 36.270231 
L 31.358976 31.783973 
L 32.638464 12.068068 
L 33.917952 29.341696 
L 35.19744 35.635287 
L 36.476928 37.096522 
L 37.756416 37.981019 
L 39.035904 38.568929 
L 40.315392 39.343313 
L 41.59488 39.33713 
L 42.874368 39.839261 
L 44.153856 40.216877 
L 45.433344 40.121448 
L 46.712832 40.425392 
L 47.99232 40.55579 
L 49.271808 40.710787 
L 50.551296 40.821241 
L 51.830784 40.923609 
L 53.110272 41.012172 
L 54.38976 41.090624 
L 55.669248 41.141203 
L 56.948736 41.211571 
L 58.228224 41.272393 
L 59.507712 41.309249 
L 60.7872 41.364398 
L 62.066688 41.402264 
L 63.346176 41.446705 
L 64.625664 41.483027 
L 65.905152 41.513473 
L 67.18464 41.549749 
L 68.464128 41.57468 
L 69.743616 41.60514 
L 71.023104 41.628706 
L 72.302592 41.653205 
L 73.58208 41.674475 
L 74.861568 41.698157 
L 76.141056 41.717292 
L 77.420544 41.735601 
L 78.700032 41.755251 
L 79.97952 41.770624 
L 81.259008 41.787452 
L 82.538496 41.802592 
L 83.817984 41.816901 
L 85.097472 41.831092 
L 85.96 41.839449 
" style="fill:none;stroke:#9467bd;stroke-linecap:square;stroke-width:0.5;"/>
   </g>
   <g id="line2d_8">
    <path clip-path="url(#p1c2810242f)" d="M 28.8 42.141 
L 30.079488 29.152944 
L 31.358976 32.95536 
L 32.638464 18.164461 
L 33.917952 28.774199 
L 35.19744 35.867593 
L 36.476928 36.763284 
L 37.756416 37.778372 
L 39.035904 38.592853 
L 40.315392 39.001255 
L 41.59488 39.5527 
L 42.874368 39.766513 
L 44.153856 40.061862 
L 45.433344 40.269576 
L 46.712832 40.452834 
L 47.99232 40.602224 
L 49.271808 40.718682 
L 50.551296 40.826825 
L 51.830784 40.929697 
L 53.110272 41.020046 
L 54.38976 41.073468 
L 55.669248 41.148121 
L 56.948736 41.208427 
L 58.228224 41.268278 
L 59.507712 41.321539 
L 60.7872 41.364836 
L 62.066688 41.407204 
L 63.346176 41.447898 
L 64.625664 41.485709 
L 65.905152 41.516172 
L 67.18464 41.549233 
L 68.464128 41.577865 
L 69.743616 41.604705 
L 71.023104 41.630958 
L 72.302592 41.653648 
L 73.58208 41.677564 
L 74.861568 41.698221 
L 76.141056 41.718815 
L 77.420544 41.736998 
L 78.700032 41.755089 
L 79.97952 41.771175 
L 81.259008 41.787564 
L 82.538496 41.802379 
L 83.817984 41.817245 
L 85.097472 41.830719 
L 85.96 41.839651 
" style="fill:none;stroke:#d62728;stroke-linecap:square;stroke-width:0.5;"/>
   </g>
   <g id="line2d_9">
    <path clip-path="url(#p1c2810242f)" d="M 28.8 42.141 
L 30.079488 27.042491 
L 31.358976 34.319877 
L 32.638464 24.653595 
L 33.917952 30.136037 
L 35.19744 37.097256 
L 36.476928 35.395167 
L 37.756416 38.075471 
L 39.035904 38.78293 
L 40.315392 39.561587 
L 41.59488 38.953081 
L 42.874368 39.692891 
L 44.153856 40.089299 
L 45.433344 40.2747 
L 46.712832 40.564676 
L 47.99232 40.482907 
L 49.271808 40.717781 
L 50.551296 40.809801 
L 51.830784 40.929757 
L 53.110272 40.967782 
L 54.38976 41.036406 
L 55.669248 41.128183 
L 56.948736 41.204961 
L 58.228224 41.262888 
L 59.507712 41.305245 
L 60.7872 41.358763 
L 62.066688 41.405683 
L 63.346176 41.448569 
L 64.625664 41.483977 
L 65.905152 41.509517 
L 67.18464 41.55001 
L 68.464128 41.572883 
L 69.743616 41.609315 
L 71.023104 41.631352 
L 72.302592 41.65477 
L 73.58208 41.671461 
L 74.861568 41.697411 
L 76.141056 41.717639 
L 77.420544 41.739574 
L 78.700032 41.756276 
L 79.97952 41.768467 
L 81.259008 41.786995 
L 82.538496 41.801815 
L 83.817984 41.820454 
L 85.097472 41.831941 
L 85.96 41.839521 
" style="fill:none;stroke:#17becf;stroke-linecap:square;stroke-width:0.5;"/>
   </g>
   <g id="line2d_10">
    <path clip-path="url(#p1c2810242f)" d="M 28.8 42.141 
L 30.079488 38.811268 
L 31.358976 24.744247 
L 32.638464 15.815505 
L 33.917952 32.104622 
L 35.19744 38.061374 
L 36.476928 35.51541 
L 37.756416 36.928398 
L 39.035904 39.42308 
L 40.315392 38.369727 
L 41.59488 38.766101 
L 42.874368 39.753381 
L 44.153856 39.74606 
L 45.433344 39.973272 
L 46.712832 40.340315 
L 47.99232 40.437927 
L 49.271808 40.600384 
L 50.551296 40.757795 
L 51.830784 40.876032 
L 53.110272 40.956975 
L 54.38976 41.050091 
L 55.669248 41.120831 
L 56.948736 41.178393 
L 58.228224 41.243113 
L 59.507712 41.293647 
L 60.7872 41.350671 
L 62.066688 41.38989 
L 63.346176 41.431797 
L 64.625664 41.469842 
L 65.905152 41.505284 
L 67.18464 41.540472 
L 68.464128 41.569088 
L 69.743616 41.596328 
L 71.023104 41.624127 
L 72.302592 41.647622 
L 73.58208 41.67031 
L 74.861568 41.693424 
L 76.141056 41.713459 
L 77.420544 41.733195 
L 78.700032 41.751175 
L 79.97952 41.769056 
L 81.259008 41.785082 
L 82.538496 41.800283 
L 83.817984 41.81407 
L 85.097472 41.828366 
L 85.96 41.837083 
" style="fill:none;stroke:#bcbd22;stroke-linecap:square;stroke-width:0.5;"/>
   </g>
   <g id="patch_3">
    <path d="M 28.8 42.48 
L 28.8 1.8 
" style="fill:none;stroke:#000000;stroke-linecap:square;stroke-linejoin:miter;stroke-width:0.8;"/>
   </g>
   <g id="patch_4">
    <path d="M 28.8 42.48 
L 77.76 42.48 
" style="fill:none;stroke:#000000;stroke-linecap:square;stroke-linejoin:miter;stroke-width:0.8;"/>
   </g>
  </g>
 </g>
 <defs>
  <clipPath id="p1c2810242f">
   <rect height="40.68" width="48.96" x="28.8" y="1.8"/>
  </clipPath>
 </defs>
</svg>
