<?xml version="1.0" encoding="utf-8" standalone="no"?>
<!DOCTYPE svg PUBLIC "-//W3C//DTD SVG 1.1//EN"
  "http://www.w3.org/Graphics/SVG/1.1/DTD/svg11.dtd">
<!-- Created with matplotlib (https://matplotlib.org/) -->
<svg height="64.08pt" version="1.1" viewBox="0 0 169.92 64.08" width="169.92pt" xmlns="http://www.w3.org/2000/svg" xmlns:xlink="http://www.w3.org/1999/xlink">
 <metadata>
  <rdf:RDF xmlns:cc="http://creativecommons.org/ns#" xmlns:dc="http://purl.org/dc/elements/1.1/" xmlns:rdf="http://www.w3.org/1999/02/22-rdf-syntax-ns#">
   <cc:Work>
    <dc:type rdf:resource="http://purl.org/dc/dcmitype/StillImage"/>
    <dc:date>2022-04-01T08:06:38.792078</dc:date>
    <dc:format>image/svg+xml</dc:format>
    <dc:creator>
     <cc:Agent>
      <dc:title>Matplotlib v3.3.1, https://matplotlib.org/</dc:title>
     </cc:Agent>
    </dc:creator>
   </cc:Work>
  </rdf:RDF>
 </metadata>
 <defs>
  <style type="text/css">*{stroke-linecap:butt;stroke-linejoin:round;}</style>
 </defs>
 <g id="figure_1">
  <g id="patch_1">
   <path d="M 0 64.08 
L 169.92 64.08 
L 169.92 0 
L 0 0 
z
" style="fill:none;"/>
  </g>
  <g id="axes_1">
   <g id="PolyCollection_1">
    <defs>
     <path d="M 13.5936 -37.898856 
L 13.5936 -36.083858 
L 14.941241 -35.876797 
L 16.288883 -35.730219 
L 17.636524 -35.529805 
L 18.984166 -35.547999 
L 20.331807 -35.558542 
L 21.679448 -35.762565 
L 23.02709 -35.931265 
L 24.374731 -36.355589 
L 25.722372 -37.082315 
L 27.070014 -37.564831 
L 28.417655 -37.830319 
L 29.765297 -38.048573 
L 31.112938 -38.116521 
L 32.460579 -38.098944 
L 33.808221 -37.982307 
L 35.155862 -37.974702 
L 36.503503 -37.956702 
L 37.851145 -38.054843 
L 39.198786 -38.164346 
L 40.546428 -38.365199 
L 41.894069 -38.547296 
L 43.24171 -38.67263 
L 44.589352 -38.910987 
L 45.936993 -38.900613 
L 47.284634 -38.936033 
L 48.632276 -38.917191 
L 49.979917 -38.88796 
L 51.327559 -38.950892 
L 52.6752 -39.094994 
L 54.022841 -39.257234 
L 55.370483 -39.508044 
L 56.718124 -39.678448 
L 58.065766 -40.024929 
L 59.413407 -40.279363 
L 60.761048 -40.730325 
L 62.10869 -41.305767 
L 63.456331 -42.067074 
L 64.803972 -43.03168 
L 66.151614 -44.101796 
L 67.499255 -45.219267 
L 68.846897 -46.392727 
L 70.194538 -47.378948 
L 71.542179 -47.970278 
L 72.889821 -48.39604 
L 74.237462 -48.737483 
L 75.585103 -48.795427 
L 76.932745 -48.630395 
L 78.280386 -48.135109 
L 79.628028 -47.49117 
L 80.975669 -46.482343 
L 82.32331 -45.057469 
L 83.670952 -43.632388 
L 85.018593 -42.118317 
L 86.366234 -40.332882 
L 87.713876 -38.897121 
L 89.061517 -37.604573 
L 90.409159 -36.588923 
L 91.7568 -35.203544 
L 93.104441 -34.45418 
L 94.452083 -33.730815 
L 95.799724 -33.201649 
L 97.147366 -32.551372 
L 98.495007 -32.01004 
L 99.842648 -31.115836 
L 101.19029 -30.946613 
L 102.537931 -30.578192 
L 103.885572 -30.259047 
L 105.233214 -30.050496 
L 106.580855 -29.767094 
L 107.928497 -29.607387 
L 109.276138 -29.419098 
L 110.623779 -29.294305 
L 111.971421 -29.142748 
L 113.319062 -29.015141 
L 114.666703 -28.433294 
L 116.014345 -27.779416 
L 117.361986 -27.324528 
L 118.709628 -27.076815 
L 120.057269 -27.082722 
L 121.40491 -27.264963 
L 122.752552 -27.720714 
L 124.100193 -28.162891 
L 125.447834 -28.691699 
L 126.795476 -29.261447 
L 128.143117 -29.90129 
L 129.490759 -30.266392 
L 130.8384 -30.552022 
L 132.186041 -30.940445 
L 133.533683 -31.194808 
L 134.881324 -31.578243 
L 136.228966 -32.174025 
L 137.576607 -33.449517 
L 138.924248 -34.247905 
L 140.27189 -34.347943 
L 141.619531 -34.244399 
L 142.967172 -33.88038 
L 144.314814 -33.545939 
L 145.662455 -33.296575 
L 147.010097 -33.521433 
L 148.357738 -34.19887 
L 149.705379 -35.240982 
L 151.053021 -36.614422 
L 152.400662 -37.67148 
L 153.748303 -38.639403 
L 155.095945 -39.790632 
L 156.443586 -40.851632 
L 157.791228 -41.972849 
L 159.138869 -42.991642 
L 160.48651 -44.116964 
L 161.834152 -45.16156 
L 163.181793 -46.279976 
L 164.529434 -47.027299 
L 165.877076 -47.875005 
L 167.224717 -48.649824 
L 168.572359 -49.342686 
L 169.92 -50.178845 
L 169.92 -51.948803 
L 169.92 -51.948803 
L 168.572359 -51.100805 
L 167.224717 -50.434628 
L 165.877076 -49.599855 
L 164.529434 -48.783256 
L 163.181793 -47.967708 
L 161.834152 -46.853072 
L 160.48651 -45.820711 
L 159.138869 -44.70736 
L 157.791228 -43.668913 
L 156.443586 -42.542439 
L 155.095945 -41.418799 
L 153.748303 -40.30535 
L 152.400662 -39.266154 
L 151.053021 -38.174211 
L 149.705379 -36.700941 
L 148.357738 -35.646355 
L 147.010097 -34.990524 
L 145.662455 -34.912264 
L 144.314814 -35.285113 
L 142.967172 -35.691492 
L 141.619531 -36.004654 
L 140.27189 -36.092126 
L 138.924248 -35.977449 
L 137.576607 -35.079141 
L 136.228966 -33.841393 
L 134.881324 -33.220381 
L 133.533683 -32.848951 
L 132.186041 -32.595352 
L 130.8384 -32.176725 
L 129.490759 -31.883537 
L 128.143117 -31.535772 
L 126.795476 -30.83513 
L 125.447834 -30.256778 
L 124.100193 -29.615134 
L 122.752552 -29.123025 
L 121.40491 -28.7264 
L 120.057269 -28.689506 
L 118.709628 -28.861747 
L 117.361986 -29.329592 
L 116.014345 -29.741311 
L 114.666703 -30.456628 
L 113.319062 -31.063434 
L 111.971421 -31.248244 
L 110.623779 -31.443953 
L 109.276138 -31.610477 
L 107.928497 -31.804502 
L 106.580855 -32.017336 
L 105.233214 -32.311161 
L 103.885572 -32.54841 
L 102.537931 -32.910259 
L 101.19029 -33.350288 
L 99.842648 -33.598595 
L 98.495007 -34.450546 
L 97.147366 -34.995918 
L 95.799724 -35.640807 
L 94.452083 -36.217985 
L 93.104441 -36.951631 
L 91.7568 -37.72532 
L 90.409159 -39.029868 
L 89.061517 -40.045225 
L 87.713876 -41.321269 
L 86.366234 -42.715968 
L 85.018593 -44.540121 
L 83.670952 -46.051901 
L 82.32331 -47.488313 
L 80.975669 -48.860983 
L 79.628028 -49.797297 
L 78.280386 -50.413926 
L 76.932745 -50.867757 
L 75.585103 -51.061552 
L 74.237462 -50.993818 
L 72.889821 -50.694287 
L 71.542179 -50.273395 
L 70.194538 -49.724541 
L 68.846897 -48.77803 
L 67.499255 -47.614671 
L 66.151614 -46.548129 
L 64.803972 -45.501616 
L 63.456331 -44.565173 
L 62.10869 -43.828802 
L 60.761048 -43.235133 
L 59.413407 -42.859404 
L 58.065766 -42.582144 
L 56.718124 -42.26757 
L 55.370483 -42.095081 
L 54.022841 -41.915445 
L 52.6752 -41.775144 
L 51.327559 -41.665694 
L 49.979917 -41.554334 
L 48.632276 -41.652496 
L 47.284634 -41.670318 
L 45.936993 -41.703231 
L 44.589352 -41.658257 
L 43.24171 -41.495403 
L 41.894069 -41.349331 
L 40.546428 -41.064668 
L 39.198786 -40.896476 
L 37.851145 -40.721405 
L 36.503503 -40.617157 
L 35.155862 -40.562234 
L 33.808221 -40.535858 
L 32.460579 -40.662434 
L 31.112938 -40.583026 
L 29.765297 -40.507926 
L 28.417655 -40.232826 
L 27.070014 -39.894734 
L 25.722372 -39.313149 
L 24.374731 -38.514995 
L 23.02709 -37.990741 
L 21.679448 -37.783618 
L 20.331807 -37.543192 
L 18.984166 -37.50238 
L 17.636524 -37.442598 
L 16.288883 -37.601747 
L 14.941241 -37.739207 
L 13.5936 -37.898856 
z
" id="ma191b96b8a" style="stroke:#9467bd;stroke-opacity:0.2;stroke-width:0.5;"/>
    </defs>
    <g clip-path="url(#p64ea93d043)">
     <use style="fill:#9467bd;fill-opacity:0.2;stroke:#9467bd;stroke-opacity:0.2;stroke-width:0.5;" x="0" xlink:href="#ma191b96b8a" y="64.08"/>
    </g>
   </g>
   <g id="PolyCollection_2">
    <defs>
     <path d="M 13.5936 -37.712375 
L 13.5936 -35.693065 
L 14.941241 -35.683914 
L 16.288883 -35.665329 
L 17.636524 -35.65739 
L 18.984166 -35.492646 
L 20.331807 -35.357064 
L 21.679448 -34.90758 
L 23.02709 -34.353903 
L 24.374731 -33.406443 
L 25.722372 -32.264766 
L 27.070014 -31.606949 
L 28.417655 -31.257531 
L 29.765297 -30.991882 
L 31.112938 -30.88652 
L 32.460579 -30.821195 
L 33.808221 -30.889709 
L 35.155862 -30.86556 
L 36.503503 -30.680599 
L 37.851145 -30.532583 
L 39.198786 -30.489982 
L 40.546428 -30.35145 
L 41.894069 -30.22265 
L 43.24171 -30.160785 
L 44.589352 -29.97511 
L 45.936993 -29.935097 
L 47.284634 -29.861772 
L 48.632276 -29.840383 
L 49.979917 -29.88716 
L 51.327559 -29.82304 
L 52.6752 -29.611316 
L 54.022841 -29.364972 
L 55.370483 -29.055263 
L 56.718124 -28.802216 
L 58.065766 -28.483305 
L 59.413407 -28.311321 
L 60.761048 -28.355966 
L 62.10869 -28.385294 
L 63.456331 -28.622113 
L 64.803972 -29.094638 
L 66.151614 -29.832318 
L 67.499255 -30.327491 
L 68.846897 -30.715095 
L 70.194538 -31.157441 
L 71.542179 -31.755885 
L 72.889821 -32.209943 
L 74.237462 -32.686723 
L 75.585103 -33.113166 
L 76.932745 -33.619726 
L 78.280386 -34.163433 
L 79.628028 -34.882215 
L 80.975669 -35.562754 
L 82.32331 -36.486277 
L 83.670952 -37.429535 
L 85.018593 -38.178403 
L 86.366234 -39.058778 
L 87.713876 -39.826129 
L 89.061517 -40.45291 
L 90.409159 -41.028845 
L 91.7568 -41.800562 
L 93.104441 -42.281113 
L 94.452083 -42.756653 
L 95.799724 -43.153148 
L 97.147366 -43.648024 
L 98.495007 -43.937032 
L 99.842648 -44.424528 
L 101.19029 -44.590348 
L 102.537931 -45.053483 
L 103.885572 -45.29903 
L 105.233214 -45.70878 
L 106.580855 -46.058608 
L 107.928497 -46.531107 
L 109.276138 -46.97052 
L 110.623779 -47.356326 
L 111.971421 -47.741182 
L 113.319062 -48.23957 
L 114.666703 -48.658207 
L 116.014345 -49.352545 
L 117.361986 -49.988328 
L 118.709628 -50.655098 
L 120.057269 -51.070344 
L 121.40491 -51.519195 
L 122.752552 -51.96291 
L 124.100193 -52.385789 
L 125.447834 -52.975657 
L 126.795476 -53.617297 
L 128.143117 -54.128997 
L 129.490759 -54.456538 
L 130.8384 -54.843753 
L 132.186041 -55.076171 
L 133.533683 -55.26742 
L 134.881324 -55.600723 
L 136.228966 -55.839285 
L 137.576607 -55.992739 
L 138.924248 -56.138971 
L 140.27189 -55.871177 
L 141.619531 -55.090119 
L 142.967172 -53.865745 
L 144.314814 -52.302257 
L 145.662455 -50.33315 
L 147.010097 -48.429943 
L 148.357738 -46.655543 
L 149.705379 -45.158454 
L 151.053021 -43.646357 
L 152.400662 -42.333616 
L 153.748303 -41.101087 
L 155.095945 -39.896769 
L 156.443586 -38.689245 
L 157.791228 -37.496636 
L 159.138869 -36.504392 
L 160.48651 -35.267396 
L 161.834152 -34.227776 
L 163.181793 -33.059145 
L 164.529434 -32.223305 
L 165.877076 -31.551413 
L 167.224717 -31.003397 
L 168.572359 -30.730887 
L 169.92 -30.286359 
L 169.92 -31.658685 
L 169.92 -31.658685 
L 168.572359 -32.138935 
L 167.224717 -32.515893 
L 165.877076 -33.12764 
L 164.529434 -33.89505 
L 163.181793 -34.778926 
L 161.834152 -35.9734 
L 160.48651 -37.074928 
L 159.138869 -38.334223 
L 157.791228 -39.427846 
L 156.443586 -40.649068 
L 155.095945 -41.881946 
L 153.748303 -43.136926 
L 152.400662 -44.445163 
L 151.053021 -45.763949 
L 149.705379 -47.295013 
L 148.357738 -48.832578 
L 147.010097 -50.60273 
L 145.662455 -52.520097 
L 144.314814 -54.5533 
L 142.967172 -56.149255 
L 141.619531 -57.409555 
L 140.27189 -58.23805 
L 138.924248 -58.486873 
L 137.576607 -58.413416 
L 136.228966 -58.208585 
L 134.881324 -57.947524 
L 133.533683 -57.621883 
L 132.186041 -57.418315 
L 130.8384 -57.17327 
L 129.490759 -56.76559 
L 128.143117 -56.393817 
L 126.795476 -55.822493 
L 125.447834 -55.159294 
L 124.100193 -54.518818 
L 122.752552 -54.048574 
L 121.40491 -53.584659 
L 120.057269 -53.115451 
L 118.709628 -52.680353 
L 117.361986 -51.949766 
L 116.014345 -51.359233 
L 114.666703 -50.705725 
L 113.319062 -50.225279 
L 111.971421 -49.745078 
L 110.623779 -49.356571 
L 109.276138 -48.999401 
L 107.928497 -48.566742 
L 106.580855 -48.079973 
L 105.233214 -47.719125 
L 103.885572 -47.36769 
L 102.537931 -47.117139 
L 101.19029 -46.706495 
L 99.842648 -46.499328 
L 98.495007 -46.013695 
L 97.147366 -45.751841 
L 95.799724 -45.294171 
L 94.452083 -44.885761 
L 93.104441 -44.43876 
L 91.7568 -43.940572 
L 90.409159 -43.222922 
L 89.061517 -42.620374 
L 87.713876 -41.927242 
L 86.366234 -41.176319 
L 85.018593 -40.219153 
L 83.670952 -39.398153 
L 82.32331 -38.360214 
L 80.975669 -37.368919 
L 79.628028 -36.513489 
L 78.280386 -35.742002 
L 76.932745 -35.08334 
L 75.585103 -34.506765 
L 74.237462 -34.018634 
L 72.889821 -33.511335 
L 71.542179 -32.998959 
L 70.194538 -32.402974 
L 68.846897 -31.942162 
L 67.499255 -31.552046 
L 66.151614 -31.091937 
L 64.803972 -30.374426 
L 63.456331 -29.959159 
L 62.10869 -29.80791 
L 60.761048 -29.884637 
L 59.413407 -29.958521 
L 58.065766 -30.222202 
L 56.718124 -30.619939 
L 55.370483 -30.928359 
L 54.022841 -31.352698 
L 52.6752 -31.642871 
L 51.327559 -31.881158 
L 49.979917 -32.017274 
L 48.632276 -31.952488 
L 47.284634 -32.018341 
L 45.936993 -32.079525 
L 44.589352 -32.111588 
L 43.24171 -32.295541 
L 41.894069 -32.397562 
L 40.546428 -32.544223 
L 39.198786 -32.605093 
L 37.851145 -32.741758 
L 36.503503 -32.773224 
L 35.155862 -32.872909 
L 33.808221 -32.945255 
L 32.460579 -32.89699 
L 31.112938 -32.938864 
L 29.765297 -33.033746 
L 28.417655 -33.278926 
L 27.070014 -33.615857 
L 25.722372 -34.314579 
L 24.374731 -35.404608 
L 23.02709 -36.342457 
L 21.679448 -36.921107 
L 20.331807 -37.365382 
L 18.984166 -37.540723 
L 17.636524 -37.686016 
L 16.288883 -37.688067 
L 14.941241 -37.679555 
L 13.5936 -37.712375 
z
" id="m7ca162e4ea" style="stroke:#d62728;stroke-opacity:0.2;stroke-width:0.5;"/>
    </defs>
    <g clip-path="url(#p64ea93d043)">
     <use style="fill:#d62728;fill-opacity:0.2;stroke:#d62728;stroke-opacity:0.2;stroke-width:0.5;" x="0" xlink:href="#m7ca162e4ea" y="64.08"/>
    </g>
   </g>
   <g id="PolyCollection_3">
    <defs>
     <path d="M 13.5936 -30.562398 
L 13.5936 -29.249599 
L 14.941241 -29.709423 
L 16.288883 -29.705487 
L 17.636524 -29.669174 
L 18.984166 -29.700033 
L 20.331807 -29.851891 
L 21.679448 -30.184715 
L 23.02709 -30.290445 
L 24.374731 -30.619186 
L 25.722372 -31.092295 
L 27.070014 -31.466462 
L 28.417655 -31.720594 
L 29.765297 -31.909863 
L 31.112938 -32.405479 
L 32.460579 -32.825087 
L 33.808221 -33.316562 
L 35.155862 -33.840044 
L 36.503503 -34.432262 
L 37.851145 -34.916247 
L 39.198786 -35.657334 
L 40.546428 -36.117923 
L 41.894069 -36.620456 
L 43.24171 -36.942917 
L 44.589352 -37.531174 
L 45.936993 -38.149623 
L 47.284634 -38.490625 
L 48.632276 -38.688786 
L 49.979917 -39.214248 
L 51.327559 -39.571502 
L 52.6752 -40.210532 
L 54.022841 -40.822767 
L 55.370483 -41.46207 
L 56.718124 -42.073336 
L 58.065766 -42.057229 
L 59.413407 -41.591058 
L 60.761048 -39.872153 
L 62.10869 -37.614995 
L 63.456331 -35.120131 
L 64.803972 -32.813394 
L 66.151614 -31.125821 
L 67.499255 -29.428583 
L 68.846897 -27.848946 
L 70.194538 -26.826209 
L 71.542179 -26.727334 
L 72.889821 -26.92077 
L 74.237462 -27.471926 
L 75.585103 -27.824728 
L 76.932745 -28.619772 
L 78.280386 -29.347768 
L 79.628028 -29.928154 
L 80.975669 -30.642249 
L 82.32331 -31.410159 
L 83.670952 -31.914537 
L 85.018593 -32.430161 
L 86.366234 -32.918312 
L 87.713876 -33.12351 
L 89.061517 -33.868272 
L 90.409159 -34.222228 
L 91.7568 -34.853667 
L 93.104441 -34.80362 
L 94.452083 -35.344689 
L 95.799724 -35.697717 
L 97.147366 -36.103049 
L 98.495007 -36.495216 
L 99.842648 -37.112759 
L 101.19029 -37.40347 
L 102.537931 -37.840749 
L 103.885572 -38.289971 
L 105.233214 -38.384794 
L 106.580855 -38.567621 
L 107.928497 -38.861548 
L 109.276138 -39.370449 
L 110.623779 -40.060764 
L 111.971421 -40.723581 
L 113.319062 -40.996645 
L 114.666703 -41.737848 
L 116.014345 -41.992735 
L 117.361986 -42.671612 
L 118.709628 -43.258264 
L 120.057269 -44.056647 
L 121.40491 -44.945619 
L 122.752552 -45.858405 
L 124.100193 -46.827282 
L 125.447834 -47.611123 
L 126.795476 -48.460648 
L 128.143117 -49.37142 
L 129.490759 -50.323549 
L 130.8384 -51.286457 
L 132.186041 -51.949711 
L 133.533683 -52.820756 
L 134.881324 -53.424247 
L 136.228966 -53.980923 
L 137.576607 -54.444654 
L 138.924248 -55.027326 
L 140.27189 -55.728562 
L 141.619531 -56.117331 
L 142.967172 -56.684936 
L 144.314814 -57.122692 
L 145.662455 -57.471928 
L 147.010097 -57.617129 
L 148.357738 -57.789299 
L 149.705379 -58.063008 
L 151.053021 -58.56261 
L 152.400662 -59.40518 
L 153.748303 -60.182479 
L 155.095945 -59.856191 
L 156.443586 -59.380754 
L 157.791228 -59.010424 
L 159.138869 -58.615532 
L 160.48651 -58.122893 
L 161.834152 -57.676694 
L 163.181793 -57.149617 
L 164.529434 -56.507108 
L 165.877076 -55.484582 
L 167.224717 -54.167672 
L 168.572359 -52.586217 
L 169.92 -50.51025 
L 169.92 -52.137157 
L 169.92 -52.137157 
L 168.572359 -54.187656 
L 167.224717 -55.778417 
L 165.877076 -57.14862 
L 164.529434 -58.125809 
L 163.181793 -58.745375 
L 161.834152 -59.194574 
L 160.48651 -59.574949 
L 159.138869 -60.08273 
L 157.791228 -60.47944 
L 156.443586 -60.783896 
L 155.095945 -61.241618 
L 153.748303 -61.593426 
L 152.400662 -60.819811 
L 151.053021 -59.924762 
L 149.705379 -59.397499 
L 148.357738 -59.139997 
L 147.010097 -58.963936 
L 145.662455 -58.830737 
L 144.314814 -58.466157 
L 142.967172 -58.074492 
L 141.619531 -57.480397 
L 140.27189 -57.096504 
L 138.924248 -56.410396 
L 137.576607 -55.784573 
L 136.228966 -55.327506 
L 134.881324 -54.790136 
L 133.533683 -54.193614 
L 132.186041 -53.319681 
L 130.8384 -52.66368 
L 129.490759 -51.670105 
L 128.143117 -50.707853 
L 126.795476 -49.826882 
L 125.447834 -48.967882 
L 124.100193 -48.194031 
L 122.752552 -47.244633 
L 121.40491 -46.338721 
L 120.057269 -45.45749 
L 118.709628 -44.679396 
L 117.361986 -44.103981 
L 116.014345 -43.442506 
L 114.666703 -43.172752 
L 113.319062 -42.418281 
L 111.971421 -42.106451 
L 110.623779 -41.495045 
L 109.276138 -40.75395 
L 107.928497 -40.301318 
L 106.580855 -39.973895 
L 105.233214 -39.805481 
L 103.885572 -39.694793 
L 102.537931 -39.250471 
L 101.19029 -38.770811 
L 99.842648 -38.503963 
L 98.495007 -37.89876 
L 97.147366 -37.479957 
L 95.799724 -37.042788 
L 94.452083 -36.668804 
L 93.104441 -36.115697 
L 91.7568 -36.160315 
L 90.409159 -35.511271 
L 89.061517 -35.165825 
L 87.713876 -34.389562 
L 86.366234 -34.166294 
L 85.018593 -33.652487 
L 83.670952 -33.115103 
L 82.32331 -32.615582 
L 80.975669 -31.865525 
L 79.628028 -31.123396 
L 78.280386 -30.550488 
L 76.932745 -29.820764 
L 75.585103 -29.010546 
L 74.237462 -28.687976 
L 72.889821 -28.145453 
L 71.542179 -27.968894 
L 70.194538 -28.100267 
L 68.846897 -29.178476 
L 67.499255 -30.805593 
L 66.151614 -32.543457 
L 64.803972 -34.246913 
L 63.456331 -36.54032 
L 62.10869 -39.040757 
L 60.761048 -41.277014 
L 59.413407 -42.963007 
L 58.065766 -43.399509 
L 56.718124 -43.429915 
L 55.370483 -42.812749 
L 54.022841 -42.163609 
L 52.6752 -41.562515 
L 51.327559 -40.921183 
L 49.979917 -40.520918 
L 48.632276 -40.028053 
L 47.284634 -39.800158 
L 45.936993 -39.4772 
L 44.589352 -38.886509 
L 43.24171 -38.332882 
L 41.894069 -38.01873 
L 40.546428 -37.522071 
L 39.198786 -37.090334 
L 37.851145 -36.34022 
L 36.503503 -35.820324 
L 35.155862 -35.221992 
L 33.808221 -34.715356 
L 32.460579 -34.232851 
L 31.112938 -33.823132 
L 29.765297 -33.318382 
L 28.417655 -33.065119 
L 27.070014 -32.777118 
L 25.722372 -32.430229 
L 24.374731 -31.923796 
L 23.02709 -31.631212 
L 21.679448 -31.52075 
L 20.331807 -31.163466 
L 18.984166 -31.030599 
L 17.636524 -30.991608 
L 16.288883 -31.048486 
L 14.941241 -31.052769 
L 13.5936 -30.562398 
z
" id="m238a544529" style="stroke:#17becf;stroke-opacity:0.2;stroke-width:0.5;"/>
    </defs>
    <g clip-path="url(#p64ea93d043)">
     <use style="fill:#17becf;fill-opacity:0.2;stroke:#17becf;stroke-opacity:0.2;stroke-width:0.5;" x="0" xlink:href="#m238a544529" y="64.08"/>
    </g>
   </g>
   <g id="PolyCollection_4">
    <defs>
     <path d="M 13.5936 -40.155225 
L 13.5936 -38.571022 
L 14.941241 -38.639005 
L 16.288883 -38.809043 
L 17.636524 -38.667536 
L 18.984166 -38.99163 
L 20.331807 -39.34767 
L 21.679448 -39.688233 
L 23.02709 -39.882457 
L 24.374731 -40.31128 
L 25.722372 -40.776988 
L 27.070014 -41.145801 
L 28.417655 -41.521414 
L 29.765297 -41.816611 
L 31.112938 -41.950478 
L 32.460579 -42.201711 
L 33.808221 -42.260804 
L 35.155862 -42.400032 
L 36.503503 -42.567515 
L 37.851145 -42.715904 
L 39.198786 -42.724435 
L 40.546428 -42.842723 
L 41.894069 -42.892028 
L 43.24171 -42.91802 
L 44.589352 -42.894326 
L 45.936993 -42.837207 
L 47.284634 -42.811972 
L 48.632276 -42.761671 
L 49.979917 -42.699614 
L 51.327559 -42.681311 
L 52.6752 -42.70003 
L 54.022841 -42.767073 
L 55.370483 -42.825821 
L 56.718124 -42.919939 
L 58.065766 -43.034877 
L 59.413407 -43.175151 
L 60.761048 -43.381497 
L 62.10869 -43.504347 
L 63.456331 -43.666292 
L 64.803972 -43.796194 
L 66.151614 -43.889456 
L 67.499255 -43.996302 
L 68.846897 -44.143444 
L 70.194538 -44.355878 
L 71.542179 -44.62798 
L 72.889821 -44.919749 
L 74.237462 -45.112573 
L 75.585103 -45.315395 
L 76.932745 -45.445083 
L 78.280386 -45.582925 
L 79.628028 -45.679829 
L 80.975669 -45.699784 
L 82.32331 -45.795254 
L 83.670952 -45.990274 
L 85.018593 -46.234537 
L 86.366234 -46.232635 
L 87.713876 -45.887361 
L 89.061517 -45.180051 
L 90.409159 -44.754916 
L 91.7568 -44.540113 
L 93.104441 -44.610665 
L 94.452083 -45.023907 
L 95.799724 -45.675003 
L 97.147366 -46.512728 
L 98.495007 -47.214082 
L 99.842648 -47.77882 
L 101.19029 -48.158442 
L 102.537931 -48.318168 
L 103.885572 -48.308738 
L 105.233214 -48.105752 
L 106.580855 -47.711818 
L 107.928497 -47.114275 
L 109.276138 -46.033555 
L 110.623779 -44.438587 
L 111.971421 -42.56161 
L 113.319062 -40.555566 
L 114.666703 -38.512126 
L 116.014345 -36.374656 
L 117.361986 -34.071212 
L 118.709628 -31.9055 
L 120.057269 -30.079291 
L 121.40491 -28.657383 
L 122.752552 -26.601467 
L 124.100193 -25.711814 
L 125.447834 -25.309501 
L 126.795476 -25.186152 
L 128.143117 -25.212964 
L 129.490759 -25.851373 
L 130.8384 -26.305122 
L 132.186041 -27.149287 
L 133.533683 -28.241609 
L 134.881324 -29.209169 
L 136.228966 -30.268742 
L 137.576607 -30.891367 
L 138.924248 -31.584787 
L 140.27189 -32.334155 
L 141.619531 -33.344358 
L 142.967172 -33.642558 
L 144.314814 -34.352359 
L 145.662455 -35.571738 
L 147.010097 -36.649731 
L 148.357738 -37.181186 
L 149.705379 -37.569117 
L 151.053021 -38.089949 
L 152.400662 -38.309589 
L 153.748303 -38.512212 
L 155.095945 -38.898221 
L 156.443586 -39.329539 
L 157.791228 -39.712138 
L 159.138869 -40.012309 
L 160.48651 -40.375681 
L 161.834152 -40.744959 
L 163.181793 -41.33473 
L 164.529434 -41.76688 
L 165.877076 -42.230111 
L 167.224717 -42.550037 
L 168.572359 -43.021827 
L 169.92 -43.4915 
L 169.92 -44.789376 
L 169.92 -44.789376 
L 168.572359 -44.337001 
L 167.224717 -43.909461 
L 165.877076 -43.575593 
L 164.529434 -43.128842 
L 163.181793 -42.684784 
L 161.834152 -42.093191 
L 160.48651 -41.73085 
L 159.138869 -41.349769 
L 157.791228 -41.055639 
L 156.443586 -40.654718 
L 155.095945 -40.206914 
L 153.748303 -39.822873 
L 152.400662 -39.605207 
L 151.053021 -39.314494 
L 149.705379 -38.808231 
L 148.357738 -38.438528 
L 147.010097 -37.877562 
L 145.662455 -36.833065 
L 144.314814 -35.640839 
L 142.967172 -34.93796 
L 141.619531 -34.643577 
L 140.27189 -33.684144 
L 138.924248 -32.945073 
L 137.576607 -32.266267 
L 136.228966 -31.651879 
L 134.881324 -30.609148 
L 133.533683 -29.634013 
L 132.186041 -28.527897 
L 130.8384 -27.663553 
L 129.490759 -27.200029 
L 128.143117 -26.598676 
L 126.795476 -26.612355 
L 125.447834 -26.85082 
L 124.100193 -27.230686 
L 122.752552 -28.207526 
L 121.40491 -30.300658 
L 120.057269 -31.784223 
L 118.709628 -33.647961 
L 117.361986 -35.832887 
L 116.014345 -38.118838 
L 114.666703 -40.367628 
L 113.319062 -42.349943 
L 111.971421 -44.36803 
L 110.623779 -46.209588 
L 109.276138 -47.79309 
L 107.928497 -48.822132 
L 106.580855 -49.386918 
L 105.233214 -49.752548 
L 103.885572 -49.949538 
L 102.537931 -49.935249 
L 101.19029 -49.76253 
L 99.842648 -49.39946 
L 98.495007 -48.843667 
L 97.147366 -48.117712 
L 95.799724 -47.234079 
L 94.452083 -46.553538 
L 93.104441 -46.053932 
L 91.7568 -45.93605 
L 90.409159 -46.119084 
L 89.061517 -46.517258 
L 87.713876 -47.12485 
L 86.366234 -47.439824 
L 85.018593 -47.428556 
L 83.670952 -47.178752 
L 82.32331 -46.97953 
L 80.975669 -46.850288 
L 79.628028 -46.812333 
L 78.280386 -46.697983 
L 76.932745 -46.555186 
L 75.585103 -46.39996 
L 74.237462 -46.219107 
L 72.889821 -46.012171 
L 71.542179 -45.731287 
L 70.194538 -45.46558 
L 68.846897 -45.251062 
L 67.499255 -45.139856 
L 66.151614 -45.053974 
L 64.803972 -44.985469 
L 63.456331 -44.888489 
L 62.10869 -44.752385 
L 60.761048 -44.64114 
L 59.413407 -44.456605 
L 58.065766 -44.355352 
L 56.718124 -44.229439 
L 55.370483 -44.170561 
L 54.022841 -44.126406 
L 52.6752 -44.086578 
L 51.327559 -44.064924 
L 49.979917 -44.093509 
L 48.632276 -44.175697 
L 47.284634 -44.252278 
L 45.936993 -44.311151 
L 44.589352 -44.355705 
L 43.24171 -44.372022 
L 41.894069 -44.370302 
L 40.546428 -44.32015 
L 39.198786 -44.259789 
L 37.851145 -44.223858 
L 36.503503 -44.105127 
L 35.155862 -43.937793 
L 33.808221 -43.78622 
L 32.460579 -43.755992 
L 31.112938 -43.513349 
L 29.765297 -43.393626 
L 28.417655 -43.117113 
L 27.070014 -42.743426 
L 25.722372 -42.367792 
L 24.374731 -41.87115 
L 23.02709 -41.471896 
L 21.679448 -41.267884 
L 20.331807 -40.967765 
L 18.984166 -40.555421 
L 17.636524 -40.243598 
L 16.288883 -40.392886 
L 14.941241 -40.209521 
L 13.5936 -40.155225 
z
" id="m7fdef23a7a" style="stroke:#bcbd22;stroke-opacity:0.2;stroke-width:0.5;"/>
    </defs>
    <g clip-path="url(#p64ea93d043)">
     <use style="fill:#bcbd22;fill-opacity:0.2;stroke:#bcbd22;stroke-opacity:0.2;stroke-width:0.5;" x="0" xlink:href="#m7fdef23a7a" y="64.08"/>
    </g>
   </g>
   <g id="line2d_1">
    <path clip-path="url(#p64ea93d043)" d="M 13.5936 27.088643 
L 14.941241 27.271998 
L 16.288883 27.414017 
L 17.636524 27.593799 
L 18.984166 27.554811 
L 20.331807 27.529133 
L 21.679448 27.306908 
L 23.02709 27.118997 
L 24.374731 26.644708 
L 25.722372 25.882268 
L 27.070014 25.350218 
L 28.417655 25.048428 
L 29.765297 24.80175 
L 31.112938 24.730227 
L 32.460579 24.699311 
L 33.808221 24.820918 
L 35.155862 24.811532 
L 36.503503 24.79307 
L 37.851145 24.691876 
L 39.198786 24.549589 
L 40.546428 24.365067 
L 41.894069 24.131686 
L 43.24171 23.995983 
L 44.589352 23.795378 
L 45.936993 23.778078 
L 47.284634 23.776824 
L 48.632276 23.795156 
L 49.979917 23.858853 
L 51.327559 23.771707 
L 52.6752 23.644931 
L 54.022841 23.493661 
L 55.370483 23.278437 
L 56.718124 23.106991 
L 58.065766 22.776463 
L 59.413407 22.510616 
L 60.761048 22.097271 
L 62.10869 21.512716 
L 63.456331 20.763877 
L 64.803972 19.813352 
L 66.151614 18.755037 
L 67.499255 17.663031 
L 68.846897 16.494621 
L 70.194538 15.528256 
L 71.542179 14.958163 
L 72.889821 14.534837 
L 74.237462 14.214349 
L 75.585103 14.15151 
L 76.932745 14.330924 
L 78.280386 14.805482 
L 79.628028 15.435766 
L 80.975669 16.408337 
L 82.32331 17.807109 
L 83.670952 19.237856 
L 85.018593 20.750781 
L 86.366234 22.555575 
L 87.713876 23.970805 
L 89.061517 25.255101 
L 90.409159 26.270605 
L 91.7568 27.615568 
L 93.104441 28.377095 
L 94.452083 29.1056 
L 95.799724 29.658772 
L 97.147366 30.306355 
L 98.495007 30.849707 
L 99.842648 31.722785 
L 101.19029 31.93155 
L 102.537931 32.335775 
L 103.885572 32.676271 
L 105.233214 32.899171 
L 106.580855 33.187785 
L 107.928497 33.374055 
L 109.276138 33.565212 
L 110.623779 33.710871 
L 111.971421 33.884504 
L 113.319062 34.040712 
L 114.666703 34.635039 
L 116.014345 35.319636 
L 117.361986 35.75294 
L 118.709628 36.110719 
L 120.057269 36.193886 
L 121.40491 36.084319 
L 122.752552 35.658131 
L 124.100193 35.190987 
L 125.447834 34.605761 
L 126.795476 34.031712 
L 128.143117 33.361469 
L 129.490759 33.005035 
L 130.8384 32.715627 
L 132.186041 32.312102 
L 133.533683 32.058121 
L 134.881324 31.680688 
L 136.228966 31.072291 
L 137.576607 29.815671 
L 138.924248 28.967323 
L 140.27189 28.859965 
L 141.619531 28.955473 
L 142.967172 29.294064 
L 144.314814 29.664474 
L 145.662455 29.975581 
L 147.010097 29.824021 
L 148.357738 29.157388 
L 149.705379 28.109039 
L 151.053021 26.685684 
L 152.400662 25.611183 
L 153.748303 24.607624 
L 155.095945 23.475284 
L 156.443586 22.382965 
L 157.791228 21.259119 
L 159.138869 20.230499 
L 160.48651 19.111162 
L 161.834152 18.072684 
L 163.181793 16.956158 
L 164.529434 16.174723 
L 165.877076 15.34257 
L 167.224717 14.537774 
L 168.572359 13.858254 
L 169.92 13.016176 
" style="fill:none;stroke:#9467bd;stroke-linecap:square;stroke-width:0.5;"/>
   </g>
   <g id="line2d_2">
    <path clip-path="url(#p64ea93d043)" d="M 13.5936 27.37728 
L 14.941241 27.398265 
L 16.288883 27.403302 
L 17.636524 27.408297 
L 18.984166 27.563316 
L 20.331807 27.718777 
L 21.679448 28.165656 
L 23.02709 28.73182 
L 24.374731 29.674475 
L 25.722372 30.790327 
L 27.070014 31.468597 
L 28.417655 31.811772 
L 29.765297 32.067186 
L 31.112938 32.167308 
L 32.460579 32.220908 
L 33.808221 32.162518 
L 35.155862 32.210765 
L 36.503503 32.353088 
L 37.851145 32.442829 
L 39.198786 32.532463 
L 40.546428 32.632163 
L 41.894069 32.769894 
L 43.24171 32.851837 
L 44.589352 33.036651 
L 45.936993 33.072689 
L 47.284634 33.139944 
L 48.632276 33.183564 
L 49.979917 33.127783 
L 51.327559 33.227901 
L 52.6752 33.452907 
L 54.022841 33.721165 
L 55.370483 34.088189 
L 56.718124 34.368923 
L 58.065766 34.727247 
L 59.413407 34.945079 
L 60.761048 34.959698 
L 62.10869 34.983398 
L 63.456331 34.789364 
L 64.803972 34.345468 
L 66.151614 33.617872 
L 67.499255 33.140232 
L 68.846897 32.751371 
L 70.194538 32.299793 
L 71.542179 31.702578 
L 72.889821 31.219361 
L 74.237462 30.727321 
L 75.585103 30.270035 
L 76.932745 29.728467 
L 78.280386 29.127283 
L 79.628028 28.382148 
L 80.975669 27.614164 
L 82.32331 26.656754 
L 83.670952 25.666156 
L 85.018593 24.881222 
L 86.366234 23.962451 
L 87.713876 23.203314 
L 89.061517 22.543358 
L 90.409159 21.954117 
L 91.7568 21.209433 
L 93.104441 20.720063 
L 94.452083 20.258793 
L 95.799724 19.856341 
L 97.147366 19.380067 
L 98.495007 19.104636 
L 99.842648 18.618072 
L 101.19029 18.431578 
L 102.537931 17.994689 
L 103.885572 17.74664 
L 105.233214 17.366048 
L 106.580855 17.010709 
L 107.928497 16.531075 
L 109.276138 16.095039 
L 110.623779 15.723551 
L 111.971421 15.33687 
L 113.319062 14.847576 
L 114.666703 14.398034 
L 116.014345 13.724111 
L 117.361986 13.110953 
L 118.709628 12.412275 
L 120.057269 11.987102 
L 121.40491 11.528073 
L 122.752552 11.074258 
L 124.100193 10.627696 
L 125.447834 10.012524 
L 126.795476 9.360105 
L 128.143117 8.818593 
L 129.490759 8.468936 
L 130.8384 8.071488 
L 132.186041 7.832757 
L 133.533683 7.635349 
L 134.881324 7.305876 
L 136.228966 7.056065 
L 137.576607 6.876922 
L 138.924248 6.767078 
L 140.27189 7.025387 
L 141.619531 7.830163 
L 142.967172 9.0725 
L 144.314814 10.652222 
L 145.662455 12.653376 
L 147.010097 14.563663 
L 148.357738 16.33594 
L 149.705379 17.853267 
L 151.053021 19.374847 
L 152.400662 20.690611 
L 153.748303 21.960993 
L 155.095945 23.190643 
L 156.443586 24.410844 
L 157.791228 25.617759 
L 159.138869 26.660692 
L 160.48651 27.908838 
L 161.834152 28.979412 
L 163.181793 30.160964 
L 164.529434 31.020822 
L 165.877076 31.740474 
L 167.224717 32.320355 
L 168.572359 32.645089 
L 169.92 33.107478 
" style="fill:none;stroke:#d62728;stroke-linecap:square;stroke-width:0.5;"/>
   </g>
   <g id="line2d_3">
    <path clip-path="url(#p64ea93d043)" d="M 13.5936 34.174001 
L 14.941241 33.698904 
L 16.288883 33.703014 
L 17.636524 33.749609 
L 18.984166 33.714684 
L 20.331807 33.572321 
L 21.679448 33.227268 
L 23.02709 33.119171 
L 24.374731 32.808509 
L 25.722372 32.318738 
L 27.070014 31.95821 
L 28.417655 31.687143 
L 29.765297 31.465877 
L 31.112938 30.965695 
L 32.460579 30.551031 
L 33.808221 30.064041 
L 35.155862 29.548982 
L 36.503503 28.953707 
L 37.851145 28.451766 
L 39.198786 27.706166 
L 40.546428 27.260003 
L 41.894069 26.760407 
L 43.24171 26.4421 
L 44.589352 25.871159 
L 45.936993 25.266588 
L 47.284634 24.934608 
L 48.632276 24.721581 
L 49.979917 24.212417 
L 51.327559 23.833658 
L 52.6752 23.193476 
L 54.022841 22.586812 
L 55.370483 21.94259 
L 56.718124 21.328374 
L 58.065766 21.351631 
L 59.413407 21.802968 
L 60.761048 23.505416 
L 62.10869 25.752124 
L 63.456331 28.249774 
L 64.803972 30.549846 
L 66.151614 32.245361 
L 67.499255 33.962912 
L 68.846897 35.566289 
L 70.194538 36.616762 
L 71.542179 36.731886 
L 72.889821 36.546888 
L 74.237462 36.000049 
L 75.585103 35.662363 
L 76.932745 34.859732 
L 78.280386 34.130872 
L 79.628028 33.554225 
L 80.975669 32.826113 
L 82.32331 32.067129 
L 83.670952 31.56518 
L 85.018593 31.038676 
L 86.366234 30.537697 
L 87.713876 30.323464 
L 89.061517 29.562951 
L 90.409159 29.213251 
L 91.7568 28.573009 
L 93.104441 28.620341 
L 94.452083 28.073253 
L 95.799724 27.709747 
L 97.147366 27.288497 
L 98.495007 26.883012 
L 99.842648 26.271639 
L 101.19029 25.99286 
L 102.537931 25.53439 
L 103.885572 25.087618 
L 105.233214 24.984863 
L 106.580855 24.809242 
L 107.928497 24.498567 
L 109.276138 24.0178 
L 110.623779 23.302095 
L 111.971421 22.664984 
L 113.319062 22.372537 
L 114.666703 21.6247 
L 116.014345 21.36238 
L 117.361986 20.692204 
L 118.709628 20.11117 
L 120.057269 19.322931 
L 121.40491 18.43783 
L 122.752552 17.528481 
L 124.100193 16.569344 
L 125.447834 15.790497 
L 126.795476 14.936235 
L 128.143117 14.040364 
L 129.490759 13.083173 
L 130.8384 12.104931 
L 132.186041 11.445304 
L 133.533683 10.572815 
L 134.881324 9.972808 
L 136.228966 9.425785 
L 137.576607 8.965387 
L 138.924248 8.361139 
L 140.27189 7.667467 
L 141.619531 7.281136 
L 142.967172 6.700286 
L 144.314814 6.285576 
L 145.662455 5.928668 
L 147.010097 5.789468 
L 148.357738 5.615352 
L 149.705379 5.349747 
L 151.053021 4.836314 
L 152.400662 3.967505 
L 153.748303 3.192047 
L 155.095945 3.531096 
L 156.443586 3.997675 
L 157.791228 4.335068 
L 159.138869 4.730869 
L 160.48651 5.231079 
L 161.834152 5.644366 
L 163.181793 6.132504 
L 164.529434 6.763541 
L 165.877076 7.763399 
L 167.224717 9.106956 
L 168.572359 10.693064 
L 169.92 12.756296 
" style="fill:none;stroke:#17becf;stroke-linecap:square;stroke-width:0.5;"/>
   </g>
   <g id="line2d_4">
    <path clip-path="url(#p64ea93d043)" d="M 13.5936 24.716876 
L 14.941241 24.655737 
L 16.288883 24.479036 
L 17.636524 24.624433 
L 18.984166 24.306475 
L 20.331807 23.922283 
L 21.679448 23.601941 
L 23.02709 23.402824 
L 24.374731 22.988785 
L 25.722372 22.50761 
L 27.070014 22.135387 
L 28.417655 21.760737 
L 29.765297 21.474882 
L 31.112938 21.348087 
L 32.460579 21.101148 
L 33.808221 21.056488 
L 35.155862 20.911087 
L 36.503503 20.743679 
L 37.851145 20.610119 
L 39.198786 20.587888 
L 40.546428 20.498563 
L 41.894069 20.448835 
L 43.24171 20.434979 
L 44.589352 20.454985 
L 45.936993 20.505821 
L 47.284634 20.547875 
L 48.632276 20.611316 
L 49.979917 20.683438 
L 51.327559 20.706883 
L 52.6752 20.686696 
L 54.022841 20.63326 
L 55.370483 20.581809 
L 56.718124 20.505311 
L 58.065766 20.384886 
L 59.413407 20.264122 
L 60.761048 20.068681 
L 62.10869 19.951634 
L 63.456331 19.80261 
L 64.803972 19.689169 
L 66.151614 19.608285 
L 67.499255 19.511921 
L 68.846897 19.382747 
L 70.194538 19.169271 
L 71.542179 18.900366 
L 72.889821 18.61404 
L 74.237462 18.41416 
L 75.585103 18.222323 
L 76.932745 18.079866 
L 78.280386 17.939546 
L 79.628028 17.833919 
L 80.975669 17.804964 
L 82.32331 17.692608 
L 83.670952 17.495487 
L 85.018593 17.248454 
L 86.366234 17.24377 
L 87.713876 17.573895 
L 89.061517 18.231345 
L 90.409159 18.643 
L 91.7568 18.841919 
L 93.104441 18.747701 
L 94.452083 18.291277 
L 95.799724 17.625459 
L 97.147366 16.76478 
L 98.495007 16.051126 
L 99.842648 15.49086 
L 101.19029 15.119514 
L 102.537931 14.953292 
L 103.885572 14.950862 
L 105.233214 15.15085 
L 106.580855 15.530632 
L 107.928497 16.111797 
L 109.276138 17.166677 
L 110.623779 18.755912 
L 111.971421 20.61518 
L 113.319062 22.627246 
L 114.666703 24.640123 
L 116.014345 26.833253 
L 117.361986 29.12795 
L 118.709628 31.303269 
L 120.057269 33.148243 
L 121.40491 34.60098 
L 122.752552 36.675504 
L 124.100193 37.60875 
L 125.447834 37.999839 
L 126.795476 38.180747 
L 128.143117 38.17418 
L 129.490759 37.554299 
L 130.8384 37.095663 
L 132.186041 36.241408 
L 133.533683 35.142189 
L 134.881324 34.170841 
L 136.228966 33.11969 
L 137.576607 32.501183 
L 138.924248 31.81507 
L 140.27189 31.07085 
L 141.619531 30.086032 
L 142.967172 29.789741 
L 144.314814 29.083401 
L 145.662455 27.877599 
L 147.010097 26.816353 
L 148.357738 26.270143 
L 149.705379 25.891326 
L 151.053021 25.377779 
L 152.400662 25.122602 
L 153.748303 24.912457 
L 155.095945 24.527433 
L 156.443586 24.087871 
L 157.791228 23.696111 
L 159.138869 23.398961 
L 160.48651 23.026734 
L 161.834152 22.660925 
L 163.181793 22.070243 
L 164.529434 21.632139 
L 165.877076 21.177148 
L 167.224717 20.850251 
L 168.572359 20.400586 
L 169.92 19.939562 
" style="fill:none;stroke:#bcbd22;stroke-linecap:square;stroke-width:0.5;"/>
   </g>
   <g id="line2d_5">
    <path clip-path="url(#p64ea93d043)" d="M 15.156864 55.826496 
L 41.570635 55.826496 
" style="fill:none;stroke:#000000;stroke-linecap:square;stroke-width:1.25;"/>
   </g>
   <g id="line2d_6">
    <path clip-path="url(#p64ea93d043)" d="M 15.156864 55.826496 
L 15.156864 38.229242 
" style="fill:none;stroke:#000000;stroke-linecap:square;stroke-width:1.25;"/>
   </g>
   <g id="text_1">
    <text style="font-family:DejaVu Sans;font-size:6px;font-stretch:normal;font-style:normal;font-weight:normal;text-anchor:middle;" transform="rotate(-0, 28.36375, 63.205078)" x="28.36375" y="63.205078">100 ms</text>
   </g>
   <g id="text_2">
    <text style="font-family:DejaVu Sans;font-size:6px;font-stretch:normal;font-style:normal;font-weight:normal;" transform="translate(6.092731 57.453807)rotate(-90)">40 deg</text>
   </g>
   <g id="legend_1">
    <g id="line2d_7">
     <path d="M 100.336875 7.859063 
L 112.336875 7.859063 
" style="fill:none;stroke:#9467bd;stroke-linecap:square;stroke-width:0.5;"/>
    </g>
    <g id="line2d_8"/>
    <g id="text_3">
     <text style="font-family:DejaVu Sans;font-size:6px;font-stretch:normal;font-style:normal;font-weight:normal;text-anchor:start;" transform="rotate(-0, 117.136875, 9.959063)" x="117.136875" y="9.959063">left wrist joint</text>
    </g>
    <g id="line2d_9">
     <path d="M 100.336875 16.665938 
L 112.336875 16.665938 
" style="fill:none;stroke:#d62728;stroke-linecap:square;stroke-width:0.5;"/>
    </g>
    <g id="line2d_10"/>
    <g id="text_4">
     <text style="font-family:DejaVu Sans;font-size:6px;font-stretch:normal;font-style:normal;font-weight:normal;text-anchor:start;" transform="rotate(-0, 117.136875, 18.765938)" x="117.136875" y="18.765938">right wrist joint</text>
    </g>
    <g id="line2d_11">
     <path d="M 100.336875 25.472812 
L 112.336875 25.472812 
" style="fill:none;stroke:#17becf;stroke-linecap:square;stroke-width:0.5;"/>
    </g>
    <g id="line2d_12"/>
    <g id="text_5">
     <text style="font-family:DejaVu Sans;font-size:6px;font-stretch:normal;font-style:normal;font-weight:normal;text-anchor:start;" transform="rotate(-0, 117.136875, 27.572812)" x="117.136875" y="27.572812">left ankle joint</text>
    </g>
    <g id="line2d_13">
     <path d="M 100.336875 34.279688 
L 112.336875 34.279688 
" style="fill:none;stroke:#bcbd22;stroke-linecap:square;stroke-width:0.5;"/>
    </g>
    <g id="line2d_14"/>
    <g id="text_6">
     <text style="font-family:DejaVu Sans;font-size:6px;font-stretch:normal;font-style:normal;font-weight:normal;text-anchor:start;" transform="rotate(-0, 117.136875, 36.379688)" x="117.136875" y="36.379688">right ankle joint</text>
    </g>
   </g>
  </g>
 </g>
 <defs>
  <clipPath id="p64ea93d043">
   <rect height="56.3904" width="156.3264" x="13.5936" y="0"/>
  </clipPath>
 </defs>
</svg>
