<?xml version="1.0" encoding="utf-8" standalone="no"?>
<!DOCTYPE svg PUBLIC "-//W3C//DTD SVG 1.1//EN"
  "http://www.w3.org/Graphics/SVG/1.1/DTD/svg11.dtd">
<!-- Created with matplotlib (https://matplotlib.org/) -->
<svg height="64.08pt" version="1.1" viewBox="0 0 169.92 64.08" width="169.92pt" xmlns="http://www.w3.org/2000/svg" xmlns:xlink="http://www.w3.org/1999/xlink">
 <metadata>
  <rdf:RDF xmlns:cc="http://creativecommons.org/ns#" xmlns:dc="http://purl.org/dc/elements/1.1/" xmlns:rdf="http://www.w3.org/1999/02/22-rdf-syntax-ns#">
   <cc:Work>
    <dc:type rdf:resource="http://purl.org/dc/dcmitype/StillImage"/>
    <dc:date>2022-04-01T08:06:38.684227</dc:date>
    <dc:format>image/svg+xml</dc:format>
    <dc:creator>
     <cc:Agent>
      <dc:title>Matplotlib v3.3.1, https://matplotlib.org/</dc:title>
     </cc:Agent>
    </dc:creator>
   </cc:Work>
  </rdf:RDF>
 </metadata>
 <defs>
  <style type="text/css">*{stroke-linecap:butt;stroke-linejoin:round;}</style>
 </defs>
 <g id="figure_1">
  <g id="patch_1">
   <path d="M 0 64.08 
L 169.92 64.08 
L 169.92 0 
L 0 0 
z
" style="fill:none;"/>
  </g>
  <g id="axes_1">
   <g id="PolyCollection_1">
    <defs>
     <path d="M 13.5936 -32.926697 
L 13.5936 -32.200373 
L 14.941241 -32.341152 
L 16.288883 -32.453752 
L 17.636524 -32.593599 
L 18.984166 -32.61194 
L 20.331807 -32.624369 
L 21.679448 -32.51099 
L 23.02709 -32.435758 
L 24.374731 -32.207113 
L 25.722372 -31.847283 
L 27.070014 -31.615746 
L 28.417655 -31.458643 
L 29.765297 -31.286792 
L 31.112938 -31.190459 
L 32.460579 -31.059318 
L 33.808221 -31.05551 
L 35.155862 -31.009846 
L 36.503503 -30.96735 
L 37.851145 -30.856576 
L 39.198786 -30.743052 
L 40.546428 -30.535098 
L 41.894069 -30.288747 
L 43.24171 -30.022283 
L 44.589352 -29.685486 
L 45.936993 -29.427682 
L 47.284634 -29.153802 
L 48.632276 -28.892044 
L 49.979917 -28.651177 
L 51.327559 -28.340213 
L 52.6752 -28.051285 
L 54.022841 -27.816559 
L 55.370483 -27.573255 
L 56.718124 -27.435364 
L 58.065766 -27.157847 
L 59.413407 -26.932206 
L 60.761048 -26.619941 
L 62.10869 -26.195484 
L 63.456331 -25.638595 
L 64.803972 -24.926464 
L 66.151614 -24.200285 
L 67.499255 -23.485351 
L 68.846897 -22.748944 
L 70.194538 -22.166166 
L 71.542179 -21.866604 
L 72.889821 -21.64309 
L 74.237462 -21.507167 
L 75.585103 -21.521641 
L 76.932745 -21.665993 
L 78.280386 -21.962502 
L 79.628028 -22.317318 
L 80.975669 -22.855338 
L 82.32331 -23.65404 
L 83.670952 -24.504098 
L 85.018593 -25.461326 
L 86.366234 -26.679677 
L 87.713876 -27.677709 
L 89.061517 -28.602879 
L 90.409159 -29.332816 
L 91.7568 -30.304761 
L 93.104441 -30.789438 
L 94.452083 -31.216788 
L 95.799724 -31.533118 
L 97.147366 -31.95313 
L 98.495007 -32.39182 
L 99.842648 -33.093652 
L 101.19029 -33.114014 
L 102.537931 -33.32798 
L 103.885572 -33.564471 
L 105.233214 -33.715981 
L 106.580855 -33.936699 
L 107.928497 -34.101456 
L 109.276138 -34.357684 
L 110.623779 -34.625372 
L 111.971421 -34.946962 
L 113.319062 -35.262059 
L 114.666703 -35.872673 
L 116.014345 -36.596299 
L 117.361986 -37.140732 
L 118.709628 -37.60433 
L 120.057269 -37.910054 
L 121.40491 -38.186393 
L 122.752552 -38.429628 
L 124.100193 -38.71069 
L 125.447834 -38.960791 
L 126.795476 -39.243417 
L 128.143117 -39.50507 
L 129.490759 -39.839551 
L 130.8384 -40.263673 
L 132.186041 -40.507892 
L 133.533683 -40.793023 
L 134.881324 -40.967369 
L 136.228966 -40.937181 
L 137.576607 -40.488505 
L 138.924248 -40.152058 
L 140.27189 -40.029645 
L 141.619531 -39.819008 
L 142.967172 -39.635705 
L 144.314814 -39.383695 
L 145.662455 -38.922007 
L 147.010097 -38.242431 
L 148.357738 -37.443607 
L 149.705379 -36.645381 
L 151.053021 -35.674881 
L 152.400662 -34.961219 
L 153.748303 -34.323924 
L 155.095945 -33.584105 
L 156.443586 -32.863413 
L 157.791228 -32.172124 
L 159.138869 -31.552415 
L 160.48651 -30.882197 
L 161.834152 -30.225086 
L 163.181793 -29.485749 
L 164.529434 -28.924261 
L 165.877076 -28.2641 
L 167.224717 -27.606224 
L 168.572359 -27.045615 
L 169.92 -26.364895 
L 169.92 -27.054344 
L 169.92 -27.054344 
L 168.572359 -27.760323 
L 167.224717 -28.325843 
L 165.877076 -28.992816 
L 164.529434 -29.658638 
L 163.181793 -30.19733 
L 161.834152 -30.947284 
L 160.48651 -31.611628 
L 159.138869 -32.309119 
L 157.791228 -32.934251 
L 156.443586 -33.620305 
L 155.095945 -34.298678 
L 153.748303 -35.0528 
L 152.400662 -35.681524 
L 151.053021 -36.364108 
L 149.705379 -37.306907 
L 148.357738 -38.095779 
L 147.010097 -38.854095 
L 145.662455 -39.495026 
L 144.314814 -39.945415 
L 142.967172 -40.189992 
L 141.619531 -40.368833 
L 140.27189 -40.560878 
L 138.924248 -40.686905 
L 137.576607 -41.010402 
L 136.228966 -41.419697 
L 134.881324 -41.437125 
L 133.533683 -41.262432 
L 132.186041 -40.984901 
L 130.8384 -40.729374 
L 129.490759 -40.326006 
L 128.143117 -40.010456 
L 126.795476 -39.759312 
L 125.447834 -39.493835 
L 124.100193 -39.249046 
L 122.752552 -38.990055 
L 121.40491 -38.756085 
L 120.057269 -38.501703 
L 118.709628 -38.22307 
L 117.361986 -37.805511 
L 116.014345 -37.281513 
L 114.666703 -36.638673 
L 113.319062 -36.058071 
L 111.971421 -35.751357 
L 110.623779 -35.435088 
L 109.276138 -35.163206 
L 107.928497 -34.913839 
L 106.580855 -34.738141 
L 105.233214 -34.508 
L 103.885572 -34.364359 
L 102.537931 -34.121847 
L 101.19029 -33.903595 
L 99.842648 -33.867128 
L 98.495007 -33.192728 
L 97.147366 -32.766538 
L 95.799724 -32.355925 
L 94.452083 -32.023883 
L 93.104441 -31.604511 
L 91.7568 -31.12193 
L 90.409159 -30.161743 
L 89.061517 -29.452283 
L 87.713876 -28.551122 
L 86.366234 -27.531085 
L 85.018593 -26.320524 
L 83.670952 -25.377944 
L 82.32331 -24.527462 
L 80.975669 -23.67586 
L 79.628028 -23.087787 
L 78.280386 -22.707476 
L 76.932745 -22.403145 
L 75.585103 -22.260772 
L 74.237462 -22.234022 
L 72.889821 -22.398249 
L 71.542179 -22.617001 
L 70.194538 -22.932501 
L 68.846897 -23.529595 
L 67.499255 -24.27617 
L 66.151614 -24.992687 
L 64.803972 -25.725726 
L 63.456331 -26.437043 
L 62.10869 -27.004712 
L 60.761048 -27.424439 
L 59.413407 -27.749961 
L 58.065766 -27.967379 
L 56.718124 -28.265737 
L 55.370483 -28.400082 
L 54.022841 -28.656186 
L 52.6752 -28.878097 
L 51.327559 -29.187494 
L 49.979917 -29.503586 
L 48.632276 -29.745323 
L 47.284634 -30.002852 
L 45.936993 -30.286067 
L 44.589352 -30.520734 
L 43.24171 -30.893735 
L 41.894069 -31.152457 
L 40.546428 -31.386921 
L 39.198786 -31.575993 
L 37.851145 -31.693482 
L 36.503503 -31.799325 
L 35.155862 -31.859794 
L 33.808221 -31.904306 
L 32.460579 -31.938358 
L 31.112938 -32.045332 
L 29.765297 -32.146836 
L 28.417655 -32.299185 
L 27.070014 -32.431247 
L 25.722372 -32.658497 
L 24.374731 -33.022541 
L 23.02709 -33.248703 
L 21.679448 -33.312691 
L 20.331807 -33.427099 
L 18.984166 -33.398829 
L 17.636524 -33.386789 
L 16.288883 -33.243876 
L 14.941241 -33.108331 
L 13.5936 -32.926697 
z
" id="mc87aba2664" style="stroke:#9467bd;stroke-opacity:0.2;stroke-width:0.5;"/>
    </defs>
    <g clip-path="url(#p2b1232a5ed)">
     <use style="fill:#9467bd;fill-opacity:0.2;stroke:#9467bd;stroke-opacity:0.2;stroke-width:0.5;" x="0" xlink:href="#mc87aba2664" y="64.08"/>
    </g>
   </g>
   <g id="PolyCollection_2">
    <defs>
     <path d="M 13.5936 -31.038326 
L 13.5936 -30.342931 
L 14.941241 -30.39018 
L 16.288883 -30.445066 
L 17.636524 -30.510944 
L 18.984166 -30.679945 
L 20.331807 -30.862137 
L 21.679448 -31.276391 
L 23.02709 -31.808853 
L 24.374731 -32.704433 
L 25.722372 -33.812052 
L 27.070014 -34.557317 
L 28.417655 -34.912082 
L 29.765297 -35.09693 
L 31.112938 -35.112741 
L 32.460579 -35.139139 
L 33.808221 -35.141634 
L 35.155862 -35.207166 
L 36.503503 -35.368794 
L 37.851145 -35.469855 
L 39.198786 -35.67531 
L 40.546428 -35.828772 
L 41.894069 -36.083132 
L 43.24171 -36.25797 
L 44.589352 -36.581401 
L 45.936993 -36.741863 
L 47.284634 -36.860129 
L 48.632276 -36.956385 
L 49.979917 -37.032831 
L 51.327559 -37.130079 
L 52.6752 -37.345872 
L 54.022841 -37.570491 
L 55.370483 -37.801113 
L 56.718124 -37.995104 
L 58.065766 -38.231996 
L 59.413407 -38.411116 
L 60.761048 -38.455587 
L 62.10869 -38.533976 
L 63.456331 -38.51935 
L 64.803972 -38.37307 
L 66.151614 -38.05673 
L 67.499255 -37.80435 
L 68.846897 -37.53209 
L 70.194538 -37.198094 
L 71.542179 -36.76608 
L 72.889821 -36.376692 
L 74.237462 -35.952301 
L 75.585103 -35.580626 
L 76.932745 -35.14567 
L 78.280386 -34.66783 
L 79.628028 -34.099529 
L 80.975669 -33.543431 
L 82.32331 -32.924385 
L 83.670952 -32.327768 
L 85.018593 -31.927139 
L 86.366234 -31.388061 
L 87.713876 -30.900666 
L 89.061517 -30.341379 
L 90.409159 -29.91279 
L 91.7568 -29.377652 
L 93.104441 -29.004374 
L 94.452083 -28.638118 
L 95.799724 -28.287203 
L 97.147366 -27.861224 
L 98.495007 -27.709415 
L 99.842648 -27.324977 
L 101.19029 -27.194748 
L 102.537931 -26.81812 
L 103.885572 -26.63716 
L 105.233214 -26.325424 
L 106.580855 -26.085736 
L 107.928497 -25.687963 
L 109.276138 -25.333801 
L 110.623779 -25.01119 
L 111.971421 -24.70998 
L 113.319062 -24.322553 
L 114.666703 -23.963306 
L 116.014345 -23.409873 
L 117.361986 -22.892145 
L 118.709628 -22.305037 
L 120.057269 -21.980442 
L 121.40491 -21.5888 
L 122.752552 -21.207886 
L 124.100193 -20.843437 
L 125.447834 -20.331847 
L 126.795476 -19.797033 
L 128.143117 -19.340955 
L 129.490759 -19.039004 
L 130.8384 -18.671114 
L 132.186041 -18.455416 
L 133.533683 -18.308284 
L 134.881324 -18.071786 
L 136.228966 -17.912299 
L 137.576607 -17.840439 
L 138.924248 -17.782845 
L 140.27189 -17.994732 
L 141.619531 -18.699756 
L 142.967172 -19.833359 
L 144.314814 -21.350499 
L 145.662455 -23.439365 
L 147.010097 -25.584859 
L 148.357738 -27.661865 
L 149.705379 -29.413046 
L 151.053021 -31.122028 
L 152.400662 -32.457451 
L 153.748303 -33.672568 
L 155.095945 -34.639485 
L 156.443586 -35.528107 
L 157.791228 -36.362288 
L 159.138869 -37.037174 
L 160.48651 -37.814646 
L 161.834152 -38.395691 
L 163.181793 -39.055671 
L 164.529434 -39.503399 
L 165.877076 -39.881349 
L 167.224717 -40.158575 
L 168.572359 -40.349681 
L 169.92 -40.587223 
L 169.92 -41.101005 
L 169.92 -41.101005 
L 168.572359 -40.876514 
L 167.224717 -40.729235 
L 165.877076 -40.448869 
L 164.529434 -40.105571 
L 163.181793 -39.660489 
L 161.834152 -39.029061 
L 160.48651 -38.474877 
L 159.138869 -37.709379 
L 157.791228 -37.090863 
L 156.443586 -36.252699 
L 155.095945 -35.410842 
L 153.748303 -34.489291 
L 152.400662 -33.349292 
L 151.053021 -31.96765 
L 149.705379 -30.298347 
L 148.357738 -28.56381 
L 147.010097 -26.486314 
L 145.662455 -24.356285 
L 144.314814 -22.25676 
L 142.967172 -20.708465 
L 141.619531 -19.533102 
L 140.27189 -18.819396 
L 138.924248 -18.58694 
L 137.576607 -18.654739 
L 136.228966 -18.727431 
L 134.881324 -18.889968 
L 133.533683 -19.129104 
L 132.186041 -19.302839 
L 130.8384 -19.489531 
L 129.490759 -19.837203 
L 128.143117 -20.149677 
L 126.795476 -20.603796 
L 125.447834 -21.151796 
L 124.100193 -21.671076 
L 122.752552 -22.033018 
L 121.40491 -22.403842 
L 120.057269 -22.783272 
L 118.709628 -23.106084 
L 117.361986 -23.688138 
L 116.014345 -24.191508 
L 114.666703 -24.772089 
L 113.319062 -25.129581 
L 111.971421 -25.521015 
L 110.623779 -25.828817 
L 109.276138 -26.142442 
L 107.928497 -26.490332 
L 106.580855 -26.895746 
L 105.233214 -27.145025 
L 103.885572 -27.450305 
L 102.537931 -27.614185 
L 101.19029 -28.020781 
L 99.842648 -28.151449 
L 98.495007 -28.521239 
L 97.147366 -28.681849 
L 95.799724 -29.112567 
L 94.452083 -29.455626 
L 93.104441 -29.86959 
L 91.7568 -30.228978 
L 90.409159 -30.779711 
L 89.061517 -31.187062 
L 87.713876 -31.732829 
L 86.366234 -32.217053 
L 85.018593 -32.749818 
L 83.670952 -33.155337 
L 82.32331 -33.72756 
L 80.975669 -34.309984 
L 79.628028 -34.830305 
L 78.280386 -35.36952 
L 76.932745 -35.810642 
L 75.585103 -36.234787 
L 74.237462 -36.593374 
L 72.889821 -36.99522 
L 71.542179 -37.380134 
L 70.194538 -37.812415 
L 68.846897 -38.134295 
L 67.499255 -38.410266 
L 66.151614 -38.660378 
L 64.803972 -38.971418 
L 63.456331 -39.104321 
L 62.10869 -39.122346 
L 60.761048 -39.058108 
L 59.413407 -39.006629 
L 58.065766 -38.843697 
L 56.718124 -38.615246 
L 55.370483 -38.435819 
L 54.022841 -38.24702 
L 52.6752 -38.047694 
L 51.327559 -37.855202 
L 49.979917 -37.750183 
L 48.632276 -37.7003 
L 47.284634 -37.559546 
L 45.936993 -37.448125 
L 44.589352 -37.302933 
L 43.24171 -36.999793 
L 41.894069 -36.847592 
L 40.546428 -36.612116 
L 39.198786 -36.42154 
L 37.851145 -36.263982 
L 36.503503 -36.080853 
L 35.155862 -35.902167 
L 33.808221 -35.821128 
L 32.460579 -35.808512 
L 31.112938 -35.778207 
L 29.765297 -35.786626 
L 28.417655 -35.569985 
L 27.070014 -35.217484 
L 25.722372 -34.492505 
L 24.374731 -33.405552 
L 23.02709 -32.509545 
L 21.679448 -31.976105 
L 20.331807 -31.561284 
L 18.984166 -31.376262 
L 17.636524 -31.20777 
L 16.288883 -31.137367 
L 14.941241 -31.080183 
L 13.5936 -31.038326 
z
" id="m84b202821c" style="stroke:#d62728;stroke-opacity:0.2;stroke-width:0.5;"/>
    </defs>
    <g clip-path="url(#p2b1232a5ed)">
     <use style="fill:#d62728;fill-opacity:0.2;stroke:#d62728;stroke-opacity:0.2;stroke-width:0.5;" x="0" xlink:href="#m84b202821c" y="64.08"/>
    </g>
   </g>
   <g id="PolyCollection_3">
    <defs>
     <path d="M 13.5936 -39.996336 
L 13.5936 -39.441674 
L 14.941241 -39.130931 
L 16.288883 -39.088982 
L 17.636524 -39.072948 
L 18.984166 -38.923458 
L 20.331807 -38.733643 
L 21.679448 -38.370114 
L 23.02709 -38.175446 
L 24.374731 -37.887443 
L 25.722372 -37.536271 
L 27.070014 -37.246708 
L 28.417655 -36.947001 
L 29.765297 -36.660169 
L 31.112938 -36.226685 
L 32.460579 -35.869917 
L 33.808221 -35.550775 
L 35.155862 -35.221892 
L 36.503503 -34.849926 
L 37.851145 -34.582532 
L 39.198786 -34.200357 
L 40.546428 -33.99491 
L 41.894069 -33.79032 
L 43.24171 -33.689928 
L 44.589352 -33.498631 
L 45.936993 -33.229561 
L 47.284634 -33.075512 
L 48.632276 -33.045592 
L 49.979917 -32.840908 
L 51.327559 -32.715886 
L 52.6752 -32.494759 
L 54.022841 -32.316431 
L 55.370483 -32.101571 
L 56.718124 -31.931918 
L 58.065766 -32.087511 
L 59.413407 -32.464872 
L 60.761048 -33.46781 
L 62.10869 -34.805818 
L 63.456331 -36.221013 
L 64.803972 -37.434515 
L 66.151614 -38.222377 
L 67.499255 -39.054451 
L 68.846897 -39.783264 
L 70.194538 -40.171158 
L 71.542179 -39.891718 
L 72.889821 -39.577611 
L 74.237462 -39.137686 
L 75.585103 -38.821752 
L 76.932745 -38.209053 
L 78.280386 -37.647729 
L 79.628028 -37.174959 
L 80.975669 -36.533352 
L 82.32331 -35.869689 
L 83.670952 -35.386357 
L 85.018593 -34.83679 
L 86.366234 -34.238536 
L 87.713876 -33.863218 
L 89.061517 -33.067424 
L 90.409159 -32.667029 
L 91.7568 -31.990264 
L 93.104441 -31.966677 
L 94.452083 -31.573736 
L 95.799724 -31.276025 
L 97.147366 -30.946475 
L 98.495007 -30.758197 
L 99.842648 -30.347381 
L 101.19029 -30.157037 
L 102.537931 -29.847897 
L 103.885572 -29.550853 
L 105.233214 -29.420925 
L 106.580855 -29.32407 
L 107.928497 -29.156865 
L 109.276138 -28.974359 
L 110.623779 -28.629339 
L 111.971421 -28.349671 
L 113.319062 -28.269997 
L 114.666703 -27.843965 
L 116.014345 -27.721726 
L 117.361986 -27.355527 
L 118.709628 -27.08812 
L 120.057269 -26.753379 
L 121.40491 -26.33348 
L 122.752552 -25.957915 
L 124.100193 -25.535096 
L 125.447834 -25.171982 
L 126.795476 -24.80814 
L 128.143117 -24.525939 
L 129.490759 -24.147163 
L 130.8384 -23.702763 
L 132.186041 -23.360844 
L 133.533683 -22.887452 
L 134.881324 -22.499001 
L 136.228966 -22.159869 
L 137.576607 -21.949789 
L 138.924248 -21.729297 
L 140.27189 -21.398974 
L 141.619531 -21.220084 
L 142.967172 -21.135036 
L 144.314814 -21.100255 
L 145.662455 -21.126434 
L 147.010097 -21.19452 
L 148.357738 -21.275869 
L 149.705379 -21.391836 
L 151.053021 -21.556674 
L 152.400662 -21.790846 
L 153.748303 -22.105643 
L 155.095945 -22.683403 
L 156.443586 -23.265727 
L 157.791228 -23.815825 
L 159.138869 -24.261377 
L 160.48651 -24.787094 
L 161.834152 -25.196888 
L 163.181793 -25.64574 
L 164.529434 -26.065475 
L 165.877076 -26.511322 
L 167.224717 -27.088911 
L 168.572359 -27.656842 
L 169.92 -28.436983 
L 169.92 -29.000557 
L 169.92 -29.000557 
L 168.572359 -28.192226 
L 167.224717 -27.627087 
L 165.877076 -27.034145 
L 164.529434 -26.57322 
L 163.181793 -26.151659 
L 161.834152 -25.692385 
L 160.48651 -25.27109 
L 159.138869 -24.774596 
L 157.791228 -24.329178 
L 156.443586 -23.782637 
L 155.095945 -23.163087 
L 153.748303 -22.566972 
L 152.400662 -22.230759 
L 151.053021 -21.984063 
L 149.705379 -21.810541 
L 148.357738 -21.698676 
L 147.010097 -21.60373 
L 145.662455 -21.525553 
L 144.314814 -21.489015 
L 142.967172 -21.528842 
L 141.619531 -21.617725 
L 140.27189 -21.808101 
L 138.924248 -22.147883 
L 137.576607 -22.372393 
L 136.228966 -22.587757 
L 134.881324 -22.941963 
L 133.533683 -23.326731 
L 132.186041 -23.819286 
L 130.8384 -24.168056 
L 129.490759 -24.62786 
L 128.143117 -25.042111 
L 126.795476 -25.310273 
L 125.447834 -25.695955 
L 124.100193 -26.065492 
L 122.752552 -26.505134 
L 121.40491 -26.874057 
L 120.057269 -27.311692 
L 118.709628 -27.653889 
L 117.361986 -27.917789 
L 116.014345 -28.295531 
L 114.666703 -28.415135 
L 113.319062 -28.84369 
L 111.971421 -28.927063 
L 110.623779 -29.215812 
L 109.276138 -29.569345 
L 107.928497 -29.760586 
L 106.580855 -29.924226 
L 105.233214 -30.028519 
L 103.885572 -30.139466 
L 102.537931 -30.439378 
L 101.19029 -30.744421 
L 99.842648 -30.951728 
L 98.495007 -31.35386 
L 97.147366 -31.558181 
L 95.799724 -31.869758 
L 94.452083 -32.16717 
L 93.104441 -32.562975 
L 91.7568 -32.577671 
L 90.409159 -33.260725 
L 89.061517 -33.656603 
L 87.713876 -34.449991 
L 86.366234 -34.820385 
L 85.018593 -35.415477 
L 83.670952 -35.95478 
L 82.32331 -36.436582 
L 80.975669 -37.105411 
L 79.628028 -37.747647 
L 78.280386 -38.221576 
L 76.932745 -38.775221 
L 75.585103 -39.387012 
L 74.237462 -39.706456 
L 72.889821 -40.147262 
L 71.542179 -40.467678 
L 70.194538 -40.752061 
L 68.846897 -40.382305 
L 67.499255 -39.667073 
L 66.151614 -38.829512 
L 64.803972 -38.045454 
L 63.456331 -36.821128 
L 62.10869 -35.398405 
L 60.761048 -34.047973 
L 59.413407 -33.020386 
L 58.065766 -32.624194 
L 56.718124 -32.481724 
L 55.370483 -32.646871 
L 54.022841 -32.862836 
L 52.6752 -33.047479 
L 51.327559 -33.26954 
L 49.979917 -33.387392 
L 48.632276 -33.615831 
L 47.284634 -33.646946 
L 45.936993 -33.80387 
L 44.589352 -34.084642 
L 43.24171 -34.29489 
L 41.894069 -34.399428 
L 40.546428 -34.604533 
L 39.198786 -34.822984 
L 37.851145 -35.205109 
L 36.503503 -35.46702 
L 35.155862 -35.826186 
L 33.808221 -36.168037 
L 32.460579 -36.488553 
L 31.112938 -36.840733 
L 29.765297 -37.275288 
L 28.417655 -37.539557 
L 27.070014 -37.818419 
L 25.722372 -38.116488 
L 24.374731 -38.448221 
L 23.02709 -38.757593 
L 21.679448 -38.945917 
L 20.331807 -39.294052 
L 18.984166 -39.486888 
L 17.636524 -39.634554 
L 16.288883 -39.662598 
L 14.941241 -39.696194 
L 13.5936 -39.996336 
z
" id="m92733b01df" style="stroke:#17becf;stroke-opacity:0.2;stroke-width:0.5;"/>
    </defs>
    <g clip-path="url(#p2b1232a5ed)">
     <use style="fill:#17becf;fill-opacity:0.2;stroke:#17becf;stroke-opacity:0.2;stroke-width:0.5;" x="0" xlink:href="#m92733b01df" y="64.08"/>
    </g>
   </g>
   <g id="PolyCollection_4">
    <defs>
     <path d="M 13.5936 -34.428043 
L 13.5936 -33.80967 
L 14.941241 -33.767718 
L 16.288883 -33.553238 
L 17.636524 -33.607431 
L 18.984166 -33.336011 
L 20.331807 -32.886291 
L 21.679448 -32.5701 
L 23.02709 -32.420593 
L 24.374731 -32.023099 
L 25.722372 -31.453494 
L 27.070014 -30.885615 
L 28.417655 -30.373514 
L 29.765297 -29.940098 
L 31.112938 -29.619155 
L 32.460579 -29.06084 
L 33.808221 -28.684037 
L 35.155862 -28.269278 
L 36.503503 -27.901695 
L 37.851145 -27.497236 
L 39.198786 -27.165658 
L 40.546428 -26.758977 
L 41.894069 -26.380456 
L 43.24171 -26.020411 
L 44.589352 -25.664262 
L 45.936993 -25.405817 
L 47.284634 -25.214745 
L 48.632276 -25.010712 
L 49.979917 -24.802082 
L 51.327559 -24.52848 
L 52.6752 -24.2186 
L 54.022841 -23.926083 
L 55.370483 -23.717311 
L 56.718124 -23.541745 
L 58.065766 -23.343186 
L 59.413407 -23.192159 
L 60.761048 -22.985871 
L 62.10869 -22.83608 
L 63.456331 -22.63871 
L 64.803972 -22.425721 
L 66.151614 -22.282916 
L 67.499255 -22.120778 
L 68.846897 -21.959587 
L 70.194538 -21.765926 
L 71.542179 -21.637321 
L 72.889821 -21.455244 
L 74.237462 -21.361325 
L 75.585103 -21.333413 
L 76.932745 -21.330494 
L 78.280386 -21.349877 
L 79.628028 -21.383784 
L 80.975669 -21.488587 
L 82.32331 -21.615665 
L 83.670952 -21.683678 
L 85.018593 -21.781843 
L 86.366234 -22.09154 
L 87.713876 -22.575814 
L 89.061517 -23.402241 
L 90.409159 -24.197703 
L 91.7568 -25.108138 
L 93.104441 -25.787572 
L 94.452083 -26.525675 
L 95.799724 -27.160253 
L 97.147366 -27.920762 
L 98.495007 -28.565934 
L 99.842648 -29.28549 
L 101.19029 -29.874373 
L 102.537931 -30.487764 
L 103.885572 -31.125974 
L 105.233214 -31.598337 
L 106.580855 -32.083238 
L 107.928497 -32.628654 
L 109.276138 -33.471784 
L 110.623779 -34.663006 
L 111.971421 -35.769114 
L 113.319062 -36.892909 
L 114.666703 -37.963202 
L 116.014345 -39.181013 
L 117.361986 -40.423982 
L 118.709628 -41.581606 
L 120.057269 -42.537813 
L 121.40491 -43.27237 
L 122.752552 -44.482734 
L 124.100193 -44.967069 
L 125.447834 -45.115573 
L 126.795476 -45.141928 
L 128.143117 -45.084345 
L 129.490759 -44.687521 
L 130.8384 -44.494506 
L 132.186041 -44.034602 
L 133.533683 -43.460458 
L 134.881324 -42.926056 
L 136.228966 -42.219767 
L 137.576607 -41.663374 
L 138.924248 -41.050015 
L 140.27189 -40.429699 
L 141.619531 -39.596805 
L 142.967172 -39.138501 
L 144.314814 -38.397003 
L 145.662455 -37.244112 
L 147.010097 -36.175286 
L 148.357738 -35.467905 
L 149.705379 -34.924643 
L 151.053021 -34.191687 
L 152.400662 -33.656116 
L 153.748303 -33.12458 
L 155.095945 -32.39183 
L 156.443586 -31.684426 
L 157.791228 -31.055152 
L 159.138869 -30.49447 
L 160.48651 -29.860652 
L 161.834152 -29.321569 
L 163.181793 -28.579659 
L 164.529434 -27.954183 
L 165.877076 -27.334729 
L 167.224717 -26.835878 
L 168.572359 -26.293761 
L 169.92 -25.699004 
L 169.92 -26.272222 
L 169.92 -26.272222 
L 168.572359 -26.877508 
L 167.224717 -27.444606 
L 165.877076 -27.95854 
L 164.529434 -28.597477 
L 163.181793 -29.225352 
L 161.834152 -29.957461 
L 160.48651 -30.50983 
L 159.138869 -31.15309 
L 157.791228 -31.698817 
L 156.443586 -32.325253 
L 155.095945 -33.028546 
L 153.748303 -33.764031 
L 152.400662 -34.284393 
L 151.053021 -34.78399 
L 149.705379 -35.51368 
L 148.357738 -36.074195 
L 147.010097 -36.781146 
L 145.662455 -37.859718 
L 144.314814 -39.020842 
L 142.967172 -39.775749 
L 141.619531 -40.232534 
L 140.27189 -41.093354 
L 138.924248 -41.720592 
L 137.576607 -42.332939 
L 136.228966 -42.888875 
L 134.881324 -43.593944 
L 133.533683 -44.116155 
L 132.186041 -44.689925 
L 130.8384 -45.136544 
L 129.490759 -45.327574 
L 128.143117 -45.73454 
L 126.795476 -45.815283 
L 125.447834 -45.830225 
L 124.100193 -45.669177 
L 122.752552 -45.219974 
L 121.40491 -44.011814 
L 120.057269 -43.307865 
L 118.709628 -42.362276 
L 117.361986 -41.202572 
L 116.014345 -39.947091 
L 114.666703 -38.78412 
L 113.319062 -37.687169 
L 111.971421 -36.548254 
L 110.623779 -35.404201 
L 109.276138 -34.178759 
L 107.928497 -33.296888 
L 106.580855 -32.718991 
L 105.233214 -32.213076 
L 103.885572 -31.724542 
L 102.537931 -31.084412 
L 101.19029 -30.476241 
L 99.842648 -29.923582 
L 98.495007 -29.19306 
L 97.147366 -28.505581 
L 95.799724 -27.694626 
L 94.452083 -27.019531 
L 93.104441 -26.234302 
L 91.7568 -25.543739 
L 90.409159 -24.643188 
L 89.061517 -23.845167 
L 87.713876 -22.953629 
L 86.366234 -22.454294 
L 85.018593 -22.144489 
L 83.670952 -22.044802 
L 82.32331 -21.977822 
L 80.975669 -21.851685 
L 79.628028 -21.745159 
L 78.280386 -21.712681 
L 76.932745 -21.698893 
L 75.585103 -21.702447 
L 74.237462 -21.733075 
L 72.889821 -21.828482 
L 71.542179 -22.010098 
L 70.194538 -22.158803 
L 68.846897 -22.353727 
L 67.499255 -22.542254 
L 66.151614 -22.70463 
L 64.803972 -22.86352 
L 63.456331 -23.097244 
L 62.10869 -23.304534 
L 60.761048 -23.468979 
L 59.413407 -23.688861 
L 58.065766 -23.840914 
L 56.718124 -24.0487 
L 55.370483 -24.245946 
L 54.022841 -24.445034 
L 52.6752 -24.743989 
L 51.327559 -25.065788 
L 49.979917 -25.336698 
L 48.632276 -25.562257 
L 47.284634 -25.770302 
L 45.936993 -25.978039 
L 44.589352 -26.229621 
L 43.24171 -26.590159 
L 41.894069 -26.962245 
L 40.546428 -27.349746 
L 39.198786 -27.769527 
L 37.851145 -28.100387 
L 36.503503 -28.504553 
L 35.155862 -28.869548 
L 33.808221 -29.286706 
L 32.460579 -29.667324 
L 31.112938 -30.22501 
L 29.765297 -30.557724 
L 28.417655 -30.983511 
L 27.070014 -31.513764 
L 25.722372 -32.074374 
L 24.374731 -32.637387 
L 23.02709 -33.043993 
L 21.679448 -33.193862 
L 20.331807 -33.505391 
L 18.984166 -33.957851 
L 17.636524 -34.227825 
L 16.288883 -34.167035 
L 14.941241 -34.3763 
L 13.5936 -34.428043 
z
" id="m91a1a067a0" style="stroke:#bcbd22;stroke-opacity:0.2;stroke-width:0.5;"/>
    </defs>
    <g clip-path="url(#p2b1232a5ed)">
     <use style="fill:#bcbd22;fill-opacity:0.2;stroke:#bcbd22;stroke-opacity:0.2;stroke-width:0.5;" x="0" xlink:href="#m91a1a067a0" y="64.08"/>
    </g>
   </g>
   <g id="line2d_1">
    <path clip-path="url(#p2b1232a5ed)" d="M 13.5936 31.516465 
L 14.941241 31.355258 
L 16.288883 31.231186 
L 17.636524 31.089806 
L 18.984166 31.074615 
L 20.331807 31.054266 
L 21.679448 31.168159 
L 23.02709 31.23777 
L 24.374731 31.465173 
L 25.722372 31.82711 
L 27.070014 32.056503 
L 28.417655 32.201086 
L 29.765297 32.363186 
L 31.112938 32.462104 
L 32.460579 32.581162 
L 33.808221 32.600092 
L 35.155862 32.64518 
L 36.503503 32.696662 
L 37.851145 32.804971 
L 39.198786 32.920477 
L 40.546428 33.11899 
L 41.894069 33.359398 
L 43.24171 33.621991 
L 44.589352 33.97689 
L 45.936993 34.223125 
L 47.284634 34.501673 
L 48.632276 34.761316 
L 49.979917 35.002618 
L 51.327559 35.316147 
L 52.6752 35.615309 
L 54.022841 35.843627 
L 55.370483 36.093332 
L 56.718124 36.229449 
L 58.065766 36.517387 
L 59.413407 36.738916 
L 60.761048 37.05781 
L 62.10869 37.479902 
L 63.456331 38.042181 
L 64.803972 38.753905 
L 66.151614 39.483514 
L 67.499255 40.199239 
L 68.846897 40.94073 
L 70.194538 41.530667 
L 71.542179 41.838197 
L 72.889821 42.059331 
L 74.237462 42.209405 
L 75.585103 42.188793 
L 76.932745 42.045431 
L 78.280386 41.745011 
L 79.628028 41.377448 
L 80.975669 40.814401 
L 82.32331 39.989249 
L 83.670952 39.138979 
L 85.018593 38.189075 
L 86.366234 36.974619 
L 87.713876 35.965585 
L 89.061517 35.052419 
L 90.409159 34.332721 
L 91.7568 33.366655 
L 93.104441 32.883026 
L 94.452083 32.459665 
L 95.799724 32.135479 
L 97.147366 31.720166 
L 98.495007 31.287726 
L 99.842648 30.59961 
L 101.19029 30.571196 
L 102.537931 30.355086 
L 103.885572 30.115585 
L 105.233214 29.968009 
L 106.580855 29.74258 
L 107.928497 29.572353 
L 109.276138 29.319555 
L 110.623779 29.04977 
L 111.971421 28.73084 
L 113.319062 28.419935 
L 114.666703 27.824327 
L 116.014345 27.141094 
L 117.361986 26.606879 
L 118.709628 26.1663 
L 120.057269 25.874122 
L 121.40491 25.608761 
L 122.752552 25.370159 
L 124.100193 25.100132 
L 125.447834 24.852687 
L 126.795476 24.578635 
L 128.143117 24.322237 
L 129.490759 23.997221 
L 130.8384 23.583476 
L 132.186041 23.333604 
L 133.533683 23.052272 
L 134.881324 22.877753 
L 136.228966 22.901561 
L 137.576607 23.330546 
L 138.924248 23.660518 
L 140.27189 23.784738 
L 141.619531 23.986079 
L 142.967172 24.167152 
L 144.314814 24.415445 
L 145.662455 24.871484 
L 147.010097 25.531737 
L 148.357738 26.310307 
L 149.705379 27.103856 
L 151.053021 28.060506 
L 152.400662 28.758629 
L 153.748303 29.391638 
L 155.095945 30.138609 
L 156.443586 30.838141 
L 157.791228 31.526813 
L 159.138869 32.149233 
L 160.48651 32.833088 
L 161.834152 33.493815 
L 163.181793 34.238461 
L 164.529434 34.788551 
L 165.877076 35.451542 
L 167.224717 36.113967 
L 168.572359 36.677031 
L 169.92 37.370381 
" style="fill:none;stroke:#9467bd;stroke-linecap:square;stroke-width:0.5;"/>
   </g>
   <g id="line2d_2">
    <path clip-path="url(#p2b1232a5ed)" d="M 13.5936 33.389371 
L 14.941241 33.344818 
L 16.288883 33.288784 
L 17.636524 33.220643 
L 18.984166 33.051897 
L 20.331807 32.868289 
L 21.679448 32.453752 
L 23.02709 31.920801 
L 24.374731 31.025007 
L 25.722372 29.927721 
L 27.070014 29.192599 
L 28.417655 28.838967 
L 29.765297 28.638222 
L 31.112938 28.634526 
L 32.460579 28.606175 
L 33.808221 28.598619 
L 35.155862 28.525334 
L 36.503503 28.355176 
L 37.851145 28.213082 
L 39.198786 28.031575 
L 40.546428 27.859556 
L 41.894069 27.614638 
L 43.24171 27.451119 
L 44.589352 27.137833 
L 45.936993 26.985006 
L 47.284634 26.870163 
L 48.632276 26.751657 
L 49.979917 26.688493 
L 51.327559 26.587359 
L 52.6752 26.383217 
L 54.022841 26.171244 
L 55.370483 25.961534 
L 56.718124 25.774825 
L 58.065766 25.542154 
L 59.413407 25.371127 
L 60.761048 25.323153 
L 62.10869 25.251839 
L 63.456331 25.268165 
L 64.803972 25.407756 
L 66.151614 25.721446 
L 67.499255 25.972692 
L 68.846897 26.246808 
L 70.194538 26.574745 
L 71.542179 27.006893 
L 72.889821 27.394044 
L 74.237462 27.807162 
L 75.585103 28.172293 
L 76.932745 28.601844 
L 78.280386 29.061325 
L 79.628028 29.615083 
L 80.975669 30.153293 
L 82.32331 30.754027 
L 83.670952 31.338448 
L 85.018593 31.741522 
L 86.366234 32.277443 
L 87.713876 32.763253 
L 89.061517 33.31578 
L 90.409159 33.73375 
L 91.7568 34.276685 
L 93.104441 34.643018 
L 94.452083 35.033128 
L 95.799724 35.380115 
L 97.147366 35.808464 
L 98.495007 35.964673 
L 99.842648 36.341787 
L 101.19029 36.472236 
L 102.537931 36.863847 
L 103.885572 37.036268 
L 105.233214 37.344775 
L 106.580855 37.589259 
L 107.928497 37.990852 
L 109.276138 38.341879 
L 110.623779 38.659997 
L 111.971421 38.964503 
L 113.319062 39.353933 
L 114.666703 39.712302 
L 116.014345 40.279309 
L 117.361986 40.789859 
L 118.709628 41.37444 
L 120.057269 41.698143 
L 121.40491 42.083679 
L 122.752552 42.459548 
L 124.100193 42.822744 
L 125.447834 43.338179 
L 126.795476 43.879586 
L 128.143117 44.334684 
L 129.490759 44.641897 
L 130.8384 44.999677 
L 132.186041 45.200872 
L 133.533683 45.361306 
L 134.881324 45.599123 
L 136.228966 45.760135 
L 137.576607 45.832411 
L 138.924248 45.895108 
L 140.27189 45.672936 
L 141.619531 44.963571 
L 142.967172 43.809088 
L 144.314814 42.27637 
L 145.662455 40.182175 
L 147.010097 38.044413 
L 148.357738 35.967162 
L 149.705379 34.224304 
L 151.053021 32.535161 
L 152.400662 31.176628 
L 153.748303 29.99907 
L 155.095945 29.054836 
L 156.443586 28.189597 
L 157.791228 27.353425 
L 159.138869 26.706724 
L 160.48651 25.935238 
L 161.834152 25.367624 
L 163.181793 24.72192 
L 164.529434 24.275515 
L 165.877076 23.914891 
L 167.224717 23.636095 
L 168.572359 23.466902 
L 169.92 23.235886 
" style="fill:none;stroke:#d62728;stroke-linecap:square;stroke-width:0.5;"/>
   </g>
   <g id="line2d_3">
    <path clip-path="url(#p2b1232a5ed)" d="M 13.5936 24.360995 
L 14.941241 24.666438 
L 16.288883 24.70421 
L 17.636524 24.726249 
L 18.984166 24.874827 
L 20.331807 25.066152 
L 21.679448 25.421984 
L 23.02709 25.61348 
L 24.374731 25.912168 
L 25.722372 26.25362 
L 27.070014 26.547437 
L 28.417655 26.836721 
L 29.765297 27.112272 
L 31.112938 27.546291 
L 32.460579 27.900765 
L 33.808221 28.220594 
L 35.155862 28.555961 
L 36.503503 28.921527 
L 37.851145 29.186179 
L 39.198786 29.568329 
L 40.546428 29.780278 
L 41.894069 29.985126 
L 43.24171 30.087591 
L 44.589352 30.288364 
L 45.936993 30.563284 
L 47.284634 30.718771 
L 48.632276 30.749288 
L 49.979917 30.96585 
L 51.327559 31.087287 
L 52.6752 31.308881 
L 54.022841 31.490366 
L 55.370483 31.705779 
L 56.718124 31.873179 
L 58.065766 31.724147 
L 59.413407 31.337371 
L 60.761048 30.322108 
L 62.10869 28.977889 
L 63.456331 27.558929 
L 64.803972 26.340016 
L 66.151614 25.554056 
L 67.499255 24.719238 
L 68.846897 23.997215 
L 70.194538 23.618391 
L 71.542179 23.900302 
L 72.889821 24.217563 
L 74.237462 24.657929 
L 75.585103 24.975618 
L 76.932745 25.587863 
L 78.280386 26.145347 
L 79.628028 26.618697 
L 80.975669 27.260619 
L 82.32331 27.926865 
L 83.670952 28.409431 
L 85.018593 28.953866 
L 86.366234 29.55054 
L 87.713876 29.923395 
L 89.061517 30.717986 
L 90.409159 31.116123 
L 91.7568 31.796033 
L 93.104441 31.815174 
L 94.452083 32.209547 
L 95.799724 32.507109 
L 97.147366 32.827672 
L 98.495007 33.023971 
L 99.842648 33.430446 
L 101.19029 33.629271 
L 102.537931 33.936362 
L 103.885572 34.23484 
L 105.233214 34.355278 
L 106.580855 34.455852 
L 107.928497 34.621274 
L 109.276138 34.808148 
L 110.623779 35.157424 
L 111.971421 35.441633 
L 113.319062 35.523156 
L 114.666703 35.95045 
L 116.014345 36.071372 
L 117.361986 36.443342 
L 118.709628 36.708996 
L 120.057269 37.047464 
L 121.40491 37.476231 
L 122.752552 37.848475 
L 124.100193 38.279706 
L 125.447834 38.646031 
L 126.795476 39.020794 
L 128.143117 39.295975 
L 129.490759 39.692489 
L 130.8384 40.14459 
L 132.186041 40.489935 
L 133.533683 40.972909 
L 134.881324 41.359518 
L 136.228966 41.706187 
L 137.576607 41.918909 
L 138.924248 42.14141 
L 140.27189 42.476463 
L 141.619531 42.661096 
L 142.967172 42.748061 
L 144.314814 42.785365 
L 145.662455 42.754007 
L 147.010097 42.680875 
L 148.357738 42.592728 
L 149.705379 42.478811 
L 151.053021 42.309632 
L 152.400662 42.069197 
L 153.748303 41.743692 
L 155.095945 41.156755 
L 156.443586 40.555818 
L 157.791228 40.007499 
L 159.138869 39.562014 
L 160.48651 39.050908 
L 161.834152 38.635363 
L 163.181793 38.181301 
L 164.529434 37.760653 
L 165.877076 37.307267 
L 167.224717 36.722001 
L 168.572359 36.155466 
L 169.92 35.36123 
" style="fill:none;stroke:#17becf;stroke-linecap:square;stroke-width:0.5;"/>
   </g>
   <g id="line2d_4">
    <path clip-path="url(#p2b1232a5ed)" d="M 13.5936 29.961144 
L 14.941241 30.007991 
L 16.288883 30.219863 
L 17.636524 30.162372 
L 18.984166 30.433069 
L 20.331807 30.884159 
L 21.679448 31.198019 
L 23.02709 31.347707 
L 24.374731 31.749757 
L 25.722372 32.316066 
L 27.070014 32.88031 
L 28.417655 33.401488 
L 29.765297 33.831089 
L 31.112938 34.157917 
L 32.460579 34.715918 
L 33.808221 35.094629 
L 35.155862 35.510587 
L 36.503503 35.876876 
L 37.851145 36.281188 
L 39.198786 36.612408 
L 40.546428 37.025638 
L 41.894069 37.408649 
L 43.24171 37.774715 
L 44.589352 38.133059 
L 45.936993 38.388072 
L 47.284634 38.587476 
L 48.632276 38.793516 
L 49.979917 39.01061 
L 51.327559 39.282866 
L 52.6752 39.598705 
L 54.022841 39.894441 
L 55.370483 40.098372 
L 56.718124 40.284778 
L 58.065766 40.48795 
L 59.413407 40.63949 
L 60.761048 40.852575 
L 62.10869 41.009693 
L 63.456331 41.212023 
L 64.803972 41.435379 
L 66.151614 41.586227 
L 67.499255 41.748484 
L 68.846897 41.923343 
L 70.194538 42.117635 
L 71.542179 42.25629 
L 72.889821 42.438137 
L 74.237462 42.5328 
L 75.585103 42.56207 
L 76.932745 42.565307 
L 78.280386 42.548721 
L 79.628028 42.515528 
L 80.975669 42.409864 
L 82.32331 42.283256 
L 83.670952 42.21576 
L 85.018593 42.116834 
L 86.366234 41.807083 
L 87.713876 41.315279 
L 89.061517 40.456296 
L 90.409159 39.659554 
L 91.7568 38.754062 
L 93.104441 38.069063 
L 94.452083 37.307397 
L 95.799724 36.65256 
L 97.147366 35.866829 
L 98.495007 35.200503 
L 99.842648 34.475464 
L 101.19029 33.904693 
L 102.537931 33.293912 
L 103.885572 32.654742 
L 105.233214 32.174293 
L 106.580855 31.678886 
L 107.928497 31.117229 
L 109.276138 30.254729 
L 110.623779 29.046397 
L 111.971421 27.921316 
L 113.319062 26.789961 
L 114.666703 25.706339 
L 116.014345 24.515948 
L 117.361986 23.266723 
L 118.709628 22.108059 
L 120.057269 21.157161 
L 121.40491 20.437908 
L 122.752552 19.228646 
L 124.100193 18.761877 
L 125.447834 18.607101 
L 126.795476 18.601395 
L 128.143117 18.670557 
L 129.490759 19.072453 
L 130.8384 19.264475 
L 132.186041 19.717736 
L 133.533683 20.291693 
L 134.881324 20.82 
L 136.228966 21.525679 
L 137.576607 22.081843 
L 138.924248 22.694697 
L 140.27189 23.318474 
L 141.619531 24.16533 
L 142.967172 24.622875 
L 144.314814 25.371077 
L 145.662455 26.528085 
L 147.010097 27.601784 
L 148.357738 28.30895 
L 149.705379 28.860838 
L 151.053021 29.592161 
L 152.400662 30.109745 
L 153.748303 30.635695 
L 155.095945 31.369812 
L 156.443586 32.07516 
L 157.791228 32.703016 
L 159.138869 33.25622 
L 160.48651 33.894759 
L 161.834152 34.440485 
L 163.181793 35.177494 
L 164.529434 35.80417 
L 165.877076 36.433365 
L 167.224717 36.939758 
L 168.572359 37.494365 
L 169.92 38.094387 
" style="fill:none;stroke:#bcbd22;stroke-linecap:square;stroke-width:0.5;"/>
   </g>
   <g id="line2d_5">
    <path clip-path="url(#p2b1232a5ed)" d="M 15.156864 55.826496 
L 41.570635 55.826496 
" style="fill:none;stroke:#000000;stroke-linecap:square;stroke-width:1.25;"/>
   </g>
   <g id="line2d_6">
    <path clip-path="url(#p2b1232a5ed)" d="M 15.156864 55.826496 
L 15.156864 37.497096 
" style="fill:none;stroke:#000000;stroke-linecap:square;stroke-width:1.25;"/>
   </g>
   <g id="text_1">
    <text style="font-family:DejaVu Sans;font-size:6px;font-stretch:normal;font-style:normal;font-weight:normal;text-anchor:middle;" transform="rotate(-0, 28.36375, 63.205078)" x="28.36375" y="63.205078">100 ms</text>
   </g>
   <g id="text_2">
    <text style="font-family:DejaVu Sans;font-size:6px;font-stretch:normal;font-style:normal;font-weight:normal;" transform="translate(6.092731 54.095702)rotate(-90)">2 cm</text>
   </g>
   <g id="legend_1">
    <g id="line2d_7">
     <path d="M 100.336875 7.859063 
L 112.336875 7.859063 
" style="fill:none;stroke:#9467bd;stroke-linecap:square;stroke-width:0.5;"/>
    </g>
    <g id="line2d_8"/>
    <g id="text_3">
     <text style="font-family:DejaVu Sans;font-size:6px;font-stretch:normal;font-style:normal;font-weight:normal;text-anchor:start;" transform="rotate(-0, 117.136875, 9.959063)" x="117.136875" y="9.959063">left wrist joint</text>
    </g>
    <g id="line2d_9">
     <path d="M 100.336875 16.665938 
L 112.336875 16.665938 
" style="fill:none;stroke:#d62728;stroke-linecap:square;stroke-width:0.5;"/>
    </g>
    <g id="line2d_10"/>
    <g id="text_4">
     <text style="font-family:DejaVu Sans;font-size:6px;font-stretch:normal;font-style:normal;font-weight:normal;text-anchor:start;" transform="rotate(-0, 117.136875, 18.765938)" x="117.136875" y="18.765938">right wrist joint</text>
    </g>
    <g id="line2d_11">
     <path d="M 100.336875 25.472812 
L 112.336875 25.472812 
" style="fill:none;stroke:#17becf;stroke-linecap:square;stroke-width:0.5;"/>
    </g>
    <g id="line2d_12"/>
    <g id="text_5">
     <text style="font-family:DejaVu Sans;font-size:6px;font-stretch:normal;font-style:normal;font-weight:normal;text-anchor:start;" transform="rotate(-0, 117.136875, 27.572812)" x="117.136875" y="27.572812">left ankle joint</text>
    </g>
    <g id="line2d_13">
     <path d="M 100.336875 34.279688 
L 112.336875 34.279688 
" style="fill:none;stroke:#bcbd22;stroke-linecap:square;stroke-width:0.5;"/>
    </g>
    <g id="line2d_14"/>
    <g id="text_6">
     <text style="font-family:DejaVu Sans;font-size:6px;font-stretch:normal;font-style:normal;font-weight:normal;text-anchor:start;" transform="rotate(-0, 117.136875, 36.379688)" x="117.136875" y="36.379688">right ankle joint</text>
    </g>
   </g>
  </g>
 </g>
 <defs>
  <clipPath id="p2b1232a5ed">
   <rect height="56.3904" width="156.3264" x="13.5936" y="0"/>
  </clipPath>
 </defs>
</svg>
