<?xml version="1.0" encoding="utf-8" standalone="no"?>
<!DOCTYPE svg PUBLIC "-//W3C//DTD SVG 1.1//EN"
  "http://www.w3.org/Graphics/SVG/1.1/DTD/svg11.dtd">
<!-- Created with matplotlib (https://matplotlib.org/) -->
<svg height="64.08pt" version="1.1" viewBox="0 0 169.92 64.08" width="169.92pt" xmlns="http://www.w3.org/2000/svg" xmlns:xlink="http://www.w3.org/1999/xlink">
 <metadata>
  <rdf:RDF xmlns:cc="http://creativecommons.org/ns#" xmlns:dc="http://purl.org/dc/elements/1.1/" xmlns:rdf="http://www.w3.org/1999/02/22-rdf-syntax-ns#">
   <cc:Work>
    <dc:type rdf:resource="http://purl.org/dc/dcmitype/StillImage"/>
    <dc:date>2022-04-01T08:06:38.844559</dc:date>
    <dc:format>image/svg+xml</dc:format>
    <dc:creator>
     <cc:Agent>
      <dc:title>Matplotlib v3.3.1, https://matplotlib.org/</dc:title>
     </cc:Agent>
    </dc:creator>
   </cc:Work>
  </rdf:RDF>
 </metadata>
 <defs>
  <style type="text/css">*{stroke-linecap:butt;stroke-linejoin:round;}</style>
 </defs>
 <g id="figure_1">
  <g id="patch_1">
   <path d="M 0 64.08 
L 169.92 64.08 
L 169.92 0 
L 0 0 
z
" style="fill:none;"/>
  </g>
  <g id="axes_1">
   <g id="PolyCollection_1">
    <defs>
     <path d="M 13.5936 -44.143759 
L 13.5936 -38.877864 
L 14.941241 -38.779043 
L 16.288883 -38.69116 
L 17.636524 -38.915441 
L 18.984166 -39.15544 
L 20.331807 -39.333212 
L 21.679448 -39.422085 
L 23.02709 -39.497456 
L 24.374731 -40.454809 
L 25.722372 -40.372119 
L 27.070014 -39.434347 
L 28.417655 -39.063071 
L 29.765297 -38.734302 
L 31.112938 -38.385519 
L 32.460579 -38.071605 
L 33.808221 -38.01771 
L 35.155862 -38.210961 
L 36.503503 -38.177434 
L 37.851145 -38.318831 
L 39.198786 -38.447135 
L 40.546428 -38.488383 
L 41.894069 -38.362083 
L 43.24171 -38.347845 
L 44.589352 -38.119635 
L 45.936993 -37.857975 
L 47.284634 -37.876244 
L 48.632276 -37.820635 
L 49.979917 -37.963433 
L 51.327559 -38.292248 
L 52.6752 -38.32352 
L 54.022841 -38.580625 
L 55.370483 -38.570709 
L 56.718124 -38.803065 
L 58.065766 -38.914338 
L 59.413407 -38.927578 
L 60.761048 -39.452096 
L 62.10869 -39.890544 
L 63.456331 -40.372407 
L 64.803972 -40.831139 
L 66.151614 -41.004546 
L 67.499255 -41.194247 
L 68.846897 -41.240645 
L 70.194538 -40.350231 
L 71.542179 -39.659626 
L 72.889821 -39.520502 
L 74.237462 -39.048038 
L 75.585103 -38.486744 
L 76.932745 -37.728582 
L 78.280386 -37.261854 
L 79.628028 -36.654712 
L 80.975669 -35.450282 
L 82.32331 -34.864483 
L 83.670952 -34.846253 
L 85.018593 -34.202783 
L 86.366234 -34.317819 
L 87.713876 -35.121719 
L 89.061517 -35.656948 
L 90.409159 -35.264388 
L 91.7568 -35.565881 
L 93.104441 -36.588206 
L 94.452083 -36.848347 
L 95.799724 -36.858967 
L 97.147366 -36.969398 
L 98.495007 -36.38028 
L 99.842648 -36.959793 
L 101.19029 -37.868648 
L 102.537931 -37.431133 
L 103.885572 -37.90415 
L 105.233214 -37.979458 
L 106.580855 -38.051836 
L 107.928497 -38.200929 
L 109.276138 -38.353832 
L 110.623779 -38.371132 
L 111.971421 -38.592755 
L 113.319062 -38.056214 
L 114.666703 -37.16346 
L 116.014345 -37.59183 
L 117.361986 -38.187218 
L 118.709628 -38.667663 
L 120.057269 -39.501647 
L 121.40491 -40.374858 
L 122.752552 -40.919756 
L 124.100193 -41.044986 
L 125.447834 -41.085459 
L 126.795476 -41.198519 
L 128.143117 -40.912027 
L 129.490759 -40.135727 
L 130.8384 -40.409729 
L 132.186041 -40.313462 
L 133.533683 -40.177528 
L 134.881324 -40.507277 
L 136.228966 -41.919543 
L 137.576607 -42.430624 
L 138.924248 -40.478803 
L 140.27189 -39.219462 
L 141.619531 -38.776449 
L 142.967172 -38.393596 
L 144.314814 -38.479797 
L 145.662455 -39.201773 
L 147.010097 -40.697809 
L 148.357738 -41.811901 
L 149.705379 -42.90122 
L 151.053021 -42.860731 
L 152.400662 -41.929685 
L 153.748303 -42.186499 
L 155.095945 -42.199089 
L 156.443586 -42.20506 
L 157.791228 -42.049703 
L 159.138869 -42.045591 
L 160.48651 -42.053729 
L 161.834152 -42.112021 
L 163.181793 -41.707002 
L 164.529434 -41.251787 
L 165.877076 -41.465969 
L 167.224717 -41.110963 
L 168.572359 -41.131741 
L 169.92 -41.553426 
L 169.92 -46.645642 
L 169.92 -46.645642 
L 168.572359 -46.17726 
L 167.224717 -46.118679 
L 165.877076 -46.457265 
L 164.529434 -46.183244 
L 163.181793 -46.695464 
L 161.834152 -47.052879 
L 160.48651 -46.928829 
L 159.138869 -46.943945 
L 157.791228 -46.903701 
L 156.443586 -46.980209 
L 155.095945 -47.029056 
L 153.748303 -46.816324 
L 152.400662 -46.512574 
L 151.053021 -47.251945 
L 149.705379 -47.280814 
L 148.357738 -46.08238 
L 147.010097 -45.128469 
L 145.662455 -43.865547 
L 144.314814 -43.332311 
L 142.967172 -43.452101 
L 141.619531 -43.858852 
L 140.27189 -44.256716 
L 138.924248 -45.311506 
L 137.576607 -47.309405 
L 136.228966 -46.664026 
L 134.881324 -45.252538 
L 133.533683 -44.918346 
L 132.186041 -45.033126 
L 130.8384 -45.120348 
L 129.490759 -44.837273 
L 128.143117 -45.451112 
L 126.795476 -45.738335 
L 125.447834 -45.43909 
L 124.100193 -45.259448 
L 122.752552 -45.087423 
L 121.40491 -44.728339 
L 120.057269 -44.24117 
L 118.709628 -43.887588 
L 117.361986 -43.591892 
L 116.014345 -43.365536 
L 114.666703 -42.950235 
L 113.319062 -43.921301 
L 111.971421 -44.551374 
L 110.623779 -44.508954 
L 109.276138 -44.536037 
L 107.928497 -44.625343 
L 106.580855 -44.440303 
L 105.233214 -44.467662 
L 103.885572 -44.562687 
L 102.537931 -44.121908 
L 101.19029 -44.80179 
L 99.842648 -43.991799 
L 98.495007 -43.46409 
L 97.147366 -44.046739 
L 95.799724 -43.88948 
L 94.452083 -43.722202 
L 93.104441 -43.767451 
L 91.7568 -42.716603 
L 90.409159 -42.424757 
L 89.061517 -42.728594 
L 87.713876 -42.015857 
L 86.366234 -41.257388 
L 85.018593 -41.053974 
L 83.670952 -41.916553 
L 82.32331 -41.661877 
L 80.975669 -42.237266 
L 79.628028 -43.331297 
L 78.280386 -43.731097 
L 76.932745 -44.308655 
L 75.585103 -44.955612 
L 74.237462 -45.667918 
L 72.889821 -46.11427 
L 71.542179 -46.293262 
L 70.194538 -47.075224 
L 68.846897 -48.002489 
L 67.499255 -48.154166 
L 66.151614 -47.957218 
L 64.803972 -47.918036 
L 63.456331 -47.529731 
L 62.10869 -47.066708 
L 60.761048 -46.73899 
L 59.413407 -46.290559 
L 58.065766 -46.298361 
L 56.718124 -46.16302 
L 55.370483 -46.009736 
L 54.022841 -46.095682 
L 52.6752 -46.019084 
L 51.327559 -46.042641 
L 49.979917 -45.751934 
L 48.632276 -45.578583 
L 47.284634 -45.861083 
L 45.936993 -45.766879 
L 44.589352 -46.191509 
L 43.24171 -46.235021 
L 41.894069 -46.209583 
L 40.546428 -46.347952 
L 39.198786 -46.031009 
L 37.851145 -46.024948 
L 36.503503 -45.787031 
L 35.155862 -45.626008 
L 33.808221 -45.323299 
L 32.460579 -45.326335 
L 31.112938 -45.583987 
L 29.765297 -45.75214 
L 28.417655 -45.993478 
L 27.070014 -46.142657 
L 25.722372 -46.810711 
L 24.374731 -46.609084 
L 23.02709 -45.56407 
L 21.679448 -45.288723 
L 20.331807 -45.003042 
L 18.984166 -44.723016 
L 17.636524 -44.453187 
L 16.288883 -44.121416 
L 14.941241 -44.117521 
L 13.5936 -44.143759 
z
" id="mf33a76e99d" style="stroke:#9467bd;stroke-opacity:0.2;stroke-width:0.5;"/>
    </defs>
    <g clip-path="url(#pda771443ed)">
     <use style="fill:#9467bd;fill-opacity:0.2;stroke:#9467bd;stroke-opacity:0.2;stroke-width:0.5;" x="0" xlink:href="#mf33a76e99d" y="64.08"/>
    </g>
   </g>
   <g id="PolyCollection_2">
    <defs>
     <path d="M 13.5936 -44.857601 
L 13.5936 -39.07797 
L 14.941241 -38.969025 
L 16.288883 -39.121801 
L 17.636524 -38.760684 
L 18.984166 -38.666237 
L 20.331807 -38.273413 
L 21.679448 -37.810626 
L 23.02709 -37.24942 
L 24.374731 -36.261505 
L 25.722372 -36.70047 
L 27.070014 -37.854334 
L 28.417655 -38.285368 
L 29.765297 -38.556955 
L 31.112938 -38.795798 
L 32.460579 -38.984854 
L 33.808221 -39.049302 
L 35.155862 -38.618035 
L 36.503503 -38.580718 
L 37.851145 -38.65609 
L 39.198786 -38.525792 
L 40.546428 -38.512736 
L 41.894069 -38.576454 
L 43.24171 -38.479969 
L 44.589352 -38.53133 
L 45.936993 -38.759238 
L 47.284634 -38.648255 
L 48.632276 -38.909445 
L 49.979917 -38.946674 
L 51.327559 -38.440156 
L 52.6752 -38.417911 
L 54.022841 -38.278541 
L 55.370483 -38.379655 
L 56.718124 -38.575497 
L 58.065766 -38.602965 
L 59.413407 -39.341363 
L 60.761048 -39.626494 
L 62.10869 -39.979514 
L 63.456331 -40.714223 
L 64.803972 -41.624918 
L 66.151614 -41.702414 
L 67.499255 -41.088436 
L 68.846897 -41.115997 
L 70.194538 -41.506027 
L 71.542179 -41.472241 
L 72.889821 -41.236741 
L 74.237462 -41.129351 
L 75.585103 -41.106669 
L 76.932745 -41.174989 
L 78.280386 -41.351919 
L 79.628028 -41.304226 
L 80.975669 -41.475502 
L 82.32331 -41.768338 
L 83.670952 -41.201285 
L 85.018593 -41.031529 
L 86.366234 -41.112934 
L 87.713876 -40.565371 
L 89.061517 -40.252468 
L 90.409159 -40.513932 
L 91.7568 -40.377181 
L 93.104441 -39.966853 
L 94.452083 -39.848803 
L 95.799724 -39.994919 
L 97.147366 -39.749644 
L 98.495007 -39.879302 
L 99.842648 -39.709979 
L 101.19029 -39.657293 
L 102.537931 -39.837491 
L 103.885572 -39.705199 
L 105.233214 -39.905768 
L 106.580855 -40.019747 
L 107.928497 -40.183559 
L 109.276138 -39.997272 
L 110.623779 -39.921564 
L 111.971421 -40.182996 
L 113.319062 -40.073671 
L 114.666703 -40.402448 
L 116.014345 -40.600407 
L 117.361986 -40.648577 
L 118.709628 -40.454937 
L 120.057269 -40.008497 
L 121.40491 -40.134686 
L 122.752552 -39.96154 
L 124.100193 -40.11333 
L 125.447834 -40.433306 
L 126.795476 -40.235915 
L 128.143117 -39.782595 
L 129.490759 -39.529918 
L 130.8384 -39.420311 
L 132.186041 -38.996632 
L 133.533683 -39.256933 
L 134.881324 -39.266237 
L 136.228966 -38.991176 
L 137.576607 -38.95289 
L 138.924248 -38.458027 
L 140.27189 -37.266542 
L 141.619531 -35.982995 
L 142.967172 -35.211278 
L 144.314814 -34.197277 
L 145.662455 -33.75291 
L 147.010097 -34.235756 
L 148.357738 -34.827877 
L 149.705379 -35.116689 
L 151.053021 -35.340244 
L 152.400662 -35.850879 
L 153.748303 -35.920808 
L 155.095945 -36.081095 
L 156.443586 -36.057286 
L 157.791228 -36.524507 
L 159.138869 -36.444496 
L 160.48651 -36.495738 
L 161.834152 -36.604169 
L 163.181793 -36.86413 
L 164.529434 -37.698309 
L 165.877076 -37.967244 
L 167.224717 -38.741977 
L 168.572359 -38.939016 
L 169.92 -38.832863 
L 169.92 -42.716192 
L 169.92 -42.716192 
L 168.572359 -43.07109 
L 167.224717 -43.046071 
L 165.877076 -42.520001 
L 164.529434 -42.432356 
L 163.181793 -41.770114 
L 161.834152 -41.649869 
L 160.48651 -41.596439 
L 159.138869 -41.722771 
L 157.791228 -41.950133 
L 156.443586 -41.667166 
L 155.095945 -41.772795 
L 153.748303 -41.757884 
L 152.400662 -41.740159 
L 151.053021 -41.454917 
L 149.705379 -41.265588 
L 148.357738 -41.022447 
L 147.010097 -40.491052 
L 145.662455 -40.178667 
L 144.314814 -40.624318 
L 142.967172 -41.76199 
L 141.619531 -42.667984 
L 140.27189 -43.962887 
L 138.924248 -45.271805 
L 137.576607 -45.723363 
L 136.228966 -45.819278 
L 134.881324 -46.121149 
L 133.533683 -45.909025 
L 132.186041 -45.691799 
L 130.8384 -46.08107 
L 129.490759 -46.123411 
L 128.143117 -46.106684 
L 126.795476 -46.664126 
L 125.447834 -46.667782 
L 124.100193 -46.284582 
L 122.752552 -45.964153 
L 121.40491 -46.034182 
L 120.057269 -45.79919 
L 118.709628 -46.183824 
L 117.361986 -46.516508 
L 116.014345 -46.450236 
L 114.666703 -46.205052 
L 113.319062 -45.969093 
L 111.971421 -45.88057 
L 110.623779 -45.660256 
L 109.276138 -45.775599 
L 107.928497 -46.028498 
L 106.580855 -45.841052 
L 105.233214 -45.766165 
L 103.885572 -45.538186 
L 102.537931 -45.797308 
L 101.19029 -45.61643 
L 99.842648 -45.749224 
L 98.495007 -45.918347 
L 97.147366 -45.795608 
L 95.799724 -46.125903 
L 94.452083 -46.044003 
L 93.104441 -46.059566 
L 91.7568 -46.605825 
L 90.409159 -46.725456 
L 89.061517 -46.467583 
L 87.713876 -46.697585 
L 86.366234 -47.013067 
L 85.018593 -46.939424 
L 83.670952 -46.874675 
L 82.32331 -47.132354 
L 80.975669 -46.533429 
L 79.628028 -46.215412 
L 78.280386 -45.825946 
L 76.932745 -45.429689 
L 75.585103 -45.134031 
L 74.237462 -45.010435 
L 72.889821 -44.928539 
L 71.542179 -45.085741 
L 70.194538 -45.029526 
L 68.846897 -44.650195 
L 67.499255 -44.64994 
L 66.151614 -45.308717 
L 64.803972 -45.366794 
L 63.456331 -44.608691 
L 62.10869 -44.117418 
L 60.761048 -44.110509 
L 59.413407 -44.058844 
L 58.065766 -43.606014 
L 56.718124 -43.694127 
L 55.370483 -43.86728 
L 54.022841 -43.907205 
L 52.6752 -44.223142 
L 51.327559 -44.48567 
L 49.979917 -44.914143 
L 48.632276 -45.05872 
L 47.284634 -44.777445 
L 45.936993 -44.93463 
L 44.589352 -44.701765 
L 43.24171 -44.633968 
L 41.894069 -44.781794 
L 40.546428 -44.673404 
L 39.198786 -44.865284 
L 37.851145 -44.780698 
L 36.503503 -44.634559 
L 35.155862 -44.622857 
L 33.808221 -44.945969 
L 32.460579 -44.921325 
L 31.112938 -44.663523 
L 29.765297 -44.402736 
L 28.417655 -44.128575 
L 27.070014 -43.739975 
L 25.722372 -42.451083 
L 24.374731 -42.034882 
L 23.02709 -43.0141 
L 21.679448 -43.550159 
L 20.331807 -44.124093 
L 18.984166 -44.483506 
L 17.636524 -44.630372 
L 16.288883 -44.81403 
L 14.941241 -44.713523 
L 13.5936 -44.857601 
z
" id="m34451902c3" style="stroke:#d62728;stroke-opacity:0.2;stroke-width:0.5;"/>
    </defs>
    <g clip-path="url(#pda771443ed)">
     <use style="fill:#d62728;fill-opacity:0.2;stroke:#d62728;stroke-opacity:0.2;stroke-width:0.5;" x="0" xlink:href="#m34451902c3" y="64.08"/>
    </g>
   </g>
   <g id="PolyCollection_3">
    <defs>
     <path d="M 13.5936 -45.006891 
L 13.5936 -41.163549 
L 14.941241 -40.77152 
L 16.288883 -39.850733 
L 17.636524 -40.092883 
L 18.984166 -40.309606 
L 20.331807 -40.827601 
L 21.679448 -40.690383 
L 23.02709 -40.483999 
L 24.374731 -41.229765 
L 25.722372 -41.269208 
L 27.070014 -40.857614 
L 28.417655 -40.55512 
L 29.765297 -40.949316 
L 31.112938 -41.177454 
L 32.460579 -41.044446 
L 33.808221 -41.243983 
L 35.155862 -41.447267 
L 36.503503 -41.274937 
L 37.851145 -41.600277 
L 39.198786 -41.491186 
L 40.546428 -41.08626 
L 41.894069 -40.978195 
L 43.24171 -41.004251 
L 44.589352 -41.70781 
L 45.936993 -41.308929 
L 47.284634 -40.576019 
L 48.632276 -41.078477 
L 49.979917 -41.198575 
L 51.327559 -41.307283 
L 52.6752 -41.707085 
L 54.022841 -41.540722 
L 55.370483 -41.8426 
L 56.718124 -40.85416 
L 58.065766 -39.651762 
L 59.413407 -37.465352 
L 60.761048 -34.861958 
L 62.10869 -34.049627 
L 63.456331 -33.779386 
L 64.803972 -35.173994 
L 66.151614 -36.006957 
L 67.499255 -35.831597 
L 68.846897 -36.614759 
L 70.194538 -38.824771 
L 71.542179 -40.432639 
L 72.889821 -41.297575 
L 74.237462 -41.334885 
L 75.585103 -41.608271 
L 76.932745 -42.420962 
L 78.280386 -41.790958 
L 79.628028 -41.782745 
L 80.975669 -42.293981 
L 82.32331 -41.860369 
L 83.670952 -41.430536 
L 85.018593 -41.688906 
L 86.366234 -40.885477 
L 87.713876 -41.479489 
L 89.061517 -41.608642 
L 90.409159 -41.44784 
L 91.7568 -40.818246 
L 93.104441 -40.574243 
L 94.452083 -41.457398 
L 95.799724 -40.969864 
L 97.147366 -41.02392 
L 98.495007 -41.38335 
L 99.842648 -41.162399 
L 101.19029 -40.795412 
L 102.537931 -41.372231 
L 103.885572 -40.651543 
L 105.233214 -40.209848 
L 106.580855 -40.573717 
L 107.928497 -40.954832 
L 109.276138 -41.512935 
L 110.623779 -41.901941 
L 111.971421 -40.873125 
L 113.319062 -41.38438 
L 114.666703 -41.243098 
L 116.014345 -40.95541 
L 117.361986 -41.593658 
L 118.709628 -41.580263 
L 120.057269 -42.141362 
L 121.40491 -42.219818 
L 122.752552 -42.424868 
L 124.100193 -42.169853 
L 125.447834 -42.018427 
L 126.795476 -42.286316 
L 128.143117 -42.328867 
L 129.490759 -42.60171 
L 130.8384 -41.995864 
L 132.186041 -41.947714 
L 133.533683 -41.970439 
L 134.881324 -41.419392 
L 136.228966 -41.287265 
L 137.576607 -41.273811 
L 138.924248 -41.853358 
L 140.27189 -41.321596 
L 141.619531 -41.169908 
L 142.967172 -41.411459 
L 144.314814 -41.025134 
L 145.662455 -40.686528 
L 147.010097 -40.391399 
L 148.357738 -40.641066 
L 149.705379 -40.932358 
L 151.053021 -41.787604 
L 152.400662 -42.533782 
L 153.748303 -40.561304 
L 155.095945 -38.627736 
L 156.443586 -39.066982 
L 157.791228 -39.125395 
L 159.138869 -38.742705 
L 160.48651 -38.766911 
L 161.834152 -38.791377 
L 163.181793 -38.449855 
L 164.529434 -37.741361 
L 165.877076 -36.769184 
L 167.224717 -36.139282 
L 168.572359 -35.186993 
L 169.92 -34.34833 
L 169.92 -38.960254 
L 169.92 -38.960254 
L 168.572359 -39.863426 
L 167.224717 -40.827181 
L 165.877076 -41.385171 
L 164.529434 -42.413825 
L 163.181793 -42.976899 
L 161.834152 -43.155907 
L 160.48651 -43.010329 
L 159.138869 -42.974308 
L 157.791228 -43.287366 
L 156.443586 -43.107835 
L 155.095945 -42.629371 
L 153.748303 -44.550257 
L 152.400662 -46.466283 
L 151.053021 -45.699536 
L 149.705379 -44.849341 
L 148.357738 -44.432109 
L 147.010097 -44.257045 
L 145.662455 -44.555121 
L 144.314814 -44.919384 
L 142.967172 -45.261941 
L 141.619531 -45.142943 
L 140.27189 -45.260755 
L 138.924248 -45.724663 
L 137.576607 -45.224664 
L 136.228966 -45.167925 
L 134.881324 -45.304267 
L 133.533683 -45.90241 
L 132.186041 -45.823583 
L 130.8384 -45.898536 
L 129.490759 -46.483155 
L 128.143117 -46.217002 
L 126.795476 -46.106291 
L 125.447834 -45.895309 
L 124.100193 -46.132807 
L 122.752552 -46.34702 
L 121.40491 -46.204563 
L 120.057269 -46.168541 
L 118.709628 -45.639322 
L 117.361986 -45.75535 
L 116.014345 -45.074058 
L 114.666703 -45.350041 
L 113.319062 -45.390318 
L 111.971421 -44.989884 
L 110.623779 -45.905412 
L 109.276138 -45.557478 
L 107.928497 -44.946518 
L 106.580855 -44.691832 
L 105.233214 -44.229774 
L 103.885572 -44.672896 
L 102.537931 -45.306979 
L 101.19029 -44.764479 
L 99.842648 -45.095566 
L 98.495007 -45.385972 
L 97.147366 -44.93989 
L 95.799724 -44.827841 
L 94.452083 -45.284297 
L 93.104441 -44.323867 
L 91.7568 -44.526555 
L 90.409159 -45.218833 
L 89.061517 -45.262306 
L 87.713876 -45.103956 
L 86.366234 -44.463746 
L 85.018593 -45.21729 
L 83.670952 -44.93398 
L 82.32331 -45.263333 
L 80.975669 -45.701965 
L 79.628028 -45.327844 
L 78.280386 -45.248563 
L 76.932745 -45.85665 
L 75.585103 -45.074336 
L 74.237462 -44.778311 
L 72.889821 -44.822509 
L 71.542179 -44.041758 
L 70.194538 -42.564723 
L 68.846897 -40.419957 
L 67.499255 -39.721962 
L 66.151614 -40.00922 
L 64.803972 -39.234805 
L 63.456331 -37.966741 
L 62.10869 -38.122454 
L 60.761048 -38.891592 
L 59.413407 -41.419412 
L 58.065766 -43.560172 
L 56.718124 -44.719726 
L 55.370483 -45.708165 
L 54.022841 -45.444841 
L 52.6752 -45.582049 
L 51.327559 -45.13721 
L 49.979917 -45.059423 
L 48.632276 -44.831752 
L 47.284634 -44.40773 
L 45.936993 -45.144657 
L 44.589352 -45.578837 
L 43.24171 -45.031653 
L 41.894069 -45.005269 
L 40.546428 -45.204382 
L 39.198786 -45.592291 
L 37.851145 -45.646765 
L 36.503503 -45.309304 
L 35.155862 -45.436836 
L 33.808221 -45.258167 
L 32.460579 -45.112232 
L 31.112938 -45.261651 
L 29.765297 -44.914568 
L 28.417655 -44.465277 
L 27.070014 -44.707729 
L 25.722372 -44.995952 
L 24.374731 -45.028979 
L 23.02709 -44.268516 
L 21.679448 -44.483437 
L 20.331807 -44.657948 
L 18.984166 -44.049999 
L 17.636524 -43.937256 
L 16.288883 -43.677503 
L 14.941241 -44.609672 
L 13.5936 -45.006891 
z
" id="m2668ab3169" style="stroke:#17becf;stroke-opacity:0.2;stroke-width:0.5;"/>
    </defs>
    <g clip-path="url(#pda771443ed)">
     <use style="fill:#17becf;fill-opacity:0.2;stroke:#17becf;stroke-opacity:0.2;stroke-width:0.5;" x="0" xlink:href="#m2668ab3169" y="64.08"/>
    </g>
   </g>
   <g id="PolyCollection_4">
    <defs>
     <path d="M 13.5936 -44.261418 
L 13.5936 -39.79133 
L 14.941241 -40.092115 
L 16.288883 -39.603638 
L 17.636524 -39.694594 
L 18.984166 -40.700112 
L 20.331807 -40.621535 
L 21.679448 -40.215111 
L 23.02709 -40.361969 
L 24.374731 -40.864931 
L 25.722372 -40.72156 
L 27.070014 -40.564442 
L 28.417655 -40.554144 
L 29.765297 -40.076793 
L 31.112938 -40.167815 
L 32.460579 -40.118202 
L 33.808221 -39.873136 
L 35.155862 -40.17521 
L 36.503503 -40.181013 
L 37.851145 -39.915653 
L 39.198786 -39.930044 
L 40.546428 -39.978409 
L 41.894069 -39.907088 
L 43.24171 -39.830726 
L 44.589352 -39.729625 
L 45.936993 -39.717323 
L 47.284634 -39.765865 
L 48.632276 -39.714609 
L 49.979917 -39.79683 
L 51.327559 -39.949692 
L 52.6752 -40.074235 
L 54.022841 -40.125169 
L 55.370483 -40.181566 
L 56.718124 -40.257707 
L 58.065766 -40.365114 
L 59.413407 -40.497652 
L 60.761048 -40.536349 
L 62.10869 -40.467283 
L 63.456331 -40.533882 
L 64.803972 -40.479242 
L 66.151614 -40.497427 
L 67.499255 -40.550996 
L 68.846897 -40.723221 
L 70.194538 -40.968429 
L 71.542179 -41.097577 
L 72.889821 -40.970614 
L 74.237462 -40.842727 
L 75.585103 -40.767041 
L 76.932745 -40.678177 
L 78.280386 -40.674079 
L 79.628028 -40.460459 
L 80.975669 -40.403978 
L 82.32331 -40.646071 
L 83.670952 -40.884407 
L 85.018593 -40.623188 
L 86.366234 -39.842701 
L 87.713876 -38.744385 
L 89.061517 -38.626135 
L 90.409159 -39.26129 
L 91.7568 -39.747481 
L 93.104441 -40.540216 
L 94.452083 -41.156455 
L 95.799724 -41.661106 
L 97.147366 -41.679929 
L 98.495007 -41.173434 
L 99.842648 -40.777628 
L 101.19029 -40.248654 
L 102.537931 -39.8167 
L 103.885572 -39.330094 
L 105.233214 -38.835628 
L 106.580855 -38.398862 
L 107.928497 -37.562939 
L 109.276138 -36.142013 
L 110.623779 -35.087756 
L 111.971421 -34.550489 
L 113.319062 -34.36988 
L 114.666703 -34.259195 
L 116.014345 -33.742859 
L 117.361986 -33.845449 
L 118.709628 -34.401364 
L 120.057269 -35.860138 
L 121.40491 -35.02958 
L 122.752552 -35.563775 
L 124.100193 -38.433346 
L 125.447834 -39.21607 
L 126.795476 -39.444046 
L 128.143117 -40.876348 
L 129.490759 -41.357732 
L 130.8384 -41.426668 
L 132.186041 -42.588327 
L 133.533683 -42.477691 
L 134.881324 -42.539513 
L 136.228966 -42.033338 
L 137.576607 -41.432489 
L 138.924248 -41.666923 
L 140.27189 -42.410342 
L 141.619531 -41.583127 
L 142.967172 -40.902927 
L 144.314814 -42.656541 
L 145.662455 -43.206037 
L 147.010097 -42.0922 
L 148.357738 -41.092702 
L 149.705379 -41.304059 
L 151.053021 -41.146298 
L 152.400662 -40.548858 
L 153.748303 -40.80605 
L 155.095945 -41.146592 
L 156.443586 -41.116832 
L 157.791228 -40.841932 
L 159.138869 -40.815627 
L 160.48651 -40.879796 
L 161.834152 -41.213476 
L 163.181793 -41.311849 
L 164.529434 -41.098099 
L 165.877076 -40.933823 
L 167.224717 -40.935413 
L 168.572359 -41.202672 
L 169.92 -41.273291 
L 169.92 -44.969973 
L 169.92 -44.969973 
L 168.572359 -44.986465 
L 167.224717 -44.760513 
L 165.877076 -44.825105 
L 164.529434 -44.943755 
L 163.181793 -45.213624 
L 161.834152 -45.104555 
L 160.48651 -44.704074 
L 159.138869 -44.695325 
L 157.791228 -44.638824 
L 156.443586 -44.888 
L 155.095945 -44.892773 
L 153.748303 -44.505974 
L 152.400662 -44.173131 
L 151.053021 -44.782885 
L 149.705379 -44.894065 
L 148.357738 -44.622314 
L 147.010097 -45.708419 
L 145.662455 -46.812462 
L 144.314814 -46.321647 
L 142.967172 -44.606177 
L 141.619531 -45.403053 
L 140.27189 -46.24704 
L 138.924248 -45.568018 
L 137.576607 -45.362481 
L 136.228966 -45.985212 
L 134.881324 -46.490077 
L 133.533683 -46.468757 
L 132.186041 -46.492327 
L 130.8384 -45.299361 
L 129.490759 -45.330391 
L 128.143117 -44.806278 
L 126.795476 -43.64641 
L 125.447834 -43.40376 
L 124.100193 -42.926472 
L 122.752552 -40.12987 
L 121.40491 -39.717646 
L 120.057269 -40.689374 
L 118.709628 -39.316202 
L 117.361986 -38.862177 
L 116.014345 -38.951279 
L 114.666703 -39.382219 
L 113.319062 -39.651286 
L 111.971421 -39.685182 
L 110.623779 -40.136893 
L 109.276138 -41.109526 
L 107.928497 -42.501664 
L 106.580855 -43.264802 
L 105.233214 -43.576957 
L 103.885572 -44.079891 
L 102.537931 -44.477463 
L 101.19029 -44.928102 
L 99.842648 -45.429527 
L 98.495007 -45.809649 
L 97.147366 -46.247554 
L 95.799724 -46.134895 
L 94.452083 -45.530615 
L 93.104441 -44.751701 
L 91.7568 -43.76101 
L 90.409159 -43.181693 
L 89.061517 -42.353923 
L 87.713876 -42.389261 
L 86.366234 -43.320623 
L 85.018593 -44.063459 
L 83.670952 -44.24335 
L 82.32331 -43.9959 
L 80.975669 -43.732912 
L 79.628028 -43.682944 
L 78.280386 -43.877422 
L 76.932745 -43.872848 
L 75.585103 -43.939331 
L 74.237462 -43.973229 
L 72.889821 -44.105837 
L 71.542179 -44.22727 
L 70.194538 -44.1227 
L 68.846897 -43.984351 
L 67.499255 -43.849464 
L 66.151614 -43.792024 
L 64.803972 -43.841074 
L 63.456331 -44.048047 
L 62.10869 -44.020945 
L 60.761048 -44.134923 
L 59.413407 -44.209945 
L 58.065766 -44.070192 
L 56.718124 -44.135439 
L 55.370483 -43.976232 
L 54.022841 -44.018177 
L 52.6752 -44.01161 
L 51.327559 -43.932001 
L 49.979917 -43.821546 
L 48.632276 -43.789424 
L 47.284634 -43.876476 
L 45.936993 -43.929815 
L 44.589352 -43.949059 
L 43.24171 -44.039036 
L 41.894069 -44.107655 
L 40.546428 -44.322383 
L 39.198786 -44.176621 
L 37.851145 -44.272757 
L 36.503503 -44.518026 
L 35.155862 -44.57649 
L 33.808221 -44.300648 
L 32.460579 -44.51704 
L 31.112938 -44.68691 
L 29.765297 -44.643546 
L 28.417655 -45.09454 
L 27.070014 -45.104061 
L 25.722372 -45.252022 
L 24.374731 -45.447527 
L 23.02709 -44.893753 
L 21.679448 -44.76652 
L 20.331807 -45.068309 
L 18.984166 -45.281927 
L 17.636524 -44.325668 
L 16.288883 -44.140911 
L 14.941241 -44.641046 
L 13.5936 -44.261418 
z
" id="md1b79fb14a" style="stroke:#bcbd22;stroke-opacity:0.2;stroke-width:0.5;"/>
    </defs>
    <g clip-path="url(#pda771443ed)">
     <use style="fill:#bcbd22;fill-opacity:0.2;stroke:#bcbd22;stroke-opacity:0.2;stroke-width:0.5;" x="0" xlink:href="#md1b79fb14a" y="64.08"/>
    </g>
   </g>
   <g id="line2d_1">
    <path clip-path="url(#pda771443ed)" d="M 13.5936 22.569189 
L 14.941241 22.631718 
L 16.288883 22.673712 
L 17.636524 22.395686 
L 18.984166 22.140772 
L 20.331807 21.911873 
L 21.679448 21.724596 
L 23.02709 21.549237 
L 24.374731 20.548054 
L 25.722372 20.488585 
L 27.070014 21.291498 
L 28.417655 21.551726 
L 29.765297 21.836779 
L 31.112938 22.095247 
L 32.460579 22.38103 
L 33.808221 22.409495 
L 35.155862 22.161515 
L 36.503503 22.097768 
L 37.851145 21.90811 
L 39.198786 21.840928 
L 40.546428 21.661833 
L 41.894069 21.794167 
L 43.24171 21.788567 
L 44.589352 21.924428 
L 45.936993 22.267573 
L 47.284634 22.211336 
L 48.632276 22.380391 
L 49.979917 22.222317 
L 51.327559 21.912555 
L 52.6752 21.908698 
L 54.022841 21.741846 
L 55.370483 21.789777 
L 56.718124 21.596957 
L 58.065766 21.473651 
L 59.413407 21.470932 
L 60.761048 20.984457 
L 62.10869 20.601374 
L 63.456331 20.128931 
L 64.803972 19.705412 
L 66.151614 19.599118 
L 67.499255 19.405793 
L 68.846897 19.458433 
L 70.194538 20.367272 
L 71.542179 21.103556 
L 72.889821 21.262614 
L 74.237462 21.722022 
L 75.585103 22.358822 
L 76.932745 23.061381 
L 78.280386 23.583525 
L 79.628028 24.086996 
L 80.975669 25.236226 
L 82.32331 25.81682 
L 83.670952 25.698597 
L 85.018593 26.451622 
L 86.366234 26.292396 
L 87.713876 25.511212 
L 89.061517 24.887229 
L 90.409159 25.235427 
L 91.7568 24.938758 
L 93.104441 23.902171 
L 94.452083 23.794726 
L 95.799724 23.705777 
L 97.147366 23.571931 
L 98.495007 24.157815 
L 99.842648 23.604204 
L 101.19029 22.744781 
L 102.537931 23.30348 
L 103.885572 22.846582 
L 105.233214 22.85644 
L 106.580855 22.83393 
L 107.928497 22.666864 
L 109.276138 22.635065 
L 110.623779 22.639957 
L 111.971421 22.507935 
L 113.319062 23.091242 
L 114.666703 24.023152 
L 116.014345 23.601317 
L 117.361986 23.190445 
L 118.709628 22.802374 
L 120.057269 22.208591 
L 121.40491 21.528402 
L 122.752552 21.076411 
L 124.100193 20.927783 
L 125.447834 20.817726 
L 126.795476 20.611573 
L 128.143117 20.89843 
L 129.490759 21.5935 
L 130.8384 21.314961 
L 132.186041 21.406706 
L 133.533683 21.532063 
L 134.881324 21.200093 
L 136.228966 19.788215 
L 137.576607 19.209985 
L 138.924248 21.184845 
L 140.27189 22.341911 
L 141.619531 22.762349 
L 142.967172 23.157151 
L 144.314814 23.173946 
L 145.662455 22.54634 
L 147.010097 21.166861 
L 148.357738 20.13286 
L 149.705379 18.988983 
L 151.053021 19.023662 
L 152.400662 19.85887 
L 153.748303 19.578589 
L 155.095945 19.465928 
L 156.443586 19.487365 
L 157.791228 19.603298 
L 159.138869 19.585232 
L 160.48651 19.588721 
L 161.834152 19.49755 
L 163.181793 19.878767 
L 164.529434 20.362484 
L 165.877076 20.118383 
L 167.224717 20.465179 
L 168.572359 20.4255 
L 169.92 19.980466 
" style="fill:none;stroke:#9467bd;stroke-linecap:square;stroke-width:0.5;"/>
   </g>
   <g id="line2d_2">
    <path clip-path="url(#pda771443ed)" d="M 13.5936 22.112214 
L 14.941241 22.238726 
L 16.288883 22.112084 
L 17.636524 22.384472 
L 18.984166 22.505128 
L 20.331807 22.881247 
L 21.679448 23.399608 
L 23.02709 23.94824 
L 24.374731 24.931806 
L 25.722372 24.504223 
L 27.070014 23.282845 
L 28.417655 22.873028 
L 29.765297 22.600154 
L 31.112938 22.35034 
L 32.460579 22.12691 
L 33.808221 22.082365 
L 35.155862 22.459554 
L 36.503503 22.472362 
L 37.851145 22.361606 
L 39.198786 22.384462 
L 40.546428 22.48693 
L 41.894069 22.400876 
L 43.24171 22.523031 
L 44.589352 22.463453 
L 45.936993 22.233066 
L 47.284634 22.36715 
L 48.632276 22.095917 
L 49.979917 22.149591 
L 51.327559 22.617087 
L 52.6752 22.759473 
L 54.022841 22.987127 
L 55.370483 22.956532 
L 56.718124 22.945188 
L 58.065766 22.975511 
L 59.413407 22.379897 
L 60.761048 22.211499 
L 62.10869 22.031534 
L 63.456331 21.418543 
L 64.803972 20.584144 
L 66.151614 20.574435 
L 67.499255 21.210812 
L 68.846897 21.196904 
L 70.194538 20.812223 
L 71.542179 20.801009 
L 72.889821 20.99736 
L 74.237462 21.010107 
L 75.585103 20.95965 
L 76.932745 20.777661 
L 78.280386 20.491068 
L 79.628028 20.320181 
L 80.975669 20.075535 
L 82.32331 19.629654 
L 83.670952 20.04202 
L 85.018593 20.094524 
L 86.366234 20.017 
L 87.713876 20.448522 
L 89.061517 20.719974 
L 90.409159 20.460306 
L 91.7568 20.588497 
L 93.104441 21.066791 
L 94.452083 21.133597 
L 95.799724 21.019589 
L 97.147366 21.307374 
L 98.495007 21.181175 
L 99.842648 21.350399 
L 101.19029 21.443138 
L 102.537931 21.2626 
L 103.885572 21.458308 
L 105.233214 21.244033 
L 106.580855 21.1496 
L 107.928497 20.973972 
L 109.276138 21.193564 
L 110.623779 21.28909 
L 111.971421 21.048217 
L 113.319062 21.058618 
L 114.666703 20.77625 
L 116.014345 20.554678 
L 117.361986 20.497458 
L 118.709628 20.760619 
L 120.057269 21.176156 
L 121.40491 20.995566 
L 122.752552 21.117154 
L 124.100193 20.881044 
L 125.447834 20.529456 
L 126.795476 20.629979 
L 128.143117 21.135361 
L 129.490759 21.253336 
L 130.8384 21.329309 
L 132.186041 21.735785 
L 133.533683 21.497021 
L 134.881324 21.386307 
L 136.228966 21.674773 
L 137.576607 21.741874 
L 138.924248 22.215084 
L 140.27189 23.465286 
L 141.619531 24.75451 
L 142.967172 25.593366 
L 144.314814 26.669202 
L 145.662455 27.114211 
L 147.010097 26.716596 
L 148.357738 26.154838 
L 149.705379 25.888861 
L 151.053021 25.68242 
L 152.400662 25.284481 
L 153.748303 25.240654 
L 155.095945 25.153055 
L 156.443586 25.217774 
L 157.791228 24.84268 
L 159.138869 24.996367 
L 160.48651 25.033912 
L 161.834152 24.952981 
L 163.181793 24.762878 
L 164.529434 24.014668 
L 165.877076 23.836377 
L 167.224717 23.185976 
L 168.572359 23.074947 
L 169.92 23.305472 
" style="fill:none;stroke:#d62728;stroke-linecap:square;stroke-width:0.5;"/>
   </g>
   <g id="line2d_3">
    <path clip-path="url(#pda771443ed)" d="M 13.5936 20.99478 
L 14.941241 21.389404 
L 16.288883 22.315882 
L 17.636524 22.06493 
L 18.984166 21.900197 
L 20.331807 21.337225 
L 21.679448 21.49309 
L 23.02709 21.703742 
L 24.374731 20.950628 
L 25.722372 20.94742 
L 27.070014 21.297329 
L 28.417655 21.569801 
L 29.765297 21.148058 
L 31.112938 20.860447 
L 32.460579 21.001661 
L 33.808221 20.828925 
L 35.155862 20.637948 
L 36.503503 20.787879 
L 37.851145 20.456479 
L 39.198786 20.538262 
L 40.546428 20.934679 
L 41.894069 21.088268 
L 43.24171 21.062048 
L 44.589352 20.436677 
L 45.936993 20.853207 
L 47.284634 21.588126 
L 48.632276 21.124885 
L 49.979917 20.951001 
L 51.327559 20.857753 
L 52.6752 20.435433 
L 54.022841 20.587218 
L 55.370483 20.304618 
L 56.718124 21.293057 
L 58.065766 22.474033 
L 59.413407 24.637618 
L 60.761048 27.203225 
L 62.10869 27.993959 
L 63.456331 28.206936 
L 64.803972 26.875601 
L 66.151614 26.071911 
L 67.499255 26.30322 
L 68.846897 25.562642 
L 70.194538 23.385253 
L 71.542179 21.842801 
L 72.889821 21.019958 
L 74.237462 21.023402 
L 75.585103 20.738696 
L 76.932745 19.941194 
L 78.280386 20.560239 
L 79.628028 20.524706 
L 80.975669 20.082027 
L 82.32331 20.518149 
L 83.670952 20.897742 
L 85.018593 20.626902 
L 86.366234 21.405388 
L 87.713876 20.788278 
L 89.061517 20.644526 
L 90.409159 20.746663 
L 91.7568 21.407599 
L 93.104441 21.630945 
L 94.452083 20.709152 
L 95.799724 21.181147 
L 97.147366 21.098095 
L 98.495007 20.695339 
L 99.842648 20.951018 
L 101.19029 21.300055 
L 102.537931 20.740395 
L 103.885572 21.41778 
L 105.233214 21.860189 
L 106.580855 21.447226 
L 107.928497 21.129325 
L 109.276138 20.544794 
L 110.623779 20.176323 
L 111.971421 21.148496 
L 113.319062 20.692651 
L 114.666703 20.78343 
L 116.014345 21.065266 
L 117.361986 20.405496 
L 118.709628 20.470207 
L 120.057269 19.925048 
L 121.40491 19.867809 
L 122.752552 19.694056 
L 124.100193 19.92867 
L 125.447834 20.123132 
L 126.795476 19.883697 
L 128.143117 19.807065 
L 129.490759 19.537567 
L 130.8384 20.1328 
L 132.186041 20.194351 
L 133.533683 20.143575 
L 134.881324 20.71817 
L 136.228966 20.852405 
L 137.576607 20.830763 
L 138.924248 20.290989 
L 140.27189 20.788825 
L 141.619531 20.923574 
L 142.967172 20.7433 
L 144.314814 21.107741 
L 145.662455 21.459176 
L 147.010097 21.755778 
L 148.357738 21.543413 
L 149.705379 21.189151 
L 151.053021 20.33643 
L 152.400662 19.579967 
L 153.748303 21.52422 
L 155.095945 23.451446 
L 156.443586 22.992591 
L 157.791228 22.87362 
L 159.138869 23.221494 
L 160.48651 23.19138 
L 161.834152 23.106358 
L 163.181793 23.366623 
L 164.529434 24.002407 
L 165.877076 25.002822 
L 167.224717 25.596769 
L 168.572359 26.55479 
L 169.92 27.425708 
" style="fill:none;stroke:#17becf;stroke-linecap:square;stroke-width:0.5;"/>
   </g>
   <g id="line2d_4">
    <path clip-path="url(#pda771443ed)" d="M 13.5936 22.053626 
L 14.941241 21.71342 
L 16.288883 22.207725 
L 17.636524 22.069869 
L 18.984166 21.08898 
L 20.331807 21.235078 
L 21.679448 21.589184 
L 23.02709 21.452139 
L 24.374731 20.923771 
L 25.722372 21.093209 
L 27.070014 21.245748 
L 28.417655 21.255658 
L 29.765297 21.71983 
L 31.112938 21.652638 
L 32.460579 21.762379 
L 33.808221 21.993108 
L 35.155862 21.70415 
L 36.503503 21.730481 
L 37.851145 21.985795 
L 39.198786 22.026667 
L 40.546428 21.929604 
L 41.894069 22.072628 
L 43.24171 22.145119 
L 44.589352 22.240658 
L 45.936993 22.256431 
L 47.284634 22.258829 
L 48.632276 22.327983 
L 49.979917 22.270812 
L 51.327559 22.139153 
L 52.6752 22.037077 
L 54.022841 22.008327 
L 55.370483 22.001101 
L 56.718124 21.883427 
L 58.065766 21.862347 
L 59.413407 21.726201 
L 60.761048 21.744364 
L 62.10869 21.835886 
L 63.456331 21.789036 
L 64.803972 21.919842 
L 66.151614 21.935275 
L 67.499255 21.87977 
L 68.846897 21.726214 
L 70.194538 21.534435 
L 71.542179 21.417576 
L 72.889821 21.541775 
L 74.237462 21.672022 
L 75.585103 21.726814 
L 76.932745 21.804487 
L 78.280386 21.804249 
L 79.628028 22.008298 
L 80.975669 22.011555 
L 82.32331 21.759014 
L 83.670952 21.516121 
L 85.018593 21.736677 
L 86.366234 22.498338 
L 87.713876 23.513177 
L 89.061517 23.589971 
L 90.409159 22.858508 
L 91.7568 22.325754 
L 93.104441 21.434042 
L 94.452083 20.736465 
L 95.799724 20.181999 
L 97.147366 20.116258 
L 98.495007 20.588459 
L 99.842648 20.976422 
L 101.19029 21.491622 
L 102.537931 21.932919 
L 103.885572 22.375007 
L 105.233214 22.873707 
L 106.580855 23.248168 
L 107.928497 24.047698 
L 109.276138 25.454231 
L 110.623779 26.467676 
L 111.971421 26.962165 
L 113.319062 27.069417 
L 114.666703 27.259293 
L 116.014345 27.732931 
L 117.361986 27.726187 
L 118.709628 27.221217 
L 120.057269 25.805244 
L 121.40491 26.706387 
L 122.752552 26.233177 
L 124.100193 23.400091 
L 125.447834 22.770085 
L 126.795476 22.534772 
L 128.143117 21.238687 
L 129.490759 20.735939 
L 130.8384 20.716986 
L 132.186041 19.539673 
L 133.533683 19.606776 
L 134.881324 19.565205 
L 136.228966 20.070725 
L 137.576607 20.682515 
L 138.924248 20.46253 
L 140.27189 19.751309 
L 141.619531 20.58691 
L 142.967172 21.325448 
L 144.314814 19.590906 
L 145.662455 19.070751 
L 147.010097 20.17969 
L 148.357738 21.222492 
L 149.705379 20.980938 
L 151.053021 21.115409 
L 152.400662 21.719006 
L 153.748303 21.423988 
L 155.095945 21.060318 
L 156.443586 21.077584 
L 157.791228 21.339622 
L 159.138869 21.324524 
L 160.48651 21.288065 
L 161.834152 20.920984 
L 163.181793 20.817264 
L 164.529434 21.059073 
L 165.877076 21.200536 
L 167.224717 21.232037 
L 168.572359 20.985432 
L 169.92 20.958368 
" style="fill:none;stroke:#bcbd22;stroke-linecap:square;stroke-width:0.5;"/>
   </g>
   <g id="line2d_5">
    <path clip-path="url(#pda771443ed)" d="M 15.156864 55.826496 
L 41.570635 55.826496 
" style="fill:none;stroke:#000000;stroke-linecap:square;stroke-width:1.25;"/>
   </g>
   <g id="line2d_6">
    <path clip-path="url(#pda771443ed)" d="M 15.156864 55.826496 
L 15.156864 39.280017 
" style="fill:none;stroke:#000000;stroke-linecap:square;stroke-width:1.25;"/>
   </g>
   <g id="text_1">
    <text style="font-family:DejaVu Sans;font-size:6px;font-stretch:normal;font-style:normal;font-weight:normal;text-anchor:middle;" transform="rotate(-0, 28.36375, 63.205078)" x="28.36375" y="63.205078">100 ms</text>
   </g>
   <g id="text_2">
    <text style="font-family:DejaVu Sans;font-size:6px;font-stretch:normal;font-style:normal;font-weight:normal;" transform="translate(6.092731 61.566069)rotate(-90)">3 deg/ms</text>
   </g>
   <g id="legend_1">
    <g id="line2d_7">
     <path d="M 100.336875 7.859063 
L 112.336875 7.859063 
" style="fill:none;stroke:#9467bd;stroke-linecap:square;stroke-width:0.5;"/>
    </g>
    <g id="line2d_8"/>
    <g id="text_3">
     <text style="font-family:DejaVu Sans;font-size:6px;font-stretch:normal;font-style:normal;font-weight:normal;text-anchor:start;" transform="rotate(-0, 117.136875, 9.959063)" x="117.136875" y="9.959063">left wrist joint</text>
    </g>
    <g id="line2d_9">
     <path d="M 100.336875 16.665938 
L 112.336875 16.665938 
" style="fill:none;stroke:#d62728;stroke-linecap:square;stroke-width:0.5;"/>
    </g>
    <g id="line2d_10"/>
    <g id="text_4">
     <text style="font-family:DejaVu Sans;font-size:6px;font-stretch:normal;font-style:normal;font-weight:normal;text-anchor:start;" transform="rotate(-0, 117.136875, 18.765938)" x="117.136875" y="18.765938">right wrist joint</text>
    </g>
    <g id="line2d_11">
     <path d="M 100.336875 25.472812 
L 112.336875 25.472812 
" style="fill:none;stroke:#17becf;stroke-linecap:square;stroke-width:0.5;"/>
    </g>
    <g id="line2d_12"/>
    <g id="text_5">
     <text style="font-family:DejaVu Sans;font-size:6px;font-stretch:normal;font-style:normal;font-weight:normal;text-anchor:start;" transform="rotate(-0, 117.136875, 27.572812)" x="117.136875" y="27.572812">left ankle joint</text>
    </g>
    <g id="line2d_13">
     <path d="M 100.336875 34.279688 
L 112.336875 34.279688 
" style="fill:none;stroke:#bcbd22;stroke-linecap:square;stroke-width:0.5;"/>
    </g>
    <g id="line2d_14"/>
    <g id="text_6">
     <text style="font-family:DejaVu Sans;font-size:6px;font-stretch:normal;font-style:normal;font-weight:normal;text-anchor:start;" transform="rotate(-0, 117.136875, 36.379688)" x="117.136875" y="36.379688">right ankle joint</text>
    </g>
   </g>
  </g>
 </g>
 <defs>
  <clipPath id="pda771443ed">
   <rect height="56.3904" width="156.3264" x="13.5936" y="0"/>
  </clipPath>
 </defs>
</svg>
