<?xml version="1.0" encoding="utf-8" standalone="no"?>
<!DOCTYPE svg PUBLIC "-//W3C//DTD SVG 1.1//EN"
  "http://www.w3.org/Graphics/SVG/1.1/DTD/svg11.dtd">
<!-- Created with matplotlib (https://matplotlib.org/) -->
<svg height="64.08pt" version="1.1" viewBox="0 0 84.96 64.08" width="84.96pt" xmlns="http://www.w3.org/2000/svg" xmlns:xlink="http://www.w3.org/1999/xlink">
 <metadata>
  <rdf:RDF xmlns:cc="http://creativecommons.org/ns#" xmlns:dc="http://purl.org/dc/elements/1.1/" xmlns:rdf="http://www.w3.org/1999/02/22-rdf-syntax-ns#">
   <cc:Work>
    <dc:type rdf:resource="http://purl.org/dc/dcmitype/StillImage"/>
    <dc:date>2022-04-01T08:06:39.002879</dc:date>
    <dc:format>image/svg+xml</dc:format>
    <dc:creator>
     <cc:Agent>
      <dc:title>Matplotlib v3.3.1, https://matplotlib.org/</dc:title>
     </cc:Agent>
    </dc:creator>
   </cc:Work>
  </rdf:RDF>
 </metadata>
 <defs>
  <style type="text/css">*{stroke-linecap:butt;stroke-linejoin:round;}</style>
 </defs>
 <g id="figure_1">
  <g id="patch_1">
   <path d="M 0 64.08 
L 84.96 64.08 
L 84.96 0 
L 0 0 
z
" style="fill:none;"/>
  </g>
  <g id="axes_1">
   <g id="patch_2">
    <path d="M 28.8 42.48 
L 77.76 42.48 
L 77.76 1.8 
L 28.8 1.8 
z
" style="fill:none;"/>
   </g>
   <g id="line2d_1">
    <path clip-path="url(#p728bde0237)" d="M 28.8 1.8 
L 29.008163 2.548241 
L 31.089796 15.538991 
L 31.714286 18.068951 
L 32.130612 18.866577 
L 32.755102 19.477608 
L 33.171429 20.400013 
L 33.795918 23.017823 
L 34.420408 25.525867 
L 35.044898 26.895885 
L 35.461224 27.153022 
L 36.085714 27.518936 
L 36.502041 27.648209 
L 37.334694 28.307991 
L 38.37551 29.77902 
L 38.583673 29.723121 
L 38.791837 29.463885 
L 39.208163 28.301451 
L 39.832653 26.620677 
L 40.457143 24.489998 
L 41.497959 20.516276 
L 41.914286 19.833927 
L 42.538776 19.1488 
L 42.955102 17.594688 
L 43.787755 13.6473 
L 44.204082 12.700683 
L 45.036735 11.666715 
L 45.244898 11.591735 
L 45.661224 12.078518 
L 46.077551 13.114371 
L 47.118367 16.903294 
L 47.534694 17.497918 
L 48.367347 17.822137 
L 48.783673 18.021567 
L 48.991837 18.070833 
L 49.616327 18.68386 
L 50.44898 20.350038 
L 51.697959 23.138646 
L 52.114286 23.605019 
L 52.530612 23.764654 
L 52.946939 23.883738 
L 53.363265 24.042723 
L 54.195918 24.186381 
L 55.236735 24.075986 
L 55.653061 23.473288 
L 56.485714 21.751919 
L 57.110204 21.150261 
L 57.734694 20.679414 
L 58.359184 20.268705 
L 58.77551 20.176514 
L 59.191837 20.194906 
L 59.608163 19.990829 
L 60.440816 19.309133 
L 61.065306 18.863904 
L 61.481633 18.945871 
L 62.106122 19.063223 
L 65.644898 19.691666 
L 67.310204 20.893919 
L 67.934694 21.04961 
L 68.559184 20.873313 
L 69.391837 20.634964 
L 71.889796 20.485448 
L 74.804082 20.385713 
L 75.636735 20.239648 
L 77.302041 20.162419 
L 78.967347 20.269454 
L 78.967347 20.269454 
" style="fill:none;stroke:#9467bd;stroke-linecap:square;stroke-width:0.5;"/>
   </g>
   <g id="line2d_2">
    <path clip-path="url(#p728bde0237)" d="M 28.8 1.8 
L 29.008163 2.249009 
L 29.42449 4.06955 
L 30.881633 11.75129 
L 33.171429 22.867194 
L 33.795918 24.518054 
L 35.044898 27.263471 
L 35.877551 28.702671 
L 36.293878 29.07881 
L 37.126531 29.500496 
L 37.75102 29.725288 
L 38.167347 29.6801 
L 38.583673 29.332744 
L 39 28.703059 
L 40.873469 24.767698 
L 41.497959 22.758201 
L 42.746939 18.153694 
L 44.828571 11.811151 
L 45.244898 11.23378 
L 45.453061 11.187205 
L 45.869388 11.525135 
L 46.493878 12.282784 
L 47.326531 12.772882 
L 47.742857 13.537282 
L 48.57551 16.048459 
L 49.408163 18.597784 
L 50.865306 21.754571 
L 52.114286 23.999211 
L 53.155102 24.823835 
L 54.195918 25.608981 
L 54.612245 25.774212 
L 55.028571 25.677267 
L 55.444898 25.37442 
L 56.069388 24.518431 
L 57.526531 22.058526 
L 58.567347 20.696048 
L 59.191837 20.276577 
L 61.065306 19.652028 
L 62.730612 18.707915 
L 63.979592 17.500504 
L 64.395918 17.587279 
L 65.436735 18.374563 
L 66.061224 18.778905 
L 67.934694 19.964495 
L 70.016327 20.696312 
L 74.804082 20.733882 
L 75.636735 20.307888 
L 76.469388 20.202842 
L 78.134694 20.230631 
L 78.967347 20.281502 
L 78.967347 20.281502 
" style="fill:none;stroke:#d62728;stroke-linecap:square;stroke-width:0.5;"/>
   </g>
   <g id="line2d_3">
    <path clip-path="url(#p728bde0237)" d="M 28.8 1.8 
L 29.008163 2.686444 
L 29.840816 10.139272 
L 30.465306 15.623949 
L 30.881633 18.093116 
L 31.297959 19.415909 
L 31.714286 19.884266 
L 32.130612 20.077685 
L 32.755102 20.828322 
L 33.171429 21.400196 
L 33.379592 21.517798 
L 33.795918 22.131526 
L 34.212245 22.813582 
L 34.836735 23.291075 
L 35.253061 23.697419 
L 36.293878 25.018896 
L 36.710204 25.049124 
L 38.167347 24.448419 
L 39 23.760481 
L 39.62449 22.999229 
L 40.457143 22.758598 
L 41.081633 22.701896 
L 41.497959 22.745534 
L 42.330612 21.940397 
L 42.746939 21.168394 
L 43.371429 18.822248 
L 43.995918 16.804377 
L 44.828571 14.773547 
L 45.244898 13.928675 
L 45.661224 13.523606 
L 46.077551 13.69704 
L 46.702041 14.422344 
L 47.118367 15.631868 
L 47.742857 17.590545 
L 48.159184 18.28624 
L 48.57551 18.739167 
L 49.2 19.810178 
L 50.240816 20.932557 
L 51.073469 22.245801 
L 51.489796 22.434757 
L 51.906122 22.468834 
L 52.114286 22.565598 
L 52.738776 22.421706 
L 53.155102 22.288606 
L 53.571429 22.380152 
L 53.987755 22.501479 
L 54.404082 22.426983 
L 55.028571 22.106903 
L 56.069388 22.060184 
L 57.318367 21.295427 
L 57.942857 21.190612 
L 58.77551 21.185364 
L 59.816327 20.817474 
L 60.440816 20.083381 
L 61.481633 18.939768 
L 61.689796 18.975892 
L 62.314286 19.68501 
L 62.938776 20.21578 
L 63.355102 20.411794 
L 63.563265 20.432819 
L 63.979592 20.157807 
L 64.395918 19.660404 
L 65.020408 18.70426 
L 65.228571 18.610077 
L 65.436735 18.656723 
L 65.853061 19.19377 
L 67.102041 21.546008 
L 67.518367 21.609579 
L 68.559184 21.419975 
L 68.97551 21.537048 
L 69.391837 21.361009 
L 69.808163 21.139938 
L 74.387755 20.354207 
L 76.053061 20.323901 
L 76.677551 20.274136 
L 77.926531 20.281177 
L 78.967347 20.287699 
L 78.967347 20.287699 
" style="fill:none;stroke:#17becf;stroke-linecap:square;stroke-width:0.5;"/>
   </g>
   <g id="line2d_4">
    <path clip-path="url(#p728bde0237)" d="M 28.8 1.8 
L 29.008163 2.685411 
L 29.632653 7.964622 
L 30.673469 18.715646 
L 31.297959 23.044376 
L 31.714286 24.551927 
L 31.922449 24.68135 
L 32.338776 24.55005 
L 32.755102 23.626205 
L 33.587755 21.881344 
L 34.004082 21.791031 
L 34.836735 22.118165 
L 36.085714 22.733155 
L 36.502041 22.921883 
L 37.126531 23.545144 
L 37.542857 23.76893 
L 37.75102 23.716579 
L 38.791837 22.687566 
L 39.208163 22.522643 
L 39.832653 22.249186 
L 40.457143 22.067854 
L 40.873469 22.057425 
L 41.289796 22.303159 
L 42.538776 23.510572 
L 42.955102 23.515998 
L 43.579592 23.063163 
L 43.787755 22.773979 
L 44.204082 21.223317 
L 44.620408 19.114896 
L 45.453061 14.231491 
L 45.869388 12.700161 
L 46.077551 12.279475 
L 46.285714 12.141038 
L 46.493878 12.320097 
L 46.702041 12.799517 
L 47.326531 15.35093 
L 48.367347 19.753693 
L 48.783673 20.862089 
L 49.2 21.322377 
L 49.82449 21.020644 
L 50.865306 19.533895 
L 51.073469 19.544543 
L 52.322449 20.361134 
L 52.738776 20.433064 
L 53.571429 20.968457 
L 53.987755 21.233855 
L 54.404082 21.332137 
L 55.236735 21.601996 
L 55.861224 21.709367 
L 56.277551 21.621371 
L 57.734694 20.923933 
L 59.816327 20.510937 
L 60.440816 20.617809 
L 61.065306 20.540383 
L 62.106122 20.417536 
L 63.979592 20.458201 
L 64.604082 20.243471 
L 65.228571 20.124467 
L 67.518367 20.129388 
L 68.35102 20.084819 
L 69.183673 20.078852 
L 71.889796 20.106769 
L 73.138776 20.216426 
L 75.636735 20.313713 
L 77.302041 20.311254 
L 78.967347 20.300323 
L 78.967347 20.300323 
" style="fill:none;stroke:#bcbd22;stroke-linecap:square;stroke-width:0.5;"/>
   </g>
   <g id="matplotlib.axis_1">
    <g id="xtick_1">
     <g id="line2d_5">
      <defs>
       <path d="M 0 0 
L 0 3.5 
" id="mdb1959c330" style="stroke:#000000;stroke-width:0.8;"/>
      </defs>
      <g>
       <use style="stroke:#000000;stroke-width:0.8;" x="28.8" xlink:href="#mdb1959c330" y="42.48"/>
      </g>
     </g>
     <g id="text_1">
      <text style="font-family:DejaVu Sans;font-size:6px;font-stretch:normal;font-style:normal;font-weight:normal;text-anchor:middle;" transform="rotate(-0, 28.8, 54.039062)" x="28.8" y="54.039062">0</text>
     </g>
    </g>
    <g id="xtick_2">
     <g id="line2d_6">
      <g>
       <use style="stroke:#000000;stroke-width:0.8;" x="53.28" xlink:href="#mdb1959c330" y="42.48"/>
      </g>
     </g>
     <g id="text_2">
      <text style="font-family:DejaVu Sans;font-size:6px;font-stretch:normal;font-style:normal;font-weight:normal;text-anchor:middle;" transform="rotate(-0, 53.28, 54.039062)" x="53.28" y="54.039062">600</text>
     </g>
    </g>
    <g id="xtick_3">
     <g id="line2d_7">
      <g>
       <use style="stroke:#000000;stroke-width:0.8;" x="77.76" xlink:href="#mdb1959c330" y="42.48"/>
      </g>
     </g>
     <g id="text_3">
      <text style="font-family:DejaVu Sans;font-size:6px;font-stretch:normal;font-style:normal;font-weight:normal;text-anchor:middle;" transform="rotate(-0, 77.76, 54.039062)" x="77.76" y="54.039062">1200</text>
     </g>
    </g>
    <g id="text_4">
     <text style="font-family:DejaVu Sans;font-size:6px;font-stretch:normal;font-style:normal;font-weight:normal;text-anchor:middle;" transform="rotate(-0, 53.28, 61.752187)" x="53.28" y="61.752187">time (ms)</text>
    </g>
   </g>
   <g id="matplotlib.axis_2">
    <g id="ytick_1">
     <g id="line2d_8">
      <defs>
       <path d="M 0 0 
L -3.5 0 
" id="me8a6316728" style="stroke:#000000;stroke-width:0.8;"/>
      </defs>
      <g>
       <use style="stroke:#000000;stroke-width:0.8;" x="28.8" xlink:href="#me8a6316728" y="38.781818"/>
      </g>
     </g>
     <g id="text_5">
      <text style="font-family:DejaVu Sans;font-size:6px;font-stretch:normal;font-style:normal;font-weight:normal;text-anchor:end;" transform="rotate(-0, 21.8, 41.061349)" x="21.8" y="41.061349">-1</text>
     </g>
    </g>
    <g id="ytick_2">
     <g id="line2d_9">
      <g>
       <use style="stroke:#000000;stroke-width:0.8;" x="28.8" xlink:href="#me8a6316728" y="20.290909"/>
      </g>
     </g>
     <g id="text_6">
      <text style="font-family:DejaVu Sans;font-size:6px;font-stretch:normal;font-style:normal;font-weight:normal;text-anchor:end;" transform="rotate(-0, 21.8, 22.57044)" x="21.8" y="22.57044">0</text>
     </g>
    </g>
    <g id="ytick_3">
     <g id="line2d_10">
      <g>
       <use style="stroke:#000000;stroke-width:0.8;" x="28.8" xlink:href="#me8a6316728" y="1.8"/>
      </g>
     </g>
     <g id="text_7">
      <text style="font-family:DejaVu Sans;font-size:6px;font-stretch:normal;font-style:normal;font-weight:normal;text-anchor:end;" transform="rotate(-0, 21.8, 4.079531)" x="21.8" y="4.079531">1</text>
     </g>
    </g>
    <g id="text_8">
     <text style="font-family:DejaVu Sans;font-size:6px;font-stretch:normal;font-style:normal;font-weight:normal;text-anchor:middle;" transform="rotate(-90, 5.999062, 22.14)" x="5.999062" y="22.14">auto-correlation</text>
    </g>
   </g>
   <g id="line2d_11">
    <path clip-path="url(#p728bde0237)" d="M 28.8 1.8 
L 29.216327 2.706658 
L 29.840816 4.702221 
L 30.673469 8.25063 
L 34.212245 24.706325 
L 35.044898 27.0382 
L 35.669388 28.168204 
L 36.293878 28.764427 
L 36.710204 28.877899 
L 37.126531 28.779949 
L 37.542857 28.488629 
L 38.167347 27.736327 
L 39 26.273822 
L 40.457143 23.043114 
L 42.122449 19.47268 
L 43.163265 17.815295 
L 43.995918 16.942357 
L 44.620408 16.569074 
L 45.244898 16.430396 
L 45.869388 16.507843 
L 46.702041 16.898391 
L 47.742857 17.72856 
L 51.697959 21.364281 
L 52.738776 21.844276 
L 53.571429 22.012295 
L 54.612245 21.972338 
L 55.653061 21.707209 
L 57.318367 21.007929 
L 59.816327 19.952987 
L 61.273469 19.602138 
L 62.730612 19.511916 
L 64.395918 19.675997 
L 70.84898 20.640316 
L 73.138776 20.557028 
L 78.967347 20.139678 
L 78.967347 20.139678 
" style="fill:none;stroke:#000000;stroke-linecap:square;stroke-width:0.5;"/>
   </g>
   <g id="patch_3">
    <path d="M 28.8 38.781818 
L 28.8 1.8 
" style="fill:none;stroke:#000000;stroke-linecap:square;stroke-linejoin:miter;stroke-width:0.8;"/>
   </g>
   <g id="patch_4">
    <path d="M 28.8 42.48 
L 77.76 42.48 
" style="fill:none;stroke:#000000;stroke-linecap:square;stroke-linejoin:miter;stroke-width:0.8;"/>
   </g>
  </g>
 </g>
 <defs>
  <clipPath id="p728bde0237">
   <rect height="40.68" width="48.96" x="28.8" y="1.8"/>
  </clipPath>
 </defs>
</svg>
