<?xml version="1.0" encoding="utf-8" standalone="no"?>
<!DOCTYPE svg PUBLIC "-//W3C//DTD SVG 1.1//EN"
  "http://www.w3.org/Graphics/SVG/1.1/DTD/svg11.dtd">
<!-- Created with matplotlib (https://matplotlib.org/) -->
<svg height="64.08pt" version="1.1" viewBox="0 0 169.92 64.08" width="169.92pt" xmlns="http://www.w3.org/2000/svg" xmlns:xlink="http://www.w3.org/1999/xlink">
 <metadata>
  <rdf:RDF xmlns:cc="http://creativecommons.org/ns#" xmlns:dc="http://purl.org/dc/elements/1.1/" xmlns:rdf="http://www.w3.org/1999/02/22-rdf-syntax-ns#">
   <cc:Work>
    <dc:type rdf:resource="http://purl.org/dc/dcmitype/StillImage"/>
    <dc:date>2022-04-01T08:06:38.737247</dc:date>
    <dc:format>image/svg+xml</dc:format>
    <dc:creator>
     <cc:Agent>
      <dc:title>Matplotlib v3.3.1, https://matplotlib.org/</dc:title>
     </cc:Agent>
    </dc:creator>
   </cc:Work>
  </rdf:RDF>
 </metadata>
 <defs>
  <style type="text/css">*{stroke-linecap:butt;stroke-linejoin:round;}</style>
 </defs>
 <g id="figure_1">
  <g id="patch_1">
   <path d="M 0 64.08 
L 169.92 64.08 
L 169.92 0 
L 0 0 
z
" style="fill:none;"/>
  </g>
  <g id="axes_1">
   <g id="PolyCollection_1">
    <defs>
     <path d="M 13.5936 -32.657655 
L 13.5936 -30.234815 
L 14.941241 -30.371037 
L 16.288883 -30.313058 
L 17.636524 -30.112985 
L 18.984166 -29.966171 
L 20.331807 -29.771395 
L 21.679448 -29.630686 
L 23.02709 -29.566051 
L 24.374731 -28.980273 
L 25.722372 -29.027713 
L 27.070014 -29.408583 
L 28.417655 -29.424298 
L 29.765297 -29.478054 
L 31.112938 -29.481106 
L 32.460579 -29.620457 
L 33.808221 -29.745394 
L 35.155862 -29.697481 
L 36.503503 -29.614695 
L 37.851145 -29.554946 
L 39.198786 -29.437939 
L 40.546428 -29.207148 
L 41.894069 -29.179631 
L 43.24171 -28.937645 
L 44.589352 -28.978421 
L 45.936993 -29.183379 
L 47.284634 -29.049085 
L 48.632276 -29.188471 
L 49.979917 -29.102231 
L 51.327559 -28.956719 
L 52.6752 -29.169985 
L 54.022841 -29.182497 
L 55.370483 -29.384616 
L 56.718124 -29.321543 
L 58.065766 -29.16056 
L 59.413407 -29.211966 
L 60.761048 -28.896022 
L 62.10869 -28.612904 
L 63.456331 -28.146974 
L 64.803972 -27.918772 
L 66.151614 -27.991181 
L 67.499255 -27.954893 
L 68.846897 -28.043834 
L 70.194538 -28.773619 
L 71.542179 -29.335712 
L 72.889821 -29.444183 
L 74.237462 -29.794881 
L 75.585103 -30.216522 
L 76.932745 -30.596844 
L 78.280386 -30.862846 
L 79.628028 -31.0866 
L 80.975669 -31.790465 
L 82.32331 -32.141543 
L 83.670952 -32.077668 
L 85.018593 -32.803658 
L 86.366234 -32.876913 
L 87.713876 -32.404915 
L 89.061517 -31.871498 
L 90.409159 -32.207558 
L 91.7568 -31.934898 
L 93.104441 -30.952674 
L 94.452083 -30.874681 
L 95.799724 -30.862719 
L 97.147366 -30.903901 
L 98.495007 -31.672794 
L 99.842648 -30.895159 
L 101.19029 -29.986115 
L 102.537931 -30.689896 
L 103.885572 -30.39212 
L 105.233214 -30.397308 
L 106.580855 -30.455072 
L 107.928497 -30.434568 
L 109.276138 -30.585058 
L 110.623779 -30.700008 
L 111.971421 -30.672105 
L 113.319062 -31.104102 
L 114.666703 -31.846423 
L 116.014345 -31.697743 
L 117.361986 -31.435035 
L 118.709628 -31.131252 
L 120.057269 -30.93938 
L 121.40491 -30.916336 
L 122.752552 -30.974647 
L 124.100193 -30.989836 
L 125.447834 -31.012998 
L 126.795476 -31.057071 
L 128.143117 -31.088986 
L 129.490759 -31.471118 
L 130.8384 -31.297851 
L 132.186041 -31.08599 
L 133.533683 -31.07536 
L 134.881324 -30.709773 
L 136.228966 -29.682805 
L 137.576607 -29.12314 
L 138.924248 -29.818879 
L 140.27189 -29.905487 
L 141.619531 -29.764886 
L 142.967172 -29.78609 
L 144.314814 -29.355837 
L 145.662455 -28.712287 
L 147.010097 -28.186469 
L 148.357738 -28.09684 
L 149.705379 -27.668715 
L 151.053021 -27.756208 
L 152.400662 -28.411444 
L 153.748303 -28.167055 
L 155.095945 -28.007473 
L 156.443586 -28.128963 
L 157.791228 -28.243813 
L 159.138869 -28.244345 
L 160.48651 -28.21245 
L 161.834152 -28.069359 
L 163.181793 -28.269194 
L 164.529434 -28.49723 
L 165.877076 -28.155142 
L 167.224717 -28.434255 
L 168.572359 -28.433512 
L 169.92 -28.050645 
L 169.92 -30.244007 
L 169.92 -30.244007 
L 168.572359 -30.618973 
L 167.224717 -30.688704 
L 165.877076 -30.386743 
L 164.529434 -30.72604 
L 163.181793 -30.576274 
L 161.834152 -30.334835 
L 160.48651 -30.525267 
L 159.138869 -30.568687 
L 157.791228 -30.591267 
L 156.443586 -30.448007 
L 155.095945 -30.333721 
L 153.748303 -30.40327 
L 152.400662 -30.625332 
L 151.053021 -29.926662 
L 149.705379 -29.774165 
L 148.357738 -30.0953 
L 147.010097 -30.123731 
L 145.662455 -30.544841 
L 144.314814 -31.131686 
L 142.967172 -31.512902 
L 141.619531 -31.440522 
L 140.27189 -31.624455 
L 138.924248 -31.459138 
L 137.576607 -30.720848 
L 136.228966 -31.243582 
L 134.881324 -32.21283 
L 133.533683 -32.570876 
L 132.186041 -32.55704 
L 130.8384 -32.795189 
L 129.490759 -32.985829 
L 128.143117 -32.658916 
L 126.795476 -32.655519 
L 125.447834 -32.684096 
L 124.100193 -32.699227 
L 122.752552 -32.690918 
L 121.40491 -32.709972 
L 120.057269 -32.784507 
L 118.709628 -33.104548 
L 117.361986 -33.462476 
L 116.014345 -33.922426 
L 114.666703 -34.181199 
L 113.319062 -33.524282 
L 111.971421 -33.161172 
L 110.623779 -33.225554 
L 109.276138 -33.142496 
L 107.928497 -32.939941 
L 106.580855 -32.918685 
L 105.233214 -32.888218 
L 103.885572 -32.850753 
L 102.537931 -33.160081 
L 101.19029 -32.417501 
L 99.842648 -33.37752 
L 98.495007 -34.130113 
L 97.147366 -33.450466 
L 95.799724 -33.389915 
L 94.452083 -33.401097 
L 93.104441 -33.470669 
L 91.7568 -34.481289 
L 90.409159 -34.820087 
L 89.061517 -34.515922 
L 87.713876 -35.043458 
L 86.366234 -35.585973 
L 85.018593 -35.502418 
L 83.670952 -34.799798 
L 82.32331 -34.780027 
L 80.975669 -34.354045 
L 79.628028 -33.544064 
L 78.280386 -33.224449 
L 76.932745 -32.932199 
L 75.585103 -32.529527 
L 74.237462 -32.13661 
L 72.889821 -31.773813 
L 71.542179 -31.700477 
L 70.194538 -31.181992 
L 68.846897 -30.477491 
L 67.499255 -30.387314 
L 66.151614 -30.484302 
L 64.803972 -30.416309 
L 63.456331 -30.66986 
L 62.10869 -31.097408 
L 60.761048 -31.411255 
L 59.413407 -31.769271 
L 58.065766 -31.701477 
L 56.718124 -31.866949 
L 55.370483 -31.976971 
L 54.022841 -31.775679 
L 52.6752 -31.776559 
L 51.327559 -31.590214 
L 49.979917 -31.722479 
L 48.632276 -31.843462 
L 47.284634 -31.740385 
L 45.936993 -31.79455 
L 44.589352 -31.673407 
L 43.24171 -31.613273 
L 41.894069 -31.841249 
L 40.546428 -31.855676 
L 39.198786 -32.052978 
L 37.851145 -32.15812 
L 36.503503 -32.250841 
L 35.155862 -32.349048 
L 33.808221 -32.454862 
L 32.460579 -32.303169 
L 31.112938 -32.208382 
L 29.765297 -32.129913 
L 28.417655 -32.039656 
L 27.070014 -32.027633 
L 25.722372 -31.552766 
L 24.374731 -31.535961 
L 23.02709 -32.10962 
L 21.679448 -32.166316 
L 20.331807 -32.247201 
L 18.984166 -32.44133 
L 17.636524 -32.600421 
L 16.288883 -32.744759 
L 14.941241 -32.743805 
L 13.5936 -32.657655 
z
" id="mc176d69225" style="stroke:#9467bd;stroke-opacity:0.2;stroke-width:0.5;"/>
    </defs>
    <g clip-path="url(#p76253ed8a9)">
     <use style="fill:#9467bd;fill-opacity:0.2;stroke:#9467bd;stroke-opacity:0.2;stroke-width:0.5;" x="0" xlink:href="#mc176d69225" y="64.08"/>
    </g>
   </g>
   <g id="PolyCollection_2">
    <defs>
     <path d="M 13.5936 -32.135834 
L 13.5936 -30.004926 
L 14.941241 -30.074599 
L 16.288883 -30.06124 
L 17.636524 -30.279793 
L 18.984166 -30.36927 
L 20.331807 -30.719714 
L 21.679448 -31.168619 
L 23.02709 -31.761366 
L 24.374731 -32.8371 
L 25.722372 -32.590811 
L 27.070014 -31.33233 
L 28.417655 -30.66664 
L 29.765297 -30.221024 
L 31.112938 -29.947369 
L 32.460579 -30.01689 
L 33.808221 -30.022934 
L 35.155862 -30.283248 
L 36.503503 -30.29118 
L 37.851145 -30.307489 
L 39.198786 -30.248386 
L 40.546428 -30.447575 
L 41.894069 -30.330524 
L 43.24171 -30.505976 
L 44.589352 -30.588594 
L 45.936993 -30.179109 
L 47.284634 -30.20845 
L 48.632276 -30.164774 
L 49.979917 -30.035632 
L 51.327559 -30.332066 
L 52.6752 -30.518221 
L 54.022841 -30.53854 
L 55.370483 -30.506896 
L 56.718124 -30.616184 
L 58.065766 -30.672266 
L 59.413407 -30.32 
L 60.761048 -30.230953 
L 62.10869 -30.209574 
L 63.456331 -29.912389 
L 64.803972 -29.421884 
L 66.151614 -29.27541 
L 67.499255 -29.429291 
L 68.846897 -29.29413 
L 70.194538 -29.004837 
L 71.542179 -28.936825 
L 72.889821 -28.972089 
L 74.237462 -28.980217 
L 75.585103 -28.960616 
L 76.932745 -28.792393 
L 78.280386 -28.534866 
L 79.628028 -28.402995 
L 80.975669 -28.324745 
L 82.32331 -28.096017 
L 83.670952 -28.494318 
L 85.018593 -28.503478 
L 86.366234 -28.32337 
L 87.713876 -28.300139 
L 89.061517 -28.421189 
L 90.409159 -28.406328 
L 91.7568 -28.388144 
L 93.104441 -28.765681 
L 94.452083 -28.757169 
L 95.799724 -28.585854 
L 97.147366 -29.03373 
L 98.495007 -29.011577 
L 99.842648 -29.076393 
L 101.19029 -29.075272 
L 102.537931 -28.921905 
L 103.885572 -29.176709 
L 105.233214 -29.008912 
L 106.580855 -28.898878 
L 107.928497 -28.66423 
L 109.276138 -28.877383 
L 110.623779 -28.968491 
L 111.971421 -28.800665 
L 113.319062 -28.789143 
L 114.666703 -28.540399 
L 116.014345 -28.281763 
L 117.361986 -28.249033 
L 118.709628 -28.561107 
L 120.057269 -28.925564 
L 121.40491 -28.657649 
L 122.752552 -28.80982 
L 124.100193 -28.579103 
L 125.447834 -28.244514 
L 126.795476 -28.369817 
L 128.143117 -28.821784 
L 129.490759 -28.84718 
L 130.8384 -28.947792 
L 132.186041 -29.342126 
L 133.533683 -29.181938 
L 134.881324 -29.128598 
L 136.228966 -29.491846 
L 137.576607 -29.515675 
L 138.924248 -29.809033 
L 140.27189 -30.956815 
L 141.619531 -32.234872 
L 142.967172 -33.167421 
L 144.314814 -34.560538 
L 145.662455 -35.420912 
L 147.010097 -35.355948 
L 148.357738 -34.717706 
L 149.705379 -34.231577 
L 151.053021 -33.764676 
L 152.400662 -33.070323 
L 153.748303 -32.548324 
L 155.095945 -32.151396 
L 156.443586 -32.187295 
L 157.791228 -31.835902 
L 159.138869 -31.840371 
L 160.48651 -31.810083 
L 161.834152 -31.638756 
L 163.181793 -31.58068 
L 164.529434 -31.110517 
L 165.877076 -30.997107 
L 167.224717 -30.711259 
L 168.572359 -30.691574 
L 169.92 -30.799781 
L 169.92 -32.42659 
L 169.92 -32.42659 
L 168.572359 -32.382037 
L 167.224717 -32.422712 
L 165.877076 -32.815905 
L 164.529434 -32.967196 
L 163.181793 -33.524402 
L 161.834152 -33.607919 
L 160.48651 -33.846916 
L 159.138869 -34.025823 
L 157.791228 -34.035573 
L 156.443586 -34.546594 
L 155.095945 -34.575186 
L 153.748303 -35.151329 
L 152.400662 -35.679896 
L 151.053021 -36.544947 
L 149.705379 -36.981335 
L 148.357738 -37.49953 
L 147.010097 -38.155833 
L 145.662455 -38.291962 
L 144.314814 -37.364981 
L 142.967172 -35.916917 
L 141.619531 -34.918451 
L 140.27189 -33.511893 
L 138.924248 -32.363999 
L 137.576607 -32.076195 
L 136.228966 -32.019941 
L 134.881324 -31.712403 
L 133.533683 -31.749584 
L 132.186041 -31.916761 
L 130.8384 -31.488568 
L 129.490759 -31.395339 
L 128.143117 -31.298111 
L 126.795476 -30.886295 
L 125.447834 -30.812815 
L 124.100193 -31.140516 
L 122.752552 -31.373094 
L 121.40491 -31.21632 
L 120.057269 -31.410693 
L 118.709628 -31.02174 
L 117.361986 -30.731507 
L 116.014345 -30.809083 
L 114.666703 -30.996221 
L 113.319062 -31.342709 
L 111.971421 -31.324416 
L 110.623779 -31.483043 
L 109.276138 -31.40609 
L 107.928497 -31.210106 
L 106.580855 -31.44881 
L 105.233214 -31.528037 
L 103.885572 -31.70456 
L 102.537931 -31.482253 
L 101.19029 -31.60082 
L 99.842648 -31.621971 
L 98.495007 -31.581673 
L 97.147366 -31.575961 
L 95.799724 -31.174834 
L 94.452083 -31.364222 
L 93.104441 -31.345502 
L 91.7568 -31.125045 
L 90.409159 -31.033298 
L 89.061517 -31.07666 
L 87.713876 -30.89565 
L 86.366234 -30.92365 
L 85.018593 -31.094933 
L 83.670952 -31.024885 
L 82.32331 -30.562806 
L 80.975669 -30.708128 
L 79.628028 -30.688672 
L 78.280386 -30.75576 
L 76.932745 -30.879656 
L 75.585103 -30.992728 
L 74.237462 -30.986851 
L 72.889821 -30.924881 
L 71.542179 -30.866468 
L 70.194538 -30.924332 
L 68.846897 -31.182727 
L 67.499255 -31.292276 
L 66.151614 -31.15082 
L 64.803972 -31.278976 
L 63.456331 -31.773555 
L 62.10869 -32.06928 
L 60.761048 -32.093795 
L 59.413407 -32.221899 
L 58.065766 -32.577016 
L 56.718124 -32.5515 
L 55.370483 -32.549801 
L 54.022841 -32.642457 
L 52.6752 -32.697014 
L 51.327559 -32.553464 
L 49.979917 -32.327099 
L 48.632276 -32.354046 
L 47.284634 -32.499682 
L 45.936993 -32.420071 
L 44.589352 -32.848625 
L 43.24171 -32.846352 
L 41.894069 -32.721366 
L 40.546428 -32.778702 
L 39.198786 -32.701373 
L 37.851145 -32.581551 
L 36.503503 -32.609154 
L 35.155862 -32.483849 
L 33.808221 -32.132278 
L 32.460579 -32.132777 
L 31.112938 -32.075282 
L 29.765297 -32.287026 
L 28.417655 -32.790615 
L 27.070014 -33.410489 
L 25.722372 -34.695223 
L 24.374731 -34.98563 
L 23.02709 -33.952018 
L 21.679448 -33.350957 
L 20.331807 -32.884548 
L 18.984166 -32.528319 
L 17.636524 -32.424949 
L 16.288883 -32.231695 
L 14.941241 -32.27757 
L 13.5936 -32.135834 
z
" id="m69b992cc4c" style="stroke:#d62728;stroke-opacity:0.2;stroke-width:0.5;"/>
    </defs>
    <g clip-path="url(#p76253ed8a9)">
     <use style="fill:#d62728;fill-opacity:0.2;stroke:#d62728;stroke-opacity:0.2;stroke-width:0.5;" x="0" xlink:href="#m69b992cc4c" y="64.08"/>
    </g>
   </g>
   <g id="PolyCollection_3">
    <defs>
     <path d="M 13.5936 -31.141142 
L 13.5936 -29.37329 
L 14.941241 -29.64738 
L 16.288883 -30.230514 
L 17.636524 -29.910118 
L 18.984166 -29.74272 
L 20.331807 -29.345244 
L 21.679448 -29.393254 
L 23.02709 -29.588601 
L 24.374731 -29.205265 
L 25.722372 -29.304697 
L 27.070014 -29.350333 
L 28.417655 -29.412316 
L 29.765297 -29.127702 
L 31.112938 -28.943473 
L 32.460579 -29.215723 
L 33.808221 -29.227295 
L 35.155862 -29.086086 
L 36.503503 -29.286166 
L 37.851145 -29.185655 
L 39.198786 -29.236346 
L 40.546428 -29.53103 
L 41.894069 -29.701679 
L 43.24171 -29.76493 
L 44.589352 -29.416546 
L 45.936993 -29.483772 
L 47.284634 -30.0105 
L 48.632276 -29.830729 
L 49.979917 -29.672159 
L 51.327559 -29.757458 
L 52.6752 -29.605838 
L 54.022841 -29.67392 
L 55.370483 -29.561937 
L 56.718124 -30.149789 
L 58.065766 -30.802588 
L 59.413407 -31.992847 
L 60.761048 -33.467505 
L 62.10869 -33.930243 
L 63.456331 -33.779842 
L 64.803972 -32.686011 
L 66.151614 -32.143537 
L 67.499255 -32.310445 
L 68.846897 -31.765846 
L 70.194538 -30.122772 
L 71.542179 -29.179861 
L 72.889821 -29.096943 
L 74.237462 -29.206935 
L 75.585103 -28.961754 
L 76.932745 -28.411853 
L 78.280386 -28.872638 
L 79.628028 -28.693037 
L 80.975669 -28.268662 
L 82.32331 -28.645769 
L 83.670952 -28.873341 
L 85.018593 -28.452434 
L 86.366234 -29.015388 
L 87.713876 -28.477077 
L 89.061517 -28.509819 
L 90.409159 -28.583526 
L 91.7568 -29.185059 
L 93.104441 -29.798777 
L 94.452083 -29.0141 
L 95.799724 -29.283804 
L 97.147366 -29.499425 
L 98.495007 -29.246612 
L 99.842648 -29.259972 
L 101.19029 -29.534305 
L 102.537931 -29.190219 
L 103.885572 -29.545703 
L 105.233214 -29.907755 
L 106.580855 -29.728718 
L 107.928497 -29.680601 
L 109.276138 -29.40994 
L 110.623779 -29.120176 
L 111.971421 -29.833405 
L 113.319062 -29.394596 
L 114.666703 -29.372993 
L 116.014345 -29.596348 
L 117.361986 -29.188218 
L 118.709628 -29.450451 
L 120.057269 -29.090117 
L 121.40491 -29.106821 
L 122.752552 -29.13318 
L 124.100193 -29.127628 
L 125.447834 -29.218518 
L 126.795476 -29.381353 
L 128.143117 -29.438991 
L 129.490759 -29.038421 
L 130.8384 -29.286413 
L 132.186041 -29.233358 
L 133.533683 -29.104383 
L 134.881324 -29.379309 
L 136.228966 -29.619091 
L 137.576607 -29.898378 
L 138.924248 -29.580951 
L 140.27189 -29.637775 
L 141.619531 -30.095031 
L 142.967172 -30.259419 
L 144.314814 -30.410256 
L 145.662455 -30.562863 
L 147.010097 -30.620271 
L 148.357738 -30.65885 
L 149.705379 -30.741411 
L 151.053021 -30.933819 
L 152.400662 -31.024671 
L 153.748303 -31.556999 
L 155.095945 -31.962618 
L 156.443586 -31.837678 
L 157.791228 -31.52256 
L 159.138869 -31.553718 
L 160.48651 -31.508652 
L 161.834152 -31.403426 
L 163.181793 -31.446552 
L 164.529434 -31.344807 
L 165.877076 -31.654088 
L 167.224717 -31.706268 
L 168.572359 -31.995559 
L 169.92 -32.330319 
L 169.92 -34.071753 
L 169.92 -34.071753 
L 168.572359 -33.725079 
L 167.224717 -33.38183 
L 165.877076 -33.292262 
L 164.529434 -32.944332 
L 163.181793 -33.022708 
L 161.834152 -32.953932 
L 160.48651 -33.085657 
L 159.138869 -33.102162 
L 157.791228 -33.123108 
L 156.443586 -33.378721 
L 155.095945 -33.497333 
L 153.748303 -33.003544 
L 152.400662 -32.431554 
L 151.053021 -32.263668 
L 149.705379 -32.074176 
L 148.357738 -31.940604 
L 147.010097 -31.903262 
L 145.662455 -31.835159 
L 144.314814 -31.650782 
L 142.967172 -31.49074 
L 141.619531 -31.361703 
L 140.27189 -30.912301 
L 138.924248 -30.886425 
L 137.576607 -31.21431 
L 136.228966 -30.960704 
L 134.881324 -30.737309 
L 133.533683 -30.524451 
L 132.186041 -30.648808 
L 130.8384 -30.756375 
L 129.490759 -30.565195 
L 128.143117 -30.979097 
L 126.795476 -31.018405 
L 125.447834 -30.845686 
L 124.100193 -30.789797 
L 122.752552 -30.801324 
L 121.40491 -30.832514 
L 120.057269 -30.810555 
L 118.709628 -31.213538 
L 117.361986 -30.984395 
L 116.014345 -31.360959 
L 114.666703 -31.159451 
L 113.319062 -31.192705 
L 111.971421 -31.64771 
L 110.623779 -30.941448 
L 109.276138 -31.225437 
L 107.928497 -31.53561 
L 106.580855 -31.613582 
L 105.233214 -31.75391 
L 103.885572 -31.418189 
L 102.537931 -31.029928 
L 101.19029 -31.402881 
L 99.842648 -31.10469 
L 98.495007 -31.14874 
L 97.147366 -31.346787 
L 95.799724 -31.159232 
L 94.452083 -30.870762 
L 93.104441 -31.630688 
L 91.7568 -31.034977 
L 90.409159 -30.430871 
L 89.061517 -30.35549 
L 87.713876 -30.301877 
L 86.366234 -30.82127 
L 85.018593 -30.259041 
L 83.670952 -30.674171 
L 82.32331 -30.403091 
L 80.975669 -30.033605 
L 79.628028 -30.497092 
L 78.280386 -30.65319 
L 76.932745 -30.214183 
L 75.585103 -30.715622 
L 74.237462 -30.969263 
L 72.889821 -30.895357 
L 71.542179 -30.99094 
L 70.194538 -31.994446 
L 68.846897 -33.640708 
L 67.499255 -34.184233 
L 66.151614 -34.040365 
L 64.803972 -34.569585 
L 63.456331 -35.702689 
L 62.10869 -35.763175 
L 60.761048 -35.276476 
L 59.413407 -33.744441 
L 58.065766 -32.534931 
L 56.718124 -31.851187 
L 55.370483 -31.261516 
L 54.022841 -31.406136 
L 52.6752 -31.331843 
L 51.327559 -31.472588 
L 49.979917 -31.431979 
L 48.632276 -31.572913 
L 47.284634 -31.822108 
L 45.936993 -31.287945 
L 44.589352 -31.242287 
L 43.24171 -31.652087 
L 41.894069 -31.588617 
L 40.546428 -31.490475 
L 39.198786 -31.166541 
L 37.851145 -31.118297 
L 36.503503 -31.202465 
L 35.155862 -31.007974 
L 33.808221 -31.149675 
L 32.460579 -31.148699 
L 31.112938 -30.883557 
L 29.765297 -31.012888 
L 28.417655 -31.278505 
L 27.070014 -31.171943 
L 25.722372 -31.068302 
L 24.374731 -31.021045 
L 23.02709 -31.364442 
L 21.679448 -31.178533 
L 20.331807 -31.126722 
L 18.984166 -31.488534 
L 17.636524 -31.680435 
L 16.288883 -31.989892 
L 14.941241 -31.415119 
L 13.5936 -31.141142 
z
" id="mbdea338e5d" style="stroke:#17becf;stroke-opacity:0.2;stroke-width:0.5;"/>
    </defs>
    <g clip-path="url(#p76253ed8a9)">
     <use style="fill:#17becf;fill-opacity:0.2;stroke:#17becf;stroke-opacity:0.2;stroke-width:0.5;" x="0" xlink:href="#mbdea338e5d" y="64.08"/>
    </g>
   </g>
   <g id="PolyCollection_4">
    <defs>
     <path d="M 13.5936 -32.031722 
L 13.5936 -30.130034 
L 14.941241 -29.722408 
L 16.288883 -30.010864 
L 17.636524 -30.059726 
L 18.984166 -29.019297 
L 20.331807 -29.042255 
L 21.679448 -29.702252 
L 23.02709 -29.537811 
L 24.374731 -28.77965 
L 25.722372 -28.61056 
L 27.070014 -28.716293 
L 28.417655 -28.848398 
L 29.765297 -29.303493 
L 31.112938 -28.963684 
L 32.460579 -28.866123 
L 33.808221 -29.199535 
L 35.155862 -29.144971 
L 36.503503 -29.16803 
L 37.851145 -29.238453 
L 39.198786 -29.244994 
L 40.546428 -29.116162 
L 41.894069 -29.256195 
L 43.24171 -29.242761 
L 44.589352 -29.421008 
L 45.936993 -29.685186 
L 47.284634 -29.741685 
L 48.632276 -29.739558 
L 49.979917 -29.652307 
L 51.327559 -29.508867 
L 52.6752 -29.456831 
L 54.022841 -29.65945 
L 55.370483 -29.866679 
L 56.718124 -29.788506 
L 58.065766 -29.904842 
L 59.413407 -29.882147 
L 60.761048 -29.892459 
L 62.10869 -29.971861 
L 63.456331 -29.821816 
L 64.803972 -29.950439 
L 66.151614 -30.091935 
L 67.499255 -30.056344 
L 68.846897 -29.988625 
L 70.194538 -30.111567 
L 71.542179 -30.113286 
L 72.889821 -30.161117 
L 74.237462 -30.431983 
L 75.585103 -30.53408 
L 76.932745 -30.587981 
L 78.280386 -30.627976 
L 79.628028 -30.75817 
L 80.975669 -30.943021 
L 82.32331 -30.847277 
L 83.670952 -30.713355 
L 85.018593 -31.108127 
L 86.366234 -31.573425 
L 87.713876 -32.401319 
L 89.061517 -32.780056 
L 90.409159 -32.782857 
L 91.7568 -32.590136 
L 93.104441 -32.310816 
L 94.452083 -32.261207 
L 95.799724 -32.23826 
L 97.147366 -32.203401 
L 98.495007 -32.07293 
L 99.842648 -31.958876 
L 101.19029 -31.676703 
L 102.537931 -31.956298 
L 103.885572 -31.706131 
L 105.233214 -31.419604 
L 106.580855 -31.488478 
L 107.928497 -31.893825 
L 109.276138 -32.957093 
L 110.623779 -33.206178 
L 111.971421 -32.934235 
L 113.319062 -32.835839 
L 114.666703 -32.919188 
L 116.014345 -33.227021 
L 117.361986 -33.220435 
L 118.709628 -32.866587 
L 120.057269 -31.896382 
L 121.40491 -32.739776 
L 122.752552 -32.556849 
L 124.100193 -30.586732 
L 125.447834 -30.23963 
L 126.795476 -30.107039 
L 128.143117 -29.390848 
L 129.490759 -29.293295 
L 130.8384 -29.435295 
L 132.186041 -28.611149 
L 133.533683 -28.689129 
L 134.881324 -28.43015 
L 136.228966 -28.374293 
L 137.576607 -28.59413 
L 138.924248 -28.5349 
L 140.27189 -28.000682 
L 141.619531 -28.373274 
L 142.967172 -28.856431 
L 144.314814 -27.476307 
L 145.662455 -26.958487 
L 147.010097 -27.792139 
L 148.357738 -28.744177 
L 149.705379 -28.436551 
L 151.053021 -28.433788 
L 152.400662 -28.96969 
L 153.748303 -28.449772 
L 155.095945 -28.132123 
L 156.443586 -28.36574 
L 157.791228 -28.611601 
L 159.138869 -28.503133 
L 160.48651 -28.590255 
L 161.834152 -28.411646 
L 163.181793 -28.249471 
L 164.529434 -28.485812 
L 165.877076 -28.655027 
L 167.224717 -28.841461 
L 168.572359 -28.646518 
L 169.92 -28.681785 
L 169.92 -30.43131 
L 169.92 -30.43131 
L 168.572359 -30.483208 
L 167.224717 -30.736497 
L 165.877076 -30.599431 
L 164.529434 -30.460659 
L 163.181793 -30.259023 
L 161.834152 -30.445663 
L 160.48651 -30.614456 
L 159.138869 -30.538519 
L 157.791228 -30.645543 
L 156.443586 -30.341554 
L 155.095945 -30.118763 
L 153.748303 -30.41386 
L 152.400662 -30.868296 
L 151.053021 -30.336854 
L 149.705379 -30.320571 
L 148.357738 -30.583842 
L 147.010097 -29.707119 
L 145.662455 -28.885259 
L 144.314814 -29.432803 
L 142.967172 -30.825733 
L 141.619531 -30.405857 
L 140.27189 -30.03653 
L 138.924248 -30.607585 
L 137.576607 -30.669095 
L 136.228966 -30.444394 
L 134.881324 -30.488531 
L 133.533683 -30.765504 
L 132.186041 -30.635825 
L 130.8384 -31.432379 
L 129.490759 -31.34617 
L 128.143117 -31.413103 
L 126.795476 -32.225971 
L 125.447834 -32.385972 
L 124.100193 -32.852114 
L 122.752552 -34.815336 
L 121.40491 -35.071605 
L 120.057269 -34.266971 
L 118.709628 -35.267196 
L 117.361986 -35.648805 
L 116.014345 -35.721711 
L 114.666703 -35.375211 
L 113.319062 -35.35038 
L 111.971421 -35.342949 
L 110.623779 -35.523966 
L 109.276138 -35.15159 
L 107.928497 -33.993532 
L 106.580855 -33.516224 
L 105.233214 -33.364985 
L 103.885572 -33.591702 
L 102.537931 -33.856492 
L 101.19029 -33.611438 
L 99.842648 -33.849139 
L 98.495007 -33.954995 
L 97.147366 -34.024498 
L 95.799724 -33.918821 
L 94.452083 -33.805229 
L 93.104441 -33.780626 
L 91.7568 -33.983987 
L 90.409159 -34.141762 
L 89.061517 -34.07063 
L 87.713876 -33.6744 
L 86.366234 -32.73563 
L 85.018593 -32.24365 
L 83.670952 -31.852276 
L 82.32331 -31.978198 
L 80.975669 -32.066117 
L 79.628028 -31.890773 
L 78.280386 -31.762255 
L 76.932745 -31.750305 
L 75.585103 -31.691064 
L 74.237462 -31.584591 
L 72.889821 -31.307547 
L 71.542179 -31.312046 
L 70.194538 -31.322034 
L 68.846897 -31.261059 
L 67.499255 -31.3373 
L 66.151614 -31.422295 
L 64.803972 -31.340363 
L 63.456331 -31.234205 
L 62.10869 -31.437475 
L 60.761048 -31.383612 
L 59.413407 -31.427291 
L 58.065766 -31.479526 
L 56.718124 -31.410495 
L 55.370483 -31.464809 
L 54.022841 -31.299608 
L 52.6752 -31.11277 
L 51.327559 -31.171399 
L 49.979917 -31.357309 
L 48.632276 -31.440369 
L 47.284634 -31.488258 
L 45.936993 -31.468343 
L 44.589352 -31.191602 
L 43.24171 -31.050506 
L 41.894069 -31.077771 
L 40.546428 -30.959307 
L 39.198786 -31.094897 
L 37.851145 -31.111952 
L 36.503503 -31.039539 
L 35.155862 -31.032946 
L 33.808221 -31.09103 
L 32.460579 -30.771834 
L 31.112938 -30.882708 
L 29.765297 -31.219443 
L 28.417655 -30.809685 
L 27.070014 -30.648755 
L 25.722372 -30.563014 
L 24.374731 -30.717041 
L 23.02709 -31.487512 
L 21.679448 -31.626443 
L 20.331807 -30.974438 
L 18.984166 -30.989275 
L 17.636524 -32.035292 
L 16.288883 -31.942825 
L 14.941241 -31.658985 
L 13.5936 -32.031722 
z
" id="m52301833d6" style="stroke:#bcbd22;stroke-opacity:0.2;stroke-width:0.5;"/>
    </defs>
    <g clip-path="url(#p76253ed8a9)">
     <use style="fill:#bcbd22;fill-opacity:0.2;stroke:#bcbd22;stroke-opacity:0.2;stroke-width:0.5;" x="0" xlink:href="#m52301833d6" y="64.08"/>
    </g>
   </g>
   <g id="line2d_1">
    <path clip-path="url(#p76253ed8a9)" d="M 13.5936 32.633765 
L 14.941241 32.522579 
L 16.288883 32.551091 
L 17.636524 32.723297 
L 18.984166 32.876249 
L 20.331807 33.070702 
L 21.679448 33.181499 
L 23.02709 33.242165 
L 24.374731 33.821883 
L 25.722372 33.78976 
L 27.070014 33.361892 
L 28.417655 33.348023 
L 29.765297 33.276016 
L 31.112938 33.235256 
L 32.460579 33.118187 
L 33.808221 32.979872 
L 35.155862 33.056735 
L 36.503503 33.147232 
L 37.851145 33.223467 
L 39.198786 33.334542 
L 40.546428 33.548588 
L 41.894069 33.56956 
L 43.24171 33.804541 
L 44.589352 33.754086 
L 45.936993 33.591036 
L 47.284634 33.685265 
L 48.632276 33.564034 
L 49.979917 33.667645 
L 51.327559 33.806534 
L 52.6752 33.606728 
L 54.022841 33.600912 
L 55.370483 33.399207 
L 56.718124 33.485754 
L 58.065766 33.648981 
L 59.413407 33.589382 
L 60.761048 33.926361 
L 62.10869 34.224844 
L 63.456331 34.671583 
L 64.803972 34.91246 
L 66.151614 34.842258 
L 67.499255 34.908896 
L 68.846897 34.819338 
L 70.194538 34.102195 
L 71.542179 33.561906 
L 72.889821 33.471002 
L 74.237462 33.114254 
L 75.585103 32.706975 
L 76.932745 32.315479 
L 78.280386 32.036353 
L 79.628028 31.764668 
L 80.975669 31.007745 
L 82.32331 30.619215 
L 83.670952 30.641267 
L 85.018593 29.926962 
L 86.366234 29.848557 
L 87.713876 30.355813 
L 89.061517 30.88629 
L 90.409159 30.566178 
L 91.7568 30.871906 
L 93.104441 31.868328 
L 94.452083 31.942111 
L 95.799724 31.953683 
L 97.147366 31.902816 
L 98.495007 31.178546 
L 99.842648 31.94366 
L 101.19029 32.878192 
L 102.537931 32.155012 
L 103.885572 32.458563 
L 105.233214 32.437237 
L 106.580855 32.393121 
L 107.928497 32.392745 
L 109.276138 32.216223 
L 110.623779 32.117219 
L 111.971421 32.163361 
L 113.319062 31.765808 
L 114.666703 31.066189 
L 116.014345 31.269916 
L 117.361986 31.631244 
L 118.709628 31.9621 
L 120.057269 32.218057 
L 121.40491 32.266846 
L 122.752552 32.247217 
L 124.100193 32.235469 
L 125.447834 32.231453 
L 126.795476 32.223705 
L 128.143117 32.206049 
L 129.490759 31.851526 
L 130.8384 32.03348 
L 132.186041 32.258485 
L 133.533683 32.256882 
L 134.881324 32.618698 
L 136.228966 33.616807 
L 137.576607 34.158006 
L 138.924248 33.440992 
L 140.27189 33.315029 
L 141.619531 33.477296 
L 142.967172 33.430504 
L 144.314814 33.836238 
L 145.662455 34.451436 
L 147.010097 34.9249 
L 148.357738 34.98393 
L 149.705379 35.35856 
L 151.053021 35.238565 
L 152.400662 34.561612 
L 153.748303 34.794838 
L 155.095945 34.909403 
L 156.443586 34.791515 
L 157.791228 34.66246 
L 159.138869 34.673484 
L 160.48651 34.711142 
L 161.834152 34.877903 
L 163.181793 34.657266 
L 164.529434 34.468365 
L 165.877076 34.809058 
L 167.224717 34.51852 
L 168.572359 34.553757 
L 169.92 34.932674 
" style="fill:none;stroke:#9467bd;stroke-linecap:square;stroke-width:0.5;"/>
   </g>
   <g id="line2d_2">
    <path clip-path="url(#p76253ed8a9)" d="M 13.5936 33.00962 
L 14.941241 32.903916 
L 16.288883 32.933532 
L 17.636524 32.727629 
L 18.984166 32.631205 
L 20.331807 32.277869 
L 21.679448 31.820212 
L 23.02709 31.223308 
L 24.374731 30.168635 
L 25.722372 30.436983 
L 27.070014 31.70859 
L 28.417655 32.351372 
L 29.765297 32.825975 
L 31.112938 33.068675 
L 32.460579 33.005166 
L 33.808221 33.002394 
L 35.155862 32.696451 
L 36.503503 32.629833 
L 37.851145 32.63548 
L 39.198786 32.60512 
L 40.546428 32.466861 
L 41.894069 32.554055 
L 43.24171 32.403836 
L 44.589352 32.36139 
L 45.936993 32.78041 
L 47.284634 32.725934 
L 48.632276 32.82059 
L 49.979917 32.898634 
L 51.327559 32.637235 
L 52.6752 32.472382 
L 54.022841 32.489501 
L 55.370483 32.551651 
L 56.718124 32.496158 
L 58.065766 32.455359 
L 59.413407 32.80905 
L 60.761048 32.917626 
L 62.10869 32.940573 
L 63.456331 33.237028 
L 64.803972 33.72957 
L 66.151614 33.866885 
L 67.499255 33.719216 
L 68.846897 33.841572 
L 70.194538 34.115416 
L 71.542179 34.178353 
L 72.889821 34.131515 
L 74.237462 34.096466 
L 75.585103 34.103328 
L 76.932745 34.243975 
L 78.280386 34.434687 
L 79.628028 34.534166 
L 80.975669 34.563564 
L 82.32331 34.750588 
L 83.670952 34.320398 
L 85.018593 34.280794 
L 86.366234 34.45649 
L 87.713876 34.482106 
L 89.061517 34.331076 
L 90.409159 34.360187 
L 91.7568 34.323405 
L 93.104441 34.024408 
L 94.452083 34.019305 
L 95.799724 34.199656 
L 97.147366 33.775154 
L 98.495007 33.783375 
L 99.842648 33.730818 
L 101.19029 33.741954 
L 102.537931 33.877921 
L 103.885572 33.639366 
L 105.233214 33.811525 
L 106.580855 33.906156 
L 107.928497 34.142832 
L 109.276138 33.938263 
L 110.623779 33.854233 
L 111.971421 34.017459 
L 113.319062 34.014074 
L 114.666703 34.31169 
L 116.014345 34.534577 
L 117.361986 34.58973 
L 118.709628 34.288576 
L 120.057269 33.911872 
L 121.40491 34.143015 
L 122.752552 33.988543 
L 124.100193 34.22019 
L 125.447834 34.551335 
L 126.795476 34.451944 
L 128.143117 34.020052 
L 129.490759 33.95874 
L 130.8384 33.86182 
L 132.186041 33.450556 
L 133.533683 33.614239 
L 134.881324 33.659499 
L 136.228966 33.324106 
L 137.576607 33.284065 
L 138.924248 32.993484 
L 140.27189 31.845646 
L 141.619531 30.503339 
L 142.967172 29.537831 
L 144.314814 28.11724 
L 145.662455 27.223563 
L 147.010097 27.324109 
L 148.357738 27.971382 
L 149.705379 28.473544 
L 151.053021 28.925189 
L 152.400662 29.704891 
L 153.748303 30.230174 
L 155.095945 30.716709 
L 156.443586 30.713055 
L 157.791228 31.144263 
L 159.138869 31.146903 
L 160.48651 31.251501 
L 161.834152 31.456663 
L 163.181793 31.527459 
L 164.529434 32.041143 
L 165.877076 32.173494 
L 167.224717 32.513014 
L 168.572359 32.543194 
L 169.92 32.466814 
" style="fill:none;stroke:#d62728;stroke-linecap:square;stroke-width:0.5;"/>
   </g>
   <g id="line2d_3">
    <path clip-path="url(#p76253ed8a9)" d="M 13.5936 33.822784 
L 14.941241 33.548751 
L 16.288883 32.969797 
L 17.636524 33.284724 
L 18.984166 33.464373 
L 20.331807 33.844017 
L 21.679448 33.794107 
L 23.02709 33.603479 
L 24.374731 33.966845 
L 25.722372 33.893501 
L 27.070014 33.818862 
L 28.417655 33.73459 
L 29.765297 34.009705 
L 31.112938 34.166485 
L 32.460579 33.897789 
L 33.808221 33.891515 
L 35.155862 34.03297 
L 36.503503 33.835685 
L 37.851145 33.928024 
L 39.198786 33.878556 
L 40.546428 33.569248 
L 41.894069 33.434852 
L 43.24171 33.371492 
L 44.589352 33.750583 
L 45.936993 33.694142 
L 47.284634 33.163696 
L 48.632276 33.378179 
L 49.979917 33.527931 
L 51.327559 33.464977 
L 52.6752 33.611159 
L 54.022841 33.539972 
L 55.370483 33.668273 
L 56.718124 33.079512 
L 58.065766 32.411241 
L 59.413407 31.211356 
L 60.761048 29.708009 
L 62.10869 29.233291 
L 63.456331 29.338734 
L 64.803972 30.452202 
L 66.151614 30.988049 
L 67.499255 30.832661 
L 68.846897 31.376723 
L 70.194538 33.021391 
L 71.542179 33.9946 
L 72.889821 34.08385 
L 74.237462 33.991901 
L 75.585103 34.241312 
L 76.932745 34.766982 
L 78.280386 34.317086 
L 79.628028 34.484936 
L 80.975669 34.928867 
L 82.32331 34.55557 
L 83.670952 34.306244 
L 85.018593 34.724262 
L 86.366234 34.161671 
L 87.713876 34.690523 
L 89.061517 34.647346 
L 90.409159 34.572802 
L 91.7568 33.969982 
L 93.104441 33.365268 
L 94.452083 34.137569 
L 95.799724 33.858482 
L 97.147366 33.656894 
L 98.495007 33.882324 
L 99.842648 33.897669 
L 101.19029 33.611407 
L 102.537931 33.969926 
L 103.885572 33.598054 
L 105.233214 33.249167 
L 106.580855 33.40885 
L 107.928497 33.471895 
L 109.276138 33.762311 
L 110.623779 34.049188 
L 111.971421 33.339443 
L 113.319062 33.78635 
L 114.666703 33.813778 
L 116.014345 33.601347 
L 117.361986 33.993693 
L 118.709628 33.748005 
L 120.057269 34.129664 
L 121.40491 34.110332 
L 122.752552 34.112748 
L 124.100193 34.121287 
L 125.447834 34.047898 
L 126.795476 33.880121 
L 128.143117 33.870956 
L 129.490759 34.278192 
L 130.8384 34.058606 
L 132.186041 34.138917 
L 133.533683 34.265583 
L 134.881324 34.021691 
L 136.228966 33.790103 
L 137.576607 33.523656 
L 138.924248 33.846312 
L 140.27189 33.804962 
L 141.619531 33.351633 
L 142.967172 33.20492 
L 144.314814 33.049481 
L 145.662455 32.880989 
L 147.010097 32.818233 
L 148.357738 32.780273 
L 149.705379 32.672207 
L 151.053021 32.481256 
L 152.400662 32.351888 
L 153.748303 31.799729 
L 155.095945 31.350024 
L 156.443586 31.4718 
L 157.791228 31.757166 
L 159.138869 31.75206 
L 160.48651 31.782846 
L 161.834152 31.901321 
L 163.181793 31.84537 
L 164.529434 31.93543 
L 165.877076 31.606825 
L 167.224717 31.535951 
L 168.572359 31.219681 
L 169.92 30.878964 
" style="fill:none;stroke:#17becf;stroke-linecap:square;stroke-width:0.5;"/>
   </g>
   <g id="line2d_4">
    <path clip-path="url(#p76253ed8a9)" d="M 13.5936 32.999122 
L 14.941241 33.389303 
L 16.288883 33.103155 
L 17.636524 33.032491 
L 18.984166 34.075714 
L 20.331807 34.071653 
L 21.679448 33.415653 
L 23.02709 33.567338 
L 24.374731 34.331655 
L 25.722372 34.493213 
L 27.070014 34.397476 
L 28.417655 34.250959 
L 29.765297 33.818532 
L 31.112938 34.156804 
L 32.460579 34.261022 
L 33.808221 33.934717 
L 35.155862 33.991042 
L 36.503503 33.976215 
L 37.851145 33.904797 
L 39.198786 33.910054 
L 40.546428 34.042265 
L 41.894069 33.913017 
L 43.24171 33.933367 
L 44.589352 33.773695 
L 45.936993 33.503236 
L 47.284634 33.465028 
L 48.632276 33.490036 
L 49.979917 33.575192 
L 51.327559 33.739867 
L 52.6752 33.795199 
L 54.022841 33.600471 
L 55.370483 33.414256 
L 56.718124 33.4805 
L 58.065766 33.387816 
L 59.413407 33.425281 
L 60.761048 33.441964 
L 62.10869 33.375332 
L 63.456331 33.55199 
L 64.803972 33.434599 
L 66.151614 33.322885 
L 67.499255 33.383178 
L 68.846897 33.455158 
L 70.194538 33.3632 
L 71.542179 33.367334 
L 72.889821 33.345668 
L 74.237462 33.071713 
L 75.585103 32.967428 
L 76.932745 32.910857 
L 78.280386 32.884884 
L 79.628028 32.755528 
L 80.975669 32.575431 
L 82.32331 32.667262 
L 83.670952 32.797184 
L 85.018593 32.404111 
L 86.366234 31.925472 
L 87.713876 31.042141 
L 89.061517 30.654657 
L 90.409159 30.61769 
L 91.7568 30.792939 
L 93.104441 31.034279 
L 94.452083 31.046782 
L 95.799724 31.001459 
L 97.147366 30.96605 
L 98.495007 31.066038 
L 99.842648 31.175992 
L 101.19029 31.435929 
L 102.537931 31.173605 
L 103.885572 31.431084 
L 105.233214 31.687705 
L 106.580855 31.577649 
L 107.928497 31.136322 
L 109.276138 30.025658 
L 110.623779 29.714928 
L 111.971421 29.941408 
L 113.319062 29.98689 
L 114.666703 29.932801 
L 116.014345 29.605634 
L 117.361986 29.64538 
L 118.709628 30.013108 
L 120.057269 30.998324 
L 121.40491 30.17431 
L 122.752552 30.393907 
L 124.100193 32.360577 
L 125.447834 32.767199 
L 126.795476 32.913495 
L 128.143117 33.678024 
L 129.490759 33.760267 
L 130.8384 33.646163 
L 132.186041 34.456513 
L 133.533683 34.352684 
L 134.881324 34.620659 
L 136.228966 34.670657 
L 137.576607 34.448387 
L 138.924248 34.508758 
L 140.27189 35.061394 
L 141.619531 34.690434 
L 142.967172 34.238918 
L 144.314814 35.625445 
L 145.662455 36.158127 
L 147.010097 35.330371 
L 148.357738 34.415991 
L 149.705379 34.701439 
L 151.053021 34.694679 
L 152.400662 34.161007 
L 153.748303 34.648184 
L 155.095945 34.954557 
L 156.443586 34.726353 
L 157.791228 34.451428 
L 159.138869 34.559174 
L 160.48651 34.477644 
L 161.834152 34.651345 
L 163.181793 34.825753 
L 164.529434 34.606765 
L 165.877076 34.452771 
L 167.224717 34.291021 
L 168.572359 34.515137 
L 169.92 34.523452 
" style="fill:none;stroke:#bcbd22;stroke-linecap:square;stroke-width:0.5;"/>
   </g>
   <g id="line2d_5">
    <path clip-path="url(#p76253ed8a9)" d="M 15.156864 55.826496 
L 41.570635 55.826496 
" style="fill:none;stroke:#000000;stroke-linecap:square;stroke-width:1.25;"/>
   </g>
   <g id="line2d_6">
    <path clip-path="url(#p76253ed8a9)" d="M 15.156864 55.826496 
L 15.156864 37.038046 
" style="fill:none;stroke:#000000;stroke-linecap:square;stroke-width:1.25;"/>
   </g>
   <g id="text_1">
    <text style="font-family:DejaVu Sans;font-size:6px;font-stretch:normal;font-style:normal;font-weight:normal;text-anchor:middle;" transform="rotate(-0, 28.36375, 63.205078)" x="28.36375" y="63.205078">100 ms</text>
   </g>
   <g id="text_2">
    <text style="font-family:DejaVu Sans;font-size:6px;font-stretch:normal;font-style:normal;font-weight:normal;" transform="translate(6.092731 64.13274)rotate(-90)">0.15 cm/ms</text>
   </g>
   <g id="legend_1">
    <g id="line2d_7">
     <path d="M 100.336875 7.859063 
L 112.336875 7.859063 
" style="fill:none;stroke:#9467bd;stroke-linecap:square;stroke-width:0.5;"/>
    </g>
    <g id="line2d_8"/>
    <g id="text_3">
     <text style="font-family:DejaVu Sans;font-size:6px;font-stretch:normal;font-style:normal;font-weight:normal;text-anchor:start;" transform="rotate(-0, 117.136875, 9.959063)" x="117.136875" y="9.959063">left wrist joint</text>
    </g>
    <g id="line2d_9">
     <path d="M 100.336875 16.665938 
L 112.336875 16.665938 
" style="fill:none;stroke:#d62728;stroke-linecap:square;stroke-width:0.5;"/>
    </g>
    <g id="line2d_10"/>
    <g id="text_4">
     <text style="font-family:DejaVu Sans;font-size:6px;font-stretch:normal;font-style:normal;font-weight:normal;text-anchor:start;" transform="rotate(-0, 117.136875, 18.765938)" x="117.136875" y="18.765938">right wrist joint</text>
    </g>
    <g id="line2d_11">
     <path d="M 100.336875 25.472812 
L 112.336875 25.472812 
" style="fill:none;stroke:#17becf;stroke-linecap:square;stroke-width:0.5;"/>
    </g>
    <g id="line2d_12"/>
    <g id="text_5">
     <text style="font-family:DejaVu Sans;font-size:6px;font-stretch:normal;font-style:normal;font-weight:normal;text-anchor:start;" transform="rotate(-0, 117.136875, 27.572812)" x="117.136875" y="27.572812">left ankle joint</text>
    </g>
    <g id="line2d_13">
     <path d="M 100.336875 34.279688 
L 112.336875 34.279688 
" style="fill:none;stroke:#bcbd22;stroke-linecap:square;stroke-width:0.5;"/>
    </g>
    <g id="line2d_14"/>
    <g id="text_6">
     <text style="font-family:DejaVu Sans;font-size:6px;font-stretch:normal;font-style:normal;font-weight:normal;text-anchor:start;" transform="rotate(-0, 117.136875, 36.379688)" x="117.136875" y="36.379688">right ankle joint</text>
    </g>
   </g>
  </g>
 </g>
 <defs>
  <clipPath id="p76253ed8a9">
   <rect height="56.3904" width="156.3264" x="13.5936" y="0"/>
  </clipPath>
 </defs>
</svg>
