<?xml version="1.0" encoding="utf-8" standalone="no"?>
<!DOCTYPE svg PUBLIC "-//W3C//DTD SVG 1.1//EN"
  "http://www.w3.org/Graphics/SVG/1.1/DTD/svg11.dtd">
<!-- Created with matplotlib (https://matplotlib.org/) -->
<svg height="64.08pt" version="1.1" viewBox="0 0 84.96 64.08" width="84.96pt" xmlns="http://www.w3.org/2000/svg" xmlns:xlink="http://www.w3.org/1999/xlink">
 <metadata>
  <rdf:RDF xmlns:cc="http://creativecommons.org/ns#" xmlns:dc="http://purl.org/dc/elements/1.1/" xmlns:rdf="http://www.w3.org/1999/02/22-rdf-syntax-ns#">
   <cc:Work>
    <dc:type rdf:resource="http://purl.org/dc/dcmitype/StillImage"/>
    <dc:date>2022-04-01T08:09:55.726408</dc:date>
    <dc:format>image/svg+xml</dc:format>
    <dc:creator>
     <cc:Agent>
      <dc:title>Matplotlib v3.3.1, https://matplotlib.org/</dc:title>
     </cc:Agent>
    </dc:creator>
   </cc:Work>
  </rdf:RDF>
 </metadata>
 <defs>
  <style type="text/css">*{stroke-linecap:butt;stroke-linejoin:round;}</style>
 </defs>
 <g id="figure_1">
  <g id="patch_1">
   <path d="M 0 64.08 
L 84.96 64.08 
L 84.96 0 
L 0 0 
z
" style="fill:none;"/>
  </g>
  <g id="axes_1">
   <g id="patch_2">
    <path d="M 28.8 42.48 
L 77.76 42.48 
L 77.76 1.8 
L 28.8 1.8 
z
" style="fill:none;"/>
   </g>
   <g id="matplotlib.axis_1">
    <g id="xtick_1">
     <g id="line2d_1">
      <defs>
       <path d="M 0 0 
L 0 3.5 
" id="m8f0e199b29" style="stroke:#000000;stroke-width:0.8;"/>
      </defs>
      <g>
       <use style="stroke:#000000;stroke-width:0.8;" x="28.8" xlink:href="#m8f0e199b29" y="42.48"/>
      </g>
     </g>
     <g id="text_1">
      <text style="font-family:DejaVu Sans;font-size:6px;font-stretch:normal;font-style:normal;font-weight:normal;text-anchor:middle;" transform="rotate(-0, 28.8, 54.039062)" x="28.8" y="54.039062">0</text>
     </g>
    </g>
    <g id="xtick_2">
     <g id="line2d_2">
      <g>
       <use style="stroke:#000000;stroke-width:0.8;" x="53.28" xlink:href="#m8f0e199b29" y="42.48"/>
      </g>
     </g>
     <g id="text_2">
      <text style="font-family:DejaVu Sans;font-size:6px;font-stretch:normal;font-style:normal;font-weight:normal;text-anchor:middle;" transform="rotate(-0, 53.28, 54.039062)" x="53.28" y="54.039062">15</text>
     </g>
    </g>
    <g id="xtick_3">
     <g id="line2d_3">
      <g>
       <use style="stroke:#000000;stroke-width:0.8;" x="77.76" xlink:href="#m8f0e199b29" y="42.48"/>
      </g>
     </g>
     <g id="text_3">
      <text style="font-family:DejaVu Sans;font-size:6px;font-stretch:normal;font-style:normal;font-weight:normal;text-anchor:middle;" transform="rotate(-0, 77.76, 54.039062)" x="77.76" y="54.039062">30</text>
     </g>
    </g>
    <g id="text_4">
     <text style="font-family:DejaVu Sans;font-size:6px;font-stretch:normal;font-style:normal;font-weight:normal;text-anchor:middle;" transform="rotate(-0, 53.28, 61.752187)" x="53.28" y="61.752187">frequency (Hz)</text>
    </g>
   </g>
   <g id="matplotlib.axis_2">
    <g id="ytick_1">
     <g id="line2d_4">
      <defs>
       <path d="M 0 0 
L -3.5 0 
" id="md456889033" style="stroke:#000000;stroke-width:0.8;"/>
      </defs>
      <g>
       <use style="stroke:#000000;stroke-width:0.8;" x="28.8" xlink:href="#md456889033" y="42.48"/>
      </g>
     </g>
     <g id="text_5">
      <text style="font-family:DejaVu Sans;font-size:6px;font-stretch:normal;font-style:normal;font-weight:normal;text-anchor:end;" transform="rotate(-0, 21.8, 44.759531)" x="21.8" y="44.759531">0</text>
     </g>
    </g>
    <g id="ytick_2">
     <g id="line2d_5">
      <g>
       <use style="stroke:#000000;stroke-width:0.8;" x="28.8" xlink:href="#md456889033" y="22.14"/>
      </g>
     </g>
     <g id="text_6">
      <text style="font-family:DejaVu Sans;font-size:6px;font-stretch:normal;font-style:normal;font-weight:normal;text-anchor:end;" transform="rotate(-0, 21.8, 24.419531)" x="21.8" y="24.419531">0.12</text>
     </g>
    </g>
    <g id="ytick_3">
     <g id="line2d_6">
      <g>
       <use style="stroke:#000000;stroke-width:0.8;" x="28.8" xlink:href="#md456889033" y="1.8"/>
      </g>
     </g>
     <g id="text_7">
      <text style="font-family:DejaVu Sans;font-size:6px;font-stretch:normal;font-style:normal;font-weight:normal;text-anchor:end;" transform="rotate(-0, 21.8, 4.079531)" x="21.8" y="4.079531">0.24</text>
     </g>
    </g>
    <g id="text_8">
     <text style="font-family:DejaVu Sans;font-size:6px;font-stretch:normal;font-style:normal;font-weight:normal;text-anchor:middle;" transform="rotate(-90, 5.999063, 22.14)" x="5.999063" y="22.14">amplitude</text>
    </g>
   </g>
   <g id="line2d_7">
    <path clip-path="url(#pbe9fcabfbf)" d="M 28.8 41.77375 
L 30.16 32.62374 
L 31.52 37.130758 
L 32.88 37.497414 
L 34.24 22.05607 
L 35.6 36.933203 
L 36.96 36.335529 
L 38.32 38.67049 
L 39.68 37.482948 
L 41.04 38.451809 
L 42.4 38.735669 
L 43.76 39.726003 
L 45.12 39.387465 
L 46.48 39.976794 
L 47.84 40.230078 
L 49.2 40.406305 
L 50.56 40.598827 
L 51.92 40.700054 
L 53.28 40.83642 
L 54.64 40.907621 
L 56 41.014425 
L 57.36 41.041894 
L 58.72 41.116018 
L 60.08 41.184465 
L 61.44 41.231324 
L 62.8 41.284033 
L 64.16 41.330605 
L 65.52 41.363712 
L 66.88 41.401466 
L 68.24 41.424755 
L 69.6 41.463536 
L 70.96 41.492014 
L 72.32 41.510072 
L 73.68 41.538663 
L 75.04 41.559289 
L 76.4 41.581952 
L 77.76 41.595299 
L 79.12 41.616315 
L 80.48 41.632572 
L 81.84 41.644173 
L 83.2 41.658845 
L 84.56 41.670142 
L 85.92 41.678845 
L 85.96 41.679302 
" style="fill:none;stroke:#9467bd;stroke-linecap:square;stroke-width:0.5;"/>
   </g>
   <g id="line2d_8">
    <path clip-path="url(#pbe9fcabfbf)" d="M 28.8 41.77375 
L 30.16 40.77595 
L 31.52 36.449969 
L 32.88 27.751952 
L 34.24 13.821985 
L 35.6 31.226574 
L 36.96 36.341371 
L 38.32 36.589637 
L 39.68 38.363162 
L 41.04 39.898214 
L 42.4 37.69075 
L 43.76 39.37784 
L 45.12 39.860913 
L 46.48 39.907336 
L 47.84 40.22972 
L 49.2 40.47534 
L 50.56 40.54067 
L 51.92 40.662173 
L 53.28 40.794703 
L 54.64 40.887888 
L 56 40.945265 
L 57.36 41.047879 
L 58.72 41.117062 
L 60.08 41.150527 
L 61.44 41.226405 
L 62.8 41.273879 
L 64.16 41.293175 
L 65.52 41.355576 
L 66.88 41.379697 
L 68.24 41.415024 
L 69.6 41.45161 
L 70.96 41.47794 
L 72.32 41.495844 
L 73.68 41.520477 
L 75.04 41.533127 
L 76.4 41.568153 
L 77.76 41.576878 
L 79.12 41.602585 
L 80.48 41.610621 
L 81.84 41.623919 
L 83.2 41.64965 
L 84.56 41.659519 
L 85.92 41.656938 
L 85.96 41.657765 
" style="fill:none;stroke:#d62728;stroke-linecap:square;stroke-width:0.5;"/>
   </g>
   <g id="line2d_9">
    <path clip-path="url(#pbe9fcabfbf)" d="M 28.8 41.77375 
L 30.16 40.797431 
L 31.52 34.235517 
L 32.88 35.471913 
L 34.24 15.893525 
L 35.6 33.95673 
L 36.96 35.696291 
L 38.32 38.895309 
L 39.68 38.715424 
L 41.04 38.474722 
L 42.4 38.221701 
L 43.76 39.586295 
L 45.12 39.626136 
L 46.48 39.789029 
L 47.84 40.177183 
L 49.2 40.477204 
L 50.56 40.347429 
L 51.92 40.598341 
L 53.28 40.748969 
L 54.64 40.885393 
L 56 40.924745 
L 57.36 41.031031 
L 58.72 41.105522 
L 60.08 41.170925 
L 61.44 41.216948 
L 62.8 41.260041 
L 64.16 41.320069 
L 65.52 41.357127 
L 66.88 41.392408 
L 68.24 41.41916 
L 69.6 41.461968 
L 70.96 41.475098 
L 72.32 41.512388 
L 73.68 41.529419 
L 75.04 41.556377 
L 76.4 41.57764 
L 77.76 41.594501 
L 79.12 41.609973 
L 80.48 41.626123 
L 81.84 41.642273 
L 83.2 41.656932 
L 84.56 41.667469 
L 85.92 41.678384 
L 85.96 41.678726 
" style="fill:none;stroke:#17becf;stroke-linecap:square;stroke-width:0.5;"/>
   </g>
   <g id="line2d_10">
    <path clip-path="url(#pbe9fcabfbf)" d="M 28.8 41.77375 
L 30.16 39.321159 
L 31.52 38.866749 
L 32.88 34.839966 
L 34.24 24.524884 
L 35.6 38.519867 
L 36.96 38.917906 
L 38.32 37.724489 
L 39.68 30.852737 
L 41.04 37.59742 
L 42.4 39.695702 
L 43.76 38.992634 
L 45.12 38.745104 
L 46.48 39.17031 
L 47.84 39.720954 
L 49.2 40.153446 
L 50.56 40.346669 
L 51.92 40.557757 
L 53.28 40.687739 
L 54.64 40.804307 
L 56 40.951749 
L 57.36 40.897466 
L 58.72 41.035108 
L 60.08 41.140108 
L 61.44 41.179919 
L 62.8 41.254343 
L 64.16 41.312274 
L 65.52 41.324854 
L 66.88 41.386817 
L 68.24 41.423583 
L 69.6 41.420164 
L 70.96 41.474453 
L 72.32 41.486014 
L 73.68 41.525396 
L 75.04 41.552154 
L 76.4 41.568114 
L 77.76 41.590868 
L 79.12 41.609203 
L 80.48 41.621285 
L 81.84 41.638697 
L 83.2 41.651759 
L 84.56 41.663902 
L 85.92 41.677481 
L 85.96 41.677868 
" style="fill:none;stroke:#bcbd22;stroke-linecap:square;stroke-width:0.5;"/>
   </g>
   <g id="patch_3">
    <path d="M 28.8 42.48 
L 28.8 1.8 
" style="fill:none;stroke:#000000;stroke-linecap:square;stroke-linejoin:miter;stroke-width:0.8;"/>
   </g>
   <g id="patch_4">
    <path d="M 28.8 42.48 
L 77.76 42.48 
" style="fill:none;stroke:#000000;stroke-linecap:square;stroke-linejoin:miter;stroke-width:0.8;"/>
   </g>
  </g>
 </g>
 <defs>
  <clipPath id="pbe9fcabfbf">
   <rect height="40.68" width="48.96" x="28.8" y="1.8"/>
  </clipPath>
 </defs>
</svg>
