<?xml version="1.0" encoding="utf-8" standalone="no"?>
<!DOCTYPE svg PUBLIC "-//W3C//DTD SVG 1.1//EN"
  "http://www.w3.org/Graphics/SVG/1.1/DTD/svg11.dtd">
<!-- Created with matplotlib (https://matplotlib.org/) -->
<svg height="64.08pt" version="1.1" viewBox="0 0 84.96 64.08" width="84.96pt" xmlns="http://www.w3.org/2000/svg" xmlns:xlink="http://www.w3.org/1999/xlink">
 <metadata>
  <rdf:RDF xmlns:cc="http://creativecommons.org/ns#" xmlns:dc="http://purl.org/dc/elements/1.1/" xmlns:rdf="http://www.w3.org/1999/02/22-rdf-syntax-ns#">
   <cc:Work>
    <dc:type rdf:resource="http://purl.org/dc/dcmitype/StillImage"/>
    <dc:date>2022-04-01T08:09:55.621769</dc:date>
    <dc:format>image/svg+xml</dc:format>
    <dc:creator>
     <cc:Agent>
      <dc:title>Matplotlib v3.3.1, https://matplotlib.org/</dc:title>
     </cc:Agent>
    </dc:creator>
   </cc:Work>
  </rdf:RDF>
 </metadata>
 <defs>
  <style type="text/css">*{stroke-linecap:butt;stroke-linejoin:round;}</style>
 </defs>
 <g id="figure_1">
  <g id="patch_1">
   <path d="M 0 64.08 
L 84.96 64.08 
L 84.96 0 
L 0 0 
z
" style="fill:none;"/>
  </g>
  <g id="axes_1">
   <g id="patch_2">
    <path d="M 28.8 42.48 
L 77.76 42.48 
L 77.76 1.8 
L 28.8 1.8 
z
" style="fill:none;"/>
   </g>
   <g id="line2d_1">
    <path clip-path="url(#pcad4a91e41)" d="M 28.8 1.8 
L 29.208 4.404747 
L 29.616 9.241445 
L 30.024 13.824823 
L 30.432 18.138017 
L 30.84 21.936648 
L 31.248 24.958492 
L 31.656 26.4044 
L 32.064 26.022328 
L 32.472 24.5911 
L 32.88 22.979603 
L 33.288 21.594117 
L 33.696 20.556923 
L 34.104 20.197303 
L 34.512 20.886987 
L 34.92 22.065518 
L 35.328 23.042889 
L 35.736 23.536831 
L 36.144 23.660026 
L 36.552 23.473537 
L 36.96 22.90924 
L 37.368 22.320629 
L 37.776 21.862259 
L 38.184 21.853755 
L 38.592 21.835168 
L 39 21.281794 
L 39.408 20.929591 
L 39.816 20.680824 
L 40.224 19.854072 
L 40.632 18.731243 
L 41.04 17.815416 
L 41.448 17.579785 
L 41.856 17.711464 
L 42.264 17.464057 
L 42.672 17.403586 
L 43.08 18.175336 
L 43.488 19.264731 
L 43.896 19.67479 
L 44.304 19.248047 
L 44.712 18.679409 
L 45.12 18.476842 
L 45.528 18.846389 
L 45.936 19.752857 
L 46.344 20.849431 
L 46.752 21.989197 
L 47.16 23.265452 
L 47.568 24.212698 
L 47.976 24.303577 
L 48.384 23.707656 
L 48.792 22.721908 
L 49.2 21.37229 
L 49.608 20.078108 
L 50.016 19.340306 
L 50.424 19.345836 
L 50.832 20.026057 
L 51.24 20.999642 
L 51.648 21.993004 
L 52.056 22.564401 
L 52.464 22.275749 
L 52.872 21.135387 
L 53.28 19.760315 
L 53.688 18.461815 
L 54.096 16.983124 
L 54.504 15.549624 
L 54.912 14.878306 
L 55.32 15.448012 
L 55.728 17.165713 
L 56.136 19.274967 
L 56.544 20.991367 
L 56.952 22.210152 
L 57.36 23.150296 
L 57.768 23.704543 
L 58.176 23.644244 
L 58.584 23.194603 
L 58.992 22.606591 
L 59.4 22.022357 
L 59.808 21.606498 
L 60.216 21.228509 
L 60.624 20.920232 
L 61.032 20.88755 
L 61.44 20.976084 
L 61.848 20.97094 
L 62.256 20.849294 
L 62.664 20.772634 
L 63.072 20.84702 
L 63.48 20.91883 
L 63.888 21.145831 
L 64.296 21.374737 
L 64.704 21.36445 
L 65.112 21.28966 
L 65.52 20.999294 
L 65.928 20.261724 
L 66.336 19.199054 
L 66.744 18.179307 
L 67.152 17.512304 
L 67.56 17.4042 
L 67.968 17.637541 
L 68.376 17.944379 
L 68.784 18.387948 
L 69.192 19.164183 
L 69.6 20.117653 
L 70.008 20.894493 
L 70.416 21.235524 
L 70.824 21.028495 
L 71.232 20.74644 
L 71.64 20.613498 
L 72.048 20.518142 
L 72.456 20.430013 
L 72.864 20.307183 
L 73.272 20.225205 
L 73.68 20.213985 
L 74.088 20.269779 
" style="fill:none;stroke:#9467bd;stroke-linecap:square;stroke-width:0.5;"/>
   </g>
   <g id="line2d_2">
    <path clip-path="url(#pcad4a91e41)" d="M 28.8 1.8 
L 29.208 3.741506 
L 29.616 7.460414 
L 30.024 11.466211 
L 30.432 15.763656 
L 30.84 19.498607 
L 31.248 21.890324 
L 31.656 23.042968 
L 32.064 23.258142 
L 32.472 23.055191 
L 32.88 22.974607 
L 33.288 23.159674 
L 33.696 23.98999 
L 34.104 25.24551 
L 34.512 26.575118 
L 34.92 28.049066 
L 35.328 29.178834 
L 35.736 29.521483 
L 36.144 29.106748 
L 36.552 27.821274 
L 36.96 25.811393 
L 37.368 23.641879 
L 37.776 21.586952 
L 38.184 19.831102 
L 38.592 18.36989 
L 39 17.320011 
L 39.408 16.986776 
L 39.816 16.823048 
L 40.224 16.524822 
L 40.632 16.604038 
L 41.04 16.86161 
L 41.448 16.834719 
L 41.856 16.693736 
L 42.264 16.433629 
L 42.672 15.819168 
L 43.08 15.082179 
L 43.488 14.572321 
L 43.896 14.846502 
L 44.304 15.876465 
L 44.712 17.312619 
L 45.12 19.388225 
L 45.528 21.786973 
L 45.936 23.72743 
L 46.344 25.112347 
L 46.752 25.795401 
L 47.16 25.525983 
L 47.568 24.915828 
L 47.976 24.249049 
L 48.384 23.481734 
L 48.792 22.890691 
L 49.2 22.683132 
L 49.608 22.759091 
L 50.016 22.949104 
L 50.424 23.067797 
L 50.832 23.022915 
L 51.24 22.812441 
L 51.648 22.046795 
L 52.056 20.763237 
L 52.464 19.402948 
L 52.872 17.972041 
L 53.28 16.630258 
L 53.688 15.896898 
L 54.096 15.980199 
L 54.504 16.415463 
L 54.912 17.015342 
L 55.32 17.816327 
L 55.728 18.528039 
L 56.136 19.015969 
L 56.544 19.200647 
L 56.952 19.125988 
L 57.36 18.733261 
L 57.768 18.374292 
L 58.176 18.325983 
L 58.584 18.46027 
L 58.992 18.931225 
L 59.4 19.784664 
L 59.808 20.924584 
L 60.216 22.139877 
L 60.624 23.195532 
L 61.032 23.825262 
L 61.44 24.044808 
L 61.848 23.863195 
L 62.256 23.32876 
L 62.664 22.590568 
L 63.072 21.804852 
L 63.48 21.158267 
L 63.888 20.755524 
L 64.296 20.602848 
L 64.704 20.624949 
L 65.112 20.786154 
L 65.52 20.93469 
L 65.928 20.941519 
L 66.336 20.853787 
L 66.744 20.664396 
L 67.152 20.376722 
L 67.56 20.042402 
L 67.968 19.76459 
L 68.376 19.591993 
L 68.784 19.464712 
L 69.192 19.381226 
L 69.6 19.423934 
L 70.008 19.5757 
L 70.416 19.694541 
L 70.824 19.728472 
L 71.232 19.775402 
L 71.64 19.857048 
L 72.048 19.919177 
L 72.456 20.002867 
L 72.864 20.098738 
L 73.272 20.157627 
L 73.68 20.18956 
L 74.088 20.231915 
" style="fill:none;stroke:#d62728;stroke-linecap:square;stroke-width:0.5;"/>
   </g>
   <g id="line2d_3">
    <path clip-path="url(#pcad4a91e41)" d="M 28.8 1.8 
L 29.208 4.481937 
L 29.616 9.819967 
L 30.024 15.351159 
L 30.432 20.161806 
L 30.84 23.281607 
L 31.248 24.372614 
L 31.656 24.25272 
L 32.064 23.755804 
L 32.472 23.081877 
L 32.88 22.591046 
L 33.288 22.301201 
L 33.696 22.15498 
L 34.104 22.220369 
L 34.512 22.609363 
L 34.92 23.296489 
L 35.328 24.139562 
L 35.736 25.154407 
L 36.144 25.78476 
L 36.552 25.943983 
L 36.96 25.760515 
L 37.368 24.715728 
L 37.776 22.699619 
L 38.184 20.108323 
L 38.592 17.820937 
L 39 16.539908 
L 39.408 16.100774 
L 39.816 16.132691 
L 40.224 16.555887 
L 40.632 17.248716 
L 41.04 18.070397 
L 41.448 18.871128 
L 41.856 19.466604 
L 42.264 19.939624 
L 42.672 20.186095 
L 43.08 19.888003 
L 43.488 19.149036 
L 43.896 18.319343 
L 44.304 17.788269 
L 44.712 17.793312 
L 45.12 18.573276 
L 45.528 20.056176 
L 45.936 21.57847 
L 46.344 22.70177 
L 46.752 23.334678 
L 47.16 23.170712 
L 47.568 22.609676 
L 47.976 22.36224 
L 48.384 22.241114 
L 48.792 22.110416 
L 49.2 21.955933 
L 49.608 21.453828 
L 50.016 20.447864 
L 50.424 19.91145 
L 50.832 20.153704 
L 51.24 20.597374 
L 51.648 21.193231 
L 52.056 21.812046 
L 52.464 22.052912 
L 52.872 21.533661 
L 53.28 20.507862 
L 53.688 19.012336 
L 54.096 17.230324 
L 54.504 15.835418 
L 54.912 15.171367 
L 55.32 15.467729 
L 55.728 16.603123 
L 56.136 18.048674 
L 56.544 19.23011 
L 56.952 20.18159 
L 57.36 20.765073 
L 57.768 20.97774 
L 58.176 21.258733 
L 58.584 21.603387 
L 58.992 21.825599 
L 59.4 21.909978 
L 59.808 21.96069 
L 60.216 21.934667 
L 60.624 21.933542 
L 61.032 21.974363 
L 61.44 21.924834 
L 61.848 21.728325 
L 62.256 21.389307 
L 62.664 21.030389 
L 63.072 20.825768 
L 63.48 20.847006 
L 63.888 21.086246 
L 64.296 21.397456 
L 64.704 21.479445 
L 65.112 21.190455 
L 65.52 20.681996 
L 65.928 19.923366 
L 66.336 19.094981 
L 66.744 18.646741 
L 67.152 18.568338 
L 67.56 18.716896 
L 67.968 19.103405 
L 68.376 19.497776 
L 68.784 19.669065 
L 69.192 19.849753 
L 69.6 20.076427 
L 70.008 20.220138 
L 70.416 20.328529 
L 70.824 20.394501 
L 71.232 20.384675 
L 71.64 20.269487 
L 72.048 20.232668 
L 72.456 20.274597 
L 72.864 20.315834 
L 73.272 20.388418 
L 73.68 20.416991 
L 74.088 20.389156 
" style="fill:none;stroke:#17becf;stroke-linecap:square;stroke-width:0.5;"/>
   </g>
   <g id="line2d_4">
    <path clip-path="url(#pcad4a91e41)" d="M 28.8 1.8 
L 29.208 4.657233 
L 29.616 10.969036 
L 30.024 17.507106 
L 30.432 22.74634 
L 30.84 26.176852 
L 31.248 27.571581 
L 31.656 27.101336 
L 32.064 25.67286 
L 32.472 24.212389 
L 32.88 22.938413 
L 33.288 21.853985 
L 33.696 21.163021 
L 34.104 20.865538 
L 34.512 20.59824 
L 34.92 20.097489 
L 35.328 19.482153 
L 35.736 18.970684 
L 36.144 18.706104 
L 36.552 18.82347 
L 36.96 19.444975 
L 37.368 20.559056 
L 37.776 21.949961 
L 38.184 23.460027 
L 38.592 24.841168 
L 39 25.431687 
L 39.408 24.724876 
L 39.816 22.685536 
L 40.224 19.88637 
L 40.632 17.342274 
L 41.04 15.542163 
L 41.448 14.484205 
L 41.856 14.320655 
L 42.264 15.163365 
L 42.672 16.775992 
L 43.08 18.690587 
L 43.488 20.661532 
L 43.896 22.444836 
L 44.304 23.508965 
L 44.712 23.402071 
L 45.12 22.274373 
L 45.528 20.985707 
L 45.936 20.138269 
L 46.344 19.707217 
L 46.752 19.486345 
L 47.16 19.521929 
L 47.568 19.820586 
L 47.976 20.083499 
L 48.384 20.223784 
L 48.792 20.374335 
L 49.2 20.63081 
L 49.608 20.894849 
L 50.016 21.205334 
L 50.424 21.769445 
L 50.832 22.443684 
L 51.24 22.893464 
L 51.648 22.937349 
L 52.056 22.528123 
L 52.464 21.653371 
L 52.872 20.389926 
L 53.28 19.031383 
L 53.688 17.899831 
L 54.096 16.911942 
L 54.504 16.046758 
L 54.912 15.878111 
L 55.32 16.824473 
L 55.728 18.512992 
L 56.136 20.211401 
L 56.544 21.542214 
L 56.952 22.422829 
L 57.36 22.778741 
L 57.768 22.569729 
L 58.176 21.902376 
L 58.584 21.105177 
L 58.992 20.502962 
L 59.4 20.142888 
L 59.808 19.937249 
L 60.216 19.80679 
L 60.624 19.798464 
L 61.032 19.914708 
L 61.44 19.992542 
L 61.848 20.08573 
L 62.256 20.331304 
L 62.664 20.685743 
L 63.072 21.083942 
L 63.48 21.543289 
L 63.888 22.062622 
L 64.296 22.532662 
L 64.704 22.688465 
L 65.112 22.285786 
L 65.52 21.309315 
L 65.928 19.96552 
L 66.336 18.622002 
L 66.744 17.719732 
L 67.152 17.546667 
L 67.56 18.033431 
L 67.968 18.824836 
L 68.376 19.665589 
L 68.784 20.38529 
L 69.192 20.802661 
L 69.6 20.869953 
L 70.008 20.724371 
L 70.416 20.562934 
L 70.824 20.524146 
L 71.232 20.573284 
L 71.64 20.5702 
L 72.048 20.514744 
L 72.456 20.460762 
L 72.864 20.411498 
L 73.272 20.37321 
L 73.68 20.337515 
L 74.088 20.309068 
" style="fill:none;stroke:#bcbd22;stroke-linecap:square;stroke-width:0.5;"/>
   </g>
   <g id="matplotlib.axis_1">
    <g id="xtick_1">
     <g id="line2d_5">
      <defs>
       <path d="M 0 0 
L 0 3.5 
" id="m56b1df7839" style="stroke:#000000;stroke-width:0.8;"/>
      </defs>
      <g>
       <use style="stroke:#000000;stroke-width:0.8;" x="28.8" xlink:href="#m56b1df7839" y="42.48"/>
      </g>
     </g>
     <g id="text_1">
      <text style="font-family:DejaVu Sans;font-size:6px;font-stretch:normal;font-style:normal;font-weight:normal;text-anchor:middle;" transform="rotate(-0, 28.8, 54.039062)" x="28.8" y="54.039062">0</text>
     </g>
    </g>
    <g id="xtick_2">
     <g id="line2d_6">
      <g>
       <use style="stroke:#000000;stroke-width:0.8;" x="53.28" xlink:href="#m56b1df7839" y="42.48"/>
      </g>
     </g>
     <g id="text_2">
      <text style="font-family:DejaVu Sans;font-size:6px;font-stretch:normal;font-style:normal;font-weight:normal;text-anchor:middle;" transform="rotate(-0, 53.28, 54.039062)" x="53.28" y="54.039062">600</text>
     </g>
    </g>
    <g id="xtick_3">
     <g id="line2d_7">
      <g>
       <use style="stroke:#000000;stroke-width:0.8;" x="77.76" xlink:href="#m56b1df7839" y="42.48"/>
      </g>
     </g>
     <g id="text_3">
      <text style="font-family:DejaVu Sans;font-size:6px;font-stretch:normal;font-style:normal;font-weight:normal;text-anchor:middle;" transform="rotate(-0, 77.76, 54.039062)" x="77.76" y="54.039062">1200</text>
     </g>
    </g>
    <g id="text_4">
     <text style="font-family:DejaVu Sans;font-size:6px;font-stretch:normal;font-style:normal;font-weight:normal;text-anchor:middle;" transform="rotate(-0, 53.28, 61.752187)" x="53.28" y="61.752187">time (ms)</text>
    </g>
   </g>
   <g id="matplotlib.axis_2">
    <g id="ytick_1">
     <g id="line2d_8">
      <defs>
       <path d="M 0 0 
L -3.5 0 
" id="m041f1438b2" style="stroke:#000000;stroke-width:0.8;"/>
      </defs>
      <g>
       <use style="stroke:#000000;stroke-width:0.8;" x="28.8" xlink:href="#m041f1438b2" y="38.781818"/>
      </g>
     </g>
     <g id="text_5">
      <text style="font-family:DejaVu Sans;font-size:6px;font-stretch:normal;font-style:normal;font-weight:normal;text-anchor:end;" transform="rotate(-0, 21.8, 41.061349)" x="21.8" y="41.061349">-1</text>
     </g>
    </g>
    <g id="ytick_2">
     <g id="line2d_9">
      <g>
       <use style="stroke:#000000;stroke-width:0.8;" x="28.8" xlink:href="#m041f1438b2" y="20.290909"/>
      </g>
     </g>
     <g id="text_6">
      <text style="font-family:DejaVu Sans;font-size:6px;font-stretch:normal;font-style:normal;font-weight:normal;text-anchor:end;" transform="rotate(-0, 21.8, 22.57044)" x="21.8" y="22.57044">0</text>
     </g>
    </g>
    <g id="ytick_3">
     <g id="line2d_10">
      <g>
       <use style="stroke:#000000;stroke-width:0.8;" x="28.8" xlink:href="#m041f1438b2" y="1.8"/>
      </g>
     </g>
     <g id="text_7">
      <text style="font-family:DejaVu Sans;font-size:6px;font-stretch:normal;font-style:normal;font-weight:normal;text-anchor:end;" transform="rotate(-0, 21.8, 4.079531)" x="21.8" y="4.079531">1</text>
     </g>
    </g>
    <g id="text_8">
     <text style="font-family:DejaVu Sans;font-size:6px;font-stretch:normal;font-style:normal;font-weight:normal;text-anchor:middle;" transform="rotate(-90, 5.999062, 22.14)" x="5.999062" y="22.14">auto-correlation</text>
    </g>
   </g>
   <g id="line2d_11">
    <path clip-path="url(#pcad4a91e41)" d="M 28.8 1.8 
L 29.208 6.092011 
L 29.616 10.776012 
L 30.024 15.116562 
L 30.432 18.669081 
L 30.84 21.239667 
L 31.248 22.826052 
L 31.656 23.553646 
L 32.064 23.616553 
L 32.472 23.229516 
L 32.88 22.593298 
L 33.288 21.873488 
L 33.696 21.190934 
L 34.104 20.621162 
L 34.512 20.199833 
L 34.92 19.931511 
L 35.328 19.799496 
L 35.736 19.775112 
L 36.144 19.825417 
L 36.552 19.918883 
L 36.96 20.028986 
L 37.368 20.13595 
L 37.776 20.227034 
L 38.184 20.295817 
L 38.592 20.340906 
L 39 20.36443 
L 39.408 20.370586 
L 39.816 20.364404 
L 40.224 20.350817 
L 40.632 20.33406 
L 41.04 20.317357 
L 41.448 20.302843 
L 41.856 20.291657 
L 42.264 20.284124 
L 42.672 20.279992 
L 43.08 20.278654 
L 43.488 20.279344 
L 43.896 20.281294 
L 44.304 20.28383 
L 44.712 20.286429 
L 45.12 20.288734 
L 45.528 20.290547 
L 45.936 20.291799 
L 46.344 20.292516 
L 46.752 20.292786 
L 47.16 20.292723 
L 47.568 20.292447 
L 47.976 20.292066 
L 48.384 20.291663 
L 48.792 20.291298 
L 49.2 20.291005 
L 49.608 20.290798 
L 50.016 20.290675 
L 50.424 20.290623 
L 50.832 20.290626 
L 51.24 20.290664 
L 51.648 20.290721 
L 52.056 20.290783 
L 52.464 20.290841 
L 52.872 20.290888 
L 53.28 20.290922 
L 53.688 20.290943 
L 54.096 20.290952 
L 54.504 20.290953 
L 54.912 20.290948 
L 55.32 20.29094 
L 55.728 20.29093 
L 56.136 20.290921 
L 56.544 20.290913 
L 56.952 20.290908 
L 57.36 20.290904 
L 57.768 20.290903 
L 58.176 20.290902 
L 58.584 20.290903 
L 58.992 20.290904 
L 59.4 20.290906 
L 59.808 20.290907 
L 60.216 20.290908 
L 60.624 20.290909 
L 61.032 20.29091 
L 61.44 20.29091 
L 61.848 20.29091 
L 62.256 20.29091 
L 62.664 20.29091 
L 63.072 20.29091 
L 63.48 20.290909 
L 63.888 20.290909 
L 64.296 20.290909 
L 64.704 20.290909 
L 65.112 20.290909 
L 65.52 20.290909 
L 65.928 20.290909 
L 66.336 20.290909 
L 66.744 20.290909 
L 67.152 20.290909 
L 67.56 20.290909 
L 67.968 20.290909 
L 68.376 20.290909 
L 68.784 20.290909 
L 69.192 20.290909 
L 69.6 20.290909 
L 70.008 20.290909 
L 70.416 20.290909 
L 70.824 20.290909 
L 71.232 20.290909 
L 71.64 20.290909 
L 72.048 20.290909 
L 72.456 20.290909 
L 72.864 20.290909 
L 73.272 20.290909 
L 73.68 20.290909 
L 74.088 20.290909 
" style="fill:none;stroke:#000000;stroke-linecap:square;stroke-width:0.5;"/>
   </g>
   <g id="patch_3">
    <path d="M 28.8 38.781818 
L 28.8 1.8 
" style="fill:none;stroke:#000000;stroke-linecap:square;stroke-linejoin:miter;stroke-width:0.8;"/>
   </g>
   <g id="patch_4">
    <path d="M 28.8 42.48 
L 77.76 42.48 
" style="fill:none;stroke:#000000;stroke-linecap:square;stroke-linejoin:miter;stroke-width:0.8;"/>
   </g>
  </g>
 </g>
 <defs>
  <clipPath id="pcad4a91e41">
   <rect height="40.68" width="48.96" x="28.8" y="1.8"/>
  </clipPath>
 </defs>
</svg>
