<?xml version="1.0" encoding="utf-8" standalone="no"?>
<!DOCTYPE svg PUBLIC "-//W3C//DTD SVG 1.1//EN"
  "http://www.w3.org/Graphics/SVG/1.1/DTD/svg11.dtd">
<!-- Created with matplotlib (https://matplotlib.org/) -->
<svg height="64.08pt" version="1.1" viewBox="0 0 169.92 64.08" width="169.92pt" xmlns="http://www.w3.org/2000/svg" xmlns:xlink="http://www.w3.org/1999/xlink">
 <metadata>
  <rdf:RDF xmlns:cc="http://creativecommons.org/ns#" xmlns:dc="http://purl.org/dc/elements/1.1/" xmlns:rdf="http://www.w3.org/1999/02/22-rdf-syntax-ns#">
   <cc:Work>
    <dc:type rdf:resource="http://purl.org/dc/dcmitype/StillImage"/>
    <dc:date>2022-04-01T08:09:55.322057</dc:date>
    <dc:format>image/svg+xml</dc:format>
    <dc:creator>
     <cc:Agent>
      <dc:title>Matplotlib v3.3.1, https://matplotlib.org/</dc:title>
     </cc:Agent>
    </dc:creator>
   </cc:Work>
  </rdf:RDF>
 </metadata>
 <defs>
  <style type="text/css">*{stroke-linecap:butt;stroke-linejoin:round;}</style>
 </defs>
 <g id="figure_1">
  <g id="patch_1">
   <path d="M 0 64.08 
L 169.92 64.08 
L 169.92 0 
L 0 0 
z
" style="fill:none;"/>
  </g>
  <g id="axes_1">
   <g id="PolyCollection_1">
    <defs>
     <path d="M 13.5936 -41.355391 
L 13.5936 -37.344221 
L 16.2432 -38.084588 
L 18.8928 -38.086966 
L 21.5424 -37.201313 
L 24.192 -36.111404 
L 26.8416 -35.168118 
L 29.4912 -34.665786 
L 32.1408 -33.978438 
L 34.7904 -33.915528 
L 37.44 -34.218603 
L 40.0896 -35.050924 
L 42.7392 -35.541572 
L 45.3888 -35.870803 
L 48.0384 -36.51034 
L 50.688 -37.848451 
L 53.3376 -38.709446 
L 55.9872 -39.233387 
L 58.6368 -38.51176 
L 61.2864 -37.385467 
L 63.936 -35.349471 
L 66.5856 -32.784562 
L 69.2352 -30.155317 
L 71.8848 -27.885726 
L 74.5344 -27.34659 
L 77.184 -27.88654 
L 79.8336 -28.792535 
L 82.4832 -31.76249 
L 85.1328 -36.070434 
L 87.7824 -39.824915 
L 90.432 -42.537883 
L 93.0816 -43.389638 
L 95.7312 -42.666191 
L 98.3808 -41.839492 
L 101.0304 -39.254951 
L 103.68 -34.163677 
L 106.3296 -30.994805 
L 108.9792 -29.682152 
L 111.6288 -29.222679 
L 114.2784 -29.342724 
L 116.928 -30.446508 
L 119.5776 -31.662706 
L 122.2272 -32.827097 
L 124.8768 -31.491169 
L 127.5264 -30.59276 
L 130.176 -28.530094 
L 132.8256 -25.555792 
L 135.4752 -22.216969 
L 138.1248 -18.424051 
L 140.7744 -16.034366 
L 143.424 -15.274913 
L 146.0736 -16.145155 
L 148.7232 -17.482068 
L 151.3728 -19.268146 
L 154.0224 -20.983865 
L 156.672 -22.29471 
L 159.3216 -23.290188 
L 161.9712 -24.63425 
L 164.6208 -26.64281 
L 167.2704 -30.077415 
L 169.92 -30.692931 
L 169.92 -32.107925 
L 169.92 -32.107925 
L 167.2704 -31.694489 
L 164.6208 -29.994605 
L 161.9712 -28.65913 
L 159.3216 -27.862807 
L 156.672 -27.138567 
L 154.0224 -25.935163 
L 151.3728 -24.327321 
L 148.7232 -22.583 
L 146.0736 -21.267109 
L 143.424 -20.503297 
L 140.7744 -21.251046 
L 138.1248 -23.735293 
L 135.4752 -27.401248 
L 132.8256 -30.670455 
L 130.176 -33.469932 
L 127.5264 -35.343829 
L 124.8768 -36.20255 
L 122.2272 -37.416446 
L 119.5776 -36.306184 
L 116.928 -35.00137 
L 114.2784 -33.633667 
L 111.6288 -33.173965 
L 108.9792 -33.047271 
L 106.3296 -33.098012 
L 103.68 -36.132556 
L 101.0304 -40.611165 
L 98.3808 -43.353695 
L 95.7312 -44.84851 
L 93.0816 -45.981146 
L 90.432 -45.594773 
L 87.7824 -43.638857 
L 85.1328 -40.564719 
L 82.4832 -36.723863 
L 79.8336 -34.126005 
L 77.184 -33.29433 
L 74.5344 -32.814208 
L 71.8848 -33.372626 
L 69.2352 -35.45553 
L 66.5856 -37.962781 
L 63.936 -40.317324 
L 61.2864 -42.042673 
L 58.6368 -43.091465 
L 55.9872 -43.66602 
L 53.3376 -43.35608 
L 50.688 -42.66189 
L 48.0384 -41.682731 
L 45.3888 -41.110829 
L 42.7392 -40.791284 
L 40.0896 -40.400059 
L 37.44 -39.489558 
L 34.7904 -39.134953 
L 32.1408 -39.061086 
L 29.4912 -39.557867 
L 26.8416 -39.806075 
L 24.192 -40.486515 
L 21.5424 -41.1851 
L 18.8928 -41.719393 
L 16.2432 -41.778425 
L 13.5936 -41.355391 
z
" id="md19e12d0e1" style="stroke:#9467bd;stroke-opacity:0.2;stroke-width:0.5;"/>
    </defs>
    <g clip-path="url(#pdf5f1d0687)">
     <use style="fill:#9467bd;fill-opacity:0.2;stroke:#9467bd;stroke-opacity:0.2;stroke-width:0.5;" x="0" xlink:href="#md19e12d0e1" y="64.08"/>
    </g>
   </g>
   <g id="PolyCollection_2">
    <defs>
     <path d="M 13.5936 -26.000955 
L 13.5936 -18.126649 
L 16.2432 -18.230977 
L 18.8928 -17.655711 
L 21.5424 -16.621518 
L 24.192 -15.646798 
L 26.8416 -14.629028 
L 29.4912 -14.438886 
L 32.1408 -15.466615 
L 34.7904 -17.828031 
L 37.44 -21.815619 
L 40.0896 -27.350937 
L 42.7392 -33.49808 
L 45.3888 -38.653221 
L 48.0384 -43.498457 
L 50.688 -47.048342 
L 53.3376 -48.753958 
L 55.9872 -49.452049 
L 58.6368 -51.261992 
L 61.2864 -51.384647 
L 63.936 -49.584116 
L 66.5856 -45.637537 
L 69.2352 -43.381939 
L 71.8848 -41.488954 
L 74.5344 -39.484318 
L 77.184 -33.683883 
L 79.8336 -29.008548 
L 82.4832 -25.091326 
L 85.1328 -22.585777 
L 87.7824 -20.426034 
L 90.432 -19.219119 
L 93.0816 -18.686459 
L 95.7312 -19.362369 
L 98.3808 -19.818343 
L 101.0304 -20.213955 
L 103.68 -21.229234 
L 106.3296 -23.02149 
L 108.9792 -25.784232 
L 111.6288 -30.323379 
L 114.2784 -35.227721 
L 116.928 -39.226134 
L 119.5776 -41.968936 
L 122.2272 -43.785189 
L 124.8768 -44.549781 
L 127.5264 -46.510142 
L 130.176 -45.509263 
L 132.8256 -42.839536 
L 135.4752 -40.747223 
L 138.1248 -38.513729 
L 140.7744 -36.659797 
L 143.424 -35.34172 
L 146.0736 -33.693726 
L 148.7232 -32.764241 
L 151.3728 -30.394867 
L 154.0224 -27.072742 
L 156.672 -24.182734 
L 159.3216 -21.492081 
L 161.9712 -19.412252 
L 164.6208 -18.541178 
L 167.2704 -18.761495 
L 169.92 -21.457248 
L 169.92 -23.602695 
L 169.92 -23.602695 
L 167.2704 -21.850409 
L 164.6208 -21.861213 
L 161.9712 -22.863815 
L 159.3216 -25.291508 
L 156.672 -28.017464 
L 154.0224 -30.95253 
L 151.3728 -33.243325 
L 148.7232 -34.271467 
L 146.0736 -35.174977 
L 143.424 -36.741727 
L 140.7744 -37.953053 
L 138.1248 -39.817958 
L 135.4752 -42.034111 
L 132.8256 -44.137985 
L 130.176 -46.794716 
L 127.5264 -47.846328 
L 124.8768 -46.585724 
L 122.2272 -46.903822 
L 119.5776 -45.930577 
L 116.928 -44.040849 
L 114.2784 -40.812193 
L 111.6288 -36.842413 
L 108.9792 -32.615472 
L 106.3296 -30.027752 
L 103.68 -28.223992 
L 101.0304 -27.029809 
L 98.3808 -26.373234 
L 95.7312 -25.616418 
L 93.0816 -24.120898 
L 90.432 -24.335369 
L 87.7824 -25.304416 
L 85.1328 -27.319686 
L 82.4832 -29.761574 
L 79.8336 -33.338797 
L 77.184 -37.094958 
L 74.5344 -40.889727 
L 71.8848 -42.80427 
L 69.2352 -44.672339 
L 66.5856 -46.959659 
L 63.936 -50.72625 
L 61.2864 -52.512373 
L 58.6368 -52.406479 
L 55.9872 -51.143834 
L 53.3376 -51.029764 
L 50.688 -50.411058 
L 48.0384 -48.246655 
L 45.3888 -44.597027 
L 42.7392 -40.473901 
L 40.0896 -35.031983 
L 37.44 -29.791301 
L 34.7904 -26.05192 
L 32.1408 -23.655362 
L 29.4912 -22.671681 
L 26.8416 -23.067816 
L 24.192 -24.015558 
L 21.5424 -25.051597 
L 18.8928 -25.874546 
L 16.2432 -26.426885 
L 13.5936 -26.000955 
z
" id="m6203fdd663" style="stroke:#d62728;stroke-opacity:0.2;stroke-width:0.5;"/>
    </defs>
    <g clip-path="url(#pdf5f1d0687)">
     <use style="fill:#d62728;fill-opacity:0.2;stroke:#d62728;stroke-opacity:0.2;stroke-width:0.5;" x="0" xlink:href="#m6203fdd663" y="64.08"/>
    </g>
   </g>
   <g id="PolyCollection_3">
    <defs>
     <path d="M 13.5936 -32.662319 
L 13.5936 -30.06718 
L 16.2432 -27.982457 
L 18.8928 -26.082985 
L 21.5424 -24.390004 
L 24.192 -22.303298 
L 26.8416 -20.734857 
L 29.4912 -20.023122 
L 32.1408 -18.05728 
L 34.7904 -17.610661 
L 37.44 -16.52214 
L 40.0896 -15.709937 
L 42.7392 -15.667436 
L 45.3888 -15.913035 
L 48.0384 -15.71712 
L 50.688 -16.03519 
L 53.3376 -17.707754 
L 55.9872 -20.085383 
L 58.6368 -25.958859 
L 61.2864 -35.143577 
L 63.936 -45.156797 
L 66.5856 -52.532694 
L 69.2352 -55.332488 
L 71.8848 -54.268547 
L 74.5344 -51.254913 
L 77.184 -45.956271 
L 79.8336 -39.832423 
L 82.4832 -34.546615 
L 85.1328 -29.032457 
L 87.7824 -24.037311 
L 90.432 -19.976231 
L 93.0816 -16.898227 
L 95.7312 -15.034377 
L 98.3808 -13.591624 
L 101.0304 -12.610596 
L 103.68 -11.936513 
L 106.3296 -11.173501 
L 108.9792 -10.706599 
L 111.6288 -10.753036 
L 114.2784 -11.163868 
L 116.928 -11.991924 
L 119.5776 -14.295234 
L 122.2272 -18.055566 
L 124.8768 -25.674127 
L 127.5264 -32.800418 
L 130.176 -41.578051 
L 132.8256 -48.730812 
L 135.4752 -54.160287 
L 138.1248 -55.700459 
L 140.7744 -54.088952 
L 143.424 -52.77545 
L 146.0736 -50.547936 
L 148.7232 -47.801912 
L 151.3728 -44.674862 
L 154.0224 -42.139269 
L 156.672 -39.264186 
L 159.3216 -36.720995 
L 161.9712 -34.209908 
L 164.6208 -31.439048 
L 167.2704 -31.356744 
L 169.92 -28.448533 
L 169.92 -32.794379 
L 169.92 -32.794379 
L 167.2704 -33.95164 
L 164.6208 -33.597373 
L 161.9712 -36.272746 
L 159.3216 -38.934405 
L 156.672 -41.161578 
L 154.0224 -43.927274 
L 151.3728 -46.431243 
L 148.7232 -49.44393 
L 146.0736 -52.163154 
L 143.424 -54.455518 
L 140.7744 -55.812111 
L 138.1248 -57.440838 
L 135.4752 -55.854163 
L 132.8256 -50.185857 
L 130.176 -42.977478 
L 127.5264 -34.211251 
L 124.8768 -27.279107 
L 122.2272 -19.773322 
L 119.5776 -15.903085 
L 116.928 -13.064383 
L 114.2784 -12.124381 
L 111.6288 -11.670447 
L 108.9792 -11.66758 
L 106.3296 -12.229203 
L 103.68 -13.192409 
L 101.0304 -14.138137 
L 98.3808 -15.624533 
L 95.7312 -18.030088 
L 93.0816 -20.605222 
L 90.432 -24.504475 
L 87.7824 -28.998424 
L 85.1328 -33.835506 
L 82.4832 -37.095636 
L 79.8336 -42.212219 
L 77.184 -48.297985 
L 74.5344 -53.304093 
L 71.8848 -56.310085 
L 69.2352 -57.306775 
L 66.5856 -54.414316 
L 63.936 -46.848833 
L 61.2864 -36.758552 
L 58.6368 -27.492585 
L 55.9872 -21.484534 
L 53.3376 -19.14339 
L 50.688 -17.366148 
L 48.0384 -16.966537 
L 45.3888 -17.115227 
L 42.7392 -16.931854 
L 40.0896 -16.992768 
L 37.44 -17.904705 
L 34.7904 -19.228199 
L 32.1408 -20.633777 
L 29.4912 -22.129598 
L 26.8416 -24.116666 
L 24.192 -25.888314 
L 21.5424 -26.808469 
L 18.8928 -28.543205 
L 16.2432 -30.572727 
L 13.5936 -32.662319 
z
" id="mbb4c32cf1c" style="stroke:#17becf;stroke-opacity:0.2;stroke-width:0.5;"/>
    </defs>
    <g clip-path="url(#pdf5f1d0687)">
     <use style="fill:#17becf;fill-opacity:0.2;stroke:#17becf;stroke-opacity:0.2;stroke-width:0.5;" x="0" xlink:href="#mbb4c32cf1c" y="64.08"/>
    </g>
   </g>
   <g id="PolyCollection_4">
    <defs>
     <path d="M 13.5936 -24.032471 
L 13.5936 -22.420951 
L 16.2432 -26.691808 
L 18.8928 -32.500278 
L 21.5424 -39.108969 
L 24.192 -46.440214 
L 26.8416 -52.582329 
L 29.4912 -55.951388 
L 32.1408 -56.153867 
L 34.7904 -54.943908 
L 37.44 -52.879149 
L 40.0896 -50.013942 
L 42.7392 -45.968958 
L 45.3888 -42.080145 
L 48.0384 -39.946756 
L 50.688 -37.543503 
L 53.3376 -34.773635 
L 55.9872 -32.607909 
L 58.6368 -29.742539 
L 61.2864 -26.625235 
L 63.936 -24.328347 
L 66.5856 -21.464181 
L 69.2352 -18.866884 
L 71.8848 -16.546128 
L 74.5344 -14.515692 
L 77.184 -13.388166 
L 79.8336 -13.035044 
L 82.4832 -13.832491 
L 85.1328 -15.689776 
L 87.7824 -18.636818 
L 90.432 -23.080415 
L 93.0816 -29.261036 
L 95.7312 -35.639472 
L 98.3808 -42.824458 
L 101.0304 -48.819264 
L 103.68 -52.332889 
L 106.3296 -53.41522 
L 108.9792 -51.028448 
L 111.6288 -47.342244 
L 114.2784 -43.739598 
L 116.928 -40.619606 
L 119.5776 -37.350403 
L 122.2272 -33.900251 
L 124.8768 -30.567457 
L 127.5264 -28.1643 
L 130.176 -26.186172 
L 132.8256 -23.318392 
L 135.4752 -21.615949 
L 138.1248 -19.72598 
L 140.7744 -18.715476 
L 143.424 -17.598903 
L 146.0736 -16.77881 
L 148.7232 -16.011636 
L 151.3728 -15.721099 
L 154.0224 -15.615087 
L 156.672 -15.758422 
L 159.3216 -15.919271 
L 161.9712 -16.438515 
L 164.6208 -17.373446 
L 167.2704 -18.52431 
L 169.92 -20.440149 
L 169.92 -21.817126 
L 169.92 -21.817126 
L 167.2704 -19.688784 
L 164.6208 -18.417546 
L 161.9712 -17.440215 
L 159.3216 -16.905322 
L 156.672 -16.734429 
L 154.0224 -16.618565 
L 151.3728 -16.728979 
L 148.7232 -17.010491 
L 146.0736 -17.828949 
L 143.424 -18.74813 
L 140.7744 -19.956694 
L 138.1248 -21.119526 
L 135.4752 -23.230996 
L 132.8256 -25.024188 
L 130.176 -27.881607 
L 127.5264 -29.87904 
L 124.8768 -32.389262 
L 122.2272 -35.775491 
L 119.5776 -39.334681 
L 116.928 -42.532069 
L 114.2784 -45.784538 
L 111.6288 -49.497069 
L 108.9792 -53.273085 
L 106.3296 -55.64581 
L 103.68 -54.48966 
L 101.0304 -50.82851 
L 98.3808 -44.416743 
L 95.7312 -37.230481 
L 93.0816 -31.156782 
L 90.432 -25.011837 
L 87.7824 -20.214071 
L 85.1328 -16.859385 
L 82.4832 -14.886352 
L 79.8336 -14.040344 
L 77.184 -14.43434 
L 74.5344 -15.563339 
L 71.8848 -17.675548 
L 69.2352 -20.044811 
L 66.5856 -22.693085 
L 63.936 -25.63857 
L 61.2864 -28.023896 
L 58.6368 -31.426732 
L 55.9872 -34.413452 
L 53.3376 -36.685296 
L 50.688 -39.570784 
L 48.0384 -42.039451 
L 45.3888 -44.27232 
L 42.7392 -48.212401 
L 40.0896 -51.907872 
L 37.44 -54.882246 
L 34.7904 -56.984635 
L 32.1408 -58.252537 
L 29.4912 -57.965317 
L 26.8416 -54.514797 
L 24.192 -48.233586 
L 21.5424 -40.742541 
L 18.8928 -34.132006 
L 16.2432 -28.23436 
L 13.5936 -24.032471 
z
" id="mb88ace6bcd" style="stroke:#bcbd22;stroke-opacity:0.2;stroke-width:0.5;"/>
    </defs>
    <g clip-path="url(#pdf5f1d0687)">
     <use style="fill:#bcbd22;fill-opacity:0.2;stroke:#bcbd22;stroke-opacity:0.2;stroke-width:0.5;" x="0" xlink:href="#mb88ace6bcd" y="64.08"/>
    </g>
   </g>
   <g id="line2d_1">
    <path clip-path="url(#pdf5f1d0687)" d="M 13.5936 24.730194 
L 16.2432 24.148493 
L 18.8928 24.17682 
L 21.5424 24.886794 
L 24.192 25.78104 
L 26.8416 26.592903 
L 29.4912 26.968173 
L 32.1408 27.560238 
L 34.7904 27.55476 
L 37.44 27.225919 
L 40.0896 26.354508 
L 42.7392 25.913572 
L 45.3888 25.589184 
L 48.0384 24.983465 
L 50.688 23.82483 
L 53.3376 23.047237 
L 55.9872 22.630296 
L 58.6368 23.278388 
L 61.2864 24.36593 
L 63.936 26.246602 
L 66.5856 28.706328 
L 69.2352 31.274576 
L 71.8848 33.450824 
L 74.5344 33.999601 
L 77.184 33.489565 
L 79.8336 32.62073 
L 82.4832 29.836823 
L 85.1328 25.762423 
L 87.7824 22.348114 
L 90.432 20.013672 
L 93.0816 19.394608 
L 95.7312 20.322649 
L 98.3808 21.483407 
L 101.0304 24.146942 
L 103.68 28.931883 
L 106.3296 32.033591 
L 108.9792 32.715288 
L 111.6288 32.881678 
L 114.2784 32.591805 
L 116.928 31.356061 
L 119.5776 30.095555 
L 122.2272 28.958229 
L 124.8768 30.23314 
L 127.5264 31.111706 
L 130.176 33.079987 
L 132.8256 35.966876 
L 135.4752 39.270891 
L 138.1248 43.000328 
L 140.7744 45.437294 
L 143.424 46.190895 
L 146.0736 45.373868 
L 148.7232 44.047466 
L 151.3728 42.282266 
L 154.0224 40.620486 
L 156.672 39.363361 
L 159.3216 38.503503 
L 161.9712 37.43331 
L 164.6208 35.761292 
L 167.2704 33.194048 
L 169.92 32.679572 
" style="fill:none;stroke:#9467bd;stroke-linecap:square;stroke-width:0.5;"/>
   </g>
   <g id="line2d_2">
    <path clip-path="url(#pdf5f1d0687)" d="M 13.5936 42.016198 
L 16.2432 41.751069 
L 18.8928 42.314871 
L 21.5424 43.243442 
L 24.192 44.248822 
L 26.8416 45.231578 
L 29.4912 45.524716 
L 32.1408 44.519011 
L 34.7904 42.140025 
L 37.44 38.27654 
L 40.0896 32.88854 
L 42.7392 27.09401 
L 45.3888 22.454876 
L 48.0384 18.207444 
L 50.688 15.3503 
L 53.3376 14.188139 
L 55.9872 13.782059 
L 58.6368 12.245765 
L 61.2864 12.13149 
L 63.936 13.924817 
L 66.5856 17.781402 
L 69.2352 20.052861 
L 71.8848 21.933388 
L 74.5344 23.892978 
L 77.184 28.690579 
L 79.8336 32.906328 
L 82.4832 36.65355 
L 85.1328 39.127269 
L 87.7824 41.214775 
L 90.432 42.302756 
L 93.0816 42.676321 
L 95.7312 41.590606 
L 98.3808 40.984211 
L 101.0304 40.458118 
L 103.68 39.353387 
L 106.3296 37.555379 
L 108.9792 34.880148 
L 111.6288 30.497104 
L 114.2784 26.060043 
L 116.928 22.446508 
L 119.5776 20.130244 
L 122.2272 18.735494 
L 124.8768 18.512247 
L 127.5264 16.901765 
L 130.176 17.92801 
L 132.8256 20.59124 
L 135.4752 22.689333 
L 138.1248 24.914156 
L 140.7744 26.773575 
L 143.424 28.038276 
L 146.0736 29.645648 
L 148.7232 30.562146 
L 151.3728 32.260904 
L 154.0224 35.067364 
L 156.672 37.979901 
L 159.3216 40.688205 
L 161.9712 42.941966 
L 164.6208 43.878805 
L 167.2704 43.774048 
L 169.92 41.550029 
" style="fill:none;stroke:#d62728;stroke-linecap:square;stroke-width:0.5;"/>
   </g>
   <g id="line2d_3">
    <path clip-path="url(#pdf5f1d0687)" d="M 13.5936 32.71525 
L 16.2432 34.802408 
L 18.8928 36.766905 
L 21.5424 38.480763 
L 24.192 39.984194 
L 26.8416 41.654239 
L 29.4912 43.00364 
L 32.1408 44.734472 
L 34.7904 45.66057 
L 37.44 46.866578 
L 40.0896 47.728647 
L 42.7392 47.780355 
L 45.3888 47.565869 
L 48.0384 47.738172 
L 50.688 47.379331 
L 53.3376 45.654428 
L 55.9872 43.295041 
L 58.6368 37.354278 
L 61.2864 28.128936 
L 63.936 18.077185 
L 66.5856 10.606495 
L 69.2352 7.760368 
L 71.8848 8.790684 
L 74.5344 11.800497 
L 77.184 16.952872 
L 79.8336 23.057679 
L 82.4832 28.258874 
L 85.1328 32.646019 
L 87.7824 37.562133 
L 90.432 41.839647 
L 93.0816 45.328275 
L 95.7312 47.547768 
L 98.3808 49.471922 
L 101.0304 50.705633 
L 103.68 51.515539 
L 106.3296 52.378648 
L 108.9792 52.89291 
L 111.6288 52.868259 
L 114.2784 52.435876 
L 116.928 51.551847 
L 119.5776 48.98084 
L 122.2272 45.165556 
L 124.8768 37.603383 
L 127.5264 30.574166 
L 130.176 21.802236 
L 132.8256 14.621665 
L 135.4752 9.072775 
L 138.1248 7.509351 
L 140.7744 9.129468 
L 143.424 10.464516 
L 146.0736 12.724455 
L 148.7232 15.457079 
L 151.3728 18.526948 
L 154.0224 21.046729 
L 156.672 23.867118 
L 159.3216 26.2523 
L 161.9712 28.838673 
L 164.6208 31.561789 
L 167.2704 31.425808 
L 169.92 33.458544 
" style="fill:none;stroke:#17becf;stroke-linecap:square;stroke-width:0.5;"/>
   </g>
   <g id="line2d_4">
    <path clip-path="url(#pdf5f1d0687)" d="M 13.5936 40.853289 
L 16.2432 36.616916 
L 18.8928 30.763858 
L 21.5424 24.154245 
L 24.192 16.7431 
L 26.8416 10.531437 
L 29.4912 7.121648 
L 32.1408 6.876798 
L 34.7904 8.115729 
L 37.44 10.199303 
L 40.0896 13.119093 
L 42.7392 16.989321 
L 45.3888 20.903767 
L 48.0384 23.086897 
L 50.688 25.522857 
L 53.3376 28.350534 
L 55.9872 30.569319 
L 58.6368 33.495365 
L 61.2864 36.755434 
L 63.936 39.096542 
L 66.5856 42.001367 
L 69.2352 44.624152 
L 71.8848 46.969162 
L 74.5344 49.040485 
L 77.184 50.168747 
L 79.8336 50.542306 
L 82.4832 49.720578 
L 85.1328 47.80542 
L 87.7824 44.654555 
L 90.432 40.033874 
L 93.0816 33.871091 
L 95.7312 27.645023 
L 98.3808 20.4594 
L 101.0304 14.256113 
L 103.68 10.668726 
L 106.3296 9.549485 
L 108.9792 11.929234 
L 111.6288 15.660344 
L 114.2784 19.317932 
L 116.928 22.504163 
L 119.5776 25.737458 
L 122.2272 29.242129 
L 124.8768 32.60164 
L 127.5264 35.05833 
L 130.176 37.046111 
L 132.8256 39.90871 
L 135.4752 41.656527 
L 138.1248 43.657247 
L 140.7744 44.743915 
L 143.424 45.906483 
L 146.0736 46.77612 
L 148.7232 47.568936 
L 151.3728 47.854961 
L 154.0224 47.963174 
L 156.672 47.833575 
L 159.3216 47.667703 
L 161.9712 47.140635 
L 164.6208 46.184504 
L 167.2704 44.973453 
L 169.92 42.951363 
" style="fill:none;stroke:#bcbd22;stroke-linecap:square;stroke-width:0.5;"/>
   </g>
   <g id="line2d_5">
    <path clip-path="url(#pdf5f1d0687)" d="M 15.156864 55.826496 
L 41.652864 55.826496 
" style="fill:none;stroke:#000000;stroke-linecap:square;stroke-width:1.25;"/>
   </g>
   <g id="line2d_6">
    <path clip-path="url(#pdf5f1d0687)" d="M 15.156864 55.826496 
L 15.156864 37.497096 
" style="fill:none;stroke:#000000;stroke-linecap:square;stroke-width:1.25;"/>
   </g>
   <g id="text_1">
    <text style="font-family:DejaVu Sans;font-size:6px;font-stretch:normal;font-style:normal;font-weight:normal;text-anchor:middle;" transform="rotate(-0, 28.404864, 63.205078)" x="28.404864" y="63.205078">100 ms</text>
   </g>
   <g id="text_2">
    <text style="font-family:DejaVu Sans;font-size:6px;font-stretch:normal;font-style:normal;font-weight:normal;" transform="translate(6.092731 54.095702)rotate(-90)">2 cm</text>
   </g>
   <g id="legend_1">
    <g id="line2d_7">
     <path d="M 100.336875 7.859063 
L 112.336875 7.859063 
" style="fill:none;stroke:#9467bd;stroke-linecap:square;stroke-width:0.5;"/>
    </g>
    <g id="line2d_8"/>
    <g id="text_3">
     <text style="font-family:DejaVu Sans;font-size:6px;font-stretch:normal;font-style:normal;font-weight:normal;text-anchor:start;" transform="rotate(-0, 117.136875, 9.959063)" x="117.136875" y="9.959063">left wrist joint</text>
    </g>
    <g id="line2d_9">
     <path d="M 100.336875 16.665938 
L 112.336875 16.665938 
" style="fill:none;stroke:#d62728;stroke-linecap:square;stroke-width:0.5;"/>
    </g>
    <g id="line2d_10"/>
    <g id="text_4">
     <text style="font-family:DejaVu Sans;font-size:6px;font-stretch:normal;font-style:normal;font-weight:normal;text-anchor:start;" transform="rotate(-0, 117.136875, 18.765938)" x="117.136875" y="18.765938">right wrist joint</text>
    </g>
    <g id="line2d_11">
     <path d="M 100.336875 25.472812 
L 112.336875 25.472812 
" style="fill:none;stroke:#17becf;stroke-linecap:square;stroke-width:0.5;"/>
    </g>
    <g id="line2d_12"/>
    <g id="text_5">
     <text style="font-family:DejaVu Sans;font-size:6px;font-stretch:normal;font-style:normal;font-weight:normal;text-anchor:start;" transform="rotate(-0, 117.136875, 27.572812)" x="117.136875" y="27.572812">left ankle joint</text>
    </g>
    <g id="line2d_13">
     <path d="M 100.336875 34.279688 
L 112.336875 34.279688 
" style="fill:none;stroke:#bcbd22;stroke-linecap:square;stroke-width:0.5;"/>
    </g>
    <g id="line2d_14"/>
    <g id="text_6">
     <text style="font-family:DejaVu Sans;font-size:6px;font-stretch:normal;font-style:normal;font-weight:normal;text-anchor:start;" transform="rotate(-0, 117.136875, 36.379688)" x="117.136875" y="36.379688">right ankle joint</text>
    </g>
   </g>
  </g>
 </g>
 <defs>
  <clipPath id="pdf5f1d0687">
   <rect height="56.3904" width="156.3264" x="13.5936" y="0"/>
  </clipPath>
 </defs>
</svg>
