<?xml version="1.0" encoding="utf-8" standalone="no"?>
<!DOCTYPE svg PUBLIC "-//W3C//DTD SVG 1.1//EN"
  "http://www.w3.org/Graphics/SVG/1.1/DTD/svg11.dtd">
<!-- Created with matplotlib (https://matplotlib.org/) -->
<svg height="64.08pt" version="1.1" viewBox="0 0 84.96 64.08" width="84.96pt" xmlns="http://www.w3.org/2000/svg" xmlns:xlink="http://www.w3.org/1999/xlink">
 <metadata>
  <rdf:RDF xmlns:cc="http://creativecommons.org/ns#" xmlns:dc="http://purl.org/dc/elements/1.1/" xmlns:rdf="http://www.w3.org/1999/02/22-rdf-syntax-ns#">
   <cc:Work>
    <dc:type rdf:resource="http://purl.org/dc/dcmitype/StillImage"/>
    <dc:date>2022-04-01T08:09:55.518272</dc:date>
    <dc:format>image/svg+xml</dc:format>
    <dc:creator>
     <cc:Agent>
      <dc:title>Matplotlib v3.3.1, https://matplotlib.org/</dc:title>
     </cc:Agent>
    </dc:creator>
   </cc:Work>
  </rdf:RDF>
 </metadata>
 <defs>
  <style type="text/css">*{stroke-linecap:butt;stroke-linejoin:round;}</style>
 </defs>
 <g id="figure_1">
  <g id="patch_1">
   <path d="M 0 64.08 
L 84.96 64.08 
L 84.96 0 
L 0 0 
z
" style="fill:none;"/>
  </g>
  <g id="axes_1">
   <g id="patch_2">
    <path d="M 28.8 42.48 
L 77.76 42.48 
L 77.76 1.8 
L 28.8 1.8 
z
" style="fill:none;"/>
   </g>
   <g id="line2d_1">
    <path clip-path="url(#p93a542db65)" d="M 28.8 1.8 
L 29.208 2.481398 
L 29.616 4.156962 
L 30.024 6.555436 
L 30.432 9.358521 
L 30.84 12.239226 
L 31.248 14.909539 
L 31.656 17.126585 
L 32.064 18.763164 
L 32.472 19.859707 
L 32.88 20.521696 
L 33.288 20.93042 
L 33.696 21.273154 
L 34.104 21.696492 
L 34.512 22.281936 
L 34.92 23.03957 
L 35.328 23.890097 
L 35.736 24.730481 
L 36.144 25.440778 
L 36.552 25.917576 
L 36.96 26.066693 
L 37.368 25.86977 
L 37.776 25.351062 
L 38.184 24.59948 
L 38.592 23.687276 
L 39 22.698597 
L 39.408 21.732466 
L 39.816 20.873008 
L 40.224 20.151457 
L 40.632 19.581939 
L 41.04 19.145466 
L 41.448 18.837421 
L 41.856 18.62942 
L 42.264 18.491465 
L 42.672 18.428124 
L 43.08 18.461662 
L 43.488 18.597917 
L 43.896 18.834417 
L 44.304 19.193387 
L 44.712 19.687284 
L 45.12 20.330828 
L 45.528 21.117317 
L 45.936 21.961371 
L 46.344 22.757618 
L 46.752 23.424719 
L 47.16 23.89423 
L 47.568 24.122253 
L 47.976 24.105954 
L 48.384 23.853521 
L 48.792 23.438447 
L 49.2 22.976762 
L 49.608 22.523622 
L 50.016 22.120748 
L 50.424 21.813234 
L 50.832 21.60269 
L 51.24 21.425806 
L 51.648 21.215721 
L 52.056 20.90239 
L 52.464 20.475959 
L 52.872 19.905794 
L 53.28 19.241419 
L 53.688 18.566357 
L 54.096 17.976017 
L 54.504 17.586964 
L 54.912 17.482581 
L 55.32 17.709511 
L 55.728 18.251261 
L 56.136 19.05193 
L 56.544 20.009989 
L 56.952 21.034163 
L 57.36 22.027872 
L 57.768 22.899927 
L 58.176 23.581097 
L 58.584 24.03165 
L 58.992 24.233343 
L 59.4 24.269188 
L 59.808 24.19183 
L 60.216 24.037292 
L 60.624 23.850991 
L 61.032 23.660804 
L 61.44 23.493547 
L 61.848 23.379385 
L 62.256 23.273184 
L 62.664 23.177127 
L 63.072 23.074908 
L 63.48 22.911889 
L 63.888 22.668493 
L 64.296 22.311819 
L 64.704 21.805179 
L 65.112 21.162697 
L 65.52 20.369826 
L 65.928 19.514468 
L 66.336 18.620526 
L 66.744 17.75572 
L 67.152 16.99195 
L 67.56 16.395326 
L 67.968 15.997269 
L 68.376 15.846379 
L 68.784 15.95462 
L 69.192 16.309635 
L 69.6 16.874179 
L 70.008 17.575404 
L 70.416 18.339636 
L 70.824 19.093121 
L 71.232 19.792689 
L 71.64 20.3863 
L 72.048 20.822987 
L 72.456 21.073842 
L 72.864 21.131563 
L 73.272 21.082286 
L 73.68 20.961651 
L 74.088 20.821277 
L 74.496 20.673179 
L 74.904 20.536507 
L 75.312 20.424007 
L 75.72 20.35051 
L 76.128 20.309977 
L 76.536 20.284865 
L 76.944 20.275294 
L 77.352 20.286195 
" style="fill:none;stroke:#9467bd;stroke-linecap:square;stroke-width:0.5;"/>
   </g>
   <g id="line2d_2">
    <path clip-path="url(#p93a542db65)" d="M 28.8 1.8 
L 29.208 2.350951 
L 29.616 3.670253 
L 30.024 5.621308 
L 30.432 8.05489 
L 30.84 10.819503 
L 31.248 13.76398 
L 31.656 16.75444 
L 32.064 19.662895 
L 32.472 22.390249 
L 32.88 24.844663 
L 33.288 26.971324 
L 33.696 28.720555 
L 34.104 30.077151 
L 34.512 31.023568 
L 34.92 31.545687 
L 35.328 31.643273 
L 35.736 31.342153 
L 36.144 30.667312 
L 36.552 29.67857 
L 36.96 28.436374 
L 37.368 27.010014 
L 37.776 25.45443 
L 38.184 23.827192 
L 38.592 22.167746 
L 39 20.545922 
L 39.408 19.034713 
L 39.816 17.685129 
L 40.224 16.519656 
L 40.632 15.590024 
L 41.04 14.915374 
L 41.448 14.495472 
L 41.856 14.334993 
L 42.264 14.461518 
L 42.672 14.8502 
L 43.08 15.458411 
L 43.488 16.229327 
L 43.896 17.178087 
L 44.304 18.281815 
L 44.712 19.499402 
L 45.12 20.742574 
L 45.528 21.981647 
L 45.936 23.157382 
L 46.344 24.236844 
L 46.752 25.164225 
L 47.16 25.910259 
L 47.568 26.443969 
L 47.976 26.770842 
L 48.384 26.838042 
L 48.792 26.62833 
L 49.2 26.140268 
L 49.608 25.390996 
L 50.016 24.420743 
L 50.424 23.295611 
L 50.832 22.068354 
L 51.24 20.783271 
L 51.648 19.474993 
L 52.056 18.191622 
L 52.464 16.97412 
L 52.872 15.914984 
L 53.28 15.031787 
L 53.688 14.33928 
L 54.096 13.878979 
L 54.504 13.665765 
L 54.912 13.690346 
L 55.32 13.963034 
L 55.728 14.454398 
L 56.136 15.140603 
L 56.544 15.965085 
L 56.952 16.865828 
L 57.36 17.79577 
L 57.768 18.715324 
L 58.176 19.592311 
L 58.584 20.421536 
L 58.992 21.212652 
L 59.4 21.998223 
L 59.808 22.693499 
L 60.216 23.283306 
L 60.624 23.75722 
L 61.032 24.097961 
L 61.44 24.282031 
L 61.848 24.326352 
L 62.256 24.233863 
L 62.664 24.030475 
L 63.072 23.729207 
L 63.48 23.331153 
L 63.888 22.837202 
L 64.296 22.271956 
L 64.704 21.666668 
L 65.112 21.051521 
L 65.52 20.454437 
L 65.928 19.905864 
L 66.336 19.441711 
L 66.744 19.091979 
L 67.152 18.863434 
L 67.56 18.762197 
L 67.968 18.783295 
L 68.376 18.891115 
L 68.784 19.051841 
L 69.192 19.236342 
L 69.6 19.39743 
L 70.008 19.526166 
L 70.416 19.628733 
L 70.824 19.71462 
L 71.232 19.782626 
L 71.64 19.821867 
L 72.048 19.861736 
L 72.456 19.929555 
L 72.864 20.030874 
L 73.272 20.152327 
L 73.68 20.276959 
L 74.088 20.39725 
L 74.496 20.503243 
L 74.904 20.58704 
L 75.312 20.643692 
L 75.72 20.660328 
L 76.128 20.62976 
L 76.536 20.560493 
L 76.944 20.469491 
L 77.352 20.376292 
" style="fill:none;stroke:#d62728;stroke-linecap:square;stroke-width:0.5;"/>
   </g>
   <g id="line2d_3">
    <path clip-path="url(#p93a542db65)" d="M 28.8 1.8 
L 29.208 2.447519 
L 29.616 4.126632 
L 30.024 6.616802 
L 30.432 9.635429 
L 30.84 12.915259 
L 31.248 16.224282 
L 31.656 19.392881 
L 32.064 22.300582 
L 32.472 24.871691 
L 32.88 27.059084 
L 33.288 28.836804 
L 33.696 30.189792 
L 34.104 31.121396 
L 34.512 31.641028 
L 34.92 31.755238 
L 35.328 31.46855 
L 35.736 30.78489 
L 36.144 29.71686 
L 36.552 28.286567 
L 36.96 26.568592 
L 37.368 24.677584 
L 37.776 22.725566 
L 38.184 20.829845 
L 38.592 19.092496 
L 39 17.566784 
L 39.408 16.285897 
L 39.816 15.301785 
L 40.224 14.618657 
L 40.632 14.211268 
L 41.04 14.065595 
L 41.448 14.164903 
L 41.856 14.46936 
L 42.264 14.928094 
L 42.672 15.478555 
L 43.08 16.069749 
L 43.488 16.684549 
L 43.896 17.337228 
L 44.304 18.060952 
L 44.712 18.880888 
L 45.12 19.806739 
L 45.528 20.817456 
L 45.936 21.868947 
L 46.344 22.897722 
L 46.752 23.84968 
L 47.16 24.661648 
L 47.568 25.292345 
L 47.976 25.710475 
L 48.384 25.911809 
L 48.792 25.854802 
L 49.2 25.544996 
L 49.608 25.006396 
L 50.016 24.266587 
L 50.424 23.373231 
L 50.832 22.37265 
L 51.24 21.311347 
L 51.648 20.222838 
L 52.056 19.127291 
L 52.464 18.021061 
L 52.872 16.945101 
L 53.28 15.95977 
L 53.688 15.114211 
L 54.096 14.488195 
L 54.504 14.134964 
L 54.912 14.118222 
L 55.32 14.432857 
L 55.728 15.057422 
L 56.136 15.925124 
L 56.544 16.964441 
L 56.952 18.096274 
L 57.36 19.25077 
L 57.768 20.375737 
L 58.176 21.428816 
L 58.584 22.371298 
L 58.992 23.175452 
L 59.4 23.829207 
L 59.808 24.321915 
L 60.216 24.660145 
L 60.624 24.853859 
L 61.032 24.919629 
L 61.44 24.851816 
L 61.848 24.633774 
L 62.256 24.261141 
L 62.664 23.747715 
L 63.072 23.109964 
L 63.48 22.393391 
L 63.888 21.662776 
L 64.296 20.960482 
L 64.704 20.289476 
L 65.112 19.634816 
L 65.52 18.985718 
L 65.928 18.372175 
L 66.336 17.828034 
L 66.744 17.397976 
L 67.152 17.132017 
L 67.56 17.060793 
L 67.968 17.181277 
L 68.376 17.46584 
L 68.784 17.874944 
L 69.192 18.348211 
L 69.6 18.845996 
L 70.008 19.331672 
L 70.416 19.783801 
L 70.824 20.183521 
L 71.232 20.519671 
L 71.64 20.790543 
L 72.048 21.008921 
L 72.456 21.183101 
L 72.864 21.307863 
L 73.272 21.388966 
L 73.68 21.431464 
L 74.088 21.406013 
L 74.496 21.314994 
L 74.904 21.162827 
L 75.312 20.959168 
L 75.72 20.743676 
L 76.128 20.543729 
L 76.536 20.396491 
L 76.944 20.322129 
L 77.352 20.29569 
" style="fill:none;stroke:#17becf;stroke-linecap:square;stroke-width:0.5;"/>
   </g>
   <g id="line2d_4">
    <path clip-path="url(#p93a542db65)" d="M 28.8 1.8 
L 29.208 2.414632 
L 29.616 3.840359 
L 30.024 5.959687 
L 30.432 8.625755 
L 30.84 11.650528 
L 31.248 14.871994 
L 31.656 18.120574 
L 32.064 21.270633 
L 32.472 24.210232 
L 32.88 26.858856 
L 33.288 29.157043 
L 33.696 31.010951 
L 34.104 32.378902 
L 34.512 33.255692 
L 34.92 33.644709 
L 35.328 33.549696 
L 35.736 32.996544 
L 36.144 32.024 
L 36.552 30.661431 
L 36.96 28.951965 
L 37.368 26.950378 
L 37.776 24.724677 
L 38.184 22.363124 
L 38.592 19.955176 
L 39 17.598198 
L 39.408 15.390866 
L 39.816 13.439864 
L 40.224 11.824517 
L 40.632 10.609213 
L 41.04 9.841902 
L 41.448 9.548622 
L 41.856 9.739297 
L 42.264 10.404377 
L 42.672 11.514171 
L 43.08 13.002301 
L 43.488 14.797823 
L 43.896 16.783389 
L 44.304 18.818649 
L 44.712 20.786816 
L 45.12 22.593964 
L 45.528 24.181386 
L 45.936 25.523624 
L 46.344 26.573304 
L 46.752 27.337045 
L 47.16 27.804761 
L 47.568 27.981712 
L 47.976 27.887726 
L 48.384 27.546132 
L 48.792 26.977876 
L 49.2 26.211031 
L 49.608 25.271715 
L 50.016 24.178329 
L 50.424 22.949689 
L 50.832 21.60595 
L 51.24 20.179537 
L 51.648 18.708995 
L 52.056 17.245515 
L 52.464 15.849406 
L 52.872 14.60042 
L 53.28 13.560914 
L 53.688 12.807308 
L 54.096 12.368315 
L 54.504 12.276215 
L 54.912 12.546822 
L 55.32 13.16908 
L 55.728 14.107745 
L 56.136 15.321954 
L 56.544 16.767421 
L 56.952 18.384367 
L 57.36 20.08491 
L 57.768 21.749441 
L 58.176 23.281711 
L 58.584 24.593768 
L 58.992 25.63595 
L 59.4 26.397323 
L 59.808 26.860796 
L 60.216 27.041023 
L 60.624 26.958988 
L 61.032 26.632548 
L 61.44 26.090041 
L 61.848 25.362707 
L 62.256 24.480817 
L 62.664 23.484934 
L 63.072 22.413559 
L 63.48 21.310762 
L 63.888 20.217308 
L 64.296 19.157344 
L 64.704 18.181873 
L 65.112 17.319413 
L 65.52 16.586777 
L 65.928 16.017104 
L 66.336 15.625521 
L 66.744 15.425746 
L 67.152 15.456357 
L 67.56 15.719946 
L 67.968 16.191672 
L 68.376 16.838905 
L 68.784 17.620423 
L 69.192 18.480243 
L 69.6 19.337232 
L 70.008 20.120862 
L 70.416 20.790111 
L 70.824 21.33905 
L 71.232 21.764664 
L 71.64 22.078011 
L 72.048 22.278114 
L 72.456 22.368605 
L 72.864 22.361939 
L 73.272 22.27663 
L 73.68 22.133657 
L 74.088 21.952127 
L 74.496 21.737725 
L 74.904 21.501078 
L 75.312 21.257594 
L 75.72 21.019182 
L 76.128 20.805127 
L 76.536 20.618691 
L 76.944 20.474341 
L 77.352 20.365186 
" style="fill:none;stroke:#bcbd22;stroke-linecap:square;stroke-width:0.5;"/>
   </g>
   <g id="matplotlib.axis_1">
    <g id="xtick_1">
     <g id="line2d_5">
      <defs>
       <path d="M 0 0 
L 0 3.5 
" id="m9e5dfe2915" style="stroke:#000000;stroke-width:0.8;"/>
      </defs>
      <g>
       <use style="stroke:#000000;stroke-width:0.8;" x="28.8" xlink:href="#m9e5dfe2915" y="42.48"/>
      </g>
     </g>
     <g id="text_1">
      <text style="font-family:DejaVu Sans;font-size:6px;font-stretch:normal;font-style:normal;font-weight:normal;text-anchor:middle;" transform="rotate(-0, 28.8, 54.039062)" x="28.8" y="54.039062">0</text>
     </g>
    </g>
    <g id="xtick_2">
     <g id="line2d_6">
      <g>
       <use style="stroke:#000000;stroke-width:0.8;" x="53.28" xlink:href="#m9e5dfe2915" y="42.48"/>
      </g>
     </g>
     <g id="text_2">
      <text style="font-family:DejaVu Sans;font-size:6px;font-stretch:normal;font-style:normal;font-weight:normal;text-anchor:middle;" transform="rotate(-0, 53.28, 54.039062)" x="53.28" y="54.039062">600</text>
     </g>
    </g>
    <g id="xtick_3">
     <g id="line2d_7">
      <g>
       <use style="stroke:#000000;stroke-width:0.8;" x="77.76" xlink:href="#m9e5dfe2915" y="42.48"/>
      </g>
     </g>
     <g id="text_3">
      <text style="font-family:DejaVu Sans;font-size:6px;font-stretch:normal;font-style:normal;font-weight:normal;text-anchor:middle;" transform="rotate(-0, 77.76, 54.039062)" x="77.76" y="54.039062">1200</text>
     </g>
    </g>
    <g id="text_4">
     <text style="font-family:DejaVu Sans;font-size:6px;font-stretch:normal;font-style:normal;font-weight:normal;text-anchor:middle;" transform="rotate(-0, 53.28, 61.752187)" x="53.28" y="61.752187">time (ms)</text>
    </g>
   </g>
   <g id="matplotlib.axis_2">
    <g id="ytick_1">
     <g id="line2d_8">
      <defs>
       <path d="M 0 0 
L -3.5 0 
" id="m3fccba05a6" style="stroke:#000000;stroke-width:0.8;"/>
      </defs>
      <g>
       <use style="stroke:#000000;stroke-width:0.8;" x="28.8" xlink:href="#m3fccba05a6" y="38.781818"/>
      </g>
     </g>
     <g id="text_5">
      <text style="font-family:DejaVu Sans;font-size:6px;font-stretch:normal;font-style:normal;font-weight:normal;text-anchor:end;" transform="rotate(-0, 21.8, 41.061349)" x="21.8" y="41.061349">-1</text>
     </g>
    </g>
    <g id="ytick_2">
     <g id="line2d_9">
      <g>
       <use style="stroke:#000000;stroke-width:0.8;" x="28.8" xlink:href="#m3fccba05a6" y="20.290909"/>
      </g>
     </g>
     <g id="text_6">
      <text style="font-family:DejaVu Sans;font-size:6px;font-stretch:normal;font-style:normal;font-weight:normal;text-anchor:end;" transform="rotate(-0, 21.8, 22.57044)" x="21.8" y="22.57044">0</text>
     </g>
    </g>
    <g id="ytick_3">
     <g id="line2d_10">
      <g>
       <use style="stroke:#000000;stroke-width:0.8;" x="28.8" xlink:href="#m3fccba05a6" y="1.8"/>
      </g>
     </g>
     <g id="text_7">
      <text style="font-family:DejaVu Sans;font-size:6px;font-stretch:normal;font-style:normal;font-weight:normal;text-anchor:end;" transform="rotate(-0, 21.8, 4.079531)" x="21.8" y="4.079531">1</text>
     </g>
    </g>
    <g id="text_8">
     <text style="font-family:DejaVu Sans;font-size:6px;font-stretch:normal;font-style:normal;font-weight:normal;text-anchor:middle;" transform="rotate(-90, 5.999062, 22.14)" x="5.999062" y="22.14">auto-correlation</text>
    </g>
   </g>
   <g id="line2d_11">
    <path clip-path="url(#p93a542db65)" d="M 28.8 1.8 
L 29.208 2.605524 
L 29.616 4.052585 
L 30.024 6.054283 
L 30.432 8.506595 
L 30.84 11.293218 
L 31.248 14.290631 
L 31.656 17.373213 
L 32.064 20.418173 
L 32.472 23.31014 
L 32.88 25.94524 
L 33.288 28.23454 
L 33.696 30.10675 
L 34.104 31.510087 
L 34.512 32.41334 
L 34.92 32.806068 
L 35.328 32.697986 
L 35.736 32.117608 
L 36.144 31.110246 
L 36.552 29.735441 
L 36.96 28.063977 
L 37.368 26.174623 
L 37.776 24.150694 
L 38.184 22.076634 
L 38.592 20.03472 
L 39 18.101978 
L 39.408 16.347486 
L 39.816 14.830112 
L 40.224 13.596726 
L 40.632 12.680987 
L 41.04 12.102691 
L 41.448 11.867689 
L 41.856 11.968328 
L 42.264 12.384412 
L 42.672 13.08458 
L 43.08 14.028067 
L 43.488 15.166727 
L 43.896 16.447235 
L 44.304 17.813407 
L 44.712 19.208494 
L 45.12 20.577394 
L 45.528 21.868689 
L 45.936 23.036445 
L 46.344 24.041735 
L 46.752 24.853757 
L 47.16 25.450664 
L 47.568 25.819939 
L 47.976 25.958439 
L 48.384 25.87206 
L 48.792 25.575062 
L 49.2 25.089121 
L 49.608 24.442129 
L 50.016 23.666823 
L 50.424 22.799288 
L 50.832 21.877396 
L 51.24 20.939276 
L 51.648 20.021832 
L 52.056 19.159362 
L 52.464 18.382396 
L 52.872 17.716674 
L 53.28 17.182415 
L 53.688 16.793788 
L 54.096 16.558665 
L 54.504 16.478634 
L 54.912 16.549229 
L 55.32 16.76041 
L 55.728 17.09721 
L 56.136 17.540554 
L 56.544 18.068198 
L 56.952 18.655733 
L 57.36 19.277628 
L 57.768 19.90828 
L 58.176 20.522987 
L 58.584 21.098862 
L 58.992 21.615632 
L 59.4 22.056278 
L 59.808 22.407545 
L 60.216 22.660257 
L 60.624 22.809481 
L 61.032 22.854508 
L 61.44 22.79867 
L 61.848 22.649025 
L 62.256 22.415892 
L 62.664 22.112308 
L 63.072 21.753385 
L 63.48 21.355627 
L 63.888 20.936229 
L 64.296 20.512395 
L 64.704 20.10065 
L 65.112 19.71625 
L 65.52 19.372668 
L 65.928 19.081139 
L 66.336 18.850352 
L 66.744 18.686238 
L 67.152 18.59187 
L 67.56 18.567488 
L 67.968 18.610626 
L 68.376 18.716341 
L 68.784 18.877521 
L 69.192 19.085262 
L 69.6 19.329304 
L 70.008 19.598492 
L 70.416 19.881236 
L 70.824 20.165997 
L 71.232 20.441719 
L 71.64 20.698224 
L 72.048 20.926575 
L 72.456 21.119356 
L 72.864 21.270871 
L 73.272 21.377298 
L 73.68 21.436735 
L 74.088 21.449177 
L 74.496 21.416433 
L 74.904 21.341959 
L 75.312 21.230652 
L 75.72 21.088588 
L 76.128 20.922731 
L 76.536 20.740621 
L 76.944 20.550059 
L 77.352 20.358791 
" style="fill:none;stroke:#000000;stroke-linecap:square;stroke-width:0.5;"/>
   </g>
   <g id="patch_3">
    <path d="M 28.8 38.781818 
L 28.8 1.8 
" style="fill:none;stroke:#000000;stroke-linecap:square;stroke-linejoin:miter;stroke-width:0.8;"/>
   </g>
   <g id="patch_4">
    <path d="M 28.8 42.48 
L 77.76 42.48 
" style="fill:none;stroke:#000000;stroke-linecap:square;stroke-linejoin:miter;stroke-width:0.8;"/>
   </g>
  </g>
 </g>
 <defs>
  <clipPath id="p93a542db65">
   <rect height="40.68" width="48.96" x="28.8" y="1.8"/>
  </clipPath>
 </defs>
</svg>
