<?xml version="1.0" encoding="utf-8" standalone="no"?>
<!DOCTYPE svg PUBLIC "-//W3C//DTD SVG 1.1//EN"
  "http://www.w3.org/Graphics/SVG/1.1/DTD/svg11.dtd">
<!-- Created with matplotlib (https://matplotlib.org/) -->
<svg height="64.08pt" version="1.1" viewBox="0 0 169.92 64.08" width="169.92pt" xmlns="http://www.w3.org/2000/svg" xmlns:xlink="http://www.w3.org/1999/xlink">
 <metadata>
  <rdf:RDF xmlns:cc="http://creativecommons.org/ns#" xmlns:dc="http://purl.org/dc/elements/1.1/" xmlns:rdf="http://www.w3.org/1999/02/22-rdf-syntax-ns#">
   <cc:Work>
    <dc:type rdf:resource="http://purl.org/dc/dcmitype/StillImage"/>
    <dc:date>2022-04-01T08:09:55.470488</dc:date>
    <dc:format>image/svg+xml</dc:format>
    <dc:creator>
     <cc:Agent>
      <dc:title>Matplotlib v3.3.1, https://matplotlib.org/</dc:title>
     </cc:Agent>
    </dc:creator>
   </cc:Work>
  </rdf:RDF>
 </metadata>
 <defs>
  <style type="text/css">*{stroke-linecap:butt;stroke-linejoin:round;}</style>
 </defs>
 <g id="figure_1">
  <g id="patch_1">
   <path d="M 0 64.08 
L 169.92 64.08 
L 169.92 0 
L 0 0 
z
" style="fill:none;"/>
  </g>
  <g id="axes_1">
   <g id="PolyCollection_1">
    <defs>
     <path d="M 13.5936 -44.041376 
L 13.5936 -39.886125 
L 16.2432 -39.845967 
L 18.8928 -39.720034 
L 21.5424 -39.451859 
L 24.192 -39.587474 
L 26.8416 -39.686786 
L 29.4912 -39.555225 
L 32.1408 -39.480884 
L 34.7904 -39.314964 
L 37.44 -39.228369 
L 40.0896 -39.417458 
L 42.7392 -39.540657 
L 45.3888 -39.150482 
L 48.0384 -38.929773 
L 50.688 -39.44948 
L 53.3376 -40.101702 
L 55.9872 -40.395996 
L 58.6368 -40.708129 
L 61.2864 -40.872253 
L 63.936 -41.302035 
L 66.5856 -41.458086 
L 69.2352 -41.262908 
L 71.8848 -40.4938 
L 74.5344 -39.631592 
L 77.184 -39.482208 
L 79.8336 -38.337687 
L 82.4832 -36.420516 
L 85.1328 -36.29969 
L 87.7824 -37.821378 
L 90.432 -39.447831 
L 93.0816 -40.563779 
L 95.7312 -40.676373 
L 98.3808 -40.696388 
L 101.0304 -42.648288 
L 103.68 -43.813212 
L 106.3296 -41.131417 
L 108.9792 -39.833678 
L 111.6288 -39.767448 
L 114.2784 -38.882952 
L 116.928 -38.083134 
L 119.5776 -37.969351 
L 122.2272 -39.415009 
L 124.8768 -40.375359 
L 127.5264 -40.132572 
L 130.176 -41.36937 
L 132.8256 -41.664669 
L 135.4752 -41.593216 
L 138.1248 -41.012723 
L 140.7744 -39.596421 
L 143.424 -38.493867 
L 146.0736 -37.997534 
L 148.7232 -37.994186 
L 151.3728 -37.991143 
L 154.0224 -38.144711 
L 156.672 -38.30414 
L 159.3216 -38.40511 
L 161.9712 -37.948401 
L 164.6208 -37.262546 
L 167.2704 -38.190297 
L 169.92 -40.341509 
L 169.92 -42.888548 
L 169.92 -42.888548 
L 167.2704 -41.77169 
L 164.6208 -41.285277 
L 161.9712 -42.966163 
L 159.3216 -43.868846 
L 156.672 -44.21771 
L 154.0224 -44.176396 
L 151.3728 -44.18091 
L 148.7232 -44.247701 
L 146.0736 -44.365796 
L 143.424 -44.897907 
L 140.7744 -46.035099 
L 138.1248 -47.438374 
L 135.4752 -47.96126 
L 132.8256 -47.82134 
L 130.176 -47.549538 
L 127.5264 -46.236899 
L 124.8768 -46.424918 
L 122.2272 -45.680882 
L 119.5776 -44.098323 
L 116.928 -44.369489 
L 114.2784 -44.869718 
L 111.6288 -45.292828 
L 108.9792 -44.623756 
L 106.3296 -45.447662 
L 103.68 -47.065757 
L 101.0304 -45.71192 
L 98.3808 -43.318907 
L 95.7312 -43.305592 
L 93.0816 -43.367241 
L 90.432 -42.869607 
L 87.7824 -41.995467 
L 85.1328 -41.306167 
L 82.4832 -42.002195 
L 79.8336 -44.405235 
L 77.184 -45.791947 
L 74.5344 -46.041759 
L 71.8848 -46.954594 
L 69.2352 -47.487795 
L 66.5856 -47.279922 
L 63.936 -46.698133 
L 61.2864 -45.771086 
L 58.6368 -45.166243 
L 55.9872 -44.781644 
L 53.3376 -44.619885 
L 50.688 -44.349043 
L 48.0384 -44.130988 
L 45.3888 -44.705981 
L 42.7392 -45.042462 
L 40.0896 -44.909952 
L 37.44 -44.589278 
L 34.7904 -44.410742 
L 32.1408 -44.162084 
L 29.4912 -43.919795 
L 26.8416 -43.819009 
L 24.192 -43.648657 
L 21.5424 -43.658749 
L 18.8928 -43.984249 
L 16.2432 -44.173846 
L 13.5936 -44.041376 
z
" id="meabc10582e" style="stroke:#9467bd;stroke-opacity:0.2;stroke-width:0.5;"/>
    </defs>
    <g clip-path="url(#p2bb2556ee0)">
     <use style="fill:#9467bd;fill-opacity:0.2;stroke:#9467bd;stroke-opacity:0.2;stroke-width:0.5;" x="0" xlink:href="#meabc10582e" y="64.08"/>
    </g>
   </g>
   <g id="PolyCollection_2">
    <defs>
     <path d="M 13.5936 -46.14902 
L 13.5936 -37.061944 
L 16.2432 -37.421935 
L 18.8928 -37.949805 
L 21.5424 -38.050617 
L 24.192 -38.071945 
L 26.8416 -38.075469 
L 29.4912 -37.139343 
L 32.1408 -36.091635 
L 34.7904 -35.313894 
L 37.44 -34.372135 
L 40.0896 -33.812045 
L 42.7392 -34.295088 
L 45.3888 -35.571379 
L 48.0384 -36.87116 
L 50.688 -38.850888 
L 53.3376 -40.627573 
L 55.9872 -40.925107 
L 58.6368 -41.509947 
L 61.2864 -41.76685 
L 63.936 -41.299297 
L 66.5856 -41.345273 
L 69.2352 -41.125104 
L 71.8848 -40.905127 
L 74.5344 -42.899026 
L 77.184 -44.658593 
L 79.8336 -43.938316 
L 82.4832 -42.862076 
L 85.1328 -41.711735 
L 87.7824 -40.843562 
L 90.432 -39.612528 
L 93.0816 -37.819685 
L 95.7312 -37.115131 
L 98.3808 -37.403822 
L 101.0304 -36.794902 
L 103.68 -36.368868 
L 106.3296 -36.389103 
L 108.9792 -36.128001 
L 111.6288 -36.40334 
L 114.2784 -37.848814 
L 116.928 -39.373773 
L 119.5776 -40.149257 
L 122.2272 -40.260651 
L 124.8768 -40.339843 
L 127.5264 -41.082656 
L 130.176 -40.39587 
L 132.8256 -39.887319 
L 135.4752 -40.352682 
L 138.1248 -39.983075 
L 140.7744 -39.943129 
L 143.424 -40.230571 
L 146.0736 -40.474735 
L 148.7232 -40.889225 
L 151.3728 -42.044995 
L 154.0224 -42.6593 
L 156.672 -42.221501 
L 159.3216 -41.994746 
L 161.9712 -41.061912 
L 164.6208 -40.272537 
L 167.2704 -38.51762 
L 169.92 -39.481951 
L 169.92 -42.763256 
L 169.92 -42.763256 
L 167.2704 -42.029199 
L 164.6208 -44.198649 
L 161.9712 -45.189172 
L 159.3216 -46.093348 
L 156.672 -46.289841 
L 154.0224 -46.160186 
L 151.3728 -45.294378 
L 148.7232 -43.648637 
L 146.0736 -42.92144 
L 143.424 -42.651664 
L 140.7744 -42.319206 
L 138.1248 -42.395891 
L 135.4752 -42.811246 
L 132.8256 -42.497509 
L 130.176 -43.045424 
L 127.5264 -43.84571 
L 124.8768 -43.210275 
L 122.2272 -43.139962 
L 119.5776 -43.365459 
L 116.928 -43.153289 
L 114.2784 -42.591737 
L 111.6288 -41.980338 
L 108.9792 -42.450267 
L 106.3296 -43.427992 
L 103.68 -43.625141 
L 101.0304 -44.098773 
L 98.3808 -44.643918 
L 95.7312 -43.892856 
L 93.0816 -44.425316 
L 90.432 -45.694706 
L 87.7824 -46.667099 
L 85.1328 -47.437209 
L 82.4832 -48.273638 
L 79.8336 -48.746733 
L 77.184 -48.606012 
L 74.5344 -46.163423 
L 71.8848 -43.043425 
L 69.2352 -43.05896 
L 66.5856 -43.38861 
L 63.936 -43.388232 
L 61.2864 -43.849759 
L 58.6368 -43.63119 
L 55.9872 -43.057959 
L 53.3376 -43.08988 
L 50.688 -42.300586 
L 48.0384 -41.504222 
L 45.3888 -41.484228 
L 42.7392 -41.409555 
L 40.0896 -41.600236 
L 37.44 -42.878412 
L 34.7904 -43.981151 
L 32.1408 -45.123661 
L 29.4912 -46.343312 
L 26.8416 -47.205963 
L 24.192 -47.409707 
L 21.5424 -47.331128 
L 18.8928 -47.269628 
L 16.2432 -46.505972 
L 13.5936 -46.14902 
z
" id="m3a6df66d01" style="stroke:#d62728;stroke-opacity:0.2;stroke-width:0.5;"/>
    </defs>
    <g clip-path="url(#p2bb2556ee0)">
     <use style="fill:#d62728;fill-opacity:0.2;stroke:#d62728;stroke-opacity:0.2;stroke-width:0.5;" x="0" xlink:href="#m3a6df66d01" y="64.08"/>
    </g>
   </g>
   <g id="PolyCollection_3">
    <defs>
     <path d="M 13.5936 -45.270668 
L 13.5936 -42.04652 
L 16.2432 -42.357896 
L 18.8928 -41.95863 
L 21.5424 -41.288351 
L 24.192 -41.606835 
L 26.8416 -41.491662 
L 29.4912 -41.548421 
L 32.1408 -41.675267 
L 34.7904 -40.426607 
L 37.44 -39.644081 
L 40.0896 -39.041862 
L 42.7392 -39.644307 
L 45.3888 -39.4157 
L 48.0384 -39.607322 
L 50.688 -41.184927 
L 53.3376 -41.668218 
L 55.9872 -38.394623 
L 58.6368 -32.658596 
L 61.2864 -29.508154 
L 63.936 -30.598274 
L 66.5856 -34.754146 
L 69.2352 -39.736146 
L 71.8848 -42.751963 
L 74.5344 -44.819636 
L 77.184 -46.843446 
L 79.8336 -46.516808 
L 82.4832 -44.201044 
L 85.1328 -44.205156 
L 87.7824 -44.161658 
L 90.432 -43.420376 
L 93.0816 -41.502344 
L 95.7312 -39.000752 
L 98.3808 -37.801375 
L 101.0304 -37.775882 
L 103.68 -37.010677 
L 106.3296 -36.450429 
L 108.9792 -37.508366 
L 111.6288 -39.080815 
L 114.2784 -40.107703 
L 116.928 -43.361963 
L 119.5776 -45.633389 
L 122.2272 -37.699655 
L 124.8768 -32.543242 
L 127.5264 -31.847385 
L 130.176 -31.835634 
L 132.8256 -33.64394 
L 135.4752 -36.379006 
L 138.1248 -41.234971 
L 140.7744 -42.534706 
L 143.424 -42.548028 
L 146.0736 -43.591833 
L 148.7232 -44.029495 
L 151.3728 -43.704703 
L 154.0224 -43.494818 
L 156.672 -43.368527 
L 159.3216 -42.920511 
L 161.9712 -43.748307 
L 164.6208 -41.134064 
L 167.2704 -39.921713 
L 169.92 -41.609857 
L 169.92 -47.521452 
L 169.92 -47.521452 
L 167.2704 -45.049646 
L 164.6208 -44.611551 
L 161.9712 -46.838333 
L 159.3216 -45.671016 
L 156.672 -46.098186 
L 154.0224 -45.962215 
L 151.3728 -46.025135 
L 148.7232 -46.307286 
L 146.0736 -45.845094 
L 143.424 -44.842531 
L 140.7744 -44.935078 
L 138.1248 -43.608316 
L 135.4752 -38.667329 
L 132.8256 -35.860235 
L 130.176 -33.879723 
L 127.5264 -33.965246 
L 124.8768 -34.539063 
L 122.2272 -40.891086 
L 119.5776 -49.025369 
L 116.928 -47.605456 
L 114.2784 -44.678341 
L 111.6288 -43.745508 
L 108.9792 -42.113893 
L 106.3296 -41.054954 
L 103.68 -41.540012 
L 101.0304 -41.984919 
L 98.3808 -41.602209 
L 95.7312 -42.95953 
L 93.0816 -46.312836 
L 90.432 -48.943224 
L 87.7824 -50.32075 
L 85.1328 -49.589873 
L 82.4832 -49.262922 
L 79.8336 -49.759326 
L 77.184 -49.628539 
L 74.5344 -47.60935 
L 71.8848 -45.434856 
L 69.2352 -42.349266 
L 66.5856 -37.24477 
L 63.936 -33.033272 
L 61.2864 -31.757379 
L 58.6368 -34.725922 
L 55.9872 -40.582426 
L 53.3376 -44.097844 
L 50.688 -43.713077 
L 48.0384 -42.288856 
L 45.3888 -42.181017 
L 42.7392 -42.104846 
L 40.0896 -41.392317 
L 37.44 -41.963913 
L 34.7904 -43.145584 
L 32.1408 -44.386751 
L 29.4912 -45.6673 
L 26.8416 -45.747597 
L 24.192 -45.805198 
L 21.5424 -45.636224 
L 18.8928 -45.482255 
L 16.2432 -45.774172 
L 13.5936 -45.270668 
z
" id="m53a815a5a8" style="stroke:#17becf;stroke-opacity:0.2;stroke-width:0.5;"/>
    </defs>
    <g clip-path="url(#p2bb2556ee0)">
     <use style="fill:#17becf;fill-opacity:0.2;stroke:#17becf;stroke-opacity:0.2;stroke-width:0.5;" x="0" xlink:href="#m53a815a5a8" y="64.08"/>
    </g>
   </g>
   <g id="PolyCollection_4">
    <defs>
     <path d="M 13.5936 -45.237566 
L 13.5936 -42.995603 
L 16.2432 -38.936024 
L 18.8928 -34.474852 
L 21.5424 -32.532564 
L 24.192 -32.994819 
L 26.8416 -35.319178 
L 29.4912 -38.87102 
L 32.1408 -41.482115 
L 34.7904 -42.512017 
L 37.44 -43.311417 
L 40.0896 -44.134544 
L 42.7392 -44.823158 
L 45.3888 -43.483508 
L 48.0384 -42.705887 
L 50.688 -43.713457 
L 53.3376 -43.445757 
L 55.9872 -42.898719 
L 58.6368 -43.065183 
L 61.2864 -42.305897 
L 63.936 -41.472572 
L 66.5856 -40.935789 
L 69.2352 -40.390901 
L 71.8848 -39.618769 
L 74.5344 -39.597553 
L 77.184 -40.265076 
L 79.8336 -40.678977 
L 82.4832 -40.874582 
L 85.1328 -43.629866 
L 87.7824 -47.373733 
L 90.432 -43.856219 
L 93.0816 -36.321033 
L 95.7312 -31.915927 
L 98.3808 -32.295349 
L 101.0304 -34.755978 
L 103.68 -37.475551 
L 106.3296 -41.362546 
L 108.9792 -44.626491 
L 111.6288 -44.926614 
L 114.2784 -44.516899 
L 116.928 -44.200634 
L 119.5776 -44.458337 
L 122.2272 -43.649137 
L 124.8768 -41.934652 
L 127.5264 -41.612495 
L 130.176 -41.515558 
L 132.8256 -40.79702 
L 135.4752 -40.323306 
L 138.1248 -40.39777 
L 140.7744 -40.557813 
L 143.424 -40.298171 
L 146.0736 -40.000495 
L 148.7232 -40.390647 
L 151.3728 -40.730662 
L 154.0224 -40.447759 
L 156.672 -40.538494 
L 159.3216 -40.983464 
L 161.9712 -41.891327 
L 164.6208 -41.717299 
L 167.2704 -43.095527 
L 169.92 -45.31346 
L 169.92 -47.965434 
L 169.92 -47.965434 
L 167.2704 -45.793194 
L 164.6208 -44.374078 
L 161.9712 -44.453362 
L 159.3216 -43.385411 
L 156.672 -42.889335 
L 154.0224 -42.669588 
L 151.3728 -42.8734 
L 148.7232 -42.506317 
L 146.0736 -42.080223 
L 143.424 -42.332053 
L 140.7744 -42.577972 
L 138.1248 -42.483309 
L 135.4752 -42.396921 
L 132.8256 -43.007951 
L 130.176 -43.758669 
L 127.5264 -44.07751 
L 124.8768 -44.561415 
L 122.2272 -46.476563 
L 119.5776 -47.348806 
L 116.928 -47.26947 
L 114.2784 -47.615869 
L 111.6288 -48.198228 
L 108.9792 -47.899903 
L 106.3296 -44.704547 
L 103.68 -40.692604 
L 101.0304 -37.706311 
L 98.3808 -35.187166 
L 95.7312 -34.632799 
L 93.0816 -38.785766 
L 90.432 -46.674508 
L 87.7824 -49.730931 
L 85.1328 -46.21403 
L 82.4832 -43.239985 
L 79.8336 -42.894779 
L 77.184 -42.386548 
L 74.5344 -41.607225 
L 71.8848 -41.629845 
L 69.2352 -42.376485 
L 66.5856 -42.913754 
L 63.936 -43.551136 
L 61.2864 -44.50002 
L 58.6368 -45.395826 
L 55.9872 -45.382809 
L 53.3376 -46.088465 
L 50.688 -46.467823 
L 48.0384 -45.644548 
L 45.3888 -46.520957 
L 42.7392 -47.735221 
L 40.0896 -47.199317 
L 37.44 -46.255111 
L 34.7904 -45.574038 
L 32.1408 -44.580527 
L 29.4912 -41.93029 
L 26.8416 -38.191221 
L 24.192 -35.716908 
L 21.5424 -35.128643 
L 18.8928 -36.917541 
L 16.2432 -41.296471 
L 13.5936 -45.237566 
z
" id="m7b15d3b3a6" style="stroke:#bcbd22;stroke-opacity:0.2;stroke-width:0.5;"/>
    </defs>
    <g clip-path="url(#p2bb2556ee0)">
     <use style="fill:#bcbd22;fill-opacity:0.2;stroke:#bcbd22;stroke-opacity:0.2;stroke-width:0.5;" x="0" xlink:href="#m7b15d3b3a6" y="64.08"/>
    </g>
   </g>
   <g id="line2d_1">
    <path clip-path="url(#p2bb2556ee0)" d="M 13.5936 22.116249 
L 16.2432 22.070093 
L 18.8928 22.227859 
L 21.5424 22.524696 
L 24.192 22.461935 
L 26.8416 22.327102 
L 29.4912 22.34249 
L 32.1408 22.258516 
L 34.7904 22.217147 
L 37.44 22.171177 
L 40.0896 21.916295 
L 42.7392 21.78844 
L 45.3888 22.151769 
L 48.0384 22.54962 
L 50.688 22.180738 
L 53.3376 21.719206 
L 55.9872 21.49118 
L 58.6368 21.142814 
L 61.2864 20.75833 
L 63.936 20.079916 
L 66.5856 19.710996 
L 69.2352 19.704648 
L 71.8848 20.355803 
L 74.5344 21.243325 
L 77.184 21.442922 
L 79.8336 22.708539 
L 82.4832 24.868645 
L 85.1328 25.277072 
L 87.7824 24.171578 
L 90.432 22.921281 
L 93.0816 22.11449 
L 95.7312 22.089018 
L 98.3808 22.072352 
L 101.0304 19.899896 
L 103.68 18.640515 
L 106.3296 20.790461 
L 108.9792 21.851283 
L 111.6288 21.549862 
L 114.2784 22.203665 
L 116.928 22.853688 
L 119.5776 23.046163 
L 122.2272 21.532055 
L 124.8768 20.679862 
L 127.5264 20.895265 
L 130.176 19.620546 
L 132.8256 19.336995 
L 135.4752 19.302762 
L 138.1248 19.854451 
L 140.7744 21.26424 
L 143.424 22.384113 
L 146.0736 22.898335 
L 148.7232 22.959056 
L 151.3728 22.993973 
L 154.0224 22.919447 
L 156.672 22.819075 
L 159.3216 22.943022 
L 161.9712 23.622718 
L 164.6208 24.806089 
L 167.2704 24.099007 
L 169.92 22.464971 
" style="fill:none;stroke:#9467bd;stroke-linecap:square;stroke-width:0.5;"/>
   </g>
   <g id="line2d_2">
    <path clip-path="url(#p2bb2556ee0)" d="M 13.5936 22.474518 
L 16.2432 22.116047 
L 18.8928 21.470284 
L 21.5424 21.389127 
L 24.192 21.339174 
L 26.8416 21.439284 
L 29.4912 22.338672 
L 32.1408 23.472352 
L 34.7904 24.432478 
L 37.44 25.454726 
L 40.0896 26.37386 
L 42.7392 26.227678 
L 45.3888 25.552197 
L 48.0384 24.892309 
L 50.688 23.504263 
L 53.3376 22.221274 
L 55.9872 22.088467 
L 58.6368 21.509431 
L 61.2864 21.271695 
L 63.936 21.736236 
L 66.5856 21.713058 
L 69.2352 21.987968 
L 71.8848 22.105724 
L 74.5344 19.548775 
L 77.184 17.447698 
L 79.8336 17.737476 
L 82.4832 18.512143 
L 85.1328 19.505528 
L 87.7824 20.324669 
L 90.432 21.426383 
L 93.0816 22.957499 
L 95.7312 23.576006 
L 98.3808 23.05613 
L 101.0304 23.633162 
L 103.68 24.082996 
L 106.3296 24.171453 
L 108.9792 24.790866 
L 111.6288 24.888161 
L 114.2784 23.859724 
L 116.928 22.816469 
L 119.5776 22.322642 
L 122.2272 22.379694 
L 124.8768 22.304941 
L 127.5264 21.615817 
L 130.176 22.359353 
L 132.8256 22.887586 
L 135.4752 22.498036 
L 138.1248 22.890517 
L 140.7744 22.948833 
L 143.424 22.638882 
L 146.0736 22.381912 
L 148.7232 21.811069 
L 151.3728 20.410313 
L 154.0224 19.670257 
L 156.672 19.824329 
L 159.3216 20.035953 
L 161.9712 20.954458 
L 164.6208 21.844407 
L 167.2704 23.80659 
L 169.92 22.957396 
" style="fill:none;stroke:#d62728;stroke-linecap:square;stroke-width:0.5;"/>
   </g>
   <g id="line2d_3">
    <path clip-path="url(#p2bb2556ee0)" d="M 13.5936 20.421406 
L 16.2432 20.013966 
L 18.8928 20.359557 
L 21.5424 20.617712 
L 24.192 20.373983 
L 26.8416 20.46037 
L 29.4912 20.47214 
L 32.1408 21.048991 
L 34.7904 22.293905 
L 37.44 23.276003 
L 40.0896 23.86291 
L 42.7392 23.205424 
L 45.3888 23.281642 
L 48.0384 23.131911 
L 50.688 21.630998 
L 53.3376 21.196969 
L 55.9872 24.591476 
L 58.6368 30.387741 
L 61.2864 33.447233 
L 63.936 32.264227 
L 66.5856 28.080542 
L 69.2352 23.037294 
L 71.8848 19.98659 
L 74.5344 17.865507 
L 77.184 15.844007 
L 79.8336 15.941933 
L 82.4832 17.348017 
L 85.1328 17.182485 
L 87.7824 16.838796 
L 90.432 17.8982 
L 93.0816 20.17241 
L 95.7312 23.099859 
L 98.3808 24.378208 
L 101.0304 24.1996 
L 103.68 24.804656 
L 106.3296 25.327309 
L 108.9792 24.26887 
L 111.6288 22.666839 
L 114.2784 21.686978 
L 116.928 18.59629 
L 119.5776 16.750621 
L 122.2272 24.784629 
L 124.8768 30.538847 
L 127.5264 31.173684 
L 130.176 31.222322 
L 132.8256 29.327912 
L 135.4752 26.556833 
L 138.1248 21.658356 
L 140.7744 20.345108 
L 143.424 20.38472 
L 146.0736 19.361537 
L 148.7232 18.91161 
L 151.3728 19.215081 
L 154.0224 19.351484 
L 156.672 19.346644 
L 159.3216 19.784237 
L 161.9712 18.78668 
L 164.6208 21.207192 
L 167.2704 21.594321 
L 169.92 19.514345 
" style="fill:none;stroke:#17becf;stroke-linecap:square;stroke-width:0.5;"/>
   </g>
   <g id="line2d_4">
    <path clip-path="url(#p2bb2556ee0)" d="M 13.5936 19.963416 
L 16.2432 23.963753 
L 18.8928 28.383804 
L 21.5424 30.249397 
L 24.192 29.724137 
L 26.8416 27.3248 
L 29.4912 23.679345 
L 32.1408 21.048679 
L 34.7904 20.036973 
L 37.44 19.296736 
L 40.0896 18.41307 
L 42.7392 17.800811 
L 45.3888 19.077767 
L 48.0384 19.904782 
L 50.688 18.98936 
L 53.3376 19.312889 
L 55.9872 19.939236 
L 58.6368 19.849495 
L 61.2864 20.677042 
L 63.936 21.568146 
L 66.5856 22.155228 
L 69.2352 22.696307 
L 71.8848 23.455693 
L 74.5344 23.477611 
L 77.184 22.754188 
L 79.8336 22.293122 
L 82.4832 22.022717 
L 85.1328 19.158052 
L 87.7824 15.527668 
L 90.432 18.814636 
L 93.0816 26.5266 
L 95.7312 30.805637 
L 98.3808 30.338742 
L 101.0304 27.848855 
L 103.68 24.995922 
L 106.3296 21.046453 
L 108.9792 17.816803 
L 111.6288 17.517579 
L 114.2784 18.013616 
L 116.928 18.344948 
L 119.5776 18.176428 
L 122.2272 19.01715 
L 124.8768 20.831966 
L 127.5264 21.234997 
L 130.176 21.442886 
L 132.8256 22.177514 
L 135.4752 22.719886 
L 138.1248 22.639461 
L 140.7744 22.512107 
L 143.424 22.764888 
L 146.0736 23.039641 
L 148.7232 22.631518 
L 151.3728 22.277969 
L 154.0224 22.521327 
L 156.672 22.366085 
L 159.3216 21.895563 
L 161.9712 20.907656 
L 164.6208 21.034312 
L 167.2704 19.635639 
L 169.92 17.440553 
" style="fill:none;stroke:#bcbd22;stroke-linecap:square;stroke-width:0.5;"/>
   </g>
   <g id="line2d_5">
    <path clip-path="url(#p2bb2556ee0)" d="M 15.156864 55.826496 
L 41.652864 55.826496 
" style="fill:none;stroke:#000000;stroke-linecap:square;stroke-width:1.25;"/>
   </g>
   <g id="line2d_6">
    <path clip-path="url(#p2bb2556ee0)" d="M 15.156864 55.826496 
L 15.156864 39.280017 
" style="fill:none;stroke:#000000;stroke-linecap:square;stroke-width:1.25;"/>
   </g>
   <g id="text_1">
    <text style="font-family:DejaVu Sans;font-size:6px;font-stretch:normal;font-style:normal;font-weight:normal;text-anchor:middle;" transform="rotate(-0, 28.404864, 63.205078)" x="28.404864" y="63.205078">100 ms</text>
   </g>
   <g id="text_2">
    <text style="font-family:DejaVu Sans;font-size:6px;font-stretch:normal;font-style:normal;font-weight:normal;" transform="translate(6.092731 61.566069)rotate(-90)">3 deg/ms</text>
   </g>
   <g id="legend_1">
    <g id="line2d_7">
     <path d="M 100.336875 7.859063 
L 112.336875 7.859063 
" style="fill:none;stroke:#9467bd;stroke-linecap:square;stroke-width:0.5;"/>
    </g>
    <g id="line2d_8"/>
    <g id="text_3">
     <text style="font-family:DejaVu Sans;font-size:6px;font-stretch:normal;font-style:normal;font-weight:normal;text-anchor:start;" transform="rotate(-0, 117.136875, 9.959063)" x="117.136875" y="9.959063">left wrist joint</text>
    </g>
    <g id="line2d_9">
     <path d="M 100.336875 16.665938 
L 112.336875 16.665938 
" style="fill:none;stroke:#d62728;stroke-linecap:square;stroke-width:0.5;"/>
    </g>
    <g id="line2d_10"/>
    <g id="text_4">
     <text style="font-family:DejaVu Sans;font-size:6px;font-stretch:normal;font-style:normal;font-weight:normal;text-anchor:start;" transform="rotate(-0, 117.136875, 18.765938)" x="117.136875" y="18.765938">right wrist joint</text>
    </g>
    <g id="line2d_11">
     <path d="M 100.336875 25.472812 
L 112.336875 25.472812 
" style="fill:none;stroke:#17becf;stroke-linecap:square;stroke-width:0.5;"/>
    </g>
    <g id="line2d_12"/>
    <g id="text_5">
     <text style="font-family:DejaVu Sans;font-size:6px;font-stretch:normal;font-style:normal;font-weight:normal;text-anchor:start;" transform="rotate(-0, 117.136875, 27.572812)" x="117.136875" y="27.572812">left ankle joint</text>
    </g>
    <g id="line2d_13">
     <path d="M 100.336875 34.279688 
L 112.336875 34.279688 
" style="fill:none;stroke:#bcbd22;stroke-linecap:square;stroke-width:0.5;"/>
    </g>
    <g id="line2d_14"/>
    <g id="text_6">
     <text style="font-family:DejaVu Sans;font-size:6px;font-stretch:normal;font-style:normal;font-weight:normal;text-anchor:start;" transform="rotate(-0, 117.136875, 36.379688)" x="117.136875" y="36.379688">right ankle joint</text>
    </g>
   </g>
  </g>
 </g>
 <defs>
  <clipPath id="p2bb2556ee0">
   <rect height="56.3904" width="156.3264" x="13.5936" y="0"/>
  </clipPath>
 </defs>
</svg>
