<?xml version="1.0" encoding="utf-8" standalone="no"?>
<!DOCTYPE svg PUBLIC "-//W3C//DTD SVG 1.1//EN"
  "http://www.w3.org/Graphics/SVG/1.1/DTD/svg11.dtd">
<!-- Created with matplotlib (https://matplotlib.org/) -->
<svg height="64.08pt" version="1.1" viewBox="0 0 84.96 64.08" width="84.96pt" xmlns="http://www.w3.org/2000/svg" xmlns:xlink="http://www.w3.org/1999/xlink">
 <metadata>
  <rdf:RDF xmlns:cc="http://creativecommons.org/ns#" xmlns:dc="http://purl.org/dc/elements/1.1/" xmlns:rdf="http://www.w3.org/1999/02/22-rdf-syntax-ns#">
   <cc:Work>
    <dc:type rdf:resource="http://purl.org/dc/dcmitype/StillImage"/>
    <dc:date>2022-04-01T08:09:55.588063</dc:date>
    <dc:format>image/svg+xml</dc:format>
    <dc:creator>
     <cc:Agent>
      <dc:title>Matplotlib v3.3.1, https://matplotlib.org/</dc:title>
     </cc:Agent>
    </dc:creator>
   </cc:Work>
  </rdf:RDF>
 </metadata>
 <defs>
  <style type="text/css">*{stroke-linecap:butt;stroke-linejoin:round;}</style>
 </defs>
 <g id="figure_1">
  <g id="patch_1">
   <path d="M 0 64.08 
L 84.96 64.08 
L 84.96 0 
L 0 0 
z
" style="fill:none;"/>
  </g>
  <g id="axes_1">
   <g id="patch_2">
    <path d="M 28.8 42.48 
L 77.76 42.48 
L 77.76 1.8 
L 28.8 1.8 
z
" style="fill:none;"/>
   </g>
   <g id="line2d_1">
    <path clip-path="url(#pae9d913023)" d="M 28.8 1.8 
L 29.208 2.386605 
L 29.616 3.882987 
L 30.024 6.053006 
L 30.432 8.613928 
L 30.84 11.309884 
L 31.248 13.926969 
L 31.656 16.28391 
L 32.064 18.28127 
L 32.472 19.921233 
L 32.88 21.25427 
L 33.288 22.358065 
L 33.696 23.279573 
L 34.104 24.058203 
L 34.512 24.671772 
L 34.92 25.118993 
L 35.328 25.381803 
L 35.736 25.458078 
L 36.144 25.366292 
L 36.552 25.117129 
L 36.96 24.730977 
L 37.368 24.250536 
L 37.776 23.701603 
L 38.184 23.102413 
L 38.592 22.447204 
L 39 21.729334 
L 39.408 20.961153 
L 39.816 20.167531 
L 40.224 19.357048 
L 40.632 18.582916 
L 41.04 17.906003 
L 41.448 17.416124 
L 41.856 17.107015 
L 42.264 16.993241 
L 42.672 17.078283 
L 43.08 17.358376 
L 43.488 17.786671 
L 43.896 18.299856 
L 44.304 18.878325 
L 44.712 19.521565 
L 45.12 20.235385 
L 45.528 21.037706 
L 45.936 21.893263 
L 46.344 22.735112 
L 46.752 23.513208 
L 47.16 24.160422 
L 47.568 24.622798 
L 47.976 24.856209 
L 48.384 24.81912 
L 48.792 24.557273 
L 49.2 24.152719 
L 49.608 23.678313 
L 50.016 23.1876 
L 50.424 22.715581 
L 50.832 22.267651 
L 51.24 21.816409 
L 51.648 21.319314 
L 52.056 20.757396 
L 52.464 20.141457 
L 52.872 19.514964 
L 53.28 18.938905 
L 53.688 18.488233 
L 54.096 18.207526 
L 54.504 18.149234 
L 54.912 18.385577 
L 55.32 18.905351 
L 55.728 19.669162 
L 56.136 20.588029 
L 56.544 21.562235 
L 56.952 22.502718 
L 57.36 23.334293 
L 57.768 24.032031 
L 58.176 24.582672 
L 58.584 24.93721 
L 58.992 25.10119 
L 59.4 25.114167 
L 59.808 25.000206 
L 60.216 24.763197 
L 60.624 24.411335 
L 61.032 23.957687 
L 61.44 23.442063 
L 61.848 22.90524 
L 62.256 22.353755 
L 62.664 21.808521 
L 63.072 21.29389 
L 63.48 20.807661 
L 63.888 20.343969 
L 64.296 19.880932 
L 64.704 19.398782 
L 65.112 18.888761 
L 65.52 18.340351 
L 65.928 17.775022 
L 66.336 17.218037 
L 66.744 16.731679 
L 67.152 16.386109 
L 67.56 16.227754 
L 67.968 16.26306 
L 68.376 16.485874 
L 68.784 16.882276 
L 69.192 17.424279 
L 69.6 18.065251 
L 70.008 18.74289 
L 70.416 19.39035 
L 70.824 19.965072 
L 71.232 20.457032 
L 71.64 20.856048 
L 72.048 21.156632 
L 72.456 21.34591 
L 72.864 21.412535 
L 73.272 21.392791 
L 73.68 21.320334 
L 74.088 21.215766 
L 74.496 21.07897 
L 74.904 20.922818 
L 75.312 20.758995 
L 75.72 20.610661 
L 76.128 20.498331 
L 76.536 20.417419 
L 76.944 20.361912 
L 77.352 20.322901 
" style="fill:none;stroke:#9467bd;stroke-linecap:square;stroke-width:0.5;"/>
   </g>
   <g id="line2d_2">
    <path clip-path="url(#pae9d913023)" d="M 28.8 1.8 
L 29.208 2.80967 
L 29.616 4.660952 
L 30.024 7.14337 
L 30.432 10.024013 
L 30.84 13.062356 
L 31.248 16.094091 
L 31.656 18.998713 
L 32.064 21.675309 
L 32.472 24.066919 
L 32.88 26.115926 
L 33.288 27.857459 
L 33.696 29.302084 
L 34.104 30.483287 
L 34.512 31.396084 
L 34.92 31.989392 
L 35.328 32.167509 
L 35.736 31.884373 
L 36.144 31.097266 
L 36.552 29.821023 
L 36.96 28.10492 
L 37.368 26.046385 
L 37.776 23.768752 
L 38.184 21.423333 
L 38.592 19.128121 
L 39 17.009038 
L 39.408 15.176316 
L 39.816 13.698031 
L 40.224 12.562451 
L 40.632 11.796067 
L 41.04 11.360232 
L 41.448 11.191136 
L 41.856 11.257774 
L 42.264 11.576128 
L 42.672 12.10666 
L 43.08 12.908428 
L 43.488 14.011648 
L 43.896 15.461604 
L 44.304 17.251521 
L 44.712 19.273812 
L 45.12 21.25313 
L 45.528 23.059517 
L 45.936 24.549738 
L 46.344 25.689734 
L 46.752 26.426824 
L 47.16 26.785955 
L 47.568 26.833088 
L 47.976 26.726117 
L 48.384 26.442601 
L 48.792 26.006548 
L 49.2 25.45518 
L 49.608 24.80441 
L 50.016 24.071509 
L 50.424 23.295215 
L 50.832 22.466078 
L 51.24 21.553216 
L 51.648 20.535338 
L 52.056 19.448454 
L 52.464 18.359438 
L 52.872 17.316875 
L 53.28 16.367371 
L 53.688 15.652724 
L 54.096 15.165223 
L 54.504 14.924572 
L 54.912 14.927311 
L 55.32 15.150455 
L 55.728 15.547318 
L 56.136 16.094531 
L 56.544 16.731222 
L 56.952 17.386855 
L 57.36 18.037618 
L 57.768 18.689962 
L 58.176 19.373999 
L 58.584 20.152907 
L 58.992 21.072741 
L 59.4 22.21061 
L 59.808 23.345718 
L 60.216 24.396393 
L 60.624 25.286714 
L 61.032 25.921309 
L 61.44 26.188395 
L 61.848 26.098615 
L 62.256 25.661028 
L 62.664 24.981914 
L 63.072 24.173646 
L 63.48 23.290925 
L 63.888 22.409823 
L 64.296 21.587564 
L 64.704 20.850671 
L 65.112 20.214802 
L 65.52 19.683484 
L 65.928 19.238029 
L 66.336 18.881403 
L 66.744 18.599902 
L 67.152 18.35582 
L 67.56 18.172505 
L 67.968 18.046507 
L 68.376 17.962484 
L 68.784 17.935891 
L 69.192 17.99808 
L 69.6 18.15768 
L 70.008 18.382991 
L 70.416 18.667198 
L 70.824 19.014473 
L 71.232 19.399711 
L 71.64 19.78314 
L 72.048 20.16073 
L 72.456 20.550361 
L 72.864 20.932556 
L 73.272 21.252077 
L 73.68 21.491622 
L 74.088 21.65386 
L 74.496 21.729498 
L 74.904 21.735741 
L 75.312 21.689084 
L 75.72 21.587258 
L 76.128 21.416239 
L 76.536 21.175849 
L 76.944 20.889519 
L 77.352 20.585894 
" style="fill:none;stroke:#d62728;stroke-linecap:square;stroke-width:0.5;"/>
   </g>
   <g id="line2d_3">
    <path clip-path="url(#pae9d913023)" d="M 28.8 1.8 
L 29.208 2.599033 
L 29.616 4.59882 
L 30.024 7.415933 
L 30.432 10.602628 
L 30.84 13.786698 
L 31.248 16.726903 
L 31.656 19.324423 
L 32.064 21.577228 
L 32.472 23.529845 
L 32.88 25.223602 
L 33.288 26.692554 
L 33.696 27.947487 
L 34.104 28.991679 
L 34.512 29.817032 
L 34.92 30.39537 
L 35.328 30.675204 
L 35.736 30.592793 
L 36.144 30.081881 
L 36.552 29.095324 
L 36.96 27.668556 
L 37.368 25.892793 
L 37.776 23.895106 
L 38.184 21.853213 
L 38.592 19.949077 
L 39 18.290071 
L 39.408 16.924702 
L 39.816 15.855037 
L 40.224 15.041887 
L 40.632 14.490741 
L 41.04 14.220393 
L 41.448 14.240517 
L 41.856 14.53741 
L 42.264 15.048676 
L 42.672 15.692974 
L 43.08 16.394123 
L 43.488 17.116486 
L 43.896 17.868541 
L 44.304 18.688386 
L 44.712 19.604443 
L 45.12 20.607768 
L 45.528 21.634766 
L 45.936 22.585725 
L 46.344 23.364886 
L 46.752 23.929629 
L 47.16 24.255614 
L 47.568 24.375967 
L 47.976 24.337987 
L 48.384 24.199813 
L 48.792 23.928142 
L 49.2 23.520104 
L 49.608 22.97483 
L 50.016 22.29159 
L 50.424 21.506873 
L 50.832 20.677384 
L 51.24 19.856239 
L 51.648 19.061147 
L 52.056 18.283514 
L 52.464 17.478047 
L 52.872 16.654869 
L 53.28 15.866663 
L 53.688 15.175964 
L 54.096 14.711034 
L 54.504 14.559976 
L 54.912 14.776843 
L 55.32 15.274424 
L 55.728 15.990879 
L 56.136 16.893701 
L 56.544 17.906143 
L 56.952 18.96463 
L 57.36 20.030954 
L 57.768 21.0838 
L 58.176 22.095786 
L 58.584 23.049034 
L 58.992 23.918317 
L 59.4 24.655644 
L 59.808 25.214522 
L 60.216 25.576243 
L 60.624 25.740572 
L 61.032 25.719234 
L 61.44 25.499339 
L 61.848 25.070229 
L 62.256 24.449246 
L 62.664 23.682919 
L 63.072 22.829951 
L 63.48 21.973964 
L 63.888 21.202223 
L 64.296 20.553409 
L 64.704 19.992189 
L 65.112 19.436311 
L 65.52 18.820169 
L 65.928 18.152063 
L 66.336 17.508742 
L 66.744 16.980515 
L 67.152 16.635001 
L 67.56 16.533472 
L 67.968 16.691211 
L 68.376 17.067235 
L 68.784 17.60077 
L 69.192 18.210893 
L 69.6 18.845141 
L 70.008 19.457503 
L 70.416 20.022709 
L 70.824 20.518093 
L 71.232 20.933263 
L 71.64 21.266731 
L 72.048 21.533912 
L 72.456 21.743794 
L 72.864 21.886832 
L 73.272 21.967354 
L 73.68 21.990472 
L 74.088 21.921496 
L 74.496 21.764182 
L 74.904 21.527895 
L 75.312 21.229843 
L 75.72 20.925172 
L 76.128 20.65162 
L 76.536 20.453409 
L 76.944 20.349855 
L 77.352 20.307686 
" style="fill:none;stroke:#17becf;stroke-linecap:square;stroke-width:0.5;"/>
   </g>
   <g id="line2d_4">
    <path clip-path="url(#pae9d913023)" d="M 28.8 1.8 
L 29.208 3.024446 
L 29.616 6.011986 
L 30.024 10.059274 
L 30.432 14.426404 
L 30.84 18.457633 
L 31.248 21.73557 
L 31.656 24.03843 
L 32.064 25.417251 
L 32.472 26.025057 
L 32.88 26.070583 
L 33.288 25.770997 
L 33.696 25.316707 
L 34.104 24.89822 
L 34.512 24.519118 
L 34.92 24.126399 
L 35.328 23.748517 
L 35.736 23.438559 
L 36.144 23.244535 
L 36.552 23.204554 
L 36.96 23.317586 
L 37.368 23.522404 
L 37.776 23.695091 
L 38.184 23.677068 
L 38.592 23.318168 
L 39 22.482578 
L 39.408 21.117157 
L 39.816 19.310721 
L 40.224 17.288245 
L 40.632 15.374935 
L 41.04 13.863384 
L 41.448 12.952146 
L 41.856 12.776236 
L 42.264 13.354219 
L 42.672 14.597162 
L 43.08 16.315598 
L 43.488 18.289111 
L 43.896 20.219735 
L 44.304 21.79317 
L 44.712 22.838586 
L 45.12 23.330622 
L 45.528 23.397543 
L 45.936 23.227004 
L 46.344 22.916369 
L 46.752 22.607098 
L 47.16 22.414794 
L 47.568 22.400226 
L 47.976 22.540233 
L 48.384 22.7533 
L 48.792 23.028661 
L 49.2 23.32742 
L 49.608 23.599683 
L 50.016 23.795591 
L 50.424 23.872167 
L 50.832 23.769975 
L 51.24 23.398287 
L 51.648 22.712155 
L 52.056 21.705978 
L 52.464 20.433668 
L 52.872 18.986607 
L 53.28 17.513003 
L 53.688 16.176013 
L 54.096 15.123094 
L 54.504 14.470461 
L 54.912 14.34581 
L 55.32 14.808287 
L 55.728 15.760422 
L 56.136 17.034849 
L 56.544 18.461804 
L 56.952 19.897342 
L 57.36 21.192866 
L 57.768 22.185606 
L 58.176 22.797466 
L 58.584 23.005185 
L 58.992 22.863279 
L 59.4 22.496768 
L 59.808 22.129999 
L 60.216 21.942198 
L 60.624 21.927457 
L 61.032 21.986031 
L 61.44 22.074739 
L 61.848 22.175669 
L 62.256 22.275408 
L 62.664 22.333908 
L 63.072 22.335498 
L 63.48 22.238314 
L 63.888 22.006145 
L 64.296 21.600722 
L 64.704 21.000666 
L 65.112 20.200872 
L 65.52 19.249211 
L 65.928 18.272226 
L 66.336 17.405684 
L 66.744 16.793077 
L 67.152 16.577747 
L 67.56 16.782161 
L 67.968 17.334959 
L 68.376 18.132397 
L 68.784 19.054951 
L 69.192 19.967544 
L 69.6 20.716949 
L 70.008 21.198052 
L 70.416 21.385494 
L 70.824 21.325519 
L 71.232 21.130037 
L 71.64 20.932628 
L 72.048 20.803448 
L 72.456 20.746012 
L 72.864 20.682401 
L 73.272 20.585381 
L 73.68 20.485641 
L 74.088 20.395034 
L 74.496 20.315524 
L 74.904 20.251756 
L 75.312 20.20063 
L 75.72 20.172249 
L 76.128 20.159544 
L 76.536 20.168248 
L 76.944 20.191869 
L 77.352 20.232461 
" style="fill:none;stroke:#bcbd22;stroke-linecap:square;stroke-width:0.5;"/>
   </g>
   <g id="matplotlib.axis_1">
    <g id="xtick_1">
     <g id="line2d_5">
      <defs>
       <path d="M 0 0 
L 0 3.5 
" id="m4e2d564569" style="stroke:#000000;stroke-width:0.8;"/>
      </defs>
      <g>
       <use style="stroke:#000000;stroke-width:0.8;" x="28.8" xlink:href="#m4e2d564569" y="42.48"/>
      </g>
     </g>
     <g id="text_1">
      <text style="font-family:DejaVu Sans;font-size:6px;font-stretch:normal;font-style:normal;font-weight:normal;text-anchor:middle;" transform="rotate(-0, 28.8, 54.039062)" x="28.8" y="54.039062">0</text>
     </g>
    </g>
    <g id="xtick_2">
     <g id="line2d_6">
      <g>
       <use style="stroke:#000000;stroke-width:0.8;" x="53.28" xlink:href="#m4e2d564569" y="42.48"/>
      </g>
     </g>
     <g id="text_2">
      <text style="font-family:DejaVu Sans;font-size:6px;font-stretch:normal;font-style:normal;font-weight:normal;text-anchor:middle;" transform="rotate(-0, 53.28, 54.039062)" x="53.28" y="54.039062">600</text>
     </g>
    </g>
    <g id="xtick_3">
     <g id="line2d_7">
      <g>
       <use style="stroke:#000000;stroke-width:0.8;" x="77.76" xlink:href="#m4e2d564569" y="42.48"/>
      </g>
     </g>
     <g id="text_3">
      <text style="font-family:DejaVu Sans;font-size:6px;font-stretch:normal;font-style:normal;font-weight:normal;text-anchor:middle;" transform="rotate(-0, 77.76, 54.039062)" x="77.76" y="54.039062">1200</text>
     </g>
    </g>
    <g id="text_4">
     <text style="font-family:DejaVu Sans;font-size:6px;font-stretch:normal;font-style:normal;font-weight:normal;text-anchor:middle;" transform="rotate(-0, 53.28, 61.752187)" x="53.28" y="61.752187">time (ms)</text>
    </g>
   </g>
   <g id="matplotlib.axis_2">
    <g id="ytick_1">
     <g id="line2d_8">
      <defs>
       <path d="M 0 0 
L -3.5 0 
" id="m35ba58bf05" style="stroke:#000000;stroke-width:0.8;"/>
      </defs>
      <g>
       <use style="stroke:#000000;stroke-width:0.8;" x="28.8" xlink:href="#m35ba58bf05" y="38.781818"/>
      </g>
     </g>
     <g id="text_5">
      <text style="font-family:DejaVu Sans;font-size:6px;font-stretch:normal;font-style:normal;font-weight:normal;text-anchor:end;" transform="rotate(-0, 21.8, 41.061349)" x="21.8" y="41.061349">-1</text>
     </g>
    </g>
    <g id="ytick_2">
     <g id="line2d_9">
      <g>
       <use style="stroke:#000000;stroke-width:0.8;" x="28.8" xlink:href="#m35ba58bf05" y="20.290909"/>
      </g>
     </g>
     <g id="text_6">
      <text style="font-family:DejaVu Sans;font-size:6px;font-stretch:normal;font-style:normal;font-weight:normal;text-anchor:end;" transform="rotate(-0, 21.8, 22.57044)" x="21.8" y="22.57044">0</text>
     </g>
    </g>
    <g id="ytick_3">
     <g id="line2d_10">
      <g>
       <use style="stroke:#000000;stroke-width:0.8;" x="28.8" xlink:href="#m35ba58bf05" y="1.8"/>
      </g>
     </g>
     <g id="text_7">
      <text style="font-family:DejaVu Sans;font-size:6px;font-stretch:normal;font-style:normal;font-weight:normal;text-anchor:end;" transform="rotate(-0, 21.8, 4.079531)" x="21.8" y="4.079531">1</text>
     </g>
    </g>
    <g id="text_8">
     <text style="font-family:DejaVu Sans;font-size:6px;font-stretch:normal;font-style:normal;font-weight:normal;text-anchor:middle;" transform="rotate(-90, 5.999062, 22.14)" x="5.999062" y="22.14">auto-correlation</text>
    </g>
   </g>
   <g id="line2d_11">
    <path clip-path="url(#pae9d913023)" d="M 28.8 1.8 
L 29.208 2.708776 
L 29.616 4.24431 
L 30.024 6.3098 
L 30.432 8.793693 
L 30.84 11.574868 
L 31.248 14.527916 
L 31.656 17.528239 
L 32.064 20.456824 
L 32.472 23.204534 
L 32.88 25.675735 
L 33.288 27.791197 
L 33.696 29.490186 
L 34.104 30.731717 
L 34.512 31.494956 
L 34.92 31.77884 
L 35.328 31.600926 
L 35.736 30.995616 
L 36.144 30.011808 
L 36.552 28.710148 
L 36.96 27.159981 
L 37.368 25.436139 
L 37.776 23.615726 
L 38.184 21.774994 
L 38.592 19.986438 
L 39 18.316213 
L 39.408 16.821949 
L 39.816 15.551039 
L 40.224 14.539393 
L 40.632 13.810744 
L 41.04 13.376452 
L 41.448 13.235801 
L 41.856 13.376748 
L 42.264 13.777058 
L 42.672 14.405781 
L 43.08 15.224961 
L 43.488 16.19153 
L 43.896 17.259276 
L 44.304 18.380824 
L 44.712 19.509533 
L 45.12 20.601267 
L 45.528 21.61595 
L 45.936 22.518877 
L 46.344 23.281737 
L 46.752 23.883331 
L 47.16 24.309968 
L 47.568 24.555547 
L 47.976 24.621344 
L 48.384 24.51552 
L 48.792 24.252395 
L 49.2 23.851531 
L 49.608 23.336653 
L 50.016 22.734497 
L 50.424 22.073578 
L 50.832 21.382993 
L 51.24 20.691252 
L 51.648 20.025213 
L 52.056 19.409138 
L 52.464 18.863909 
L 52.872 18.406421 
L 53.28 18.049163 
L 53.688 17.800002 
L 54.096 17.662146 
L 54.504 17.634305 
L 54.912 17.711002 
L 55.32 17.883041 
L 55.728 18.13808 
L 56.136 18.461298 
L 56.544 18.836117 
L 56.952 19.244947 
L 57.36 19.669931 
L 57.768 20.093647 
L 58.176 20.499763 
L 58.584 20.873599 
L 58.992 21.2026 
L 59.4 21.476698 
L 59.808 21.688547 
L 60.216 21.833651 
L 60.624 21.910367 
L 61.032 21.919797 
L 61.44 21.865584 
L 61.848 21.753619 
L 62.256 21.591679 
L 62.664 21.38901 
L 63.072 21.15589 
L 63.48 20.903157 
L 63.888 20.641771 
L 64.296 20.382365 
L 64.704 20.134872 
L 65.112 19.908162 
L 65.52 19.709781 
L 65.928 19.545721 
L 66.336 19.420293 
L 66.744 19.336051 
L 67.152 19.293806 
L 67.56 19.292692 
L 67.968 19.330301 
L 68.376 19.402871 
L 68.784 19.505508 
L 69.192 19.632448 
L 69.6 19.777325 
L 70.008 19.933462 
L 70.416 20.094142 
L 70.824 20.252868 
L 71.232 20.403615 
L 71.64 20.541015 
L 72.048 20.660547 
L 72.456 20.758642 
L 72.864 20.832781 
L 73.272 20.881519 
L 73.68 20.904482 
L 74.088 20.902315 
L 74.496 20.8766 
L 74.904 20.829735 
L 75.312 20.764795 
L 75.72 20.685371 
L 76.128 20.595402 
L 76.536 20.499001 
L 76.944 20.400283 
L 77.352 20.303211 
" style="fill:none;stroke:#000000;stroke-linecap:square;stroke-width:0.5;"/>
   </g>
   <g id="patch_3">
    <path d="M 28.8 38.781818 
L 28.8 1.8 
" style="fill:none;stroke:#000000;stroke-linecap:square;stroke-linejoin:miter;stroke-width:0.8;"/>
   </g>
   <g id="patch_4">
    <path d="M 28.8 42.48 
L 77.76 42.48 
" style="fill:none;stroke:#000000;stroke-linecap:square;stroke-linejoin:miter;stroke-width:0.8;"/>
   </g>
  </g>
 </g>
 <defs>
  <clipPath id="pae9d913023">
   <rect height="40.68" width="48.96" x="28.8" y="1.8"/>
  </clipPath>
 </defs>
</svg>
