<?xml version="1.0" encoding="utf-8" standalone="no"?>
<!DOCTYPE svg PUBLIC "-//W3C//DTD SVG 1.1//EN"
  "http://www.w3.org/Graphics/SVG/1.1/DTD/svg11.dtd">
<!-- Created with matplotlib (https://matplotlib.org/) -->
<svg height="64.08pt" version="1.1" viewBox="0 0 84.96 64.08" width="84.96pt" xmlns="http://www.w3.org/2000/svg" xmlns:xlink="http://www.w3.org/1999/xlink">
 <metadata>
  <rdf:RDF xmlns:cc="http://creativecommons.org/ns#" xmlns:dc="http://purl.org/dc/elements/1.1/" xmlns:rdf="http://www.w3.org/1999/02/22-rdf-syntax-ns#">
   <cc:Work>
    <dc:type rdf:resource="http://purl.org/dc/dcmitype/StillImage"/>
    <dc:date>2022-04-01T08:09:55.554814</dc:date>
    <dc:format>image/svg+xml</dc:format>
    <dc:creator>
     <cc:Agent>
      <dc:title>Matplotlib v3.3.1, https://matplotlib.org/</dc:title>
     </cc:Agent>
    </dc:creator>
   </cc:Work>
  </rdf:RDF>
 </metadata>
 <defs>
  <style type="text/css">*{stroke-linecap:butt;stroke-linejoin:round;}</style>
 </defs>
 <g id="figure_1">
  <g id="patch_1">
   <path d="M 0 64.08 
L 84.96 64.08 
L 84.96 0 
L 0 0 
z
" style="fill:none;"/>
  </g>
  <g id="axes_1">
   <g id="patch_2">
    <path d="M 28.8 42.48 
L 77.76 42.48 
L 77.76 1.8 
L 28.8 1.8 
z
" style="fill:none;"/>
   </g>
   <g id="line2d_1">
    <path clip-path="url(#p36758be778)" d="M 28.8 1.8 
L 29.208 4.335671 
L 29.616 9.199787 
L 30.024 14.378079 
L 30.432 19.66332 
L 30.84 24.07831 
L 31.248 27.352349 
L 31.656 28.681088 
L 32.064 27.765714 
L 32.472 25.593829 
L 32.88 22.77343 
L 33.288 19.778676 
L 33.696 17.394437 
L 34.104 16.185358 
L 34.512 16.67617 
L 34.92 18.452748 
L 35.328 20.516096 
L 35.736 22.556051 
L 36.144 24.555236 
L 36.552 26.027201 
L 36.96 26.328871 
L 37.368 25.577168 
L 37.776 24.189664 
L 38.184 22.808902 
L 38.592 21.344776 
L 39 19.473642 
L 39.408 18.276189 
L 39.816 17.905119 
L 40.224 17.722928 
L 40.632 17.826963 
L 41.04 18.112695 
L 41.448 18.83861 
L 41.856 19.728136 
L 42.264 19.844891 
L 42.672 19.58902 
L 43.08 19.593901 
L 43.488 19.568684 
L 43.896 19.024876 
L 44.304 18.024774 
L 44.712 17.231076 
L 45.12 17.216641 
L 45.528 18.027943 
L 45.936 19.46507 
L 46.344 21.081082 
L 46.752 22.59564 
L 47.16 24.070908 
L 47.568 24.92549 
L 47.976 24.727749 
L 48.384 23.889197 
L 48.792 22.710612 
L 49.2 21.085905 
L 49.608 19.46424 
L 50.016 18.509758 
L 50.424 18.556479 
L 50.832 19.49085 
L 51.24 20.719629 
L 51.648 22.021496 
L 52.056 23.117389 
L 52.464 23.500921 
L 52.872 23.038619 
L 53.28 21.899427 
L 53.688 20.28257 
L 54.096 18.360026 
L 54.504 16.443836 
L 54.912 15.096314 
L 55.32 14.799483 
L 55.728 15.673194 
L 56.136 17.282953 
L 56.544 18.937883 
L 56.952 20.459935 
L 57.36 21.935325 
L 57.768 23.023935 
L 58.176 23.418346 
L 58.584 23.194515 
L 58.992 22.485681 
L 59.4 21.653144 
L 59.808 21.028864 
L 60.216 20.391545 
L 60.624 19.823441 
L 61.032 19.611569 
L 61.44 19.570531 
L 61.848 19.693559 
L 62.256 20.061932 
L 62.664 20.645679 
L 63.072 21.398271 
L 63.48 22.038999 
L 63.888 22.657917 
L 64.296 23.143036 
L 64.704 23.170547 
L 65.112 22.849606 
L 65.52 22.155628 
L 65.928 21.100765 
L 66.336 19.955182 
L 66.744 18.945774 
L 67.152 18.159547 
L 67.56 17.665259 
L 67.968 17.391034 
L 68.376 17.358094 
L 68.784 17.697204 
L 69.192 18.479102 
L 69.6 19.544427 
L 70.008 20.533808 
L 70.416 21.076728 
L 70.824 21.060161 
L 71.232 20.93814 
L 71.64 20.892154 
L 72.048 20.809448 
L 72.456 20.653573 
L 72.864 20.403233 
L 73.272 20.183011 
L 73.68 20.110372 
L 74.088 20.2016 
" style="fill:none;stroke:#9467bd;stroke-linecap:square;stroke-width:0.5;"/>
   </g>
   <g id="line2d_2">
    <path clip-path="url(#p36758be778)" d="M 28.8 1.8 
L 29.208 3.567275 
L 29.616 6.674411 
L 30.024 9.493374 
L 30.432 12.474176 
L 30.84 15.662315 
L 31.248 18.865505 
L 31.656 21.671712 
L 32.064 23.730317 
L 32.472 25.341479 
L 32.88 26.753352 
L 33.288 27.879435 
L 33.696 28.747536 
L 34.104 29.379251 
L 34.512 29.613958 
L 34.92 29.202508 
L 35.328 28.578613 
L 35.736 27.807725 
L 36.144 26.409694 
L 36.552 24.640514 
L 36.96 22.926384 
L 37.368 21.659477 
L 37.776 21.053091 
L 38.184 20.620153 
L 38.592 19.81831 
L 39 18.959432 
L 39.408 18.434031 
L 39.816 17.954504 
L 40.224 17.182179 
L 40.632 16.494656 
L 41.04 16.194152 
L 41.448 16.12327 
L 41.856 16.142516 
L 42.264 16.148214 
L 42.672 16.275862 
L 43.08 16.527581 
L 43.488 16.733672 
L 43.896 17.219828 
L 44.304 17.924796 
L 44.712 18.417604 
L 45.12 19.085219 
L 45.528 20.198913 
L 45.936 21.39355 
L 46.344 22.56772 
L 46.752 23.589607 
L 47.16 24.479173 
L 47.568 25.366224 
L 47.976 25.803032 
L 48.384 25.706755 
L 48.792 25.47428 
L 49.2 25.132828 
L 49.608 24.591157 
L 50.016 23.998816 
L 50.424 23.34321 
L 50.832 22.340732 
L 51.24 21.110724 
L 51.648 19.991202 
L 52.056 18.726389 
L 52.464 17.315655 
L 52.872 16.089594 
L 53.28 15.174189 
L 53.688 14.76237 
L 54.096 14.775995 
L 54.504 14.887103 
L 54.912 15.218458 
L 55.32 16.057654 
L 55.728 17.228792 
L 56.136 18.328117 
L 56.544 19.073528 
L 56.952 19.567363 
L 57.36 20.00392 
L 57.768 20.614503 
L 58.176 21.174096 
L 58.584 21.385478 
L 58.992 21.590621 
L 59.4 21.906072 
L 59.808 22.150935 
L 60.216 22.261685 
L 60.624 22.237978 
L 61.032 22.016488 
L 61.44 21.770027 
L 61.848 21.631009 
L 62.256 21.57993 
L 62.664 21.563718 
L 63.072 21.579256 
L 63.48 21.67217 
L 63.888 21.78074 
L 64.296 21.735367 
L 64.704 21.472573 
L 65.112 21.081273 
L 65.52 20.63341 
L 65.928 20.160104 
L 66.336 19.735881 
L 66.744 19.428271 
L 67.152 19.253683 
L 67.56 19.335089 
L 67.968 19.646522 
L 68.376 19.944645 
L 68.784 20.123592 
L 69.192 20.199739 
L 69.6 20.298712 
L 70.008 20.373173 
L 70.416 20.2911 
L 70.824 20.115984 
L 71.232 19.96729 
L 71.64 19.908071 
L 72.048 19.909164 
L 72.456 19.947447 
L 72.864 20.006559 
L 73.272 20.052668 
L 73.68 20.109964 
L 74.088 20.206246 
" style="fill:none;stroke:#d62728;stroke-linecap:square;stroke-width:0.5;"/>
   </g>
   <g id="line2d_3">
    <path clip-path="url(#p36758be778)" d="M 28.8 1.8 
L 29.208 3.577658 
L 29.616 7.167893 
L 30.024 11.30936 
L 30.432 15.555251 
L 30.84 19.254852 
L 31.248 21.92007 
L 31.656 23.90184 
L 32.064 25.387693 
L 32.472 26.194226 
L 32.88 26.682597 
L 33.288 26.842111 
L 33.696 26.67859 
L 34.104 26.443133 
L 34.512 26.282679 
L 34.92 26.185299 
L 35.328 26.069581 
L 35.736 25.900272 
L 36.144 25.388054 
L 36.552 24.54766 
L 36.96 23.432481 
L 37.368 21.996311 
L 37.776 20.372027 
L 38.184 18.682583 
L 38.592 17.292015 
L 39 16.387958 
L 39.408 15.864001 
L 39.816 15.768987 
L 40.224 16.250698 
L 40.632 17.04862 
L 41.04 17.959535 
L 41.448 18.895686 
L 41.856 19.544997 
L 42.264 19.823426 
L 42.672 19.785594 
L 43.08 19.418908 
L 43.488 18.73888 
L 43.896 17.949336 
L 44.304 17.387022 
L 44.712 17.21462 
L 45.12 17.539529 
L 45.528 18.383952 
L 45.936 19.57221 
L 46.344 20.773506 
L 46.752 21.891613 
L 47.16 22.81751 
L 47.568 23.467414 
L 47.976 23.994971 
L 48.384 24.270639 
L 48.792 24.268825 
L 49.2 23.998288 
L 49.608 23.590909 
L 50.016 23.011165 
L 50.424 22.531978 
L 50.832 22.224584 
L 51.24 21.927841 
L 51.648 21.78895 
L 52.056 21.58587 
L 52.464 21.06081 
L 52.872 20.094393 
L 53.28 19.001693 
L 53.688 17.74097 
L 54.096 16.38656 
L 54.504 15.299257 
L 54.912 14.659024 
L 55.32 14.815441 
L 55.728 15.711948 
L 56.136 16.96046 
L 56.544 18.216485 
L 56.952 19.503563 
L 57.36 20.556277 
L 57.768 21.269776 
L 58.176 21.852238 
L 58.584 22.242648 
L 58.992 22.430755 
L 59.4 22.371873 
L 59.808 22.160262 
L 60.216 21.925768 
L 60.624 21.741979 
L 61.032 21.662 
L 61.44 21.716783 
L 61.848 21.71922 
L 62.256 21.557144 
L 62.664 21.449359 
L 63.072 21.440184 
L 63.48 21.383451 
L 63.888 21.358997 
L 64.296 21.339432 
L 64.704 21.136304 
L 65.112 20.827492 
L 65.52 20.496661 
L 65.928 19.851515 
L 66.336 19.076549 
L 66.744 18.662732 
L 67.152 18.582513 
L 67.56 18.736292 
L 67.968 19.108977 
L 68.376 19.474651 
L 68.784 19.635206 
L 69.192 19.815119 
L 69.6 20.047254 
L 70.008 20.202538 
L 70.416 20.324151 
L 70.824 20.39874 
L 71.232 20.400783 
L 71.64 20.309294 
L 72.048 20.281959 
L 72.456 20.31518 
L 72.864 20.334962 
L 73.272 20.379068 
L 73.68 20.395668 
L 74.088 20.37175 
" style="fill:none;stroke:#17becf;stroke-linecap:square;stroke-width:0.5;"/>
   </g>
   <g id="line2d_4">
    <path clip-path="url(#p36758be778)" d="M 28.8 1.8 
L 29.208 2.876757 
L 29.616 5.248339 
L 30.024 8.244646 
L 30.432 11.604464 
L 30.84 14.949389 
L 31.248 18.106027 
L 31.656 21.007351 
L 32.064 23.483749 
L 32.472 25.448324 
L 32.88 26.939738 
L 33.288 28.039426 
L 33.696 28.847032 
L 34.104 29.274312 
L 34.512 29.423987 
L 34.92 29.409944 
L 35.328 29.17796 
L 35.736 28.8647 
L 36.144 28.481892 
L 36.552 27.911222 
L 36.96 27.166299 
L 37.368 26.10206 
L 37.776 24.63887 
L 38.184 22.874823 
L 38.592 20.748169 
L 39 18.428592 
L 39.408 16.261896 
L 39.816 14.352616 
L 40.224 12.88773 
L 40.632 11.951935 
L 41.04 11.361322 
L 41.448 11.195497 
L 41.856 11.465566 
L 42.264 12.093933 
L 42.672 13.280134 
L 43.08 14.911705 
L 43.488 16.746485 
L 43.896 18.584234 
L 44.304 20.266945 
L 44.712 21.716893 
L 45.12 22.876459 
L 45.528 23.750095 
L 45.936 24.370771 
L 46.344 24.687383 
L 46.752 24.716206 
L 47.16 24.65859 
L 47.568 24.553218 
L 47.976 24.518834 
L 48.384 24.569853 
L 48.792 24.525857 
L 49.2 24.396895 
L 49.608 24.275161 
L 50.016 24.063714 
L 50.424 23.709369 
L 50.832 23.123415 
L 51.24 22.275918 
L 51.648 21.20762 
L 52.056 19.825989 
L 52.464 18.258691 
L 52.872 16.72306 
L 53.28 15.367915 
L 53.688 14.335543 
L 54.096 13.798544 
L 54.504 13.71457 
L 54.912 14.008098 
L 55.32 14.688658 
L 55.728 15.656357 
L 56.136 16.830654 
L 56.544 18.14998 
L 56.952 19.514403 
L 57.36 20.76029 
L 57.768 21.830555 
L 58.176 22.69311 
L 58.584 23.341661 
L 58.992 23.774758 
L 59.4 24.066377 
L 59.808 24.211252 
L 60.216 24.162268 
L 60.624 24.058829 
L 61.032 23.906025 
L 61.44 23.732322 
L 61.848 23.617148 
L 62.256 23.414049 
L 62.664 22.969356 
L 63.072 22.388187 
L 63.48 21.772815 
L 63.888 21.079296 
L 64.296 20.320923 
L 64.704 19.601826 
L 65.112 18.957478 
L 65.52 18.422605 
L 65.928 17.988923 
L 66.336 17.637751 
L 66.744 17.414569 
L 67.152 17.354167 
L 67.56 17.553558 
L 67.968 18.013099 
L 68.376 18.587358 
L 68.784 19.132084 
L 69.192 19.620318 
L 69.6 20.031049 
L 70.008 20.352121 
L 70.416 20.629629 
L 70.824 20.828205 
L 71.232 20.893348 
L 71.64 20.84554 
L 72.048 20.836368 
L 72.456 20.845024 
L 72.864 20.775505 
L 73.272 20.670134 
L 73.68 20.528401 
L 74.088 20.391301 
" style="fill:none;stroke:#bcbd22;stroke-linecap:square;stroke-width:0.5;"/>
   </g>
   <g id="matplotlib.axis_1">
    <g id="xtick_1">
     <g id="line2d_5">
      <defs>
       <path d="M 0 0 
L 0 3.5 
" id="m33fbe2d97a" style="stroke:#000000;stroke-width:0.8;"/>
      </defs>
      <g>
       <use style="stroke:#000000;stroke-width:0.8;" x="28.8" xlink:href="#m33fbe2d97a" y="42.48"/>
      </g>
     </g>
     <g id="text_1">
      <text style="font-family:DejaVu Sans;font-size:6px;font-stretch:normal;font-style:normal;font-weight:normal;text-anchor:middle;" transform="rotate(-0, 28.8, 54.039062)" x="28.8" y="54.039062">0</text>
     </g>
    </g>
    <g id="xtick_2">
     <g id="line2d_6">
      <g>
       <use style="stroke:#000000;stroke-width:0.8;" x="53.28" xlink:href="#m33fbe2d97a" y="42.48"/>
      </g>
     </g>
     <g id="text_2">
      <text style="font-family:DejaVu Sans;font-size:6px;font-stretch:normal;font-style:normal;font-weight:normal;text-anchor:middle;" transform="rotate(-0, 53.28, 54.039062)" x="53.28" y="54.039062">600</text>
     </g>
    </g>
    <g id="xtick_3">
     <g id="line2d_7">
      <g>
       <use style="stroke:#000000;stroke-width:0.8;" x="77.76" xlink:href="#m33fbe2d97a" y="42.48"/>
      </g>
     </g>
     <g id="text_3">
      <text style="font-family:DejaVu Sans;font-size:6px;font-stretch:normal;font-style:normal;font-weight:normal;text-anchor:middle;" transform="rotate(-0, 77.76, 54.039062)" x="77.76" y="54.039062">1200</text>
     </g>
    </g>
    <g id="text_4">
     <text style="font-family:DejaVu Sans;font-size:6px;font-stretch:normal;font-style:normal;font-weight:normal;text-anchor:middle;" transform="rotate(-0, 53.28, 61.752187)" x="53.28" y="61.752187">time (ms)</text>
    </g>
   </g>
   <g id="matplotlib.axis_2">
    <g id="ytick_1">
     <g id="line2d_8">
      <defs>
       <path d="M 0 0 
L -3.5 0 
" id="m5c3d4ba7ff" style="stroke:#000000;stroke-width:0.8;"/>
      </defs>
      <g>
       <use style="stroke:#000000;stroke-width:0.8;" x="28.8" xlink:href="#m5c3d4ba7ff" y="38.781818"/>
      </g>
     </g>
     <g id="text_5">
      <text style="font-family:DejaVu Sans;font-size:6px;font-stretch:normal;font-style:normal;font-weight:normal;text-anchor:end;" transform="rotate(-0, 21.8, 41.061349)" x="21.8" y="41.061349">-1</text>
     </g>
    </g>
    <g id="ytick_2">
     <g id="line2d_9">
      <g>
       <use style="stroke:#000000;stroke-width:0.8;" x="28.8" xlink:href="#m5c3d4ba7ff" y="20.290909"/>
      </g>
     </g>
     <g id="text_6">
      <text style="font-family:DejaVu Sans;font-size:6px;font-stretch:normal;font-style:normal;font-weight:normal;text-anchor:end;" transform="rotate(-0, 21.8, 22.57044)" x="21.8" y="22.57044">0</text>
     </g>
    </g>
    <g id="ytick_3">
     <g id="line2d_10">
      <g>
       <use style="stroke:#000000;stroke-width:0.8;" x="28.8" xlink:href="#m5c3d4ba7ff" y="1.8"/>
      </g>
     </g>
     <g id="text_7">
      <text style="font-family:DejaVu Sans;font-size:6px;font-stretch:normal;font-style:normal;font-weight:normal;text-anchor:end;" transform="rotate(-0, 21.8, 4.079531)" x="21.8" y="4.079531">1</text>
     </g>
    </g>
    <g id="text_8">
     <text style="font-family:DejaVu Sans;font-size:6px;font-stretch:normal;font-style:normal;font-weight:normal;text-anchor:middle;" transform="rotate(-90, 5.999062, 22.14)" x="5.999062" y="22.14">auto-correlation</text>
    </g>
   </g>
   <g id="line2d_11">
    <path clip-path="url(#p36758be778)" d="M 28.8 1.8 
L 29.208 2.999793 
L 29.616 4.793144 
L 30.024 7.054413 
L 30.432 9.65021 
L 30.84 12.445494 
L 31.248 15.309196 
L 31.656 18.11917 
L 32.064 20.766353 
L 32.472 23.158007 
L 32.88 25.220029 
L 33.288 26.898284 
L 33.696 28.159021 
L 34.104 28.988416 
L 34.512 29.391362 
L 34.92 29.389592 
L 35.328 29.019298 
L 35.736 28.328376 
L 36.144 27.373437 
L 36.552 26.216742 
L 36.96 24.923166 
L 37.368 23.557341 
L 37.776 22.18106 
L 38.184 20.851024 
L 38.592 19.616999 
L 39 18.520421 
L 39.408 17.593451 
L 39.816 16.858516 
L 40.224 16.328257 
L 40.632 16.005891 
L 41.04 15.885928 
L 41.448 15.955162 
L 41.856 16.193903 
L 42.264 16.577349 
L 42.672 17.077046 
L 43.08 17.662372 
L 43.488 18.301967 
L 43.896 18.965069 
L 44.304 19.622713 
L 44.712 20.248738 
L 45.12 20.820597 
L 45.528 21.319955 
L 45.936 21.733048 
L 46.344 22.050835 
L 46.752 22.268947 
L 47.16 22.387442 
L 47.568 22.410409 
L 47.976 22.345443 
L 48.384 22.203024 
L 48.792 21.995838 
L 49.2 21.738059 
L 49.608 21.444648 
L 50.016 21.130674 
L 50.424 20.810695 
L 50.832 20.498212 
L 51.24 20.205219 
L 51.648 19.941847 
L 52.056 19.716126 
L 52.464 19.533841 
L 52.872 19.398502 
L 53.28 19.311403 
L 53.688 19.271767 
L 54.096 19.276965 
L 54.504 19.322784 
L 54.912 19.403742 
L 55.32 19.513424 
L 55.728 19.64482 
L 56.136 19.790668 
L 56.544 19.94377 
L 56.952 20.097273 
L 57.36 20.244922 
L 57.768 20.381257 
L 58.176 20.501763 
L 58.584 20.60297 
L 58.992 20.682499 
L 59.4 20.739063 
L 59.808 20.772419 
L 60.216 20.783287 
L 60.624 20.773234 
L 61.032 20.744534 
L 61.44 20.700014 
L 61.848 20.642891 
L 62.256 20.576604 
L 62.664 20.504657 
L 63.072 20.430469 
L 63.48 20.357248 
L 63.888 20.287874 
L 64.296 20.224815 
L 64.704 20.170061 
L 65.112 20.125092 
L 65.52 20.090855 
L 65.928 20.06778 
L 66.336 20.055805 
L 66.744 20.054426 
L 67.152 20.062752 
L 67.56 20.079581 
L 67.968 20.10347 
L 68.376 20.132822 
L 68.784 20.165961 
L 69.192 20.201204 
L 69.6 20.236937 
L 70.008 20.271668 
L 70.416 20.304079 
L 70.824 20.333063 
L 71.232 20.357752 
L 71.64 20.37753 
L 72.048 20.392032 
L 72.456 20.401142 
L 72.864 20.404973 
L 73.272 20.40384 
L 73.68 20.398232 
L 74.088 20.388776 
" style="fill:none;stroke:#000000;stroke-linecap:square;stroke-width:0.5;"/>
   </g>
   <g id="patch_3">
    <path d="M 28.8 38.781818 
L 28.8 1.8 
" style="fill:none;stroke:#000000;stroke-linecap:square;stroke-linejoin:miter;stroke-width:0.8;"/>
   </g>
   <g id="patch_4">
    <path d="M 28.8 42.48 
L 77.76 42.48 
" style="fill:none;stroke:#000000;stroke-linecap:square;stroke-linejoin:miter;stroke-width:0.8;"/>
   </g>
  </g>
 </g>
 <defs>
  <clipPath id="p36758be778">
   <rect height="40.68" width="48.96" x="28.8" y="1.8"/>
  </clipPath>
 </defs>
</svg>
