<?xml version="1.0" encoding="utf-8" standalone="no"?>
<!DOCTYPE svg PUBLIC "-//W3C//DTD SVG 1.1//EN"
  "http://www.w3.org/Graphics/SVG/1.1/DTD/svg11.dtd">
<!-- Created with matplotlib (https://matplotlib.org/) -->
<svg height="64.08pt" version="1.1" viewBox="0 0 84.96 64.08" width="84.96pt" xmlns="http://www.w3.org/2000/svg" xmlns:xlink="http://www.w3.org/1999/xlink">
 <metadata>
  <rdf:RDF xmlns:cc="http://creativecommons.org/ns#" xmlns:dc="http://purl.org/dc/elements/1.1/" xmlns:rdf="http://www.w3.org/1999/02/22-rdf-syntax-ns#">
   <cc:Work>
    <dc:type rdf:resource="http://purl.org/dc/dcmitype/StillImage"/>
    <dc:date>2022-04-01T08:09:55.695656</dc:date>
    <dc:format>image/svg+xml</dc:format>
    <dc:creator>
     <cc:Agent>
      <dc:title>Matplotlib v3.3.1, https://matplotlib.org/</dc:title>
     </cc:Agent>
    </dc:creator>
   </cc:Work>
  </rdf:RDF>
 </metadata>
 <defs>
  <style type="text/css">*{stroke-linecap:butt;stroke-linejoin:round;}</style>
 </defs>
 <g id="figure_1">
  <g id="patch_1">
   <path d="M 0 64.08 
L 84.96 64.08 
L 84.96 0 
L 0 0 
z
" style="fill:none;"/>
  </g>
  <g id="axes_1">
   <g id="patch_2">
    <path d="M 28.8 42.48 
L 77.76 42.48 
L 77.76 1.8 
L 28.8 1.8 
z
" style="fill:none;"/>
   </g>
   <g id="matplotlib.axis_1">
    <g id="xtick_1">
     <g id="line2d_1">
      <defs>
       <path d="M 0 0 
L 0 3.5 
" id="m8b75d9d538" style="stroke:#000000;stroke-width:0.8;"/>
      </defs>
      <g>
       <use style="stroke:#000000;stroke-width:0.8;" x="28.8" xlink:href="#m8b75d9d538" y="42.48"/>
      </g>
     </g>
     <g id="text_1">
      <text style="font-family:DejaVu Sans;font-size:6px;font-stretch:normal;font-style:normal;font-weight:normal;text-anchor:middle;" transform="rotate(-0, 28.8, 54.039062)" x="28.8" y="54.039062">0</text>
     </g>
    </g>
    <g id="xtick_2">
     <g id="line2d_2">
      <g>
       <use style="stroke:#000000;stroke-width:0.8;" x="53.28" xlink:href="#m8b75d9d538" y="42.48"/>
      </g>
     </g>
     <g id="text_2">
      <text style="font-family:DejaVu Sans;font-size:6px;font-stretch:normal;font-style:normal;font-weight:normal;text-anchor:middle;" transform="rotate(-0, 53.28, 54.039062)" x="53.28" y="54.039062">15</text>
     </g>
    </g>
    <g id="xtick_3">
     <g id="line2d_3">
      <g>
       <use style="stroke:#000000;stroke-width:0.8;" x="77.76" xlink:href="#m8b75d9d538" y="42.48"/>
      </g>
     </g>
     <g id="text_3">
      <text style="font-family:DejaVu Sans;font-size:6px;font-stretch:normal;font-style:normal;font-weight:normal;text-anchor:middle;" transform="rotate(-0, 77.76, 54.039062)" x="77.76" y="54.039062">30</text>
     </g>
    </g>
    <g id="text_4">
     <text style="font-family:DejaVu Sans;font-size:6px;font-stretch:normal;font-style:normal;font-weight:normal;text-anchor:middle;" transform="rotate(-0, 53.28, 61.752187)" x="53.28" y="61.752187">frequency (Hz)</text>
    </g>
   </g>
   <g id="matplotlib.axis_2">
    <g id="ytick_1">
     <g id="line2d_4">
      <defs>
       <path d="M 0 0 
L -3.5 0 
" id="mbb31448203" style="stroke:#000000;stroke-width:0.8;"/>
      </defs>
      <g>
       <use style="stroke:#000000;stroke-width:0.8;" x="28.8" xlink:href="#mbb31448203" y="42.48"/>
      </g>
     </g>
     <g id="text_5">
      <text style="font-family:DejaVu Sans;font-size:6px;font-stretch:normal;font-style:normal;font-weight:normal;text-anchor:end;" transform="rotate(-0, 21.8, 44.759531)" x="21.8" y="44.759531">0</text>
     </g>
    </g>
    <g id="ytick_2">
     <g id="line2d_5">
      <g>
       <use style="stroke:#000000;stroke-width:0.8;" x="28.8" xlink:href="#mbb31448203" y="22.14"/>
      </g>
     </g>
     <g id="text_6">
      <text style="font-family:DejaVu Sans;font-size:6px;font-stretch:normal;font-style:normal;font-weight:normal;text-anchor:end;" transform="rotate(-0, 21.8, 24.419531)" x="21.8" y="24.419531">0.12</text>
     </g>
    </g>
    <g id="ytick_3">
     <g id="line2d_6">
      <g>
       <use style="stroke:#000000;stroke-width:0.8;" x="28.8" xlink:href="#mbb31448203" y="1.8"/>
      </g>
     </g>
     <g id="text_7">
      <text style="font-family:DejaVu Sans;font-size:6px;font-stretch:normal;font-style:normal;font-weight:normal;text-anchor:end;" transform="rotate(-0, 21.8, 4.079531)" x="21.8" y="4.079531">0.24</text>
     </g>
    </g>
    <g id="text_8">
     <text style="font-family:DejaVu Sans;font-size:6px;font-stretch:normal;font-style:normal;font-weight:normal;text-anchor:middle;" transform="rotate(-90, 5.999063, 22.14)" x="5.999063" y="22.14">amplitude</text>
    </g>
   </g>
   <g id="line2d_7">
    <path clip-path="url(#p6f2c04c11e)" d="M 28.8 41.723304 
L 30.257143 40.243817 
L 31.714286 38.752236 
L 33.171429 35.141441 
L 34.628571 37.240643 
L 36.085714 40.920659 
L 37.542857 39.271604 
L 39 32.398765 
L 40.457143 32.307492 
L 41.914286 30.887873 
L 43.371429 39.191649 
L 44.828571 36.112633 
L 46.285714 39.012836 
L 47.742857 39.735445 
L 49.2 39.709251 
L 50.657143 40.153655 
L 52.114286 40.39989 
L 53.571429 40.491224 
L 55.028571 40.747594 
L 56.485714 40.987023 
L 57.942857 40.828731 
L 59.4 40.917003 
L 60.857143 41.175847 
L 62.314286 40.908191 
L 63.771429 41.177149 
L 65.228571 41.335393 
L 66.685714 40.82633 
L 68.142857 41.141151 
L 69.6 41.289939 
L 71.057143 41.38504 
L 72.514286 41.359995 
L 73.971429 41.403637 
L 75.428571 41.488858 
L 76.885714 41.410728 
L 78.342857 41.519419 
L 79.8 41.549836 
L 81.257143 41.476571 
L 82.714286 41.577063 
L 84.171429 41.579592 
L 85.628571 41.573213 
L 85.96 41.567252 
" style="fill:none;stroke:#9467bd;stroke-linecap:square;stroke-width:0.5;"/>
   </g>
   <g id="line2d_8">
    <path clip-path="url(#p6f2c04c11e)" d="M 28.8 41.723304 
L 30.257143 40.22296 
L 31.714286 36.98252 
L 33.171429 26.054075 
L 34.628571 25.665943 
L 36.085714 36.478896 
L 37.542857 32.985119 
L 39 37.791442 
L 40.457143 38.977369 
L 41.914286 39.217 
L 43.371429 39.43841 
L 44.828571 38.500808 
L 46.285714 39.415556 
L 47.742857 39.983763 
L 49.2 40.317696 
L 50.657143 40.674649 
L 52.114286 40.492293 
L 53.571429 40.677702 
L 55.028571 40.744033 
L 56.485714 40.967269 
L 57.942857 41.128319 
L 59.4 41.02681 
L 60.857143 41.164942 
L 62.314286 40.805728 
L 63.771429 41.137658 
L 65.228571 41.258145 
L 66.685714 41.231032 
L 68.142857 41.273012 
L 69.6 41.171028 
L 71.057143 41.366818 
L 72.514286 41.430874 
L 73.971429 41.353559 
L 75.428571 41.435362 
L 76.885714 41.496419 
L 78.342857 41.548851 
L 79.8 41.481295 
L 81.257143 41.572018 
L 82.714286 41.46764 
L 84.171429 41.582705 
L 85.628571 41.6043 
L 85.96 41.601634 
" style="fill:none;stroke:#d62728;stroke-linecap:square;stroke-width:0.5;"/>
   </g>
   <g id="line2d_9">
    <path clip-path="url(#p6f2c04c11e)" d="M 28.8 41.723304 
L 30.257143 40.65895 
L 31.714286 38.140671 
L 33.171429 29.213667 
L 34.628571 31.447007 
L 36.085714 33.083836 
L 37.542857 34.503116 
L 39 38.031883 
L 40.457143 38.810017 
L 41.914286 35.189246 
L 43.371429 39.121043 
L 44.828571 38.564038 
L 46.285714 39.297806 
L 47.742857 39.844108 
L 49.2 40.140471 
L 50.657143 40.060482 
L 52.114286 40.142089 
L 53.571429 40.357015 
L 55.028571 40.550186 
L 56.485714 40.711485 
L 57.942857 40.921785 
L 59.4 40.962241 
L 60.857143 41.068053 
L 62.314286 41.049932 
L 63.771429 41.171921 
L 65.228571 41.194464 
L 66.685714 41.290947 
L 68.142857 41.320038 
L 69.6 41.332064 
L 71.057143 41.396483 
L 72.514286 41.381967 
L 73.971429 41.459762 
L 75.428571 41.481078 
L 76.885714 41.432191 
L 78.342857 41.441092 
L 79.8 41.540174 
L 81.257143 41.549165 
L 82.714286 41.55146 
L 84.171429 41.533286 
L 85.628571 41.596803 
L 85.96 41.602614 
" style="fill:none;stroke:#17becf;stroke-linecap:square;stroke-width:0.5;"/>
   </g>
   <g id="line2d_10">
    <path clip-path="url(#p6f2c04c11e)" d="M 28.8 41.723304 
L 30.257143 40.038217 
L 31.714286 35.819822 
L 33.171429 24.36325 
L 34.628571 19.155985 
L 36.085714 33.225217 
L 37.542857 38.170802 
L 39 35.099145 
L 40.457143 37.132729 
L 41.914286 38.044575 
L 43.371429 38.863902 
L 44.828571 39.490107 
L 46.285714 39.839152 
L 47.742857 39.670571 
L 49.2 40.116196 
L 50.657143 40.442827 
L 52.114286 40.666496 
L 53.571429 40.506551 
L 55.028571 40.738811 
L 56.485714 40.886901 
L 57.942857 40.889846 
L 59.4 41.042425 
L 60.857143 41.111937 
L 62.314286 41.130118 
L 63.771429 41.192897 
L 65.228571 41.247187 
L 66.685714 41.314731 
L 68.142857 41.307708 
L 69.6 41.380192 
L 71.057143 41.413996 
L 72.514286 41.438445 
L 73.971429 41.436474 
L 75.428571 41.475113 
L 76.885714 41.490659 
L 78.342857 41.530862 
L 79.8 41.537098 
L 81.257143 41.559607 
L 82.714286 41.58448 
L 84.171429 41.607436 
L 85.628571 41.617532 
L 85.96 41.618705 
" style="fill:none;stroke:#bcbd22;stroke-linecap:square;stroke-width:0.5;"/>
   </g>
   <g id="patch_3">
    <path d="M 28.8 42.48 
L 28.8 1.8 
" style="fill:none;stroke:#000000;stroke-linecap:square;stroke-linejoin:miter;stroke-width:0.8;"/>
   </g>
   <g id="patch_4">
    <path d="M 28.8 42.48 
L 77.76 42.48 
" style="fill:none;stroke:#000000;stroke-linecap:square;stroke-linejoin:miter;stroke-width:0.8;"/>
   </g>
  </g>
 </g>
 <defs>
  <clipPath id="p6f2c04c11e">
   <rect height="40.68" width="48.96" x="28.8" y="1.8"/>
  </clipPath>
 </defs>
</svg>
