<?xml version="1.0" encoding="utf-8" standalone="no"?>
<!DOCTYPE svg PUBLIC "-//W3C//DTD SVG 1.1//EN"
  "http://www.w3.org/Graphics/SVG/1.1/DTD/svg11.dtd">
<!-- Created with matplotlib (https://matplotlib.org/) -->
<svg height="64.08pt" version="1.1" viewBox="0 0 169.92 64.08" width="169.92pt" xmlns="http://www.w3.org/2000/svg" xmlns:xlink="http://www.w3.org/1999/xlink">
 <metadata>
  <rdf:RDF xmlns:cc="http://creativecommons.org/ns#" xmlns:dc="http://purl.org/dc/elements/1.1/" xmlns:rdf="http://www.w3.org/1999/02/22-rdf-syntax-ns#">
   <cc:Work>
    <dc:type rdf:resource="http://purl.org/dc/dcmitype/StillImage"/>
    <dc:date>2022-04-01T08:09:55.370117</dc:date>
    <dc:format>image/svg+xml</dc:format>
    <dc:creator>
     <cc:Agent>
      <dc:title>Matplotlib v3.3.1, https://matplotlib.org/</dc:title>
     </cc:Agent>
    </dc:creator>
   </cc:Work>
  </rdf:RDF>
 </metadata>
 <defs>
  <style type="text/css">*{stroke-linecap:butt;stroke-linejoin:round;}</style>
 </defs>
 <g id="figure_1">
  <g id="patch_1">
   <path d="M 0 64.08 
L 169.92 64.08 
L 169.92 0 
L 0 0 
z
" style="fill:none;"/>
  </g>
  <g id="axes_1">
   <g id="PolyCollection_1">
    <defs>
     <path d="M 13.5936 -35.416456 
L 13.5936 -28.83037 
L 16.2432 -28.197372 
L 18.8928 -27.23199 
L 21.5424 -26.509355 
L 24.192 -26.178363 
L 26.8416 -26.439411 
L 29.4912 -26.291021 
L 32.1408 -26.409744 
L 34.7904 -26.944074 
L 37.44 -27.575625 
L 40.0896 -27.773671 
L 42.7392 -27.110714 
L 45.3888 -27.25656 
L 48.0384 -28.211269 
L 50.688 -28.440254 
L 53.3376 -28.084008 
L 55.9872 -27.051729 
L 58.6368 -26.011564 
L 61.2864 -25.044532 
L 63.936 -23.83459 
L 66.5856 -23.262505 
L 69.2352 -23.17148 
L 71.8848 -24.582211 
L 74.5344 -26.831333 
L 77.184 -27.404881 
L 79.8336 -29.005831 
L 82.4832 -32.101471 
L 85.1328 -32.729273 
L 87.7824 -31.816486 
L 90.432 -30.404307 
L 93.0816 -28.245101 
L 95.7312 -27.739549 
L 98.3808 -27.253681 
L 101.0304 -23.880652 
L 103.68 -23.257164 
L 106.3296 -26.393348 
L 108.9792 -28.07499 
L 111.6288 -27.748363 
L 114.2784 -28.613707 
L 116.928 -29.076373 
L 119.5776 -29.359365 
L 122.2272 -26.899274 
L 124.8768 -25.415286 
L 127.5264 -25.445227 
L 130.176 -23.454213 
L 132.8256 -22.716327 
L 135.4752 -21.739834 
L 138.1248 -22.214217 
L 140.7744 -24.485925 
L 143.424 -26.947247 
L 146.0736 -28.335697 
L 148.7232 -28.965622 
L 151.3728 -29.339795 
L 154.0224 -28.989561 
L 156.672 -28.411355 
L 159.3216 -28.536234 
L 161.9712 -29.406917 
L 164.6208 -31.766808 
L 167.2704 -31.107264 
L 169.92 -29.63286 
L 169.92 -32.17293 
L 169.92 -32.17293 
L 167.2704 -35.300126 
L 164.6208 -36.7293 
L 161.9712 -35.722773 
L 159.3216 -35.638356 
L 156.672 -36.086162 
L 154.0224 -36.862712 
L 151.3728 -37.365779 
L 148.7232 -37.113382 
L 146.0736 -36.650477 
L 143.424 -35.270872 
L 140.7744 -32.897007 
L 138.1248 -30.511916 
L 135.4752 -29.988005 
L 132.8256 -30.605146 
L 130.176 -31.332194 
L 127.5264 -33.094302 
L 124.8768 -32.867316 
L 122.2272 -34.420666 
L 119.5776 -36.557644 
L 116.928 -36.261998 
L 114.2784 -35.398324 
L 111.6288 -33.852171 
L 108.9792 -33.179779 
L 106.3296 -30.834532 
L 103.68 -26.233131 
L 101.0304 -26.747195 
L 98.3808 -30.222106 
L 95.7312 -31.103118 
L 93.0816 -32.541011 
L 90.432 -35.642675 
L 87.7824 -37.984523 
L 85.1328 -39.863911 
L 82.4832 -39.899349 
L 79.8336 -37.299978 
L 77.184 -35.921669 
L 74.5344 -35.472542 
L 71.8848 -33.238531 
L 69.2352 -31.608184 
L 66.5856 -31.473845 
L 63.936 -31.800707 
L 61.2864 -32.798755 
L 58.6368 -33.270289 
L 55.9872 -34.412623 
L 53.3376 -35.501743 
L 50.688 -36.206321 
L 48.0384 -36.204336 
L 45.3888 -35.55658 
L 42.7392 -35.456395 
L 40.0896 -36.034305 
L 37.44 -36.051816 
L 34.7904 -35.295493 
L 32.1408 -34.379012 
L 29.4912 -34.116116 
L 26.8416 -33.879562 
L 24.192 -33.064202 
L 21.5424 -32.876026 
L 18.8928 -33.431146 
L 16.2432 -34.376722 
L 13.5936 -35.416456 
z
" id="me23b737403" style="stroke:#9467bd;stroke-opacity:0.2;stroke-width:0.5;"/>
    </defs>
    <g clip-path="url(#p334bce01de)">
     <use style="fill:#9467bd;fill-opacity:0.2;stroke:#9467bd;stroke-opacity:0.2;stroke-width:0.5;" x="0" xlink:href="#me23b737403" y="64.08"/>
    </g>
   </g>
   <g id="PolyCollection_2">
    <defs>
     <path d="M 13.5936 -37.865839 
L 13.5936 -25.265251 
L 16.2432 -24.678876 
L 18.8928 -23.46494 
L 21.5424 -23.244297 
L 24.192 -23.049824 
L 26.8416 -23.558132 
L 29.4912 -24.907002 
L 32.1408 -26.902148 
L 34.7904 -28.911144 
L 37.44 -31.195561 
L 40.0896 -33.280197 
L 42.7392 -32.7963 
L 45.3888 -32.428854 
L 48.0384 -32.414884 
L 50.688 -30.852691 
L 53.3376 -29.55728 
L 55.9872 -31.14831 
L 58.6368 -31.63002 
L 61.2864 -29.240101 
L 63.936 -25.781348 
L 66.5856 -25.652188 
L 69.2352 -27.553344 
L 71.8848 -27.917598 
L 74.5344 -24.340536 
L 77.184 -21.91661 
L 79.8336 -22.508873 
L 82.4832 -23.3241 
L 85.1328 -24.258911 
L 87.7824 -25.020746 
L 90.432 -25.944299 
L 93.0816 -27.25139 
L 95.7312 -27.808669 
L 98.3808 -26.506452 
L 101.0304 -26.797314 
L 103.68 -27.630872 
L 106.3296 -28.496283 
L 108.9792 -30.786295 
L 111.6288 -32.631679 
L 114.2784 -32.259506 
L 116.928 -31.335325 
L 119.5776 -30.55862 
L 122.2272 -29.303045 
L 124.8768 -30.723508 
L 127.5264 -30.791038 
L 130.176 -26.913375 
L 132.8256 -26.748344 
L 135.4752 -27.298299 
L 138.1248 -27.179155 
L 140.7744 -28.135675 
L 143.424 -28.044343 
L 146.0736 -28.261007 
L 148.7232 -27.875541 
L 151.3728 -25.601712 
L 154.0224 -24.43586 
L 156.672 -24.300658 
L 159.3216 -24.710857 
L 161.9712 -26.128739 
L 164.6208 -27.702556 
L 167.2704 -31.368532 
L 169.92 -30.078817 
L 169.92 -34.082866 
L 169.92 -34.082866 
L 167.2704 -35.789799 
L 164.6208 -32.878954 
L 161.9712 -31.848779 
L 159.3216 -30.52159 
L 156.672 -30.356163 
L 154.0224 -29.721735 
L 151.3728 -30.301075 
L 148.7232 -31.593098 
L 146.0736 -30.669549 
L 143.424 -30.265222 
L 140.7744 -30.294992 
L 138.1248 -29.23177 
L 135.4752 -29.391108 
L 132.8256 -28.808412 
L 130.176 -29.081442 
L 127.5264 -33.616458 
L 124.8768 -34.60055 
L 122.2272 -34.31175 
L 119.5776 -37.038169 
L 116.928 -39.062342 
L 114.2784 -41.395664 
L 111.6288 -42.543368 
L 108.9792 -41.410902 
L 106.3296 -39.565003 
L 103.68 -38.730446 
L 101.0304 -37.61725 
L 98.3808 -36.943708 
L 95.7312 -37.419394 
L 93.0816 -36.425422 
L 90.432 -34.186879 
L 87.7824 -32.901302 
L 85.1328 -31.977912 
L 82.4832 -30.562288 
L 79.8336 -28.973645 
L 77.184 -27.021015 
L 74.5344 -28.548599 
L 71.8848 -30.269528 
L 69.2352 -29.651906 
L 66.5856 -27.596328 
L 63.936 -27.735422 
L 61.2864 -31.085963 
L 58.6368 -33.95807 
L 55.9872 -34.097623 
L 53.3376 -33.917108 
L 50.688 -36.896541 
L 48.0384 -40.158862 
L 45.3888 -42.005264 
L 42.7392 -43.899392 
L 40.0896 -45.214722 
L 37.44 -44.00541 
L 34.7904 -41.865292 
L 32.1408 -40.080203 
L 29.4912 -38.281324 
L 26.8416 -36.691203 
L 24.192 -36.428151 
L 21.5424 -36.444557 
L 18.8928 -36.561218 
L 16.2432 -37.456391 
L 13.5936 -37.865839 
z
" id="m93ccc13bf8" style="stroke:#d62728;stroke-opacity:0.2;stroke-width:0.5;"/>
    </defs>
    <g clip-path="url(#p334bce01de)">
     <use style="fill:#d62728;fill-opacity:0.2;stroke:#d62728;stroke-opacity:0.2;stroke-width:0.5;" x="0" xlink:href="#m93ccc13bf8" y="64.08"/>
    </g>
   </g>
   <g id="PolyCollection_3">
    <defs>
     <path d="M 13.5936 -30.889697 
L 13.5936 -27.039618 
L 16.2432 -26.40817 
L 18.8928 -26.825903 
L 21.5424 -26.82238 
L 24.192 -26.809768 
L 26.8416 -27.021053 
L 29.4912 -26.748027 
L 32.1408 -27.986769 
L 34.7904 -28.386023 
L 37.44 -28.516326 
L 40.0896 -29.683577 
L 42.7392 -30.683806 
L 45.3888 -30.342399 
L 48.0384 -30.144028 
L 50.688 -31.834335 
L 53.3376 -32.753565 
L 55.9872 -35.349849 
L 58.6368 -40.902446 
L 61.2864 -43.996879 
L 63.936 -42.655558 
L 66.5856 -37.084113 
L 69.2352 -30.57697 
L 71.8848 -26.789228 
L 74.5344 -24.002742 
L 77.184 -21.421263 
L 79.8336 -21.325273 
L 82.4832 -22.060268 
L 85.1328 -21.871311 
L 87.7824 -21.160507 
L 90.432 -22.486855 
L 93.0816 -24.482309 
L 95.7312 -26.183735 
L 98.3808 -27.18784 
L 101.0304 -28.733053 
L 103.68 -29.1441 
L 106.3296 -29.40584 
L 108.9792 -30.221337 
L 111.6288 -30.953206 
L 114.2784 -31.199264 
L 116.928 -32.652881 
L 119.5776 -34.14793 
L 122.2272 -38.200919 
L 124.8768 -40.337706 
L 127.5264 -40.94347 
L 130.176 -41.604587 
L 132.8256 -39.033022 
L 135.4752 -35.296616 
L 138.1248 -29.206514 
L 140.7744 -27.686174 
L 143.424 -27.803831 
L 146.0736 -26.517986 
L 148.7232 -25.884732 
L 151.3728 -26.189156 
L 154.0224 -26.2547 
L 156.672 -26.127166 
L 159.3216 -26.609039 
L 161.9712 -25.296559 
L 164.6208 -28.046452 
L 167.2704 -27.79398 
L 169.92 -25.066437 
L 169.92 -31.272167 
L 169.92 -31.272167 
L 167.2704 -33.32001 
L 164.6208 -31.897529 
L 161.9712 -28.797468 
L 159.3216 -29.800811 
L 156.672 -29.332787 
L 154.0224 -29.19764 
L 151.3728 -28.928017 
L 148.7232 -28.560529 
L 146.0736 -29.137155 
L 143.424 -30.458398 
L 140.7744 -30.429371 
L 138.1248 -31.894958 
L 135.4752 -37.879825 
L 132.8256 -41.520643 
L 130.176 -43.914887 
L 127.5264 -43.337963 
L 124.8768 -42.834587 
L 122.2272 -40.727535 
L 119.5776 -36.426999 
L 116.928 -34.771137 
L 114.2784 -32.856433 
L 111.6288 -32.504488 
L 108.9792 -31.818643 
L 106.3296 -31.195327 
L 103.68 -31.283409 
L 101.0304 -31.459401 
L 98.3808 -31.041815 
L 95.7312 -31.042111 
L 93.0816 -30.593238 
L 90.432 -29.438462 
L 87.7824 -28.534585 
L 85.1328 -28.147222 
L 82.4832 -28.168289 
L 79.8336 -25.384337 
L 77.184 -24.977222 
L 74.5344 -27.515864 
L 71.8848 -30.028534 
L 69.2352 -33.686997 
L 66.5856 -40.008475 
L 63.936 -45.446047 
L 61.2864 -46.556678 
L 58.6368 -43.325344 
L 55.9872 -37.70484 
L 53.3376 -34.935468 
L 50.688 -33.982254 
L 48.0384 -32.170892 
L 45.3888 -32.362422 
L 42.7392 -32.679062 
L 40.0896 -31.79017 
L 37.44 -30.911173 
L 34.7904 -31.671194 
L 32.1408 -31.037454 
L 29.4912 -31.553657 
L 26.8416 -31.687059 
L 24.192 -31.452713 
L 21.5424 -31.647271 
L 18.8928 -30.863722 
L 16.2432 -30.405776 
L 13.5936 -30.889697 
z
" id="md02c258a08" style="stroke:#17becf;stroke-opacity:0.2;stroke-width:0.5;"/>
    </defs>
    <g clip-path="url(#p334bce01de)">
     <use style="fill:#17becf;fill-opacity:0.2;stroke:#17becf;stroke-opacity:0.2;stroke-width:0.5;" x="0" xlink:href="#md02c258a08" y="64.08"/>
    </g>
   </g>
   <g id="PolyCollection_4">
    <defs>
     <path d="M 13.5936 -37.036486 
L 13.5936 -34.631571 
L 16.2432 -36.17838 
L 18.8928 -37.953529 
L 21.5424 -39.006724 
L 24.192 -38.988996 
L 26.8416 -35.919936 
L 29.4912 -31.257654 
L 32.1408 -27.928901 
L 34.7904 -26.654492 
L 37.44 -25.639322 
L 40.0896 -24.210366 
L 42.7392 -23.176056 
L 45.3888 -24.755108 
L 48.0384 -26.177809 
L 50.688 -25.138813 
L 53.3376 -25.690503 
L 55.9872 -25.870245 
L 58.6368 -24.74635 
L 61.2864 -25.635755 
L 63.936 -26.091836 
L 66.5856 -25.646612 
L 69.2352 -26.324646 
L 71.8848 -26.575392 
L 74.5344 -27.495114 
L 77.184 -28.737497 
L 79.8336 -30.00123 
L 82.4832 -31.5906 
L 85.1328 -32.928536 
L 87.7824 -34.529133 
L 90.432 -36.856641 
L 93.0816 -37.688768 
L 95.7312 -38.387509 
L 98.3808 -38.870862 
L 101.0304 -35.873365 
L 103.68 -32.284957 
L 106.3296 -27.871331 
L 108.9792 -24.149178 
L 111.6288 -23.624221 
L 114.2784 -24.327179 
L 116.928 -24.730224 
L 119.5776 -24.466492 
L 122.2272 -24.207345 
L 124.8768 -25.11809 
L 127.5264 -26.524724 
L 130.176 -25.747068 
L 132.8256 -26.032549 
L 135.4752 -26.868611 
L 138.1248 -27.259041 
L 140.7744 -28.163782 
L 143.424 -28.243659 
L 146.0736 -28.569956 
L 148.7232 -29.011376 
L 151.3728 -29.572704 
L 154.0224 -29.831262 
L 156.672 -29.977214 
L 159.3216 -30.197013 
L 161.9712 -30.841081 
L 164.6208 -31.135247 
L 167.2704 -31.761337 
L 169.92 -32.599668 
L 169.92 -34.97113 
L 169.92 -34.97113 
L 167.2704 -33.746054 
L 164.6208 -32.890085 
L 161.9712 -32.479749 
L 159.3216 -31.792959 
L 156.672 -31.597042 
L 154.0224 -31.426338 
L 151.3728 -31.175373 
L 148.7232 -30.663333 
L 146.0736 -30.299437 
L 143.424 -30.076136 
L 140.7744 -30.216437 
L 138.1248 -29.569519 
L 135.4752 -29.343372 
L 132.8256 -28.676887 
L 130.176 -28.47309 
L 127.5264 -29.328506 
L 124.8768 -27.943393 
L 122.2272 -27.22831 
L 119.5776 -27.478599 
L 116.928 -27.945294 
L 114.2784 -27.611419 
L 111.6288 -27.069908 
L 108.9792 -27.600995 
L 106.3296 -31.400677 
L 103.68 -35.641949 
L 101.0304 -38.882825 
L 98.3808 -41.769974 
L 95.7312 -41.205817 
L 93.0816 -40.479819 
L 90.432 -39.587584 
L 87.7824 -37.087 
L 85.1328 -35.085101 
L 82.4832 -33.381848 
L 79.8336 -31.691904 
L 77.184 -30.369264 
L 74.5344 -29.216844 
L 71.8848 -28.358958 
L 69.2352 -28.20998 
L 66.5856 -27.614251 
L 63.936 -28.206886 
L 61.2864 -28.07245 
L 58.6368 -27.287235 
L 55.9872 -28.750915 
L 53.3376 -28.721539 
L 50.688 -28.33896 
L 48.0384 -29.534799 
L 45.3888 -28.213132 
L 42.7392 -26.435327 
L 40.0896 -27.616321 
L 37.44 -28.827433 
L 34.7904 -29.91896 
L 32.1408 -31.215215 
L 29.4912 -34.490646 
L 26.8416 -38.96704 
L 24.192 -41.845237 
L 21.5424 -41.728911 
L 18.8928 -40.460517 
L 16.2432 -38.754782 
L 13.5936 -37.036486 
z
" id="m8e08308a14" style="stroke:#bcbd22;stroke-opacity:0.2;stroke-width:0.5;"/>
    </defs>
    <g clip-path="url(#p334bce01de)">
     <use style="fill:#bcbd22;fill-opacity:0.2;stroke:#bcbd22;stroke-opacity:0.2;stroke-width:0.5;" x="0" xlink:href="#m8e08308a14" y="64.08"/>
    </g>
   </g>
   <g id="line2d_1">
    <path clip-path="url(#p334bce01de)" d="M 13.5936 31.956587 
L 16.2432 32.792953 
L 18.8928 33.748432 
L 21.5424 34.38731 
L 24.192 34.458718 
L 26.8416 33.920514 
L 29.4912 33.876431 
L 32.1408 33.685622 
L 34.7904 32.960217 
L 37.44 32.266279 
L 40.0896 32.176012 
L 42.7392 32.796446 
L 45.3888 32.67343 
L 48.0384 31.872197 
L 50.688 31.756712 
L 53.3376 32.287125 
L 55.9872 33.347824 
L 58.6368 34.439073 
L 61.2864 35.158357 
L 63.936 36.262352 
L 66.5856 36.711825 
L 69.2352 36.690168 
L 71.8848 35.169629 
L 74.5344 32.928063 
L 77.184 32.416725 
L 79.8336 30.927096 
L 82.4832 28.07959 
L 85.1328 27.783408 
L 87.7824 29.179496 
L 90.432 31.056509 
L 93.0816 33.686944 
L 95.7312 34.658667 
L 98.3808 35.342107 
L 101.0304 38.766077 
L 103.68 39.334852 
L 106.3296 35.46606 
L 108.9792 33.452616 
L 111.6288 33.279733 
L 114.2784 32.073984 
L 116.928 31.410815 
L 119.5776 31.121496 
L 122.2272 33.42003 
L 124.8768 34.938699 
L 127.5264 34.810235 
L 130.176 36.686796 
L 132.8256 37.419263 
L 135.4752 38.21608 
L 138.1248 37.716933 
L 140.7744 35.388534 
L 143.424 32.970941 
L 146.0736 31.586913 
L 148.7232 31.040498 
L 151.3728 30.727213 
L 154.0224 31.153864 
L 156.672 31.831241 
L 159.3216 31.992705 
L 161.9712 31.515155 
L 164.6208 29.831946 
L 167.2704 30.876305 
L 169.92 33.177105 
" style="fill:none;stroke:#9467bd;stroke-linecap:square;stroke-width:0.5;"/>
   </g>
   <g id="line2d_2">
    <path clip-path="url(#p334bce01de)" d="M 13.5936 32.514455 
L 16.2432 33.012367 
L 18.8928 34.066921 
L 21.5424 34.235573 
L 24.192 34.341012 
L 26.8416 33.955332 
L 29.4912 32.485837 
L 32.1408 30.588824 
L 34.7904 28.691782 
L 37.44 26.479515 
L 40.0896 24.83254 
L 42.7392 25.732154 
L 45.3888 26.862941 
L 48.0384 27.793127 
L 50.688 30.205384 
L 53.3376 32.342806 
L 55.9872 31.457034 
L 58.6368 31.285955 
L 61.2864 33.916968 
L 63.936 37.321615 
L 66.5856 37.455742 
L 69.2352 35.477375 
L 71.8848 34.986437 
L 74.5344 37.635433 
L 77.184 39.611188 
L 79.8336 38.338741 
L 82.4832 37.136806 
L 85.1328 35.961588 
L 87.7824 35.118976 
L 90.432 34.014411 
L 93.0816 32.241594 
L 95.7312 31.465969 
L 98.3808 32.35492 
L 101.0304 31.872718 
L 103.68 30.899341 
L 106.3296 30.049357 
L 108.9792 27.981402 
L 111.6288 26.492477 
L 114.2784 27.252415 
L 116.928 28.881166 
L 119.5776 30.281605 
L 122.2272 32.272603 
L 124.8768 31.417971 
L 127.5264 31.876252 
L 130.176 36.082592 
L 132.8256 36.301622 
L 135.4752 35.735296 
L 138.1248 35.874537 
L 140.7744 34.864667 
L 143.424 34.925218 
L 146.0736 34.614722 
L 148.7232 34.345681 
L 151.3728 36.128606 
L 154.0224 37.001203 
L 156.672 36.75159 
L 159.3216 36.463777 
L 161.9712 35.091241 
L 164.6208 33.789245 
L 167.2704 30.500834 
L 169.92 31.999159 
" style="fill:none;stroke:#d62728;stroke-linecap:square;stroke-width:0.5;"/>
   </g>
   <g id="line2d_3">
    <path clip-path="url(#p334bce01de)" d="M 13.5936 35.115343 
L 16.2432 35.673027 
L 18.8928 35.235187 
L 21.5424 34.845175 
L 24.192 34.94876 
L 26.8416 34.725944 
L 29.4912 34.929158 
L 32.1408 34.567889 
L 34.7904 34.051392 
L 37.44 34.366251 
L 40.0896 33.343126 
L 42.7392 32.398566 
L 45.3888 32.727589 
L 48.0384 32.92254 
L 50.688 31.171706 
L 53.3376 30.235484 
L 55.9872 27.552655 
L 58.6368 21.966105 
L 61.2864 18.803222 
L 63.936 20.029198 
L 66.5856 25.533706 
L 69.2352 31.948017 
L 71.8848 35.671119 
L 74.5344 38.320697 
L 77.184 40.880757 
L 79.8336 40.725195 
L 82.4832 38.965721 
L 85.1328 39.070734 
L 87.7824 39.232454 
L 90.432 38.117341 
L 93.0816 36.542226 
L 95.7312 35.467077 
L 98.3808 34.965172 
L 101.0304 33.983773 
L 103.68 33.866246 
L 106.3296 33.779417 
L 108.9792 33.06001 
L 111.6288 32.351153 
L 114.2784 32.052151 
L 116.928 30.367991 
L 119.5776 28.792536 
L 122.2272 24.615773 
L 124.8768 22.493853 
L 127.5264 21.939283 
L 130.176 21.320263 
L 132.8256 23.803168 
L 135.4752 27.49178 
L 138.1248 33.529264 
L 140.7744 35.022228 
L 143.424 34.948885 
L 146.0736 36.252429 
L 148.7232 36.857369 
L 151.3728 36.521413 
L 154.0224 36.35383 
L 156.672 36.350023 
L 159.3216 35.875075 
L 161.9712 37.032986 
L 164.6208 34.10801 
L 167.2704 33.523005 
L 169.92 35.910698 
" style="fill:none;stroke:#17becf;stroke-linecap:square;stroke-width:0.5;"/>
   </g>
   <g id="line2d_4">
    <path clip-path="url(#p334bce01de)" d="M 13.5936 28.245971 
L 16.2432 26.613419 
L 18.8928 24.872977 
L 21.5424 23.712183 
L 24.192 23.662883 
L 26.8416 26.636512 
L 29.4912 31.20585 
L 32.1408 34.507942 
L 34.7904 35.793274 
L 37.44 36.846623 
L 40.0896 38.166656 
L 42.7392 39.274309 
L 45.3888 37.59588 
L 48.0384 36.223696 
L 50.688 37.341113 
L 53.3376 36.873979 
L 55.9872 36.76942 
L 58.6368 38.063208 
L 61.2864 37.225898 
L 63.936 36.930639 
L 66.5856 37.449569 
L 69.2352 36.812687 
L 71.8848 36.612825 
L 74.5344 35.724021 
L 77.184 34.52662 
L 79.8336 33.233433 
L 82.4832 31.593776 
L 85.1328 30.073181 
L 87.7824 28.271934 
L 90.432 25.857888 
L 93.0816 24.995706 
L 95.7312 24.283337 
L 98.3808 23.759582 
L 101.0304 26.701905 
L 103.68 30.116547 
L 106.3296 34.443996 
L 108.9792 38.204913 
L 111.6288 38.732936 
L 114.2784 38.110701 
L 116.928 37.742241 
L 119.5776 38.107455 
L 122.2272 38.362173 
L 124.8768 37.549258 
L 127.5264 36.153385 
L 130.176 36.969921 
L 132.8256 36.725282 
L 135.4752 35.974009 
L 138.1248 35.66572 
L 140.7744 34.88989 
L 143.424 34.920103 
L 146.0736 34.645303 
L 148.7232 34.242646 
L 151.3728 33.705961 
L 154.0224 33.4512 
L 156.672 33.292872 
L 159.3216 33.085014 
L 161.9712 32.419585 
L 164.6208 32.067334 
L 167.2704 31.326305 
L 169.92 30.294601 
" style="fill:none;stroke:#bcbd22;stroke-linecap:square;stroke-width:0.5;"/>
   </g>
   <g id="line2d_5">
    <path clip-path="url(#p334bce01de)" d="M 15.156864 55.826496 
L 41.652864 55.826496 
" style="fill:none;stroke:#000000;stroke-linecap:square;stroke-width:1.25;"/>
   </g>
   <g id="line2d_6">
    <path clip-path="url(#p334bce01de)" d="M 15.156864 55.826496 
L 15.156864 37.038046 
" style="fill:none;stroke:#000000;stroke-linecap:square;stroke-width:1.25;"/>
   </g>
   <g id="text_1">
    <text style="font-family:DejaVu Sans;font-size:6px;font-stretch:normal;font-style:normal;font-weight:normal;text-anchor:middle;" transform="rotate(-0, 28.404864, 63.205078)" x="28.404864" y="63.205078">100 ms</text>
   </g>
   <g id="text_2">
    <text style="font-family:DejaVu Sans;font-size:6px;font-stretch:normal;font-style:normal;font-weight:normal;" transform="translate(6.092731 64.13274)rotate(-90)">0.15 cm/ms</text>
   </g>
   <g id="legend_1">
    <g id="line2d_7">
     <path d="M 100.336875 7.859063 
L 112.336875 7.859063 
" style="fill:none;stroke:#9467bd;stroke-linecap:square;stroke-width:0.5;"/>
    </g>
    <g id="line2d_8"/>
    <g id="text_3">
     <text style="font-family:DejaVu Sans;font-size:6px;font-stretch:normal;font-style:normal;font-weight:normal;text-anchor:start;" transform="rotate(-0, 117.136875, 9.959063)" x="117.136875" y="9.959063">left wrist joint</text>
    </g>
    <g id="line2d_9">
     <path d="M 100.336875 16.665938 
L 112.336875 16.665938 
" style="fill:none;stroke:#d62728;stroke-linecap:square;stroke-width:0.5;"/>
    </g>
    <g id="line2d_10"/>
    <g id="text_4">
     <text style="font-family:DejaVu Sans;font-size:6px;font-stretch:normal;font-style:normal;font-weight:normal;text-anchor:start;" transform="rotate(-0, 117.136875, 18.765938)" x="117.136875" y="18.765938">right wrist joint</text>
    </g>
    <g id="line2d_11">
     <path d="M 100.336875 25.472812 
L 112.336875 25.472812 
" style="fill:none;stroke:#17becf;stroke-linecap:square;stroke-width:0.5;"/>
    </g>
    <g id="line2d_12"/>
    <g id="text_5">
     <text style="font-family:DejaVu Sans;font-size:6px;font-stretch:normal;font-style:normal;font-weight:normal;text-anchor:start;" transform="rotate(-0, 117.136875, 27.572812)" x="117.136875" y="27.572812">left ankle joint</text>
    </g>
    <g id="line2d_13">
     <path d="M 100.336875 34.279688 
L 112.336875 34.279688 
" style="fill:none;stroke:#bcbd22;stroke-linecap:square;stroke-width:0.5;"/>
    </g>
    <g id="line2d_14"/>
    <g id="text_6">
     <text style="font-family:DejaVu Sans;font-size:6px;font-stretch:normal;font-style:normal;font-weight:normal;text-anchor:start;" transform="rotate(-0, 117.136875, 36.379688)" x="117.136875" y="36.379688">right ankle joint</text>
    </g>
   </g>
  </g>
 </g>
 <defs>
  <clipPath id="p334bce01de">
   <rect height="56.3904" width="156.3264" x="13.5936" y="0"/>
  </clipPath>
 </defs>
</svg>
