<?xml version="1.0" encoding="utf-8" standalone="no"?>
<!DOCTYPE svg PUBLIC "-//W3C//DTD SVG 1.1//EN"
  "http://www.w3.org/Graphics/SVG/1.1/DTD/svg11.dtd">
<!-- Created with matplotlib (https://matplotlib.org/) -->
<svg height="64.08pt" version="1.1" viewBox="0 0 169.92 64.08" width="169.92pt" xmlns="http://www.w3.org/2000/svg" xmlns:xlink="http://www.w3.org/1999/xlink">
 <metadata>
  <rdf:RDF xmlns:cc="http://creativecommons.org/ns#" xmlns:dc="http://purl.org/dc/elements/1.1/" xmlns:rdf="http://www.w3.org/1999/02/22-rdf-syntax-ns#">
   <cc:Work>
    <dc:type rdf:resource="http://purl.org/dc/dcmitype/StillImage"/>
    <dc:date>2022-04-01T08:09:55.424196</dc:date>
    <dc:format>image/svg+xml</dc:format>
    <dc:creator>
     <cc:Agent>
      <dc:title>Matplotlib v3.3.1, https://matplotlib.org/</dc:title>
     </cc:Agent>
    </dc:creator>
   </cc:Work>
  </rdf:RDF>
 </metadata>
 <defs>
  <style type="text/css">*{stroke-linecap:butt;stroke-linejoin:round;}</style>
 </defs>
 <g id="figure_1">
  <g id="patch_1">
   <path d="M 0 64.08 
L 169.92 64.08 
L 169.92 0 
L 0 0 
z
" style="fill:none;"/>
  </g>
  <g id="axes_1">
   <g id="PolyCollection_1">
    <defs>
     <path d="M 13.5936 -38.51884 
L 13.5936 -35.699875 
L 16.2432 -35.491033 
L 18.8928 -35.356453 
L 21.5424 -35.174611 
L 24.192 -34.810729 
L 26.8416 -34.494537 
L 29.4912 -34.11841 
L 32.1408 -33.685556 
L 34.7904 -33.343794 
L 37.44 -33.070794 
L 40.0896 -32.981662 
L 42.7392 -33.058163 
L 45.3888 -33.09547 
L 48.0384 -32.843182 
L 50.688 -32.703449 
L 53.3376 -32.925612 
L 55.9872 -33.257254 
L 58.6368 -33.749999 
L 61.2864 -34.454785 
L 63.936 -35.431459 
L 66.5856 -36.986555 
L 69.2352 -38.634462 
L 71.8848 -40.185031 
L 74.5344 -41.070406 
L 77.184 -41.6301 
L 79.8336 -41.772455 
L 82.4832 -40.426527 
L 85.1328 -38.043557 
L 87.7824 -36.222077 
L 90.432 -35.274249 
L 93.0816 -35.011806 
L 95.7312 -34.99013 
L 98.3808 -34.908059 
L 101.0304 -35.40754 
L 103.68 -37.660456 
L 106.3296 -39.46551 
L 108.9792 -39.332277 
L 111.6288 -39.3704 
L 114.2784 -39.382221 
L 116.928 -38.758848 
L 119.5776 -38.034945 
L 122.2272 -37.627489 
L 124.8768 -38.671397 
L 127.5264 -39.42704 
L 130.176 -40.749991 
L 132.8256 -42.839414 
L 135.4752 -44.843784 
L 138.1248 -46.900796 
L 140.7744 -47.978331 
L 143.424 -48.150351 
L 146.0736 -47.554201 
L 148.7232 -46.866077 
L 151.3728 -46.03719 
L 154.0224 -45.345353 
L 156.672 -44.634052 
L 159.3216 -44.067163 
L 161.9712 -43.247277 
L 164.6208 -41.780863 
L 167.2704 -40.108455 
L 169.92 -39.279381 
L 169.92 -40.989079 
L 169.92 -40.989079 
L 167.2704 -41.842679 
L 164.6208 -44.750007 
L 161.9712 -46.687599 
L 159.3216 -47.96084 
L 156.672 -48.686141 
L 154.0224 -49.474291 
L 151.3728 -50.256614 
L 148.7232 -51.12673 
L 146.0736 -51.845405 
L 143.424 -52.524673 
L 140.7744 -52.370574 
L 138.1248 -51.332666 
L 135.4752 -49.178453 
L 132.8256 -47.161911 
L 130.176 -44.985336 
L 127.5264 -43.541367 
L 124.8768 -42.817206 
L 122.2272 -41.753277 
L 119.5776 -42.381673 
L 116.928 -43.105154 
L 114.2784 -43.544653 
L 111.6288 -43.231877 
L 108.9792 -42.725522 
L 106.3296 -41.966355 
L 103.68 -40.020532 
L 101.0304 -37.201878 
L 98.3808 -36.636007 
L 95.7312 -36.736546 
L 93.0816 -36.854561 
L 90.432 -37.314788 
L 87.7824 -38.896994 
L 85.1328 -41.454001 
L 82.4832 -44.375005 
L 79.8336 -45.993866 
L 77.184 -45.978365 
L 74.5344 -45.557451 
L 71.8848 -44.700317 
L 69.2352 -42.918058 
L 66.5856 -40.991301 
L 63.936 -39.078141 
L 61.2864 -37.614912 
L 58.6368 -36.700693 
L 55.9872 -36.108665 
L 53.3376 -35.901509 
L 50.688 -35.95428 
L 48.0384 -36.565907 
L 45.3888 -36.960665 
L 42.7392 -36.909197 
L 40.0896 -36.728309 
L 37.44 -36.757533 
L 34.7904 -36.856187 
L 32.1408 -36.889776 
L 29.4912 -36.987086 
L 26.8416 -37.181738 
L 24.192 -37.477782 
L 21.5424 -37.993789 
L 18.8928 -38.471633 
L 16.2432 -38.530825 
L 13.5936 -38.51884 
z
" id="mf5d93e2730" style="stroke:#9467bd;stroke-opacity:0.2;stroke-width:0.5;"/>
    </defs>
    <g clip-path="url(#pfc5bb69482)">
     <use style="fill:#9467bd;fill-opacity:0.2;stroke:#9467bd;stroke-opacity:0.2;stroke-width:0.5;" x="0" xlink:href="#mf5d93e2730" y="64.08"/>
    </g>
   </g>
   <g id="PolyCollection_2">
    <defs>
     <path d="M 13.5936 -49.346228 
L 13.5936 -43.160194 
L 16.2432 -42.899317 
L 18.8928 -43.36656 
L 21.5424 -43.948164 
L 24.192 -44.690293 
L 26.8416 -45.387711 
L 29.4912 -45.839588 
L 32.1408 -45.327728 
L 34.7904 -44.002127 
L 37.44 -41.976409 
L 40.0896 -39.215231 
L 42.7392 -36.12897 
L 45.3888 -33.721192 
L 48.0384 -31.811292 
L 50.688 -30.732586 
L 53.3376 -30.516886 
L 55.9872 -30.789474 
L 58.6368 -30.880577 
L 61.2864 -31.719061 
L 63.936 -32.226978 
L 66.5856 -32.818064 
L 69.2352 -33.058016 
L 71.8848 -33.235287 
L 74.5344 -33.914924 
L 77.184 -36.678059 
L 79.8336 -39.889811 
L 82.4832 -43.2406 
L 85.1328 -45.637795 
L 87.7824 -47.561796 
L 90.432 -48.49596 
L 93.0816 -48.571905 
L 95.7312 -47.221658 
L 98.3808 -46.433633 
L 101.0304 -45.528199 
L 103.68 -44.197722 
L 106.3296 -42.824048 
L 108.9792 -41.243315 
L 111.6288 -39.331502 
L 114.2784 -38.105416 
L 116.928 -37.559829 
L 119.5776 -37.478074 
L 122.2272 -37.441654 
L 124.8768 -37.387345 
L 127.5264 -37.53203 
L 130.176 -38.010094 
L 132.8256 -37.526633 
L 135.4752 -37.349564 
L 138.1248 -36.953221 
L 140.7744 -36.423522 
L 143.424 -35.912459 
L 146.0736 -35.732877 
L 148.7232 -35.771866 
L 151.3728 -36.487332 
L 154.0224 -38.01379 
L 156.672 -39.9535 
L 159.3216 -41.728269 
L 161.9712 -43.279668 
L 164.6208 -43.862145 
L 167.2704 -43.753704 
L 169.92 -42.483289 
L 169.92 -44.509137 
L 169.92 -44.509137 
L 167.2704 -46.34873 
L 164.6208 -46.600869 
L 161.9712 -46.1017 
L 159.3216 -44.648949 
L 156.672 -42.744984 
L 154.0224 -40.684706 
L 151.3728 -38.485277 
L 148.7232 -37.433107 
L 146.0736 -37.417023 
L 143.424 -37.560843 
L 140.7744 -38.021921 
L 138.1248 -38.571289 
L 135.4752 -38.996151 
L 132.8256 -39.220687 
L 130.176 -39.901361 
L 127.5264 -39.475974 
L 124.8768 -39.285545 
L 122.2272 -39.447092 
L 119.5776 -39.543449 
L 116.928 -39.884418 
L 114.2784 -41.053951 
L 111.6288 -43.25806 
L 108.9792 -45.744824 
L 106.3296 -47.616626 
L 103.68 -49.228088 
L 101.0304 -50.59026 
L 98.3808 -51.371837 
L 95.7312 -52.073327 
L 93.0816 -52.882161 
L 90.432 -52.577205 
L 87.7824 -51.521095 
L 85.1328 -49.474985 
L 82.4832 -47.012507 
L 79.8336 -43.414668 
L 77.184 -39.478269 
L 74.5344 -35.388404 
L 71.8848 -34.562074 
L 69.2352 -34.368805 
L 66.5856 -34.062686 
L 63.936 -33.679743 
L 61.2864 -33.294718 
L 58.6368 -32.2992 
L 55.9872 -32.061518 
L 53.3376 -31.939795 
L 50.688 -32.659777 
L 48.0384 -34.732836 
L 45.3888 -37.73404 
L 42.7392 -40.979073 
L 40.0896 -44.671209 
L 37.44 -47.740686 
L 34.7904 -50.074527 
L 32.1408 -51.413063 
L 29.4912 -52.064354 
L 26.8416 -51.786519 
L 24.192 -51.078257 
L 21.5424 -50.422907 
L 18.8928 -49.696587 
L 16.2432 -49.305352 
L 13.5936 -49.346228 
z
" id="m2d9c1eb618" style="stroke:#d62728;stroke-opacity:0.2;stroke-width:0.5;"/>
    </defs>
    <g clip-path="url(#pfc5bb69482)">
     <use style="fill:#d62728;fill-opacity:0.2;stroke:#d62728;stroke-opacity:0.2;stroke-width:0.5;" x="0" xlink:href="#m2d9c1eb618" y="64.08"/>
    </g>
   </g>
   <g id="PolyCollection_3">
    <defs>
     <path d="M 13.5936 -42.995197 
L 13.5936 -40.627225 
L 16.2432 -42.432063 
L 18.8928 -44.149812 
L 21.5424 -45.647323 
L 24.192 -46.436258 
L 26.8416 -48.220211 
L 29.4912 -50.197841 
L 32.1408 -51.660694 
L 34.7904 -52.439297 
L 37.44 -52.161571 
L 40.0896 -50.948596 
L 42.7392 -49.927493 
L 45.3888 -49.353746 
L 48.0384 -48.391955 
L 50.688 -48.364818 
L 53.3376 -49.509781 
L 55.9872 -49.507279 
L 58.6368 -45.272311 
L 61.2864 -37.278527 
L 63.936 -28.669458 
L 66.5856 -22.173508 
L 69.2352 -19.626056 
L 71.8848 -20.490012 
L 74.5344 -23.146371 
L 77.184 -27.547319 
L 79.8336 -32.870672 
L 82.4832 -37.302499 
L 85.1328 -40.058149 
L 87.7824 -44.343339 
L 90.432 -48.600791 
L 93.0816 -52.231318 
L 95.7312 -52.986414 
L 98.3808 -51.337765 
L 101.0304 -49.59979 
L 103.68 -48.002147 
L 106.3296 -45.641765 
L 108.9792 -43.661946 
L 111.6288 -42.733526 
L 114.2784 -42.98109 
L 116.928 -44.424588 
L 119.5776 -48.863305 
L 122.2272 -51.626196 
L 124.8768 -46.116994 
L 127.5264 -39.896712 
L 130.176 -32.304142 
L 132.8256 -26.208547 
L 135.4752 -21.300768 
L 138.1248 -19.91697 
L 140.7744 -21.438568 
L 143.424 -22.785348 
L 146.0736 -24.933617 
L 148.7232 -27.43594 
L 151.3728 -30.165099 
L 154.0224 -32.422722 
L 156.672 -34.904754 
L 159.3216 -36.89722 
L 161.9712 -39.237339 
L 164.6208 -41.663164 
L 167.2704 -41.299784 
L 169.92 -42.363747 
L 169.92 -46.81178 
L 169.92 -46.81178 
L 167.2704 -43.879531 
L 164.6208 -43.773409 
L 161.9712 -41.217582 
L 159.3216 -38.973835 
L 156.672 -36.65822 
L 154.0224 -34.061856 
L 151.3728 -31.7651 
L 148.7232 -28.959548 
L 146.0736 -26.44322 
L 143.424 -24.368371 
L 140.7744 -23.086215 
L 138.1248 -21.594466 
L 135.4752 -22.931903 
L 132.8256 -27.624859 
L 130.176 -33.668357 
L 127.5264 -41.268632 
L 124.8768 -47.666391 
L 122.2272 -52.858635 
L 119.5776 -51.515962 
L 116.928 -47.491483 
L 114.2784 -46.165308 
L 111.6288 -45.885044 
L 108.9792 -46.806227 
L 106.3296 -48.826463 
L 103.68 -51.112342 
L 101.0304 -52.668536 
L 98.3808 -54.111038 
L 95.7312 -54.970543 
L 93.0816 -54.712633 
L 90.432 -52.753704 
L 87.7824 -49.078636 
L 85.1328 -44.476912 
L 82.4832 -39.516826 
L 79.8336 -34.854656 
L 77.184 -29.530256 
L 74.5344 -24.966232 
L 71.8848 -22.332153 
L 69.2352 -21.446757 
L 66.5856 -23.926089 
L 63.936 -30.25492 
L 61.2864 -38.826842 
L 58.6368 -46.747185 
L 55.9872 -50.770403 
L 53.3376 -50.9745 
L 50.688 -50.331848 
L 48.0384 -50.367609 
L 45.3888 -51.090201 
L 42.7392 -51.68384 
L 40.0896 -52.620638 
L 37.44 -53.626978 
L 34.7904 -53.851901 
L 32.1408 -53.819914 
L 29.4912 -52.306256 
L 26.8416 -51.575644 
L 24.192 -50.008329 
L 21.5424 -48.012522 
L 18.8928 -46.499854 
L 16.2432 -44.830844 
L 13.5936 -42.995197 
z
" id="m59866d0624" style="stroke:#17becf;stroke-opacity:0.2;stroke-width:0.5;"/>
    </defs>
    <g clip-path="url(#pfc5bb69482)">
     <use style="fill:#17becf;fill-opacity:0.2;stroke:#17becf;stroke-opacity:0.2;stroke-width:0.5;" x="0" xlink:href="#m59866d0624" y="64.08"/>
    </g>
   </g>
   <g id="PolyCollection_4">
    <defs>
     <path d="M 13.5936 -50.029045 
L 13.5936 -48.604893 
L 16.2432 -48.677821 
L 18.8928 -45.073515 
L 21.5424 -39.038445 
L 24.192 -32.449027 
L 26.8416 -26.982312 
L 29.4912 -24.021287 
L 32.1408 -23.815178 
L 34.7904 -25.001969 
L 37.44 -26.854294 
L 40.0896 -29.35395 
L 42.7392 -32.307897 
L 45.3888 -35.331022 
L 48.0384 -37.072555 
L 50.688 -39.106544 
L 53.3376 -41.539387 
L 55.9872 -43.304217 
L 58.6368 -44.999516 
L 61.2864 -46.519532 
L 63.936 -47.095004 
L 66.5856 -47.243673 
L 69.2352 -46.758377 
L 71.8848 -45.955266 
L 74.5344 -44.502694 
L 77.184 -43.649817 
L 79.8336 -43.048628 
L 82.4832 -42.964574 
L 85.1328 -43.49772 
L 87.7824 -47.384703 
L 90.432 -51.9842 
L 93.0816 -51.157226 
L 95.7312 -45.394894 
L 98.3808 -38.388989 
L 101.0304 -32.380725 
L 103.68 -28.793679 
L 106.3296 -27.687012 
L 108.9792 -29.978095 
L 111.6288 -33.528135 
L 114.2784 -36.89773 
L 116.928 -39.928305 
L 119.5776 -42.769473 
L 122.2272 -45.668424 
L 124.8768 -47.297555 
L 127.5264 -47.940671 
L 130.176 -48.588937 
L 132.8256 -48.698318 
L 135.4752 -48.314052 
L 138.1248 -47.615604 
L 140.7744 -47.196004 
L 143.424 -46.583833 
L 146.0736 -45.887734 
L 148.7232 -44.989835 
L 151.3728 -44.706418 
L 154.0224 -44.216401 
L 156.672 -43.811785 
L 159.3216 -43.551661 
L 161.9712 -43.927298 
L 164.6208 -44.829212 
L 167.2704 -45.672017 
L 169.92 -48.64499 
L 169.92 -50.570116 
L 169.92 -50.570116 
L 167.2704 -47.583701 
L 164.6208 -46.62388 
L 161.9712 -45.638702 
L 159.3216 -45.220677 
L 156.672 -45.391052 
L 154.0224 -45.754062 
L 151.3728 -46.173858 
L 148.7232 -46.410298 
L 146.0736 -47.258643 
L 143.424 -47.982964 
L 140.7744 -48.619561 
L 138.1248 -49.01808 
L 135.4752 -49.736101 
L 132.8256 -50.111219 
L 130.176 -50.147334 
L 127.5264 -49.605253 
L 124.8768 -49.099993 
L 122.2272 -47.61524 
L 119.5776 -44.850978 
L 116.928 -41.930608 
L 114.2784 -39.008405 
L 111.6288 -35.712885 
L 108.9792 -32.290811 
L 106.3296 -30.005583 
L 103.68 -31.044831 
L 101.0304 -34.503026 
L 98.3808 -40.147623 
L 95.7312 -47.2383 
L 93.0816 -53.093873 
L 90.432 -53.444067 
L 87.7824 -49.348299 
L 85.1328 -45.253077 
L 82.4832 -44.510828 
L 79.8336 -44.550166 
L 77.184 -45.075943 
L 74.5344 -45.888167 
L 71.8848 -47.302056 
L 69.2352 -48.09817 
L 66.5856 -48.573425 
L 63.936 -48.457216 
L 61.2864 -47.969049 
L 58.6368 -46.597244 
L 55.9872 -45.02353 
L 53.3376 -43.322117 
L 50.688 -41.04083 
L 48.0384 -39.058296 
L 45.3888 -37.415598 
L 42.7392 -34.469295 
L 40.0896 -31.232734 
L 37.44 -28.860208 
L 34.7904 -27.077573 
L 32.1408 -26.00087 
L 29.4912 -26.124677 
L 26.8416 -28.96637 
L 24.192 -34.244165 
L 21.5424 -40.762656 
L 18.8928 -46.861531 
L 16.2432 -50.334523 
L 13.5936 -50.029045 
z
" id="m5da45d841e" style="stroke:#bcbd22;stroke-opacity:0.2;stroke-width:0.5;"/>
    </defs>
    <g clip-path="url(#pfc5bb69482)">
     <use style="fill:#bcbd22;fill-opacity:0.2;stroke:#bcbd22;stroke-opacity:0.2;stroke-width:0.5;" x="0" xlink:href="#m5da45d841e" y="64.08"/>
    </g>
   </g>
   <g id="line2d_1">
    <path clip-path="url(#pfc5bb69482)" d="M 13.5936 26.970643 
L 16.2432 27.069071 
L 18.8928 27.165957 
L 21.5424 27.4958 
L 24.192 27.935745 
L 26.8416 28.241863 
L 29.4912 28.527252 
L 32.1408 28.792334 
L 34.7904 28.980009 
L 37.44 29.165836 
L 40.0896 29.225015 
L 42.7392 29.09632 
L 45.3888 29.051933 
L 48.0384 29.375456 
L 50.688 29.751136 
L 53.3376 29.66644 
L 55.9872 29.397041 
L 58.6368 28.854654 
L 61.2864 28.045152 
L 63.936 26.8252 
L 66.5856 25.091072 
L 69.2352 23.30374 
L 71.8848 21.637326 
L 74.5344 20.766072 
L 77.184 20.275767 
L 79.8336 20.19684 
L 82.4832 21.679234 
L 85.1328 24.331221 
L 87.7824 26.520464 
L 90.432 27.785482 
L 93.0816 28.146817 
L 95.7312 28.216662 
L 98.3808 28.307967 
L 101.0304 27.775291 
L 103.68 25.239506 
L 106.3296 23.364067 
L 108.9792 23.0511 
L 111.6288 22.778861 
L 114.2784 22.616563 
L 116.928 23.147999 
L 119.5776 23.871691 
L 122.2272 24.389617 
L 124.8768 23.335698 
L 127.5264 22.595796 
L 130.176 21.212336 
L 132.8256 19.079338 
L 135.4752 17.068881 
L 138.1248 14.963269 
L 140.7744 13.905548 
L 143.424 13.742488 
L 146.0736 14.380197 
L 148.7232 15.083597 
L 151.3728 15.933098 
L 154.0224 16.670178 
L 156.672 17.419904 
L 159.3216 18.065998 
L 161.9712 19.112562 
L 164.6208 20.814565 
L 167.2704 23.104433 
L 169.92 23.94577 
" style="fill:none;stroke:#9467bd;stroke-linecap:square;stroke-width:0.5;"/>
   </g>
   <g id="line2d_2">
    <path clip-path="url(#pfc5bb69482)" d="M 13.5936 17.826789 
L 16.2432 17.977665 
L 18.8928 17.548427 
L 21.5424 16.894464 
L 24.192 16.195725 
L 26.8416 15.492885 
L 29.4912 15.128029 
L 32.1408 15.709604 
L 34.7904 17.041673 
L 37.44 19.221452 
L 40.0896 22.13678 
L 42.7392 25.525979 
L 45.3888 28.352384 
L 48.0384 30.807936 
L 50.688 32.383819 
L 53.3376 32.85166 
L 55.9872 32.654504 
L 58.6368 32.490112 
L 61.2864 31.573111 
L 63.936 31.126639 
L 66.5856 30.639625 
L 69.2352 30.366589 
L 71.8848 30.181319 
L 74.5344 29.428336 
L 77.184 26.001836 
L 79.8336 22.42776 
L 82.4832 18.953446 
L 85.1328 16.52361 
L 87.7824 14.538555 
L 90.432 13.543418 
L 93.0816 13.352967 
L 95.7312 14.432508 
L 98.3808 15.177265 
L 101.0304 16.02077 
L 103.68 17.367095 
L 106.3296 18.859663 
L 108.9792 20.585931 
L 111.6288 22.785219 
L 114.2784 24.500317 
L 116.928 25.357876 
L 119.5776 25.569239 
L 122.2272 25.635627 
L 124.8768 25.743555 
L 127.5264 25.575998 
L 130.176 25.124272 
L 132.8256 25.70634 
L 135.4752 25.907142 
L 138.1248 26.317745 
L 140.7744 26.857279 
L 143.424 27.343349 
L 146.0736 27.50505 
L 148.7232 27.477513 
L 151.3728 26.593695 
L 154.0224 24.730752 
L 156.672 22.730758 
L 159.3216 20.891391 
L 161.9712 19.389316 
L 164.6208 18.848493 
L 167.2704 19.028783 
L 169.92 20.583787 
" style="fill:none;stroke:#d62728;stroke-linecap:square;stroke-width:0.5;"/>
   </g>
   <g id="line2d_3">
    <path clip-path="url(#pfc5bb69482)" d="M 13.5936 22.268789 
L 16.2432 20.448546 
L 18.8928 18.755167 
L 21.5424 17.250078 
L 24.192 15.857706 
L 26.8416 14.182073 
L 29.4912 12.827951 
L 32.1408 11.339696 
L 34.7904 10.934401 
L 37.44 11.185726 
L 40.0896 12.295383 
L 42.7392 13.274334 
L 45.3888 13.858026 
L 48.0384 14.700218 
L 50.688 14.731667 
L 53.3376 13.837859 
L 55.9872 13.941159 
L 58.6368 18.070252 
L 61.2864 26.027315 
L 63.936 34.617811 
L 66.5856 41.030201 
L 69.2352 43.543594 
L 71.8848 42.668917 
L 74.5344 40.023699 
L 77.184 35.541212 
L 79.8336 30.217336 
L 82.4832 25.670337 
L 85.1328 21.812469 
L 87.7824 17.369012 
L 90.432 13.402753 
L 93.0816 10.608025 
L 95.7312 10.101522 
L 98.3808 11.355598 
L 101.0304 12.945837 
L 103.68 14.522756 
L 106.3296 16.845886 
L 108.9792 18.845913 
L 111.6288 19.770715 
L 114.2784 19.506801 
L 116.928 18.121965 
L 119.5776 13.890367 
L 122.2272 11.837585 
L 124.8768 17.188307 
L 127.5264 23.497328 
L 130.176 31.09375 
L 132.8256 37.163297 
L 135.4752 41.963665 
L 138.1248 43.324282 
L 140.7744 41.817609 
L 143.424 40.503141 
L 146.0736 38.391582 
L 148.7232 35.882256 
L 151.3728 33.114901 
L 154.0224 30.837711 
L 156.672 28.298513 
L 159.3216 26.144473 
L 161.9712 23.85254 
L 164.6208 21.361714 
L 167.2704 21.490343 
L 169.92 19.492237 
" style="fill:none;stroke:#17becf;stroke-linecap:square;stroke-width:0.5;"/>
   </g>
   <g id="line2d_4">
    <path clip-path="url(#pfc5bb69482)" d="M 13.5936 14.763031 
L 16.2432 14.573828 
L 18.8928 18.112477 
L 21.5424 24.179449 
L 24.192 30.733404 
L 26.8416 36.105659 
L 29.4912 39.007018 
L 32.1408 39.171976 
L 34.7904 38.040229 
L 37.44 36.222749 
L 40.0896 33.786658 
L 42.7392 30.691404 
L 45.3888 27.70669 
L 48.0384 26.014574 
L 50.688 24.006313 
L 53.3376 21.649248 
L 55.9872 19.916127 
L 58.6368 18.28162 
L 61.2864 16.835709 
L 63.936 16.30389 
L 66.5856 16.171451 
L 69.2352 16.651726 
L 71.8848 17.451339 
L 74.5344 18.884569 
L 77.184 19.71712 
L 79.8336 20.280603 
L 82.4832 20.342299 
L 85.1328 19.704602 
L 87.7824 15.713499 
L 90.432 11.365867 
L 93.0816 11.954451 
L 95.7312 17.763403 
L 98.3808 24.811694 
L 101.0304 30.638124 
L 103.68 34.160745 
L 106.3296 35.233703 
L 108.9792 32.945547 
L 111.6288 29.45949 
L 114.2784 26.126932 
L 116.928 23.150544 
L 119.5776 20.269774 
L 122.2272 17.438168 
L 124.8768 15.881226 
L 127.5264 15.307038 
L 130.176 14.711865 
L 132.8256 14.675231 
L 135.4752 15.054923 
L 138.1248 15.763158 
L 140.7744 16.172217 
L 143.424 16.796602 
L 146.0736 17.506811 
L 148.7232 18.379934 
L 151.3728 18.639862 
L 154.0224 19.094769 
L 156.672 19.478581 
L 159.3216 19.693831 
L 161.9712 19.297 
L 164.6208 18.353454 
L 167.2704 17.452141 
L 169.92 14.472447 
" style="fill:none;stroke:#bcbd22;stroke-linecap:square;stroke-width:0.5;"/>
   </g>
   <g id="line2d_5">
    <path clip-path="url(#pfc5bb69482)" d="M 15.156864 55.826496 
L 41.652864 55.826496 
" style="fill:none;stroke:#000000;stroke-linecap:square;stroke-width:1.25;"/>
   </g>
   <g id="line2d_6">
    <path clip-path="url(#pfc5bb69482)" d="M 15.156864 55.826496 
L 15.156864 38.229242 
" style="fill:none;stroke:#000000;stroke-linecap:square;stroke-width:1.25;"/>
   </g>
   <g id="text_1">
    <text style="font-family:DejaVu Sans;font-size:6px;font-stretch:normal;font-style:normal;font-weight:normal;text-anchor:middle;" transform="rotate(-0, 28.404864, 63.205078)" x="28.404864" y="63.205078">100 ms</text>
   </g>
   <g id="text_2">
    <text style="font-family:DejaVu Sans;font-size:6px;font-stretch:normal;font-style:normal;font-weight:normal;" transform="translate(6.092731 57.453807)rotate(-90)">40 deg</text>
   </g>
   <g id="legend_1">
    <g id="line2d_7">
     <path d="M 100.336875 7.859063 
L 112.336875 7.859063 
" style="fill:none;stroke:#9467bd;stroke-linecap:square;stroke-width:0.5;"/>
    </g>
    <g id="line2d_8"/>
    <g id="text_3">
     <text style="font-family:DejaVu Sans;font-size:6px;font-stretch:normal;font-style:normal;font-weight:normal;text-anchor:start;" transform="rotate(-0, 117.136875, 9.959063)" x="117.136875" y="9.959063">left wrist joint</text>
    </g>
    <g id="line2d_9">
     <path d="M 100.336875 16.665938 
L 112.336875 16.665938 
" style="fill:none;stroke:#d62728;stroke-linecap:square;stroke-width:0.5;"/>
    </g>
    <g id="line2d_10"/>
    <g id="text_4">
     <text style="font-family:DejaVu Sans;font-size:6px;font-stretch:normal;font-style:normal;font-weight:normal;text-anchor:start;" transform="rotate(-0, 117.136875, 18.765938)" x="117.136875" y="18.765938">right wrist joint</text>
    </g>
    <g id="line2d_11">
     <path d="M 100.336875 25.472812 
L 112.336875 25.472812 
" style="fill:none;stroke:#17becf;stroke-linecap:square;stroke-width:0.5;"/>
    </g>
    <g id="line2d_12"/>
    <g id="text_5">
     <text style="font-family:DejaVu Sans;font-size:6px;font-stretch:normal;font-style:normal;font-weight:normal;text-anchor:start;" transform="rotate(-0, 117.136875, 27.572812)" x="117.136875" y="27.572812">left ankle joint</text>
    </g>
    <g id="line2d_13">
     <path d="M 100.336875 34.279688 
L 112.336875 34.279688 
" style="fill:none;stroke:#bcbd22;stroke-linecap:square;stroke-width:0.5;"/>
    </g>
    <g id="line2d_14"/>
    <g id="text_6">
     <text style="font-family:DejaVu Sans;font-size:6px;font-stretch:normal;font-style:normal;font-weight:normal;text-anchor:start;" transform="rotate(-0, 117.136875, 36.379688)" x="117.136875" y="36.379688">right ankle joint</text>
    </g>
   </g>
  </g>
 </g>
 <defs>
  <clipPath id="pfc5bb69482">
   <rect height="56.3904" width="156.3264" x="13.5936" y="0"/>
  </clipPath>
 </defs>
</svg>
