<?xml version="1.0" encoding="utf-8" standalone="no"?>
<!DOCTYPE svg PUBLIC "-//W3C//DTD SVG 1.1//EN"
  "http://www.w3.org/Graphics/SVG/1.1/DTD/svg11.dtd">
<!-- Created with matplotlib (https://matplotlib.org/) -->
<svg height="64.08pt" version="1.1" viewBox="0 0 84.96 64.08" width="84.96pt" xmlns="http://www.w3.org/2000/svg" xmlns:xlink="http://www.w3.org/1999/xlink">
 <metadata>
  <rdf:RDF xmlns:cc="http://creativecommons.org/ns#" xmlns:dc="http://purl.org/dc/elements/1.1/" xmlns:rdf="http://www.w3.org/1999/02/22-rdf-syntax-ns#">
   <cc:Work>
    <dc:type rdf:resource="http://purl.org/dc/dcmitype/StillImage"/>
    <dc:date>2022-04-01T08:09:55.757847</dc:date>
    <dc:format>image/svg+xml</dc:format>
    <dc:creator>
     <cc:Agent>
      <dc:title>Matplotlib v3.3.1, https://matplotlib.org/</dc:title>
     </cc:Agent>
    </dc:creator>
   </cc:Work>
  </rdf:RDF>
 </metadata>
 <defs>
  <style type="text/css">*{stroke-linecap:butt;stroke-linejoin:round;}</style>
 </defs>
 <g id="figure_1">
  <g id="patch_1">
   <path d="M 0 64.08 
L 84.96 64.08 
L 84.96 0 
L 0 0 
z
" style="fill:none;"/>
  </g>
  <g id="axes_1">
   <g id="patch_2">
    <path d="M 28.8 42.48 
L 77.76 42.48 
L 77.76 1.8 
L 28.8 1.8 
z
" style="fill:none;"/>
   </g>
   <g id="matplotlib.axis_1">
    <g id="xtick_1">
     <g id="line2d_1">
      <defs>
       <path d="M 0 0 
L 0 3.5 
" id="m4df098edff" style="stroke:#000000;stroke-width:0.8;"/>
      </defs>
      <g>
       <use style="stroke:#000000;stroke-width:0.8;" x="28.8" xlink:href="#m4df098edff" y="42.48"/>
      </g>
     </g>
     <g id="text_1">
      <text style="font-family:DejaVu Sans;font-size:6px;font-stretch:normal;font-style:normal;font-weight:normal;text-anchor:middle;" transform="rotate(-0, 28.8, 54.039062)" x="28.8" y="54.039062">0</text>
     </g>
    </g>
    <g id="xtick_2">
     <g id="line2d_2">
      <g>
       <use style="stroke:#000000;stroke-width:0.8;" x="53.28" xlink:href="#m4df098edff" y="42.48"/>
      </g>
     </g>
     <g id="text_2">
      <text style="font-family:DejaVu Sans;font-size:6px;font-stretch:normal;font-style:normal;font-weight:normal;text-anchor:middle;" transform="rotate(-0, 53.28, 54.039062)" x="53.28" y="54.039062">15</text>
     </g>
    </g>
    <g id="xtick_3">
     <g id="line2d_3">
      <g>
       <use style="stroke:#000000;stroke-width:0.8;" x="77.76" xlink:href="#m4df098edff" y="42.48"/>
      </g>
     </g>
     <g id="text_3">
      <text style="font-family:DejaVu Sans;font-size:6px;font-stretch:normal;font-style:normal;font-weight:normal;text-anchor:middle;" transform="rotate(-0, 77.76, 54.039062)" x="77.76" y="54.039062">30</text>
     </g>
    </g>
    <g id="text_4">
     <text style="font-family:DejaVu Sans;font-size:6px;font-stretch:normal;font-style:normal;font-weight:normal;text-anchor:middle;" transform="rotate(-0, 53.28, 61.752187)" x="53.28" y="61.752187">frequency (Hz)</text>
    </g>
   </g>
   <g id="matplotlib.axis_2">
    <g id="ytick_1">
     <g id="line2d_4">
      <defs>
       <path d="M 0 0 
L -3.5 0 
" id="md915c8a638" style="stroke:#000000;stroke-width:0.8;"/>
      </defs>
      <g>
       <use style="stroke:#000000;stroke-width:0.8;" x="28.8" xlink:href="#md915c8a638" y="42.48"/>
      </g>
     </g>
     <g id="text_5">
      <text style="font-family:DejaVu Sans;font-size:6px;font-stretch:normal;font-style:normal;font-weight:normal;text-anchor:end;" transform="rotate(-0, 21.8, 44.759531)" x="21.8" y="44.759531">0</text>
     </g>
    </g>
    <g id="ytick_2">
     <g id="line2d_5">
      <g>
       <use style="stroke:#000000;stroke-width:0.8;" x="28.8" xlink:href="#md915c8a638" y="22.14"/>
      </g>
     </g>
     <g id="text_6">
      <text style="font-family:DejaVu Sans;font-size:6px;font-stretch:normal;font-style:normal;font-weight:normal;text-anchor:end;" transform="rotate(-0, 21.8, 24.419531)" x="21.8" y="24.419531">0.12</text>
     </g>
    </g>
    <g id="ytick_3">
     <g id="line2d_6">
      <g>
       <use style="stroke:#000000;stroke-width:0.8;" x="28.8" xlink:href="#md915c8a638" y="1.8"/>
      </g>
     </g>
     <g id="text_7">
      <text style="font-family:DejaVu Sans;font-size:6px;font-stretch:normal;font-style:normal;font-weight:normal;text-anchor:end;" transform="rotate(-0, 21.8, 4.079531)" x="21.8" y="4.079531">0.24</text>
     </g>
    </g>
    <g id="text_8">
     <text style="font-family:DejaVu Sans;font-size:6px;font-stretch:normal;font-style:normal;font-weight:normal;text-anchor:middle;" transform="rotate(-90, 5.999063, 22.14)" x="5.999063" y="22.14">amplitude</text>
    </g>
   </g>
   <g id="line2d_7">
    <path clip-path="url(#pa53695e779)" d="M 28.8 41.723304 
L 30.257143 39.880737 
L 31.714286 37.430763 
L 33.171429 35.700826 
L 34.628571 34.098623 
L 36.085714 39.295121 
L 37.542857 37.700778 
L 39 33.448121 
L 40.457143 38.359045 
L 41.914286 35.130325 
L 43.371429 40.216196 
L 44.828571 35.104689 
L 46.285714 38.797531 
L 47.742857 39.581771 
L 49.2 39.937044 
L 50.657143 40.525813 
L 52.114286 40.345246 
L 53.571429 40.397315 
L 55.028571 40.767315 
L 56.485714 40.851767 
L 57.942857 40.981019 
L 59.4 41.000217 
L 60.857143 41.303451 
L 62.314286 40.596315 
L 63.771429 41.113609 
L 65.228571 41.252639 
L 66.685714 40.850258 
L 68.142857 41.082966 
L 69.6 41.261703 
L 71.057143 41.378404 
L 72.514286 41.306098 
L 73.971429 41.384758 
L 75.428571 41.466772 
L 76.885714 41.419288 
L 78.342857 41.486197 
L 79.8 41.533791 
L 81.257143 41.458493 
L 82.714286 41.548765 
L 84.171429 41.561498 
L 85.628571 41.576616 
L 85.96 41.574015 
" style="fill:none;stroke:#9467bd;stroke-linecap:square;stroke-width:0.5;"/>
   </g>
   <g id="line2d_8">
    <path clip-path="url(#pa53695e779)" d="M 28.8 41.723304 
L 30.257143 40.677083 
L 31.714286 37.952533 
L 33.171429 25.890211 
L 34.628571 28.563823 
L 36.085714 36.919313 
L 37.542857 38.083439 
L 39 39.824415 
L 40.457143 40.25189 
L 41.914286 33.589561 
L 43.371429 37.837116 
L 44.828571 38.269686 
L 46.285714 38.320208 
L 47.742857 39.426594 
L 49.2 40.213361 
L 50.657143 39.907826 
L 52.114286 40.330034 
L 53.571429 40.455406 
L 55.028571 40.751546 
L 56.485714 40.800363 
L 57.942857 40.976485 
L 59.4 41.050436 
L 60.857143 41.088037 
L 62.314286 41.099807 
L 63.771429 41.160254 
L 65.228571 41.235518 
L 66.685714 41.275952 
L 68.142857 41.312105 
L 69.6 41.261938 
L 71.057143 41.395865 
L 72.514286 41.447878 
L 73.971429 41.444746 
L 75.428571 41.329938 
L 76.885714 41.484706 
L 78.342857 41.514308 
L 79.8 41.485832 
L 81.257143 41.570851 
L 82.714286 41.50813 
L 84.171429 41.602102 
L 85.628571 41.571604 
L 85.96 41.564535 
" style="fill:none;stroke:#d62728;stroke-linecap:square;stroke-width:0.5;"/>
   </g>
   <g id="line2d_9">
    <path clip-path="url(#pa53695e779)" d="M 28.8 41.723304 
L 30.257143 40.898453 
L 31.714286 38.381781 
L 33.171429 33.149563 
L 34.628571 33.862465 
L 36.085714 36.936771 
L 37.542857 40.236471 
L 39 38.103634 
L 40.457143 36.649561 
L 41.914286 34.014688 
L 43.371429 39.134532 
L 44.828571 38.080833 
L 46.285714 38.590002 
L 47.742857 39.628452 
L 49.2 39.292765 
L 50.657143 38.918515 
L 52.114286 39.993564 
L 53.571429 40.151189 
L 55.028571 40.36168 
L 56.485714 40.371674 
L 57.942857 40.652788 
L 59.4 40.91479 
L 60.857143 41.017181 
L 62.314286 41.041683 
L 63.771429 40.978093 
L 65.228571 41.127486 
L 66.685714 41.260457 
L 68.142857 41.352689 
L 69.6 41.23496 
L 71.057143 41.353102 
L 72.514286 41.317187 
L 73.971429 41.453646 
L 75.428571 41.369968 
L 76.885714 41.468301 
L 78.342857 41.391518 
L 79.8 41.503175 
L 81.257143 41.494976 
L 82.714286 41.543338 
L 84.171429 41.547431 
L 85.628571 41.571036 
L 85.96 41.581425 
" style="fill:none;stroke:#17becf;stroke-linecap:square;stroke-width:0.5;"/>
   </g>
   <g id="line2d_10">
    <path clip-path="url(#pa53695e779)" d="M 28.8 41.723304 
L 30.257143 41.349509 
L 31.714286 39.919204 
L 33.171429 37.096113 
L 34.628571 39.14279 
L 36.085714 39.257528 
L 37.542857 38.281862 
L 39 28.410557 
L 40.457143 37.66141 
L 41.914286 40.089666 
L 43.371429 39.056066 
L 44.828571 34.467969 
L 46.285714 37.839837 
L 47.742857 39.258917 
L 49.2 39.457345 
L 50.657143 40.127703 
L 52.114286 39.423485 
L 53.571429 39.938654 
L 55.028571 40.625989 
L 56.485714 40.463362 
L 57.942857 40.499151 
L 59.4 40.675525 
L 60.857143 40.922321 
L 62.314286 40.932621 
L 63.771429 41.15279 
L 65.228571 40.992983 
L 66.685714 41.200398 
L 68.142857 41.342306 
L 69.6 41.075518 
L 71.057143 41.301634 
L 72.514286 41.268899 
L 73.971429 41.377479 
L 75.428571 41.388853 
L 76.885714 41.460364 
L 78.342857 41.496639 
L 79.8 41.48973 
L 81.257143 41.527757 
L 82.714286 41.560378 
L 84.171429 41.58868 
L 85.628571 41.582265 
L 85.96 41.588166 
" style="fill:none;stroke:#bcbd22;stroke-linecap:square;stroke-width:0.5;"/>
   </g>
   <g id="patch_3">
    <path d="M 28.8 42.48 
L 28.8 1.8 
" style="fill:none;stroke:#000000;stroke-linecap:square;stroke-linejoin:miter;stroke-width:0.8;"/>
   </g>
   <g id="patch_4">
    <path d="M 28.8 42.48 
L 77.76 42.48 
" style="fill:none;stroke:#000000;stroke-linecap:square;stroke-linejoin:miter;stroke-width:0.8;"/>
   </g>
  </g>
 </g>
 <defs>
  <clipPath id="pa53695e779">
   <rect height="40.68" width="48.96" x="28.8" y="1.8"/>
  </clipPath>
 </defs>
</svg>
