<?xml version="1.0" encoding="utf-8" standalone="no"?>
<!DOCTYPE svg PUBLIC "-//W3C//DTD SVG 1.1//EN"
  "http://www.w3.org/Graphics/SVG/1.1/DTD/svg11.dtd">
<!-- Created with matplotlib (https://matplotlib.org/) -->
<svg height="64.08pt" version="1.1" viewBox="0 0 84.96 64.08" width="84.96pt" xmlns="http://www.w3.org/2000/svg" xmlns:xlink="http://www.w3.org/1999/xlink">
 <metadata>
  <rdf:RDF xmlns:cc="http://creativecommons.org/ns#" xmlns:dc="http://purl.org/dc/elements/1.1/" xmlns:rdf="http://www.w3.org/1999/02/22-rdf-syntax-ns#">
   <cc:Work>
    <dc:type rdf:resource="http://purl.org/dc/dcmitype/StillImage"/>
    <dc:date>2022-04-01T08:09:55.656185</dc:date>
    <dc:format>image/svg+xml</dc:format>
    <dc:creator>
     <cc:Agent>
      <dc:title>Matplotlib v3.3.1, https://matplotlib.org/</dc:title>
     </cc:Agent>
    </dc:creator>
   </cc:Work>
  </rdf:RDF>
 </metadata>
 <defs>
  <style type="text/css">*{stroke-linecap:butt;stroke-linejoin:round;}</style>
 </defs>
 <g id="figure_1">
  <g id="patch_1">
   <path d="M 0 64.08 
L 84.96 64.08 
L 84.96 0 
L 0 0 
z
" style="fill:none;"/>
  </g>
  <g id="axes_1">
   <g id="patch_2">
    <path d="M 28.8 42.48 
L 77.76 42.48 
L 77.76 1.8 
L 28.8 1.8 
z
" style="fill:none;"/>
   </g>
   <g id="matplotlib.axis_1">
    <g id="xtick_1">
     <g id="line2d_1">
      <defs>
       <path d="M 0 0 
L 0 3.5 
" id="m8631229468" style="stroke:#000000;stroke-width:0.8;"/>
      </defs>
      <g>
       <use style="stroke:#000000;stroke-width:0.8;" x="28.8" xlink:href="#m8631229468" y="42.48"/>
      </g>
     </g>
     <g id="text_1">
      <text style="font-family:DejaVu Sans;font-size:6px;font-stretch:normal;font-style:normal;font-weight:normal;text-anchor:middle;" transform="rotate(-0, 28.8, 54.039062)" x="28.8" y="54.039062">0</text>
     </g>
    </g>
    <g id="xtick_2">
     <g id="line2d_2">
      <g>
       <use style="stroke:#000000;stroke-width:0.8;" x="53.28" xlink:href="#m8631229468" y="42.48"/>
      </g>
     </g>
     <g id="text_2">
      <text style="font-family:DejaVu Sans;font-size:6px;font-stretch:normal;font-style:normal;font-weight:normal;text-anchor:middle;" transform="rotate(-0, 53.28, 54.039062)" x="53.28" y="54.039062">15</text>
     </g>
    </g>
    <g id="xtick_3">
     <g id="line2d_3">
      <g>
       <use style="stroke:#000000;stroke-width:0.8;" x="77.76" xlink:href="#m8631229468" y="42.48"/>
      </g>
     </g>
     <g id="text_3">
      <text style="font-family:DejaVu Sans;font-size:6px;font-stretch:normal;font-style:normal;font-weight:normal;text-anchor:middle;" transform="rotate(-0, 77.76, 54.039062)" x="77.76" y="54.039062">30</text>
     </g>
    </g>
    <g id="text_4">
     <text style="font-family:DejaVu Sans;font-size:6px;font-stretch:normal;font-style:normal;font-weight:normal;text-anchor:middle;" transform="rotate(-0, 53.28, 61.752187)" x="53.28" y="61.752187">frequency (Hz)</text>
    </g>
   </g>
   <g id="matplotlib.axis_2">
    <g id="ytick_1">
     <g id="line2d_4">
      <defs>
       <path d="M 0 0 
L -3.5 0 
" id="m06b70a205d" style="stroke:#000000;stroke-width:0.8;"/>
      </defs>
      <g>
       <use style="stroke:#000000;stroke-width:0.8;" x="28.8" xlink:href="#m06b70a205d" y="42.48"/>
      </g>
     </g>
     <g id="text_5">
      <text style="font-family:DejaVu Sans;font-size:6px;font-stretch:normal;font-style:normal;font-weight:normal;text-anchor:end;" transform="rotate(-0, 21.8, 44.759531)" x="21.8" y="44.759531">0</text>
     </g>
    </g>
    <g id="ytick_2">
     <g id="line2d_5">
      <g>
       <use style="stroke:#000000;stroke-width:0.8;" x="28.8" xlink:href="#m06b70a205d" y="22.14"/>
      </g>
     </g>
     <g id="text_6">
      <text style="font-family:DejaVu Sans;font-size:6px;font-stretch:normal;font-style:normal;font-weight:normal;text-anchor:end;" transform="rotate(-0, 21.8, 24.419531)" x="21.8" y="24.419531">0.12</text>
     </g>
    </g>
    <g id="ytick_3">
     <g id="line2d_6">
      <g>
       <use style="stroke:#000000;stroke-width:0.8;" x="28.8" xlink:href="#m06b70a205d" y="1.8"/>
      </g>
     </g>
     <g id="text_7">
      <text style="font-family:DejaVu Sans;font-size:6px;font-stretch:normal;font-style:normal;font-weight:normal;text-anchor:end;" transform="rotate(-0, 21.8, 4.079531)" x="21.8" y="4.079531">0.24</text>
     </g>
    </g>
    <g id="text_8">
     <text style="font-family:DejaVu Sans;font-size:6px;font-stretch:normal;font-style:normal;font-weight:normal;text-anchor:middle;" transform="rotate(-90, 5.999063, 22.14)" x="5.999063" y="22.14">amplitude</text>
    </g>
   </g>
   <g id="line2d_7">
    <path clip-path="url(#p0a9dc36901)" d="M 28.8 41.77375 
L 30.16 33.116366 
L 31.52 34.161913 
L 32.88 39.045925 
L 34.24 24.304149 
L 35.6 36.40251 
L 36.96 37.624117 
L 38.32 39.728298 
L 39.68 37.941291 
L 41.04 37.51345 
L 42.4 37.650308 
L 43.76 39.15249 
L 45.12 39.424156 
L 46.48 39.935772 
L 47.84 40.231416 
L 49.2 40.416747 
L 50.56 40.56957 
L 51.92 40.730563 
L 53.28 40.812768 
L 54.64 40.897819 
L 56 40.994901 
L 57.36 41.040301 
L 58.72 41.12027 
L 60.08 41.182203 
L 61.44 41.236424 
L 62.8 41.286483 
L 64.16 41.332323 
L 65.52 41.359822 
L 66.88 41.392138 
L 68.24 41.42731 
L 69.6 41.460141 
L 70.96 41.490642 
L 72.32 41.506778 
L 73.68 41.539368 
L 75.04 41.557653 
L 76.4 41.578336 
L 77.76 41.594847 
L 79.12 41.613812 
L 80.48 41.632401 
L 81.84 41.640753 
L 83.2 41.657539 
L 84.56 41.670582 
L 85.92 41.677691 
L 85.96 41.678199 
" style="fill:none;stroke:#9467bd;stroke-linecap:square;stroke-width:0.5;"/>
   </g>
   <g id="line2d_8">
    <path clip-path="url(#p0a9dc36901)" d="M 28.8 41.77375 
L 30.16 38.509969 
L 31.52 32.64437 
L 32.88 29.729842 
L 34.24 15.742735 
L 35.6 33.684277 
L 36.96 35.302922 
L 38.32 36.733838 
L 39.68 37.560027 
L 41.04 38.6446 
L 42.4 39.190228 
L 43.76 39.667443 
L 45.12 39.860327 
L 46.48 40.072037 
L 47.84 40.331034 
L 49.2 40.483554 
L 50.56 40.626333 
L 51.92 40.748353 
L 53.28 40.834182 
L 54.64 40.911878 
L 56 41.005594 
L 57.36 41.08231 
L 58.72 41.151386 
L 60.08 41.184319 
L 61.44 41.249478 
L 62.8 41.285113 
L 64.16 41.322395 
L 65.52 41.370066 
L 66.88 41.407504 
L 68.24 41.431007 
L 69.6 41.462724 
L 70.96 41.489639 
L 72.32 41.518184 
L 73.68 41.53166 
L 75.04 41.557334 
L 76.4 41.580711 
L 77.76 41.596467 
L 79.12 41.61233 
L 80.48 41.629287 
L 81.84 41.639097 
L 83.2 41.659447 
L 84.56 41.669015 
L 85.92 41.678841 
L 85.96 41.679213 
" style="fill:none;stroke:#d62728;stroke-linecap:square;stroke-width:0.5;"/>
   </g>
   <g id="line2d_9">
    <path clip-path="url(#p0a9dc36901)" d="M 28.8 41.77375 
L 30.16 40.065331 
L 31.52 35.443538 
L 32.88 31.467174 
L 34.24 15.405481 
L 35.6 34.098017 
L 36.96 33.515918 
L 38.32 37.503755 
L 39.68 38.083606 
L 41.04 38.37237 
L 42.4 38.706008 
L 43.76 39.584712 
L 45.12 39.751883 
L 46.48 39.954278 
L 47.84 40.24862 
L 49.2 40.50191 
L 50.56 40.541619 
L 51.92 40.661396 
L 53.28 40.799897 
L 54.64 40.899366 
L 56 40.98231 
L 57.36 41.062716 
L 58.72 41.128097 
L 60.08 41.178033 
L 61.44 41.229198 
L 62.8 41.284294 
L 64.16 41.328058 
L 65.52 41.363633 
L 66.88 41.396703 
L 68.24 41.431245 
L 69.6 41.465177 
L 70.96 41.483549 
L 72.32 41.512577 
L 73.68 41.537676 
L 75.04 41.560496 
L 76.4 41.580747 
L 77.76 41.59623 
L 79.12 41.612189 
L 80.48 41.631005 
L 81.84 41.644589 
L 83.2 41.658694 
L 84.56 41.667471 
L 85.92 41.681707 
L 85.96 41.682027 
" style="fill:none;stroke:#17becf;stroke-linecap:square;stroke-width:0.5;"/>
   </g>
   <g id="line2d_10">
    <path clip-path="url(#p0a9dc36901)" d="M 28.8 41.77375 
L 30.16 40.092838 
L 31.52 35.84402 
L 32.88 31.488407 
L 34.24 5.293739 
L 35.6 33.439906 
L 36.96 35.176488 
L 38.32 38.427646 
L 39.68 36.913149 
L 41.04 38.537023 
L 42.4 39.237163 
L 43.76 39.555532 
L 45.12 39.939009 
L 46.48 40.123602 
L 47.84 40.249731 
L 49.2 40.454906 
L 50.56 40.615837 
L 51.92 40.748763 
L 53.28 40.822756 
L 54.64 40.933389 
L 56 41.007845 
L 57.36 41.065662 
L 58.72 41.139654 
L 60.08 41.192167 
L 61.44 41.248364 
L 62.8 41.289412 
L 64.16 41.328666 
L 65.52 41.361769 
L 66.88 41.39943 
L 68.24 41.435478 
L 69.6 41.463353 
L 70.96 41.490108 
L 72.32 41.515128 
L 73.68 41.537816 
L 75.04 41.558748 
L 76.4 41.579309 
L 77.76 41.592871 
L 79.12 41.611024 
L 80.48 41.627569 
L 81.84 41.64237 
L 83.2 41.656297 
L 84.56 41.667943 
L 85.92 41.680149 
L 85.96 41.680522 
" style="fill:none;stroke:#bcbd22;stroke-linecap:square;stroke-width:0.5;"/>
   </g>
   <g id="patch_3">
    <path d="M 28.8 42.48 
L 28.8 1.8 
" style="fill:none;stroke:#000000;stroke-linecap:square;stroke-linejoin:miter;stroke-width:0.8;"/>
   </g>
   <g id="patch_4">
    <path d="M 28.8 42.48 
L 77.76 42.48 
" style="fill:none;stroke:#000000;stroke-linecap:square;stroke-linejoin:miter;stroke-width:0.8;"/>
   </g>
  </g>
 </g>
 <defs>
  <clipPath id="p0a9dc36901">
   <rect height="40.68" width="48.96" x="28.8" y="1.8"/>
  </clipPath>
 </defs>
</svg>
