<?xml version="1.0" encoding="utf-8" standalone="no"?>
<!DOCTYPE svg PUBLIC "-//W3C//DTD SVG 1.1//EN"
  "http://www.w3.org/Graphics/SVG/1.1/DTD/svg11.dtd">
<!-- Created with matplotlib (https://matplotlib.org/) -->
<svg height="165.719531pt" version="1.1" viewBox="0 0 245.250938 165.719531" width="245.250938pt" xmlns="http://www.w3.org/2000/svg" xmlns:xlink="http://www.w3.org/1999/xlink">
 <metadata>
  <rdf:RDF xmlns:cc="http://creativecommons.org/ns#" xmlns:dc="http://purl.org/dc/elements/1.1/" xmlns:rdf="http://www.w3.org/1999/02/22-rdf-syntax-ns#">
   <cc:Work>
    <dc:type rdf:resource="http://purl.org/dc/dcmitype/StillImage"/>
    <dc:date>2022-04-01T08:09:55.866966</dc:date>
    <dc:format>image/svg+xml</dc:format>
    <dc:creator>
     <cc:Agent>
      <dc:title>Matplotlib v3.3.1, https://matplotlib.org/</dc:title>
     </cc:Agent>
    </dc:creator>
   </cc:Work>
  </rdf:RDF>
 </metadata>
 <defs>
  <style type="text/css">*{stroke-linecap:butt;stroke-linejoin:round;}</style>
 </defs>
 <g id="figure_1">
  <g id="patch_1">
   <path d="M 0 165.719531 
L 245.250938 165.719531 
L 245.250938 0 
L 0 0 
z
" style="fill:none;"/>
  </g>
  <g id="axes_1">
   <g id="patch_2">
    <path d="M 27.36 145.199531 
L 240.48 145.199531 
L 240.48 102.359531 
L 27.36 102.359531 
z
" style="fill:none;"/>
   </g>
   <g id="matplotlib.axis_1">
    <g id="xtick_1">
     <g id="line2d_1">
      <defs>
       <path d="M 0 0 
L 0 3.5 
" id="mb5b0fd9794" style="stroke:#000000;stroke-width:0.8;"/>
      </defs>
      <g>
       <use style="stroke:#000000;stroke-width:0.8;" x="27.36" xlink:href="#mb5b0fd9794" y="145.199531"/>
      </g>
     </g>
     <g id="text_1">
      <text style="font-family:DejaVu Sans;font-size:6px;font-stretch:normal;font-style:normal;font-weight:normal;text-anchor:middle;" transform="rotate(-0, 27.36, 156.758594)" x="27.36" y="156.758594">0</text>
     </g>
    </g>
    <g id="xtick_2">
     <g id="line2d_2">
      <g>
       <use style="stroke:#000000;stroke-width:0.8;" x="133.92" xlink:href="#mb5b0fd9794" y="145.199531"/>
      </g>
     </g>
     <g id="text_2">
      <text style="font-family:DejaVu Sans;font-size:6px;font-stretch:normal;font-style:normal;font-weight:normal;text-anchor:middle;" transform="rotate(-0, 133.92, 156.758594)" x="133.92" y="156.758594">0.6</text>
     </g>
    </g>
    <g id="xtick_3">
     <g id="line2d_3">
      <g>
       <use style="stroke:#000000;stroke-width:0.8;" x="240.48" xlink:href="#mb5b0fd9794" y="145.199531"/>
      </g>
     </g>
     <g id="text_3">
      <text style="font-family:DejaVu Sans;font-size:6px;font-stretch:normal;font-style:normal;font-weight:normal;text-anchor:middle;" transform="rotate(-0, 240.48, 156.758594)" x="240.48" y="156.758594">1.2</text>
     </g>
    </g>
    <g id="text_4">
     <text style="font-family:DejaVu Sans;font-size:6px;font-stretch:normal;font-style:normal;font-weight:normal;text-anchor:middle;" transform="rotate(-0, 133.92, 164.471719)" x="133.92" y="164.471719">time (s)</text>
    </g>
   </g>
   <g id="matplotlib.axis_2">
    <g id="ytick_1">
     <g id="line2d_4">
      <defs>
       <path d="M 0 0 
L -3.5 0 
" id="m30b05ab1df" style="stroke:#000000;stroke-width:0.8;"/>
      </defs>
      <g>
       <use style="stroke:#000000;stroke-width:0.8;" x="27.36" xlink:href="#m30b05ab1df" y="145.199531"/>
      </g>
     </g>
     <g id="text_5">
      <text style="font-family:DejaVu Sans;font-size:6px;font-stretch:normal;font-style:normal;font-weight:normal;text-anchor:end;" transform="rotate(-0, 20.36, 147.479062)" x="20.36" y="147.479062">0</text>
     </g>
    </g>
    <g id="ytick_2">
     <g id="line2d_5">
      <g>
       <use style="stroke:#000000;stroke-width:0.8;" x="27.36" xlink:href="#m30b05ab1df" y="123.779531"/>
      </g>
     </g>
     <g id="text_6">
      <text style="font-family:DejaVu Sans;font-size:6px;font-stretch:normal;font-style:normal;font-weight:normal;text-anchor:end;" transform="rotate(-0, 20.36, 126.059062)" x="20.36" y="126.059062">2</text>
     </g>
    </g>
    <g id="ytick_3">
     <g id="line2d_6">
      <g>
       <use style="stroke:#000000;stroke-width:0.8;" x="27.36" xlink:href="#m30b05ab1df" y="102.359531"/>
      </g>
     </g>
     <g id="text_7">
      <text style="font-family:DejaVu Sans;font-size:6px;font-stretch:normal;font-style:normal;font-weight:normal;text-anchor:end;" transform="rotate(-0, 20.36, 104.639062)" x="20.36" y="104.639062">4</text>
     </g>
    </g>
   </g>
   <g id="line2d_7">
    <path d="M 27.36 145.199531 
L 29.136 145.199531 
L 30.912 145.199531 
L 32.688 145.199531 
L 34.464 145.199531 
L 36.24 145.199531 
L 38.016 145.199531 
L 39.792 145.199531 
L 41.568 145.199531 
L 43.344 145.199531 
L 45.12 145.199531 
L 46.896 145.199531 
L 48.672 145.199531 
L 50.448 145.199531 
L 52.224 145.199531 
L 54 145.199531 
L 55.776 145.199531 
L 57.552 145.199531 
L 59.328 145.199531 
L 61.104 145.199531 
L 62.88 145.199531 
L 64.656 145.199531 
L 66.432 145.199531 
L 68.208 145.199531 
L 69.984 145.199531 
L 71.76 145.199531 
L 73.536 145.199531 
L 75.312 145.199531 
L 77.088 145.199531 
L 78.864 145.199531 
L 80.64 145.199531 
L 82.416 145.199531 
L 84.192 145.199531 
L 85.968 145.199531 
L 87.744 145.199531 
L 89.52 145.199531 
L 91.296 145.199531 
L 93.072 145.199531 
L 94.848 145.199531 
L 96.624 145.199531 
L 98.4 145.199531 
L 100.176 145.199531 
L 101.952 145.199531 
L 103.728 145.199531 
L 105.504 145.199531 
L 107.28 145.199531 
L 109.056 134.489531 
L 110.832 134.489531 
L 112.608 145.199531 
L 114.384 145.199531 
L 116.16 145.199531 
L 117.936 145.199531 
L 119.712 145.199531 
L 121.488 145.199531 
L 123.264 145.199531 
L 125.04 145.199531 
L 126.816 145.199531 
L 128.592 145.199531 
L 130.368 145.199531 
L 132.144 145.199531 
L 133.92 145.199531 
L 135.696 145.199531 
L 137.472 145.199531 
L 139.248 145.199531 
L 141.024 145.199531 
L 142.8 145.199531 
L 144.576 145.199531 
L 146.352 145.199531 
L 148.128 145.199531 
L 149.904 145.199531 
L 151.68 145.199531 
L 153.456 145.199531 
L 155.232 145.199531 
L 157.008 145.199531 
L 158.784 145.199531 
L 160.56 145.199531 
L 162.336 134.489531 
L 164.112 134.489531 
L 165.888 134.489531 
L 167.664 134.489531 
L 169.44 134.489531 
L 171.216 134.489531 
L 172.992 134.489531 
L 174.768 123.779531 
L 176.544 123.779531 
L 178.32 123.779531 
L 180.096 123.779531 
L 181.872 134.489531 
L 183.648 145.199531 
L 185.424 145.199531 
L 187.2 145.199531 
L 188.976 145.199531 
L 190.752 145.199531 
L 192.528 145.199531 
L 194.304 145.199531 
L 196.08 145.199531 
L 197.856 145.199531 
L 199.632 145.199531 
L 201.408 145.199531 
L 203.184 145.199531 
L 204.96 145.199531 
L 206.736 145.199531 
L 208.512 145.199531 
L 210.288 145.199531 
L 212.064 145.199531 
L 213.84 145.199531 
L 215.616 145.199531 
L 217.392 145.199531 
L 219.168 145.199531 
L 220.944 145.199531 
L 222.72 145.199531 
L 224.496 145.199531 
L 226.272 145.199531 
L 228.048 145.199531 
L 229.824 145.199531 
L 231.6 145.199531 
L 233.376 145.199531 
L 235.152 145.199531 
L 236.928 145.199531 
L 238.704 145.199531 
" style="fill:none;stroke:#ce6dbd;stroke-linecap:square;stroke-width:0.5;"/>
   </g>
   <g id="line2d_8">
    <path d="M 27.36 123.779531 
L 29.136 134.489531 
L 30.912 134.489531 
L 32.688 134.489531 
L 34.464 134.489531 
L 36.24 134.489531 
L 38.016 134.489531 
L 39.792 145.199531 
L 41.568 145.199531 
L 43.344 145.199531 
L 45.12 145.199531 
L 46.896 145.199531 
L 48.672 145.199531 
L 50.448 145.199531 
L 52.224 145.199531 
L 54 145.199531 
L 55.776 145.199531 
L 57.552 145.199531 
L 59.328 145.199531 
L 61.104 145.199531 
L 62.88 145.199531 
L 64.656 145.199531 
L 66.432 145.199531 
L 68.208 145.199531 
L 69.984 145.199531 
L 71.76 145.199531 
L 73.536 145.199531 
L 75.312 145.199531 
L 77.088 145.199531 
L 78.864 145.199531 
L 80.64 134.489531 
L 82.416 134.489531 
L 84.192 134.489531 
L 85.968 134.489531 
L 87.744 123.779531 
L 89.52 123.779531 
L 91.296 134.489531 
L 93.072 134.489531 
L 94.848 134.489531 
L 96.624 145.199531 
L 98.4 145.199531 
L 100.176 145.199531 
L 101.952 145.199531 
L 103.728 145.199531 
L 105.504 145.199531 
L 107.28 145.199531 
L 109.056 145.199531 
L 110.832 145.199531 
L 112.608 145.199531 
L 114.384 145.199531 
L 116.16 145.199531 
L 117.936 145.199531 
L 119.712 145.199531 
L 121.488 145.199531 
L 123.264 145.199531 
L 125.04 145.199531 
L 126.816 145.199531 
L 128.592 145.199531 
L 130.368 134.489531 
L 132.144 134.489531 
L 133.92 134.489531 
L 135.696 134.489531 
L 137.472 134.489531 
L 139.248 134.489531 
L 141.024 134.489531 
L 142.8 145.199531 
L 144.576 145.199531 
L 146.352 145.199531 
L 148.128 145.199531 
L 149.904 145.199531 
L 151.68 145.199531 
L 153.456 145.199531 
L 155.232 145.199531 
L 157.008 145.199531 
L 158.784 145.199531 
L 160.56 145.199531 
L 162.336 145.199531 
L 164.112 145.199531 
L 165.888 145.199531 
L 167.664 145.199531 
L 169.44 145.199531 
L 171.216 145.199531 
L 172.992 145.199531 
L 174.768 145.199531 
L 176.544 145.199531 
L 178.32 145.199531 
L 180.096 145.199531 
L 181.872 145.199531 
L 183.648 145.199531 
L 185.424 145.199531 
L 187.2 145.199531 
L 188.976 145.199531 
L 190.752 145.199531 
L 192.528 145.199531 
L 194.304 145.199531 
L 196.08 145.199531 
L 197.856 134.489531 
L 199.632 134.489531 
L 201.408 134.489531 
L 203.184 134.489531 
L 204.96 134.489531 
L 206.736 145.199531 
L 208.512 145.199531 
L 210.288 145.199531 
L 212.064 145.199531 
L 213.84 145.199531 
L 215.616 145.199531 
L 217.392 145.199531 
L 219.168 145.199531 
L 220.944 145.199531 
L 222.72 145.199531 
L 224.496 145.199531 
L 226.272 145.199531 
L 228.048 145.199531 
L 229.824 145.199531 
L 231.6 145.199531 
L 233.376 145.199531 
L 235.152 145.199531 
L 236.928 145.199531 
L 238.704 145.199531 
" style="fill:none;stroke:#d6616b;stroke-linecap:square;stroke-width:0.5;"/>
   </g>
   <g id="line2d_9">
    <path d="M 27.36 145.199531 
L 29.136 145.199531 
L 30.912 145.199531 
L 32.688 145.199531 
L 34.464 145.199531 
L 36.24 145.199531 
L 38.016 145.199531 
L 39.792 145.199531 
L 41.568 145.199531 
L 43.344 145.199531 
L 45.12 145.199531 
L 46.896 145.199531 
L 48.672 145.199531 
L 50.448 145.199531 
L 52.224 145.199531 
L 54 145.199531 
L 55.776 145.199531 
L 57.552 145.199531 
L 59.328 145.199531 
L 61.104 145.199531 
L 62.88 145.199531 
L 64.656 145.199531 
L 66.432 145.199531 
L 68.208 134.489531 
L 69.984 123.779531 
L 71.76 123.779531 
L 73.536 123.779531 
L 75.312 113.069531 
L 77.088 102.359531 
L 78.864 113.069531 
L 80.64 102.359531 
L 82.416 113.069531 
L 84.192 134.489531 
L 85.968 134.489531 
L 87.744 145.199531 
L 89.52 145.199531 
L 91.296 145.199531 
L 93.072 145.199531 
L 94.848 145.199531 
L 96.624 145.199531 
L 98.4 145.199531 
L 100.176 145.199531 
L 101.952 145.199531 
L 103.728 145.199531 
L 105.504 145.199531 
L 107.28 145.199531 
L 109.056 145.199531 
L 110.832 134.489531 
L 112.608 134.489531 
L 114.384 123.779531 
L 116.16 123.779531 
L 117.936 113.069531 
L 119.712 113.069531 
L 121.488 113.069531 
L 123.264 113.069531 
L 125.04 102.359531 
L 126.816 113.069531 
L 128.592 113.069531 
L 130.368 134.489531 
L 132.144 134.489531 
L 133.92 134.489531 
L 135.696 145.199531 
L 137.472 145.199531 
L 139.248 145.199531 
L 141.024 145.199531 
L 142.8 145.199531 
L 144.576 145.199531 
L 146.352 145.199531 
L 148.128 145.199531 
L 149.904 145.199531 
L 151.68 145.199531 
L 153.456 145.199531 
L 155.232 145.199531 
L 157.008 145.199531 
L 158.784 145.199531 
L 160.56 145.199531 
L 162.336 145.199531 
L 164.112 145.199531 
L 165.888 145.199531 
L 167.664 145.199531 
L 169.44 145.199531 
L 171.216 145.199531 
L 172.992 134.489531 
L 174.768 134.489531 
L 176.544 123.779531 
L 178.32 113.069531 
L 180.096 113.069531 
L 181.872 113.069531 
L 183.648 113.069531 
L 185.424 113.069531 
L 187.2 113.069531 
L 188.976 113.069531 
L 190.752 113.069531 
L 192.528 113.069531 
L 194.304 113.069531 
L 196.08 123.779531 
L 197.856 123.779531 
L 199.632 134.489531 
L 201.408 134.489531 
L 203.184 134.489531 
L 204.96 145.199531 
L 206.736 145.199531 
L 208.512 145.199531 
L 210.288 145.199531 
L 212.064 145.199531 
L 213.84 145.199531 
L 215.616 145.199531 
L 217.392 145.199531 
L 219.168 134.489531 
L 220.944 134.489531 
L 222.72 134.489531 
L 224.496 134.489531 
L 226.272 123.779531 
L 228.048 123.779531 
L 229.824 123.779531 
L 231.6 123.779531 
L 233.376 123.779531 
L 235.152 113.069531 
L 236.928 113.069531 
L 238.704 113.069531 
" style="fill:none;stroke:#6b6ecf;stroke-linecap:square;stroke-width:0.5;"/>
   </g>
   <g id="line2d_10">
    <path d="M 27.36 145.199531 
L 29.136 145.199531 
L 30.912 145.199531 
L 32.688 145.199531 
L 34.464 134.489531 
L 36.24 134.489531 
L 38.016 134.489531 
L 39.792 134.489531 
L 41.568 134.489531 
L 43.344 134.489531 
L 45.12 134.489531 
L 46.896 134.489531 
L 48.672 123.779531 
L 50.448 134.489531 
L 52.224 134.489531 
L 54 134.489531 
L 55.776 134.489531 
L 57.552 134.489531 
L 59.328 134.489531 
L 61.104 145.199531 
L 62.88 145.199531 
L 64.656 145.199531 
L 66.432 145.199531 
L 68.208 145.199531 
L 69.984 145.199531 
L 71.76 145.199531 
L 73.536 145.199531 
L 75.312 145.199531 
L 77.088 145.199531 
L 78.864 145.199531 
L 80.64 145.199531 
L 82.416 145.199531 
L 84.192 145.199531 
L 85.968 145.199531 
L 87.744 145.199531 
L 89.52 134.489531 
L 91.296 134.489531 
L 93.072 134.489531 
L 94.848 123.779531 
L 96.624 134.489531 
L 98.4 134.489531 
L 100.176 134.489531 
L 101.952 123.779531 
L 103.728 123.779531 
L 105.504 134.489531 
L 107.28 134.489531 
L 109.056 134.489531 
L 110.832 134.489531 
L 112.608 145.199531 
L 114.384 145.199531 
L 116.16 145.199531 
L 117.936 145.199531 
L 119.712 145.199531 
L 121.488 145.199531 
L 123.264 145.199531 
L 125.04 145.199531 
L 126.816 145.199531 
L 128.592 145.199531 
L 130.368 145.199531 
L 132.144 145.199531 
L 133.92 145.199531 
L 135.696 134.489531 
L 137.472 134.489531 
L 139.248 134.489531 
L 141.024 113.069531 
L 142.8 123.779531 
L 144.576 123.779531 
L 146.352 134.489531 
L 148.128 134.489531 
L 149.904 134.489531 
L 151.68 134.489531 
L 153.456 134.489531 
L 155.232 134.489531 
L 157.008 123.779531 
L 158.784 123.779531 
L 160.56 123.779531 
L 162.336 134.489531 
L 164.112 134.489531 
L 165.888 134.489531 
L 167.664 134.489531 
L 169.44 134.489531 
L 171.216 145.199531 
L 172.992 145.199531 
L 174.768 145.199531 
L 176.544 145.199531 
L 178.32 145.199531 
L 180.096 145.199531 
L 181.872 145.199531 
L 183.648 145.199531 
L 185.424 145.199531 
L 187.2 145.199531 
L 188.976 134.489531 
L 190.752 134.489531 
L 192.528 134.489531 
L 194.304 134.489531 
L 196.08 134.489531 
L 197.856 134.489531 
L 199.632 123.779531 
L 201.408 123.779531 
L 203.184 123.779531 
L 204.96 113.069531 
L 206.736 113.069531 
L 208.512 123.779531 
L 210.288 134.489531 
L 212.064 134.489531 
L 213.84 134.489531 
L 215.616 113.069531 
L 217.392 102.359531 
L 219.168 123.779531 
L 220.944 123.779531 
L 222.72 123.779531 
L 224.496 123.779531 
L 226.272 123.779531 
L 228.048 123.779531 
L 229.824 123.779531 
L 231.6 145.199531 
L 233.376 145.199531 
L 235.152 145.199531 
L 236.928 145.199531 
L 238.704 145.199531 
" style="fill:none;stroke:#e7ba52;stroke-linecap:square;stroke-width:0.5;"/>
   </g>
   <g id="patch_3">
    <path d="M 27.36 145.199531 
L 27.36 102.359531 
" style="fill:none;stroke:#000000;stroke-linecap:square;stroke-linejoin:miter;stroke-width:0.8;"/>
   </g>
   <g id="patch_4">
    <path d="M 27.36 145.199531 
L 240.48 145.199531 
" style="fill:none;stroke:#000000;stroke-linecap:square;stroke-linejoin:miter;stroke-width:0.8;"/>
   </g>
   <g id="legend_1">
    <g id="line2d_11">
     <path d="M 162.653438 110.218594 
L 174.653438 110.218594 
" style="fill:none;stroke:#ce6dbd;stroke-linecap:square;stroke-width:0.5;"/>
    </g>
    <g id="line2d_12"/>
    <g id="text_8">
     <text style="font-family:DejaVu Sans;font-size:6px;font-stretch:normal;font-style:normal;font-weight:normal;text-anchor:start;" transform="rotate(-0, 179.453438, 112.318594)" x="179.453438" y="112.318594">left wrist marker</text>
    </g>
    <g id="line2d_13">
     <path d="M 162.653438 119.025469 
L 174.653438 119.025469 
" style="fill:none;stroke:#d6616b;stroke-linecap:square;stroke-width:0.5;"/>
    </g>
    <g id="line2d_14"/>
    <g id="text_9">
     <text style="font-family:DejaVu Sans;font-size:6px;font-stretch:normal;font-style:normal;font-weight:normal;text-anchor:start;" transform="rotate(-0, 179.453438, 121.125469)" x="179.453438" y="121.125469">right wrist marker</text>
    </g>
    <g id="line2d_15">
     <path d="M 162.653438 127.832344 
L 174.653438 127.832344 
" style="fill:none;stroke:#6b6ecf;stroke-linecap:square;stroke-width:0.5;"/>
    </g>
    <g id="line2d_16"/>
    <g id="text_10">
     <text style="font-family:DejaVu Sans;font-size:6px;font-stretch:normal;font-style:normal;font-weight:normal;text-anchor:start;" transform="rotate(-0, 179.453438, 129.932344)" x="179.453438" y="129.932344">left ankle marker</text>
    </g>
    <g id="line2d_17">
     <path d="M 162.653438 136.639219 
L 174.653438 136.639219 
" style="fill:none;stroke:#e7ba52;stroke-linecap:square;stroke-width:0.5;"/>
    </g>
    <g id="line2d_18"/>
    <g id="text_11">
     <text style="font-family:DejaVu Sans;font-size:6px;font-stretch:normal;font-style:normal;font-weight:normal;text-anchor:start;" transform="rotate(-0, 179.453438, 138.739219)" x="179.453438" y="138.739219">right ankle marker</text>
    </g>
   </g>
  </g>
  <g id="axes_2">
   <g id="patch_5">
    <path d="M 27.36 95.159531 
L 240.48 95.159531 
L 240.48 52.319531 
L 27.36 52.319531 
z
" style="fill:none;"/>
   </g>
   <g id="matplotlib.axis_3">
    <g id="ytick_4">
     <g id="line2d_19">
      <g>
       <use style="stroke:#000000;stroke-width:0.8;" x="27.36" xlink:href="#m30b05ab1df" y="95.159531"/>
      </g>
     </g>
     <g id="text_12">
      <text style="font-family:DejaVu Sans;font-size:6px;font-stretch:normal;font-style:normal;font-weight:normal;text-anchor:end;" transform="rotate(-0, 20.36, 97.439062)" x="20.36" y="97.439062">0</text>
     </g>
    </g>
    <g id="ytick_5">
     <g id="line2d_20">
      <g>
       <use style="stroke:#000000;stroke-width:0.8;" x="27.36" xlink:href="#m30b05ab1df" y="73.739531"/>
      </g>
     </g>
     <g id="text_13">
      <text style="font-family:DejaVu Sans;font-size:6px;font-stretch:normal;font-style:normal;font-weight:normal;text-anchor:end;" transform="rotate(-0, 20.36, 76.019062)" x="20.36" y="76.019062">2</text>
     </g>
    </g>
    <g id="ytick_6">
     <g id="line2d_21">
      <g>
       <use style="stroke:#000000;stroke-width:0.8;" x="27.36" xlink:href="#m30b05ab1df" y="52.319531"/>
      </g>
     </g>
     <g id="text_14">
      <text style="font-family:DejaVu Sans;font-size:6px;font-stretch:normal;font-style:normal;font-weight:normal;text-anchor:end;" transform="rotate(-0, 20.36, 54.599062)" x="20.36" y="54.599062">4</text>
     </g>
    </g>
    <g id="text_15">
     <text style="font-family:DejaVu Sans;font-size:6px;font-stretch:normal;font-style:normal;font-weight:normal;text-anchor:middle;" transform="rotate(-90, 4.559063, 73.739531)" x="4.559063" y="73.739531">number of detections</text>
    </g>
   </g>
   <g id="line2d_22">
    <path d="M 27.36 95.159531 
L 29.150924 95.159531 
L 30.941849 95.159531 
L 32.732773 95.159531 
L 34.523697 95.159531 
L 36.314622 95.159531 
L 38.105546 95.159531 
L 39.896471 95.159531 
L 41.687395 95.159531 
L 43.478319 95.159531 
L 45.269244 95.159531 
L 47.060168 95.159531 
L 48.851092 95.159531 
L 50.642017 95.159531 
L 52.432941 95.159531 
L 54.223866 95.159531 
L 56.01479 95.159531 
L 57.805714 95.159531 
L 59.596639 95.159531 
L 61.387563 95.159531 
L 63.178487 95.159531 
L 64.969412 95.159531 
L 66.760336 95.159531 
L 68.551261 95.159531 
L 70.342185 95.159531 
L 72.133109 95.159531 
L 73.924034 95.159531 
L 75.714958 95.159531 
L 77.505882 95.159531 
L 79.296807 95.159531 
L 81.087731 95.159531 
L 82.878655 95.159531 
L 84.66958 95.159531 
L 86.460504 95.159531 
L 88.251429 95.159531 
L 90.042353 95.159531 
L 91.833277 95.159531 
L 93.624202 95.159531 
L 95.415126 95.159531 
L 97.20605 95.159531 
L 98.996975 95.159531 
L 100.787899 95.159531 
L 102.578824 95.159531 
L 104.369748 95.159531 
L 106.160672 95.159531 
L 107.951597 95.159531 
L 109.742521 95.159531 
L 111.533445 95.159531 
L 113.32437 95.159531 
L 115.115294 95.159531 
L 116.906218 95.159531 
L 118.697143 95.159531 
L 120.488067 95.159531 
L 122.278992 95.159531 
L 124.069916 95.159531 
L 125.86084 95.159531 
L 127.651765 95.159531 
L 129.442689 95.159531 
L 131.233613 95.159531 
L 133.024538 95.159531 
L 134.815462 95.159531 
L 136.606387 95.159531 
L 138.397311 95.159531 
L 140.188235 95.159531 
L 141.97916 95.159531 
L 143.770084 95.159531 
L 145.561008 95.159531 
L 147.351933 95.159531 
L 149.142857 95.159531 
L 150.933782 95.159531 
L 152.724706 95.159531 
L 154.51563 95.159531 
L 156.306555 95.159531 
L 158.097479 95.159531 
L 159.888403 95.159531 
L 161.679328 95.159531 
L 163.470252 95.159531 
L 165.261176 95.159531 
L 167.052101 95.159531 
L 168.843025 95.159531 
L 170.63395 95.159531 
L 172.424874 95.159531 
L 174.215798 95.159531 
L 176.006723 95.159531 
L 177.797647 95.159531 
L 179.588571 95.159531 
L 181.379496 95.159531 
L 183.17042 95.159531 
L 184.961345 95.159531 
L 186.752269 95.159531 
L 188.543193 95.159531 
L 190.334118 95.159531 
L 192.125042 95.159531 
L 193.915966 95.159531 
L 195.706891 95.159531 
L 197.497815 95.159531 
L 199.288739 95.159531 
L 201.079664 95.159531 
L 202.870588 95.159531 
L 204.661513 95.159531 
L 206.452437 95.159531 
L 208.243361 95.159531 
L 210.034286 95.159531 
L 211.82521 95.159531 
L 213.616134 95.159531 
L 215.407059 95.159531 
L 217.197983 95.159531 
L 218.988908 95.159531 
L 220.779832 95.159531 
L 222.570756 95.159531 
L 224.361681 95.159531 
L 226.152605 95.159531 
L 227.943529 95.159531 
L 229.734454 95.159531 
L 231.525378 95.159531 
L 233.316303 95.159531 
L 235.107227 95.159531 
L 236.898151 95.159531 
L 238.689076 95.159531 
L 240.48 95.159531 
" style="fill:none;stroke:#9467bd;stroke-linecap:square;stroke-width:0.5;"/>
   </g>
   <g id="line2d_23">
    <path d="M 27.36 95.159531 
L 29.150924 95.159531 
L 30.941849 95.159531 
L 32.732773 95.159531 
L 34.523697 95.159531 
L 36.314622 95.159531 
L 38.105546 95.159531 
L 39.896471 95.159531 
L 41.687395 95.159531 
L 43.478319 95.159531 
L 45.269244 95.159531 
L 47.060168 95.159531 
L 48.851092 95.159531 
L 50.642017 95.159531 
L 52.432941 95.159531 
L 54.223866 95.159531 
L 56.01479 95.159531 
L 57.805714 95.159531 
L 59.596639 95.159531 
L 61.387563 95.159531 
L 63.178487 95.159531 
L 64.969412 95.159531 
L 66.760336 95.159531 
L 68.551261 95.159531 
L 70.342185 95.159531 
L 72.133109 95.159531 
L 73.924034 95.159531 
L 75.714958 95.159531 
L 77.505882 95.159531 
L 79.296807 95.159531 
L 81.087731 95.159531 
L 82.878655 95.159531 
L 84.66958 95.159531 
L 86.460504 95.159531 
L 88.251429 95.159531 
L 90.042353 95.159531 
L 91.833277 95.159531 
L 93.624202 95.159531 
L 95.415126 95.159531 
L 97.20605 95.159531 
L 98.996975 95.159531 
L 100.787899 95.159531 
L 102.578824 95.159531 
L 104.369748 95.159531 
L 106.160672 95.159531 
L 107.951597 95.159531 
L 109.742521 95.159531 
L 111.533445 95.159531 
L 113.32437 95.159531 
L 115.115294 95.159531 
L 116.906218 95.159531 
L 118.697143 95.159531 
L 120.488067 95.159531 
L 122.278992 95.159531 
L 124.069916 95.159531 
L 125.86084 95.159531 
L 127.651765 95.159531 
L 129.442689 95.159531 
L 131.233613 95.159531 
L 133.024538 95.159531 
L 134.815462 95.159531 
L 136.606387 95.159531 
L 138.397311 95.159531 
L 140.188235 95.159531 
L 141.97916 95.159531 
L 143.770084 95.159531 
L 145.561008 95.159531 
L 147.351933 95.159531 
L 149.142857 95.159531 
L 150.933782 95.159531 
L 152.724706 95.159531 
L 154.51563 95.159531 
L 156.306555 95.159531 
L 158.097479 95.159531 
L 159.888403 95.159531 
L 161.679328 95.159531 
L 163.470252 95.159531 
L 165.261176 95.159531 
L 167.052101 95.159531 
L 168.843025 95.159531 
L 170.63395 95.159531 
L 172.424874 95.159531 
L 174.215798 95.159531 
L 176.006723 95.159531 
L 177.797647 95.159531 
L 179.588571 95.159531 
L 181.379496 95.159531 
L 183.17042 95.159531 
L 184.961345 95.159531 
L 186.752269 95.159531 
L 188.543193 95.159531 
L 190.334118 95.159531 
L 192.125042 95.159531 
L 193.915966 95.159531 
L 195.706891 95.159531 
L 197.497815 95.159531 
L 199.288739 95.159531 
L 201.079664 95.159531 
L 202.870588 95.159531 
L 204.661513 95.159531 
L 206.452437 95.159531 
L 208.243361 95.159531 
L 210.034286 95.159531 
L 211.82521 95.159531 
L 213.616134 95.159531 
L 215.407059 95.159531 
L 217.197983 95.159531 
L 218.988908 95.159531 
L 220.779832 95.159531 
L 222.570756 95.159531 
L 224.361681 95.159531 
L 226.152605 95.159531 
L 227.943529 95.159531 
L 229.734454 95.159531 
L 231.525378 95.159531 
L 233.316303 95.159531 
L 235.107227 95.159531 
L 236.898151 95.159531 
L 238.689076 95.159531 
L 240.48 95.159531 
" style="fill:none;stroke:#d62728;stroke-linecap:square;stroke-width:0.5;"/>
   </g>
   <g id="line2d_24">
    <path d="M 27.36 84.449531 
L 29.150924 95.159531 
L 30.941849 95.159531 
L 32.732773 95.159531 
L 34.523697 95.159531 
L 36.314622 95.159531 
L 38.105546 95.159531 
L 39.896471 95.159531 
L 41.687395 95.159531 
L 43.478319 95.159531 
L 45.269244 95.159531 
L 47.060168 95.159531 
L 48.851092 95.159531 
L 50.642017 95.159531 
L 52.432941 95.159531 
L 54.223866 95.159531 
L 56.01479 95.159531 
L 57.805714 95.159531 
L 59.596639 95.159531 
L 61.387563 95.159531 
L 63.178487 95.159531 
L 64.969412 95.159531 
L 66.760336 95.159531 
L 68.551261 95.159531 
L 70.342185 95.159531 
L 72.133109 95.159531 
L 73.924034 95.159531 
L 75.714958 95.159531 
L 77.505882 84.449531 
L 79.296807 84.449531 
L 81.087731 95.159531 
L 82.878655 84.449531 
L 84.66958 84.449531 
L 86.460504 95.159531 
L 88.251429 95.159531 
L 90.042353 95.159531 
L 91.833277 95.159531 
L 93.624202 95.159531 
L 95.415126 95.159531 
L 97.20605 95.159531 
L 98.996975 95.159531 
L 100.787899 95.159531 
L 102.578824 95.159531 
L 104.369748 95.159531 
L 106.160672 95.159531 
L 107.951597 95.159531 
L 109.742521 95.159531 
L 111.533445 95.159531 
L 113.32437 95.159531 
L 115.115294 95.159531 
L 116.906218 95.159531 
L 118.697143 95.159531 
L 120.488067 95.159531 
L 122.278992 95.159531 
L 124.069916 95.159531 
L 125.86084 95.159531 
L 127.651765 95.159531 
L 129.442689 95.159531 
L 131.233613 95.159531 
L 133.024538 84.449531 
L 134.815462 95.159531 
L 136.606387 95.159531 
L 138.397311 95.159531 
L 140.188235 95.159531 
L 141.97916 95.159531 
L 143.770084 95.159531 
L 145.561008 95.159531 
L 147.351933 95.159531 
L 149.142857 95.159531 
L 150.933782 95.159531 
L 152.724706 95.159531 
L 154.51563 95.159531 
L 156.306555 95.159531 
L 158.097479 95.159531 
L 159.888403 95.159531 
L 161.679328 95.159531 
L 163.470252 95.159531 
L 165.261176 95.159531 
L 167.052101 95.159531 
L 168.843025 95.159531 
L 170.63395 95.159531 
L 172.424874 95.159531 
L 174.215798 95.159531 
L 176.006723 95.159531 
L 177.797647 95.159531 
L 179.588571 95.159531 
L 181.379496 95.159531 
L 183.17042 95.159531 
L 184.961345 95.159531 
L 186.752269 95.159531 
L 188.543193 95.159531 
L 190.334118 84.449531 
L 192.125042 95.159531 
L 193.915966 95.159531 
L 195.706891 95.159531 
L 197.497815 95.159531 
L 199.288739 95.159531 
L 201.079664 95.159531 
L 202.870588 95.159531 
L 204.661513 95.159531 
L 206.452437 95.159531 
L 208.243361 95.159531 
L 210.034286 95.159531 
L 211.82521 95.159531 
L 213.616134 95.159531 
L 215.407059 95.159531 
L 217.197983 95.159531 
L 218.988908 95.159531 
L 220.779832 95.159531 
L 222.570756 95.159531 
L 224.361681 95.159531 
L 226.152605 95.159531 
L 227.943529 95.159531 
L 229.734454 95.159531 
L 231.525378 95.159531 
L 233.316303 95.159531 
L 235.107227 95.159531 
L 236.898151 95.159531 
L 238.689076 95.159531 
L 240.48 95.159531 
" style="fill:none;stroke:#17becf;stroke-linecap:square;stroke-width:0.5;"/>
   </g>
   <g id="line2d_25">
    <path d="M 27.36 95.159531 
L 29.150924 95.159531 
L 30.941849 95.159531 
L 32.732773 95.159531 
L 34.523697 95.159531 
L 36.314622 95.159531 
L 38.105546 84.449531 
L 39.896471 84.449531 
L 41.687395 84.449531 
L 43.478319 84.449531 
L 45.269244 84.449531 
L 47.060168 84.449531 
L 48.851092 84.449531 
L 50.642017 84.449531 
L 52.432941 84.449531 
L 54.223866 84.449531 
L 56.01479 84.449531 
L 57.805714 84.449531 
L 59.596639 84.449531 
L 61.387563 84.449531 
L 63.178487 95.159531 
L 64.969412 95.159531 
L 66.760336 95.159531 
L 68.551261 95.159531 
L 70.342185 95.159531 
L 72.133109 95.159531 
L 73.924034 95.159531 
L 75.714958 95.159531 
L 77.505882 95.159531 
L 79.296807 95.159531 
L 81.087731 95.159531 
L 82.878655 95.159531 
L 84.66958 95.159531 
L 86.460504 95.159531 
L 88.251429 95.159531 
L 90.042353 95.159531 
L 91.833277 95.159531 
L 93.624202 95.159531 
L 95.415126 84.449531 
L 97.20605 84.449531 
L 98.996975 84.449531 
L 100.787899 84.449531 
L 102.578824 84.449531 
L 104.369748 84.449531 
L 106.160672 84.449531 
L 107.951597 95.159531 
L 109.742521 84.449531 
L 111.533445 95.159531 
L 113.32437 95.159531 
L 115.115294 95.159531 
L 116.906218 95.159531 
L 118.697143 95.159531 
L 120.488067 95.159531 
L 122.278992 95.159531 
L 124.069916 95.159531 
L 125.86084 95.159531 
L 127.651765 95.159531 
L 129.442689 95.159531 
L 131.233613 95.159531 
L 133.024538 95.159531 
L 134.815462 95.159531 
L 136.606387 95.159531 
L 138.397311 95.159531 
L 140.188235 95.159531 
L 141.97916 95.159531 
L 143.770084 84.449531 
L 145.561008 84.449531 
L 147.351933 84.449531 
L 149.142857 84.449531 
L 150.933782 84.449531 
L 152.724706 84.449531 
L 154.51563 84.449531 
L 156.306555 84.449531 
L 158.097479 84.449531 
L 159.888403 84.449531 
L 161.679328 84.449531 
L 163.470252 84.449531 
L 165.261176 84.449531 
L 167.052101 73.739531 
L 168.843025 95.159531 
L 170.63395 95.159531 
L 172.424874 95.159531 
L 174.215798 95.159531 
L 176.006723 95.159531 
L 177.797647 95.159531 
L 179.588571 95.159531 
L 181.379496 95.159531 
L 183.17042 95.159531 
L 184.961345 95.159531 
L 186.752269 95.159531 
L 188.543193 95.159531 
L 190.334118 95.159531 
L 192.125042 95.159531 
L 193.915966 95.159531 
L 195.706891 95.159531 
L 197.497815 95.159531 
L 199.288739 95.159531 
L 201.079664 95.159531 
L 202.870588 84.449531 
L 204.661513 84.449531 
L 206.452437 84.449531 
L 208.243361 84.449531 
L 210.034286 84.449531 
L 211.82521 84.449531 
L 213.616134 95.159531 
L 215.407059 84.449531 
L 217.197983 73.739531 
L 218.988908 73.739531 
L 220.779832 84.449531 
L 222.570756 84.449531 
L 224.361681 84.449531 
L 226.152605 84.449531 
L 227.943529 84.449531 
L 229.734454 84.449531 
L 231.525378 84.449531 
L 233.316303 95.159531 
L 235.107227 95.159531 
L 236.898151 95.159531 
L 238.689076 95.159531 
L 240.48 95.159531 
" style="fill:none;stroke:#bcbd22;stroke-linecap:square;stroke-width:0.5;"/>
   </g>
   <g id="patch_6">
    <path d="M 27.36 95.159531 
L 27.36 52.319531 
" style="fill:none;stroke:#000000;stroke-linecap:square;stroke-linejoin:miter;stroke-width:0.8;"/>
   </g>
   <g id="legend_2">
    <g id="line2d_26">
     <path d="M 161.22 60.178594 
L 173.22 60.178594 
" style="fill:none;stroke:#9467bd;stroke-linecap:square;stroke-width:0.5;"/>
    </g>
    <g id="line2d_27"/>
    <g id="text_16">
     <text style="font-family:DejaVu Sans;font-size:6px;font-stretch:normal;font-style:normal;font-weight:normal;text-anchor:start;" transform="rotate(-0, 178.02, 62.278594)" x="178.02" y="62.278594">left elbow marker</text>
    </g>
    <g id="line2d_28">
     <path d="M 161.22 68.985469 
L 173.22 68.985469 
" style="fill:none;stroke:#d62728;stroke-linecap:square;stroke-width:0.5;"/>
    </g>
    <g id="line2d_29"/>
    <g id="text_17">
     <text style="font-family:DejaVu Sans;font-size:6px;font-stretch:normal;font-style:normal;font-weight:normal;text-anchor:start;" transform="rotate(-0, 178.02, 71.085469)" x="178.02" y="71.085469">right elbow marker</text>
    </g>
    <g id="line2d_30">
     <path d="M 161.22 77.792344 
L 173.22 77.792344 
" style="fill:none;stroke:#17becf;stroke-linecap:square;stroke-width:0.5;"/>
    </g>
    <g id="line2d_31"/>
    <g id="text_18">
     <text style="font-family:DejaVu Sans;font-size:6px;font-stretch:normal;font-style:normal;font-weight:normal;text-anchor:start;" transform="rotate(-0, 178.02, 79.892344)" x="178.02" y="79.892344">left knee marker</text>
    </g>
    <g id="line2d_32">
     <path d="M 161.22 86.599219 
L 173.22 86.599219 
" style="fill:none;stroke:#bcbd22;stroke-linecap:square;stroke-width:0.5;"/>
    </g>
    <g id="line2d_33"/>
    <g id="text_19">
     <text style="font-family:DejaVu Sans;font-size:6px;font-stretch:normal;font-style:normal;font-weight:normal;text-anchor:start;" transform="rotate(-0, 178.02, 88.699219)" x="178.02" y="88.699219">right knee marker</text>
    </g>
   </g>
  </g>
  <g id="axes_3">
   <g id="patch_7">
    <path d="M 27.36 45.119531 
L 240.48 45.119531 
L 240.48 2.279531 
L 27.36 2.279531 
z
" style="fill:none;"/>
   </g>
   <g id="matplotlib.axis_4">
    <g id="ytick_7">
     <g id="line2d_34">
      <g>
       <use style="stroke:#000000;stroke-width:0.8;" x="27.36" xlink:href="#m30b05ab1df" y="45.119531"/>
      </g>
     </g>
     <g id="text_20">
      <text style="font-family:DejaVu Sans;font-size:6px;font-stretch:normal;font-style:normal;font-weight:normal;text-anchor:end;" transform="rotate(-0, 20.36, 47.399062)" x="20.36" y="47.399062">0</text>
     </g>
    </g>
    <g id="ytick_8">
     <g id="line2d_35">
      <g>
       <use style="stroke:#000000;stroke-width:0.8;" x="27.36" xlink:href="#m30b05ab1df" y="23.699531"/>
      </g>
     </g>
     <g id="text_21">
      <text style="font-family:DejaVu Sans;font-size:6px;font-stretch:normal;font-style:normal;font-weight:normal;text-anchor:end;" transform="rotate(-0, 20.36, 25.979062)" x="20.36" y="25.979062">2</text>
     </g>
    </g>
    <g id="ytick_9">
     <g id="line2d_36">
      <g>
       <use style="stroke:#000000;stroke-width:0.8;" x="27.36" xlink:href="#m30b05ab1df" y="2.279531"/>
      </g>
     </g>
     <g id="text_22">
      <text style="font-family:DejaVu Sans;font-size:6px;font-stretch:normal;font-style:normal;font-weight:normal;text-anchor:end;" transform="rotate(-0, 20.36, 4.559062)" x="20.36" y="4.559062">4</text>
     </g>
    </g>
   </g>
   <g id="line2d_37">
    <path d="M 27.36 12.989531 
L 29.150924 12.989531 
L 30.941849 12.989531 
L 32.732773 12.989531 
L 34.523697 12.989531 
L 36.314622 12.989531 
L 38.105546 12.989531 
L 39.896471 12.989531 
L 41.687395 12.989531 
L 43.478319 12.989531 
L 45.269244 12.989531 
L 47.060168 12.989531 
L 48.851092 12.989531 
L 50.642017 12.989531 
L 52.432941 12.989531 
L 54.223866 12.989531 
L 56.01479 12.989531 
L 57.805714 12.989531 
L 59.596639 12.989531 
L 61.387563 12.989531 
L 63.178487 12.989531 
L 64.969412 12.989531 
L 66.760336 12.989531 
L 68.551261 12.989531 
L 70.342185 12.989531 
L 72.133109 12.989531 
L 73.924034 12.989531 
L 75.714958 12.989531 
L 77.505882 12.989531 
L 79.296807 12.989531 
L 81.087731 2.279531 
L 82.878655 12.989531 
L 84.66958 12.989531 
L 86.460504 12.989531 
L 88.251429 12.989531 
L 90.042353 12.989531 
L 91.833277 12.989531 
L 93.624202 12.989531 
L 95.415126 2.279531 
L 97.20605 12.989531 
L 98.996975 12.989531 
L 100.787899 12.989531 
L 102.578824 23.699531 
L 104.369748 23.699531 
L 106.160672 12.989531 
L 107.951597 12.989531 
L 109.742521 12.989531 
L 111.533445 12.989531 
L 113.32437 12.989531 
L 115.115294 12.989531 
L 116.906218 12.989531 
L 118.697143 12.989531 
L 120.488067 12.989531 
L 122.278992 12.989531 
L 124.069916 12.989531 
L 125.86084 2.279531 
L 127.651765 2.279531 
L 129.442689 2.279531 
L 131.233613 12.989531 
L 133.024538 2.279531 
L 134.815462 12.989531 
L 136.606387 2.279531 
L 138.397311 12.989531 
L 140.188235 2.279531 
L 141.97916 2.279531 
L 143.770084 2.279531 
L 145.561008 2.279531 
L 147.351933 12.989531 
L 149.142857 12.989531 
L 150.933782 12.989531 
L 152.724706 12.989531 
L 154.51563 12.989531 
L 156.306555 12.989531 
L 158.097479 12.989531 
L 159.888403 12.989531 
L 161.679328 12.989531 
L 163.470252 12.989531 
L 165.261176 23.699531 
L 167.052101 23.699531 
L 168.843025 23.699531 
L 170.63395 23.699531 
L 172.424874 23.699531 
L 174.215798 23.699531 
L 176.006723 23.699531 
L 177.797647 23.699531 
L 179.588571 23.699531 
L 181.379496 23.699531 
L 183.17042 23.699531 
L 184.961345 12.989531 
L 186.752269 12.989531 
L 188.543193 12.989531 
L 190.334118 12.989531 
L 192.125042 12.989531 
L 193.915966 12.989531 
L 195.706891 12.989531 
L 197.497815 12.989531 
L 199.288739 12.989531 
L 201.079664 12.989531 
L 202.870588 12.989531 
L 204.661513 12.989531 
L 206.452437 12.989531 
L 208.243361 23.699531 
L 210.034286 23.699531 
L 211.82521 23.699531 
L 213.616134 23.699531 
L 215.407059 23.699531 
L 217.197983 23.699531 
L 218.988908 23.699531 
L 220.779832 23.699531 
L 222.570756 23.699531 
L 224.361681 23.699531 
L 226.152605 23.699531 
L 227.943529 23.699531 
L 229.734454 23.699531 
L 231.525378 23.699531 
L 233.316303 23.699531 
L 235.107227 23.699531 
L 236.898151 23.699531 
L 238.689076 23.699531 
L 240.48 23.699531 
" style="fill:none;stroke:#a55194;stroke-linecap:square;stroke-width:0.5;"/>
   </g>
   <g id="line2d_38">
    <path d="M 27.36 12.989531 
L 29.150924 12.989531 
L 30.941849 12.989531 
L 32.732773 12.989531 
L 34.523697 2.279531 
L 36.314622 2.279531 
L 38.105546 2.279531 
L 39.896471 2.279531 
L 41.687395 2.279531 
L 43.478319 2.279531 
L 45.269244 2.279531 
L 47.060168 2.279531 
L 48.851092 2.279531 
L 50.642017 2.279531 
L 52.432941 2.279531 
L 54.223866 2.279531 
L 56.01479 2.279531 
L 57.805714 2.279531 
L 59.596639 2.279531 
L 61.387563 2.279531 
L 63.178487 2.279531 
L 64.969412 2.279531 
L 66.760336 2.279531 
L 68.551261 2.279531 
L 70.342185 2.279531 
L 72.133109 2.279531 
L 73.924034 2.279531 
L 75.714958 2.279531 
L 77.505882 2.279531 
L 79.296807 2.279531 
L 81.087731 12.989531 
L 82.878655 12.989531 
L 84.66958 2.279531 
L 86.460504 12.989531 
L 88.251429 12.989531 
L 90.042353 12.989531 
L 91.833277 12.989531 
L 93.624202 12.989531 
L 95.415126 2.279531 
L 97.20605 2.279531 
L 98.996975 2.279531 
L 100.787899 2.279531 
L 102.578824 2.279531 
L 104.369748 2.279531 
L 106.160672 2.279531 
L 107.951597 2.279531 
L 109.742521 2.279531 
L 111.533445 2.279531 
L 113.32437 2.279531 
L 115.115294 2.279531 
L 116.906218 2.279531 
L 118.697143 2.279531 
L 120.488067 2.279531 
L 122.278992 2.279531 
L 124.069916 2.279531 
L 125.86084 2.279531 
L 127.651765 2.279531 
L 129.442689 2.279531 
L 131.233613 2.279531 
L 133.024538 12.989531 
L 134.815462 12.989531 
L 136.606387 12.989531 
L 138.397311 12.989531 
L 140.188235 12.989531 
L 141.97916 2.279531 
L 143.770084 2.279531 
L 145.561008 2.279531 
L 147.351933 2.279531 
L 149.142857 2.279531 
L 150.933782 2.279531 
L 152.724706 2.279531 
L 154.51563 2.279531 
L 156.306555 2.279531 
L 158.097479 2.279531 
L 159.888403 2.279531 
L 161.679328 2.279531 
L 163.470252 2.279531 
L 165.261176 2.279531 
L 167.052101 2.279531 
L 168.843025 2.279531 
L 170.63395 2.279531 
L 172.424874 2.279531 
L 174.215798 2.279531 
L 176.006723 2.279531 
L 177.797647 2.279531 
L 179.588571 12.989531 
L 181.379496 12.989531 
L 183.17042 12.989531 
L 184.961345 12.989531 
L 186.752269 12.989531 
L 188.543193 12.989531 
L 190.334118 12.989531 
L 192.125042 12.989531 
L 193.915966 12.989531 
L 195.706891 12.989531 
L 197.497815 12.989531 
L 199.288739 12.989531 
L 201.079664 12.989531 
L 202.870588 12.989531 
L 204.661513 12.989531 
L 206.452437 12.989531 
L 208.243361 12.989531 
L 210.034286 12.989531 
L 211.82521 12.989531 
L 213.616134 12.989531 
L 215.407059 12.989531 
L 217.197983 12.989531 
L 218.988908 12.989531 
L 220.779832 12.989531 
L 222.570756 12.989531 
L 224.361681 12.989531 
L 226.152605 12.989531 
L 227.943529 12.989531 
L 229.734454 12.989531 
L 231.525378 12.989531 
L 233.316303 12.989531 
L 235.107227 12.989531 
L 236.898151 12.989531 
L 238.689076 12.989531 
L 240.48 12.989531 
" style="fill:none;stroke:#ad494a;stroke-linecap:square;stroke-width:0.5;"/>
   </g>
   <g id="line2d_39">
    <path d="M 27.36 12.989531 
L 29.150924 12.989531 
L 30.941849 12.989531 
L 32.732773 12.989531 
L 34.523697 12.989531 
L 36.314622 12.989531 
L 38.105546 12.989531 
L 39.896471 12.989531 
L 41.687395 12.989531 
L 43.478319 12.989531 
L 45.269244 23.699531 
L 47.060168 23.699531 
L 48.851092 23.699531 
L 50.642017 23.699531 
L 52.432941 23.699531 
L 54.223866 23.699531 
L 56.01479 23.699531 
L 57.805714 23.699531 
L 59.596639 23.699531 
L 61.387563 23.699531 
L 63.178487 23.699531 
L 64.969412 23.699531 
L 66.760336 12.989531 
L 68.551261 12.989531 
L 70.342185 12.989531 
L 72.133109 12.989531 
L 73.924034 12.989531 
L 75.714958 12.989531 
L 77.505882 2.279531 
L 79.296807 2.279531 
L 81.087731 2.279531 
L 82.878655 2.279531 
L 84.66958 2.279531 
L 86.460504 2.279531 
L 88.251429 2.279531 
L 90.042353 12.989531 
L 91.833277 12.989531 
L 93.624202 12.989531 
L 95.415126 12.989531 
L 97.20605 12.989531 
L 98.996975 12.989531 
L 100.787899 12.989531 
L 102.578824 12.989531 
L 104.369748 12.989531 
L 106.160672 12.989531 
L 107.951597 23.699531 
L 109.742521 12.989531 
L 111.533445 12.989531 
L 113.32437 12.989531 
L 115.115294 12.989531 
L 116.906218 12.989531 
L 118.697143 12.989531 
L 120.488067 2.279531 
L 122.278992 2.279531 
L 124.069916 2.279531 
L 125.86084 2.279531 
L 127.651765 2.279531 
L 129.442689 2.279531 
L 131.233613 2.279531 
L 133.024538 2.279531 
L 134.815462 2.279531 
L 136.606387 2.279531 
L 138.397311 2.279531 
L 140.188235 12.989531 
L 141.97916 12.989531 
L 143.770084 12.989531 
L 145.561008 12.989531 
L 147.351933 12.989531 
L 149.142857 12.989531 
L 150.933782 12.989531 
L 152.724706 12.989531 
L 154.51563 12.989531 
L 156.306555 12.989531 
L 158.097479 12.989531 
L 159.888403 12.989531 
L 161.679328 12.989531 
L 163.470252 12.989531 
L 165.261176 12.989531 
L 167.052101 12.989531 
L 168.843025 12.989531 
L 170.63395 12.989531 
L 172.424874 12.989531 
L 174.215798 12.989531 
L 176.006723 12.989531 
L 177.797647 12.989531 
L 179.588571 12.989531 
L 181.379496 12.989531 
L 183.17042 12.989531 
L 184.961345 12.989531 
L 186.752269 12.989531 
L 188.543193 2.279531 
L 190.334118 2.279531 
L 192.125042 2.279531 
L 193.915966 2.279531 
L 195.706891 2.279531 
L 197.497815 2.279531 
L 199.288739 2.279531 
L 201.079664 2.279531 
L 202.870588 2.279531 
L 204.661513 2.279531 
L 206.452437 2.279531 
L 208.243361 2.279531 
L 210.034286 12.989531 
L 211.82521 12.989531 
L 213.616134 12.989531 
L 215.407059 12.989531 
L 217.197983 12.989531 
L 218.988908 12.989531 
L 220.779832 12.989531 
L 222.570756 12.989531 
L 224.361681 12.989531 
L 226.152605 12.989531 
L 227.943529 12.989531 
L 229.734454 12.989531 
L 231.525378 12.989531 
L 233.316303 12.989531 
L 235.107227 12.989531 
L 236.898151 2.279531 
L 238.689076 2.279531 
L 240.48 2.279531 
" style="fill:none;stroke:#5254a3;stroke-linecap:square;stroke-width:0.5;"/>
   </g>
   <g id="line2d_40">
    <path d="M 27.36 23.699531 
L 29.150924 23.699531 
L 30.941849 23.699531 
L 32.732773 23.699531 
L 34.523697 23.699531 
L 36.314622 12.989531 
L 38.105546 12.989531 
L 39.896471 12.989531 
L 41.687395 12.989531 
L 43.478319 12.989531 
L 45.269244 2.279531 
L 47.060168 2.279531 
L 48.851092 2.279531 
L 50.642017 2.279531 
L 52.432941 2.279531 
L 54.223866 2.279531 
L 56.01479 2.279531 
L 57.805714 12.989531 
L 59.596639 12.989531 
L 61.387563 12.989531 
L 63.178487 12.989531 
L 64.969412 12.989531 
L 66.760336 12.989531 
L 68.551261 12.989531 
L 70.342185 12.989531 
L 72.133109 23.699531 
L 73.924034 34.409531 
L 75.714958 34.409531 
L 77.505882 34.409531 
L 79.296807 34.409531 
L 81.087731 34.409531 
L 82.878655 23.699531 
L 84.66958 23.699531 
L 86.460504 23.699531 
L 88.251429 23.699531 
L 90.042353 23.699531 
L 91.833277 12.989531 
L 93.624202 12.989531 
L 95.415126 2.279531 
L 97.20605 2.279531 
L 98.996975 2.279531 
L 100.787899 2.279531 
L 102.578824 2.279531 
L 104.369748 2.279531 
L 106.160672 2.279531 
L 107.951597 2.279531 
L 109.742521 12.989531 
L 111.533445 12.989531 
L 113.32437 12.989531 
L 115.115294 12.989531 
L 116.906218 12.989531 
L 118.697143 12.989531 
L 120.488067 12.989531 
L 122.278992 23.699531 
L 124.069916 23.699531 
L 125.86084 23.699531 
L 127.651765 23.699531 
L 129.442689 23.699531 
L 131.233613 23.699531 
L 133.024538 23.699531 
L 134.815462 12.989531 
L 136.606387 12.989531 
L 138.397311 12.989531 
L 140.188235 2.279531 
L 141.97916 2.279531 
L 143.770084 2.279531 
L 145.561008 2.279531 
L 147.351933 2.279531 
L 149.142857 2.279531 
L 150.933782 2.279531 
L 152.724706 2.279531 
L 154.51563 2.279531 
L 156.306555 2.279531 
L 158.097479 2.279531 
L 159.888403 2.279531 
L 161.679328 2.279531 
L 163.470252 2.279531 
L 165.261176 2.279531 
L 167.052101 2.279531 
L 168.843025 12.989531 
L 170.63395 12.989531 
L 172.424874 12.989531 
L 174.215798 12.989531 
L 176.006723 12.989531 
L 177.797647 12.989531 
L 179.588571 12.989531 
L 181.379496 12.989531 
L 183.17042 12.989531 
L 184.961345 23.699531 
L 186.752269 23.699531 
L 188.543193 23.699531 
L 190.334118 23.699531 
L 192.125042 23.699531 
L 193.915966 23.699531 
L 195.706891 23.699531 
L 197.497815 23.699531 
L 199.288739 23.699531 
L 201.079664 12.989531 
L 202.870588 12.989531 
L 204.661513 12.989531 
L 206.452437 12.989531 
L 208.243361 12.989531 
L 210.034286 12.989531 
L 211.82521 12.989531 
L 213.616134 12.989531 
L 215.407059 2.279531 
L 217.197983 2.279531 
L 218.988908 2.279531 
L 220.779832 2.279531 
L 222.570756 2.279531 
L 224.361681 2.279531 
L 226.152605 2.279531 
L 227.943529 2.279531 
L 229.734454 12.989531 
L 231.525378 2.279531 
L 233.316303 12.989531 
L 235.107227 12.989531 
L 236.898151 23.699531 
L 238.689076 23.699531 
L 240.48 23.699531 
" style="fill:none;stroke:#bd9e39;stroke-linecap:square;stroke-width:0.5;"/>
   </g>
   <g id="patch_8">
    <path d="M 27.36 45.119531 
L 27.36 2.279531 
" style="fill:none;stroke:#000000;stroke-linecap:square;stroke-linejoin:miter;stroke-width:0.8;"/>
   </g>
   <g id="legend_3">
    <g id="line2d_41">
     <path d="M 152.929688 10.138594 
L 164.929688 10.138594 
" style="fill:none;stroke:#a55194;stroke-linecap:square;stroke-width:0.5;"/>
    </g>
    <g id="line2d_42"/>
    <g id="text_23">
     <text style="font-family:DejaVu Sans;font-size:6px;font-stretch:normal;font-style:normal;font-weight:normal;text-anchor:start;" transform="rotate(-0, 169.729688, 12.238594)" x="169.729688" y="12.238594">left shoulder marker</text>
    </g>
    <g id="line2d_43">
     <path d="M 152.929688 18.945469 
L 164.929688 18.945469 
" style="fill:none;stroke:#ad494a;stroke-linecap:square;stroke-width:0.5;"/>
    </g>
    <g id="line2d_44"/>
    <g id="text_24">
     <text style="font-family:DejaVu Sans;font-size:6px;font-stretch:normal;font-style:normal;font-weight:normal;text-anchor:start;" transform="rotate(-0, 169.729688, 21.045469)" x="169.729688" y="21.045469">right shoulder marker</text>
    </g>
    <g id="line2d_45">
     <path d="M 152.929688 27.752344 
L 164.929688 27.752344 
" style="fill:none;stroke:#5254a3;stroke-linecap:square;stroke-width:0.5;"/>
    </g>
    <g id="line2d_46"/>
    <g id="text_25">
     <text style="font-family:DejaVu Sans;font-size:6px;font-stretch:normal;font-style:normal;font-weight:normal;text-anchor:start;" transform="rotate(-0, 169.729688, 29.852344)" x="169.729688" y="29.852344">left hip marker</text>
    </g>
    <g id="line2d_47">
     <path d="M 152.929688 36.559219 
L 164.929688 36.559219 
" style="fill:none;stroke:#bd9e39;stroke-linecap:square;stroke-width:0.5;"/>
    </g>
    <g id="line2d_48"/>
    <g id="text_26">
     <text style="font-family:DejaVu Sans;font-size:6px;font-stretch:normal;font-style:normal;font-weight:normal;text-anchor:start;" transform="rotate(-0, 169.729688, 38.659219)" x="169.729688" y="38.659219">right hip marker</text>
    </g>
   </g>
  </g>
 </g>
</svg>
