<?xml version="1.0" encoding="utf-8" standalone="no"?>
<!DOCTYPE svg PUBLIC "-//W3C//DTD SVG 1.1//EN"
  "http://www.w3.org/Graphics/SVG/1.1/DTD/svg11.dtd">
<!-- Created with matplotlib (https://matplotlib.org/) -->
<svg height="64.08pt" version="1.1" viewBox="0 0 169.92 64.08" width="169.92pt" xmlns="http://www.w3.org/2000/svg" xmlns:xlink="http://www.w3.org/1999/xlink">
 <metadata>
  <rdf:RDF xmlns:cc="http://creativecommons.org/ns#" xmlns:dc="http://purl.org/dc/elements/1.1/" xmlns:rdf="http://www.w3.org/1999/02/22-rdf-syntax-ns#">
   <cc:Work>
    <dc:type rdf:resource="http://purl.org/dc/dcmitype/StillImage"/>
    <dc:date>2022-03-31T17:58:21.433014</dc:date>
    <dc:format>image/svg+xml</dc:format>
    <dc:creator>
     <cc:Agent>
      <dc:title>Matplotlib v3.3.1, https://matplotlib.org/</dc:title>
     </cc:Agent>
    </dc:creator>
   </cc:Work>
  </rdf:RDF>
 </metadata>
 <defs>
  <style type="text/css">*{stroke-linecap:butt;stroke-linejoin:round;}</style>
 </defs>
 <g id="figure_1">
  <g id="patch_1">
   <path d="M 0 64.08 
L 169.92 64.08 
L 169.92 0 
L 0 0 
z
" style="fill:none;"/>
  </g>
  <g id="axes_1">
   <g id="PolyCollection_1">
    <defs>
     <path d="M 13.5936 -37.889084 
L 13.5936 -36.09363 
L 16.2432 -35.875372 
L 18.8928 -35.733699 
L 21.5424 -35.551866 
L 24.192 -35.54949 
L 26.8416 -35.555742 
L 29.4912 -35.754194 
L 32.1408 -35.935402 
L 34.7904 -36.386646 
L 37.44 -37.075489 
L 40.0896 -37.578494 
L 42.7392 -37.826763 
L 45.3888 -38.063068 
L 48.0384 -38.090483 
L 50.688 -38.146411 
L 53.3376 -37.983329 
L 55.9872 -37.949855 
L 58.6368 -37.951585 
L 61.2864 -38.01595 
L 63.936 -38.15105 
L 66.5856 -38.308262 
L 69.2352 -38.554474 
L 71.8848 -38.689643 
L 74.5344 -38.906812 
L 77.184 -38.905137 
L 79.8336 -38.938116 
L 82.4832 -38.90028 
L 85.1328 -38.876305 
L 87.7824 -38.937263 
L 90.432 -39.125479 
L 93.0816 -39.269618 
L 95.7312 -39.509413 
L 98.3808 -39.686733 
L 101.0304 -40.016101 
L 103.68 -40.293308 
L 106.3296 -40.723175 
L 108.9792 -41.322109 
L 111.6288 -42.053095 
L 114.2784 -43.047555 
L 116.928 -44.108671 
L 119.5776 -45.22583 
L 122.2272 -46.40188 
L 124.8768 -47.384962 
L 127.5264 -47.972024 
L 130.176 -48.378743 
L 132.8256 -48.731521 
L 135.4752 -48.81001 
L 138.1248 -48.625877 
L 140.7744 -48.147696 
L 143.424 -47.509019 
L 146.0736 -46.4959 
L 148.7232 -45.063306 
L 151.3728 -43.63992 
L 154.0224 -42.091973 
L 156.672 -40.34614 
L 159.3216 -38.884755 
L 161.9712 -37.611394 
L 164.6208 -36.584555 
L 167.2704 -35.206363 
L 169.92 -34.455573 
L 169.92 -36.950238 
L 169.92 -36.950238 
L 167.2704 -37.7225 
L 164.6208 -39.034236 
L 161.9712 -40.038403 
L 159.3216 -41.333635 
L 156.672 -42.70271 
L 154.0224 -44.566465 
L 151.3728 -46.044368 
L 148.7232 -47.482476 
L 146.0736 -48.847426 
L 143.424 -49.779448 
L 140.7744 -50.401339 
L 138.1248 -50.872274 
L 135.4752 -51.046969 
L 132.8256 -50.999781 
L 130.176 -50.711583 
L 127.5264 -50.271649 
L 124.8768 -49.718527 
L 122.2272 -48.768877 
L 119.5776 -47.608108 
L 116.928 -46.541255 
L 114.2784 -45.485742 
L 111.6288 -44.579152 
L 108.9792 -43.81246 
L 106.3296 -43.242283 
L 103.68 -42.845459 
L 101.0304 -42.590973 
L 98.3808 -42.259285 
L 95.7312 -42.093712 
L 93.0816 -41.90306 
L 90.432 -41.744658 
L 87.7824 -41.679323 
L 85.1328 -41.56599 
L 82.4832 -41.669407 
L 79.8336 -41.668235 
L 77.184 -41.698707 
L 74.5344 -41.662432 
L 71.8848 -41.478391 
L 69.2352 -41.342153 
L 66.5856 -41.121605 
L 63.936 -40.909772 
L 61.2864 -40.760299 
L 58.6368 -40.622274 
L 55.9872 -40.587081 
L 53.3376 -40.534836 
L 50.688 -40.614967 
L 48.0384 -40.609064 
L 45.3888 -40.493431 
L 42.7392 -40.236382 
L 40.0896 -39.88107 
L 37.44 -39.319975 
L 34.7904 -38.483937 
L 32.1408 -37.986603 
L 29.4912 -37.79199 
L 26.8416 -37.545992 
L 24.192 -37.500888 
L 21.5424 -37.420536 
L 18.8928 -37.598266 
L 16.2432 -37.740632 
L 13.5936 -37.889084 
z
" id="meda54fd039" style="stroke:#9467bd;stroke-opacity:0.2;stroke-width:0.5;"/>
    </defs>
    <g clip-path="url(#p568d01a0d8)">
     <use style="fill:#9467bd;fill-opacity:0.2;stroke:#9467bd;stroke-opacity:0.2;stroke-width:0.5;" x="0" xlink:href="#meda54fd039" y="64.08"/>
    </g>
   </g>
   <g id="PolyCollection_2">
    <defs>
     <path d="M 13.5936 -37.698158 
L 13.5936 -35.707282 
L 16.2432 -35.689244 
L 18.8928 -35.667364 
L 21.5424 -35.661899 
L 24.192 -35.516141 
L 26.8416 -35.359469 
L 29.4912 -34.91297 
L 32.1408 -34.358897 
L 34.7904 -33.389557 
L 37.44 -32.308381 
L 40.0896 -31.605138 
L 42.7392 -31.252064 
L 45.3888 -30.998314 
L 48.0384 -30.915865 
L 50.688 -30.845434 
L 53.3376 -30.877658 
L 55.9872 -30.821109 
L 58.6368 -30.679745 
L 61.2864 -30.56284 
L 63.936 -30.471476 
L 66.5856 -30.358085 
L 69.2352 -30.225087 
L 71.8848 -30.149615 
L 74.5344 -29.972151 
L 77.184 -29.947134 
L 79.8336 -29.882091 
L 82.4832 -29.821596 
L 85.1328 -29.898638 
L 87.7824 -29.787674 
L 90.432 -29.632819 
L 93.0816 -29.373122 
L 95.7312 -29.048171 
L 98.3808 -28.806177 
L 101.0304 -28.47967 
L 103.68 -28.311982 
L 106.3296 -28.353374 
L 108.9792 -28.394659 
L 111.6288 -28.604302 
L 114.2784 -29.099174 
L 116.928 -29.848886 
L 119.5776 -30.333307 
L 122.2272 -30.717432 
L 124.8768 -31.171241 
L 127.5264 -31.742095 
L 130.176 -32.209596 
L 132.8256 -32.683246 
L 135.4752 -33.105784 
L 138.1248 -33.628163 
L 140.7744 -34.177603 
L 143.424 -34.86345 
L 146.0736 -35.603549 
L 148.7232 -36.494138 
L 151.3728 -37.422742 
L 154.0224 -38.170544 
L 156.672 -39.062305 
L 159.3216 -39.818068 
L 161.9712 -40.47183 
L 164.6208 -41.03382 
L 167.2704 -41.783211 
L 169.92 -42.268474 
L 169.92 -44.451399 
L 169.92 -44.451399 
L 167.2704 -43.957923 
L 164.6208 -43.217947 
L 161.9712 -42.601454 
L 159.3216 -41.935303 
L 156.672 -41.172792 
L 154.0224 -40.227012 
L 151.3728 -39.404946 
L 148.7232 -38.352353 
L 146.0736 -37.328124 
L 143.424 -36.532253 
L 140.7744 -35.727832 
L 138.1248 -35.074903 
L 135.4752 -34.514147 
L 132.8256 -34.022111 
L 130.176 -33.511682 
L 127.5264 -33.01275 
L 124.8768 -32.389174 
L 122.2272 -31.939825 
L 119.5776 -31.546229 
L 116.928 -31.075369 
L 114.2784 -30.369889 
L 111.6288 -29.97697 
L 108.9792 -29.798546 
L 106.3296 -29.887229 
L 103.68 -29.95786 
L 101.0304 -30.225836 
L 98.3808 -30.615977 
L 95.7312 -30.935451 
L 93.0816 -31.344547 
L 90.432 -31.621368 
L 87.7824 -31.916524 
L 85.1328 -32.005797 
L 82.4832 -31.971275 
L 79.8336 -31.998022 
L 77.184 -32.067487 
L 74.5344 -32.114547 
L 71.8848 -32.306711 
L 69.2352 -32.395125 
L 66.5856 -32.537588 
L 63.936 -32.623599 
L 61.2864 -32.711501 
L 58.6368 -32.774078 
L 55.9872 -32.91736 
L 53.3376 -32.957306 
L 50.688 -32.872751 
L 48.0384 -32.909519 
L 45.3888 -33.027314 
L 42.7392 -33.284393 
L 40.0896 -33.617668 
L 37.44 -34.270965 
L 34.7904 -35.421494 
L 32.1408 -36.337463 
L 29.4912 -36.915717 
L 26.8416 -37.362976 
L 24.192 -37.517227 
L 21.5424 -37.681507 
L 18.8928 -37.686031 
L 16.2432 -37.674225 
L 13.5936 -37.698158 
z
" id="m8005032d56" style="stroke:#d62728;stroke-opacity:0.2;stroke-width:0.5;"/>
    </defs>
    <g clip-path="url(#p568d01a0d8)">
     <use style="fill:#d62728;fill-opacity:0.2;stroke:#d62728;stroke-opacity:0.2;stroke-width:0.5;" x="0" xlink:href="#m8005032d56" y="64.08"/>
    </g>
   </g>
   <g id="PolyCollection_3">
    <defs>
     <path d="M 13.5936 -30.553872 
L 13.5936 -29.258126 
L 16.2432 -29.714545 
L 18.8928 -29.705036 
L 21.5424 -29.663713 
L 24.192 -29.708901 
L 26.8416 -29.855205 
L 29.4912 -30.203511 
L 32.1408 -30.290408 
L 34.7904 -30.594731 
L 37.44 -31.118691 
L 40.0896 -31.455886 
L 42.7392 -31.723881 
L 45.3888 -31.923443 
L 48.0384 -32.42251 
L 50.688 -32.830671 
L 53.3376 -33.315273 
L 55.9872 -33.81967 
L 58.6368 -34.424013 
L 61.2864 -34.915925 
L 63.936 -35.678236 
L 66.5856 -36.111621 
L 69.2352 -36.613529 
L 71.8848 -36.945802 
L 74.5344 -37.526909 
L 77.184 -38.156795 
L 79.8336 -38.484821 
L 82.4832 -38.678421 
L 85.1328 -39.217396 
L 87.7824 -39.566546 
L 90.432 -40.222382 
L 93.0816 -40.824182 
L 95.7312 -41.447601 
L 98.3808 -42.072865 
L 101.0304 -42.052868 
L 103.68 -41.597881 
L 106.3296 -39.868343 
L 108.9792 -37.616853 
L 111.6288 -35.108292 
L 114.2784 -32.805238 
L 116.928 -31.116257 
L 119.5776 -29.421825 
L 122.2272 -27.856634 
L 124.8768 -26.814175 
L 127.5264 -26.72184 
L 130.176 -26.929916 
L 132.8256 -27.480879 
L 135.4752 -27.81949 
L 138.1248 -28.617241 
L 140.7744 -29.352109 
L 143.424 -29.916947 
L 146.0736 -30.654605 
L 148.7232 -31.408847 
L 151.3728 -31.911314 
L 154.0224 -32.428401 
L 156.672 -32.927188 
L 159.3216 -33.133038 
L 161.9712 -33.88312 
L 164.6208 -34.21906 
L 167.2704 -34.843562 
L 169.92 -34.802198 
L 169.92 -36.11712 
L 169.92 -36.11712 
L 167.2704 -36.17042 
L 164.6208 -35.514439 
L 161.9712 -35.150978 
L 159.3216 -34.380034 
L 156.672 -34.157419 
L 154.0224 -33.654246 
L 151.3728 -33.118326 
L 148.7232 -32.616894 
L 146.0736 -31.853168 
L 143.424 -31.134603 
L 140.7744 -30.546148 
L 138.1248 -29.823294 
L 135.4752 -29.015784 
L 132.8256 -28.679022 
L 130.176 -28.136307 
L 127.5264 -27.974388 
L 124.8768 -28.112301 
L 122.2272 -29.170787 
L 119.5776 -30.812352 
L 116.928 -32.553022 
L 114.2784 -34.255069 
L 111.6288 -36.552159 
L 108.9792 -39.038899 
L 106.3296 -41.280825 
L 103.68 -42.956184 
L 101.0304 -43.40387 
L 98.3808 -43.430386 
L 95.7312 -42.827219 
L 93.0816 -42.162194 
L 90.432 -41.550665 
L 87.7824 -40.926139 
L 85.1328 -40.51777 
L 82.4832 -40.038417 
L 79.8336 -39.805962 
L 77.184 -39.470028 
L 74.5344 -38.890774 
L 71.8848 -38.329998 
L 69.2352 -38.025657 
L 66.5856 -37.528374 
L 63.936 -37.069432 
L 61.2864 -36.340542 
L 58.6368 -35.828572 
L 55.9872 -35.242367 
L 53.3376 -34.716645 
L 50.688 -34.227268 
L 48.0384 -33.8061 
L 45.3888 -33.304803 
L 42.7392 -33.061833 
L 40.0896 -32.787694 
L 37.44 -32.403833 
L 34.7904 -31.948251 
L 32.1408 -31.63125 
L 29.4912 -31.501954 
L 26.8416 -31.160152 
L 24.192 -31.021731 
L 21.5424 -30.997069 
L 18.8928 -31.048936 
L 16.2432 -31.047647 
L 13.5936 -30.553872 
z
" id="m2660183403" style="stroke:#17becf;stroke-opacity:0.2;stroke-width:0.5;"/>
    </defs>
    <g clip-path="url(#p568d01a0d8)">
     <use style="fill:#17becf;fill-opacity:0.2;stroke:#17becf;stroke-opacity:0.2;stroke-width:0.5;" x="0" xlink:href="#m2660183403" y="64.08"/>
    </g>
   </g>
   <g id="PolyCollection_4">
    <defs>
     <path d="M 13.5936 -40.131538 
L 13.5936 -38.594709 
L 16.2432 -38.645121 
L 18.8928 -38.817386 
L 21.5424 -38.661259 
L 24.192 -38.985536 
L 26.8416 -39.378436 
L 29.4912 -39.684817 
L 32.1408 -39.875151 
L 34.7904 -40.30599 
L 37.44 -40.769217 
L 40.0896 -41.146592 
L 42.7392 -41.536981 
L 45.3888 -41.823984 
L 48.0384 -41.956438 
L 50.688 -42.202438 
L 53.3376 -42.246126 
L 55.9872 -42.393782 
L 58.6368 -42.585138 
L 61.2864 -42.701775 
L 63.936 -42.73678 
L 66.5856 -42.832494 
L 69.2352 -42.900921 
L 71.8848 -42.91201 
L 74.5344 -42.901567 
L 77.184 -42.84999 
L 79.8336 -42.816424 
L 82.4832 -42.760396 
L 85.1328 -42.68866 
L 87.7824 -42.681422 
L 90.432 -42.720227 
L 93.0816 -42.781252 
L 95.7312 -42.819969 
L 98.3808 -42.920025 
L 101.0304 -43.041147 
L 103.68 -43.166291 
L 106.3296 -43.373576 
L 108.9792 -43.517778 
L 111.6288 -43.669531 
L 114.2784 -43.80035 
L 116.928 -43.89076 
L 119.5776 -43.992193 
L 122.2272 -44.136948 
L 124.8768 -44.355918 
L 127.5264 -44.629005 
L 130.176 -44.918354 
L 132.8256 -45.130655 
L 135.4752 -45.313241 
L 138.1248 -45.44866 
L 140.7744 -45.577826 
L 143.424 -45.681308 
L 146.0736 -45.702402 
L 148.7232 -45.803985 
L 151.3728 -45.992908 
L 154.0224 -46.235688 
L 156.672 -46.223425 
L 159.3216 -45.884949 
L 161.9712 -45.190719 
L 164.6208 -44.745333 
L 167.2704 -44.528422 
L 169.92 -44.605138 
L 169.92 -46.05946 
L 169.92 -46.05946 
L 167.2704 -45.947741 
L 164.6208 -46.128667 
L 161.9712 -46.50659 
L 159.3216 -47.127262 
L 156.672 -47.449035 
L 154.0224 -47.427405 
L 151.3728 -47.176118 
L 148.7232 -46.970798 
L 146.0736 -46.847671 
L 143.424 -46.810855 
L 140.7744 -46.703082 
L 138.1248 -46.551609 
L 135.4752 -46.402114 
L 132.8256 -46.201025 
L 130.176 -46.013566 
L 127.5264 -45.730262 
L 124.8768 -45.465541 
L 122.2272 -45.257557 
L 119.5776 -45.143965 
L 116.928 -45.05267 
L 114.2784 -44.981312 
L 111.6288 -44.88525 
L 108.9792 -44.738954 
L 106.3296 -44.649062 
L 103.68 -44.465466 
L 101.0304 -44.349082 
L 98.3808 -44.229353 
L 95.7312 -44.176413 
L 93.0816 -44.112228 
L 90.432 -44.066381 
L 87.7824 -44.064812 
L 85.1328 -44.104464 
L 82.4832 -44.176971 
L 79.8336 -44.247826 
L 77.184 -44.298368 
L 74.5344 -44.348464 
L 71.8848 -44.378032 
L 69.2352 -44.361409 
L 66.5856 -44.33038 
L 63.936 -44.247444 
L 61.2864 -44.237987 
L 58.6368 -44.087504 
L 55.9872 -43.944044 
L 53.3376 -43.800898 
L 50.688 -43.755265 
L 48.0384 -43.507389 
L 45.3888 -43.386252 
L 42.7392 -43.101545 
L 40.0896 -42.742635 
L 37.44 -42.375563 
L 34.7904 -41.87644 
L 32.1408 -41.479201 
L 29.4912 -41.271301 
L 26.8416 -40.936999 
L 24.192 -40.561515 
L 21.5424 -40.249876 
L 18.8928 -40.384543 
L 16.2432 -40.203405 
L 13.5936 -40.131538 
z
" id="ma279c14f80" style="stroke:#bcbd22;stroke-opacity:0.2;stroke-width:0.5;"/>
    </defs>
    <g clip-path="url(#p568d01a0d8)">
     <use style="fill:#bcbd22;fill-opacity:0.2;stroke:#bcbd22;stroke-opacity:0.2;stroke-width:0.5;" x="0" xlink:href="#ma279c14f80" y="64.08"/>
    </g>
   </g>
   <g id="line2d_1">
    <path clip-path="url(#p568d01a0d8)" d="M 13.5936 27.088643 
L 16.2432 27.271998 
L 18.8928 27.414017 
L 21.5424 27.593799 
L 24.192 27.554811 
L 26.8416 27.529133 
L 29.4912 27.306908 
L 32.1408 27.118997 
L 34.7904 26.644708 
L 37.44 25.882268 
L 40.0896 25.350218 
L 42.7392 25.048428 
L 45.3888 24.80175 
L 48.0384 24.730227 
L 50.688 24.699311 
L 53.3376 24.820918 
L 55.9872 24.811532 
L 58.6368 24.79307 
L 61.2864 24.691876 
L 63.936 24.549589 
L 66.5856 24.365067 
L 69.2352 24.131686 
L 71.8848 23.995983 
L 74.5344 23.795378 
L 77.184 23.778078 
L 79.8336 23.776824 
L 82.4832 23.795156 
L 85.1328 23.858853 
L 87.7824 23.771707 
L 90.432 23.644931 
L 93.0816 23.493661 
L 95.7312 23.278437 
L 98.3808 23.106991 
L 101.0304 22.776463 
L 103.68 22.510616 
L 106.3296 22.097271 
L 108.9792 21.512716 
L 111.6288 20.763877 
L 114.2784 19.813352 
L 116.928 18.755037 
L 119.5776 17.663031 
L 122.2272 16.494621 
L 124.8768 15.528256 
L 127.5264 14.958163 
L 130.176 14.534837 
L 132.8256 14.214349 
L 135.4752 14.15151 
L 138.1248 14.330924 
L 140.7744 14.805482 
L 143.424 15.435766 
L 146.0736 16.408337 
L 148.7232 17.807109 
L 151.3728 19.237856 
L 154.0224 20.750781 
L 156.672 22.555575 
L 159.3216 23.970805 
L 161.9712 25.255101 
L 164.6208 26.270605 
L 167.2704 27.615568 
L 169.92 28.377095 
" style="fill:none;stroke:#9467bd;stroke-linecap:square;stroke-width:0.5;"/>
   </g>
   <g id="line2d_2">
    <path clip-path="url(#p568d01a0d8)" d="M 13.5936 27.37728 
L 16.2432 27.398265 
L 18.8928 27.403302 
L 21.5424 27.408297 
L 24.192 27.563316 
L 26.8416 27.718777 
L 29.4912 28.165656 
L 32.1408 28.73182 
L 34.7904 29.674475 
L 37.44 30.790327 
L 40.0896 31.468597 
L 42.7392 31.811772 
L 45.3888 32.067186 
L 48.0384 32.167308 
L 50.688 32.220908 
L 53.3376 32.162518 
L 55.9872 32.210765 
L 58.6368 32.353088 
L 61.2864 32.442829 
L 63.936 32.532463 
L 66.5856 32.632163 
L 69.2352 32.769894 
L 71.8848 32.851837 
L 74.5344 33.036651 
L 77.184 33.072689 
L 79.8336 33.139944 
L 82.4832 33.183564 
L 85.1328 33.127783 
L 87.7824 33.227901 
L 90.432 33.452907 
L 93.0816 33.721165 
L 95.7312 34.088189 
L 98.3808 34.368923 
L 101.0304 34.727247 
L 103.68 34.945079 
L 106.3296 34.959698 
L 108.9792 34.983398 
L 111.6288 34.789364 
L 114.2784 34.345468 
L 116.928 33.617872 
L 119.5776 33.140232 
L 122.2272 32.751371 
L 124.8768 32.299793 
L 127.5264 31.702578 
L 130.176 31.219361 
L 132.8256 30.727321 
L 135.4752 30.270035 
L 138.1248 29.728467 
L 140.7744 29.127283 
L 143.424 28.382148 
L 146.0736 27.614164 
L 148.7232 26.656754 
L 151.3728 25.666156 
L 154.0224 24.881222 
L 156.672 23.962451 
L 159.3216 23.203314 
L 161.9712 22.543358 
L 164.6208 21.954117 
L 167.2704 21.209433 
L 169.92 20.720063 
" style="fill:none;stroke:#d62728;stroke-linecap:square;stroke-width:0.5;"/>
   </g>
   <g id="line2d_3">
    <path clip-path="url(#p568d01a0d8)" d="M 13.5936 34.174001 
L 16.2432 33.698904 
L 18.8928 33.703014 
L 21.5424 33.749609 
L 24.192 33.714684 
L 26.8416 33.572321 
L 29.4912 33.227268 
L 32.1408 33.119171 
L 34.7904 32.808509 
L 37.44 32.318738 
L 40.0896 31.95821 
L 42.7392 31.687143 
L 45.3888 31.465877 
L 48.0384 30.965695 
L 50.688 30.551031 
L 53.3376 30.064041 
L 55.9872 29.548982 
L 58.6368 28.953707 
L 61.2864 28.451766 
L 63.936 27.706166 
L 66.5856 27.260003 
L 69.2352 26.760407 
L 71.8848 26.4421 
L 74.5344 25.871159 
L 77.184 25.266588 
L 79.8336 24.934608 
L 82.4832 24.721581 
L 85.1328 24.212417 
L 87.7824 23.833658 
L 90.432 23.193476 
L 93.0816 22.586812 
L 95.7312 21.94259 
L 98.3808 21.328374 
L 101.0304 21.351631 
L 103.68 21.802968 
L 106.3296 23.505416 
L 108.9792 25.752124 
L 111.6288 28.249774 
L 114.2784 30.549846 
L 116.928 32.245361 
L 119.5776 33.962912 
L 122.2272 35.566289 
L 124.8768 36.616762 
L 127.5264 36.731886 
L 130.176 36.546888 
L 132.8256 36.000049 
L 135.4752 35.662363 
L 138.1248 34.859732 
L 140.7744 34.130872 
L 143.424 33.554225 
L 146.0736 32.826113 
L 148.7232 32.067129 
L 151.3728 31.56518 
L 154.0224 31.038676 
L 156.672 30.537697 
L 159.3216 30.323464 
L 161.9712 29.562951 
L 164.6208 29.213251 
L 167.2704 28.573009 
L 169.92 28.620341 
" style="fill:none;stroke:#17becf;stroke-linecap:square;stroke-width:0.5;"/>
   </g>
   <g id="line2d_4">
    <path clip-path="url(#p568d01a0d8)" d="M 13.5936 24.716876 
L 16.2432 24.655737 
L 18.8928 24.479036 
L 21.5424 24.624433 
L 24.192 24.306475 
L 26.8416 23.922283 
L 29.4912 23.601941 
L 32.1408 23.402824 
L 34.7904 22.988785 
L 37.44 22.50761 
L 40.0896 22.135387 
L 42.7392 21.760737 
L 45.3888 21.474882 
L 48.0384 21.348087 
L 50.688 21.101148 
L 53.3376 21.056488 
L 55.9872 20.911087 
L 58.6368 20.743679 
L 61.2864 20.610119 
L 63.936 20.587888 
L 66.5856 20.498563 
L 69.2352 20.448835 
L 71.8848 20.434979 
L 74.5344 20.454985 
L 77.184 20.505821 
L 79.8336 20.547875 
L 82.4832 20.611316 
L 85.1328 20.683438 
L 87.7824 20.706883 
L 90.432 20.686696 
L 93.0816 20.63326 
L 95.7312 20.581809 
L 98.3808 20.505311 
L 101.0304 20.384886 
L 103.68 20.264122 
L 106.3296 20.068681 
L 108.9792 19.951634 
L 111.6288 19.80261 
L 114.2784 19.689169 
L 116.928 19.608285 
L 119.5776 19.511921 
L 122.2272 19.382747 
L 124.8768 19.169271 
L 127.5264 18.900366 
L 130.176 18.61404 
L 132.8256 18.41416 
L 135.4752 18.222323 
L 138.1248 18.079866 
L 140.7744 17.939546 
L 143.424 17.833919 
L 146.0736 17.804964 
L 148.7232 17.692608 
L 151.3728 17.495487 
L 154.0224 17.248454 
L 156.672 17.24377 
L 159.3216 17.573895 
L 161.9712 18.231345 
L 164.6208 18.643 
L 167.2704 18.841919 
L 169.92 18.747701 
" style="fill:none;stroke:#bcbd22;stroke-linecap:square;stroke-width:0.5;"/>
   </g>
   <g id="line2d_5">
    <path clip-path="url(#p568d01a0d8)" d="M 15.156864 55.826496 
L 67.089024 55.826496 
" style="fill:none;stroke:#000000;stroke-linecap:square;stroke-width:1.25;"/>
   </g>
   <g id="line2d_6">
    <path clip-path="url(#p568d01a0d8)" d="M 15.156864 55.826496 
L 15.156864 38.229242 
" style="fill:none;stroke:#000000;stroke-linecap:square;stroke-width:1.25;"/>
   </g>
   <g id="text_1">
    <text style="font-family:DejaVu Sans;font-size:6px;font-stretch:normal;font-style:normal;font-weight:normal;text-anchor:middle;" transform="rotate(-0, 41.122944, 63.205078)" x="41.122944" y="63.205078">100 ms</text>
   </g>
   <g id="text_2">
    <text style="font-family:DejaVu Sans;font-size:6px;font-stretch:normal;font-style:normal;font-weight:normal;" transform="translate(6.092731 57.453807)rotate(-90)">40 deg</text>
   </g>
   <g id="legend_1">
    <g id="line2d_7">
     <path d="M 100.336875 7.859063 
L 112.336875 7.859063 
" style="fill:none;stroke:#9467bd;stroke-linecap:square;stroke-width:0.5;"/>
    </g>
    <g id="line2d_8"/>
    <g id="text_3">
     <text style="font-family:DejaVu Sans;font-size:6px;font-stretch:normal;font-style:normal;font-weight:normal;text-anchor:start;" transform="rotate(-0, 117.136875, 9.959063)" x="117.136875" y="9.959063">left wrist joint</text>
    </g>
    <g id="line2d_9">
     <path d="M 100.336875 16.665938 
L 112.336875 16.665938 
" style="fill:none;stroke:#d62728;stroke-linecap:square;stroke-width:0.5;"/>
    </g>
    <g id="line2d_10"/>
    <g id="text_4">
     <text style="font-family:DejaVu Sans;font-size:6px;font-stretch:normal;font-style:normal;font-weight:normal;text-anchor:start;" transform="rotate(-0, 117.136875, 18.765938)" x="117.136875" y="18.765938">right wrist joint</text>
    </g>
    <g id="line2d_11">
     <path d="M 100.336875 25.472812 
L 112.336875 25.472812 
" style="fill:none;stroke:#17becf;stroke-linecap:square;stroke-width:0.5;"/>
    </g>
    <g id="line2d_12"/>
    <g id="text_5">
     <text style="font-family:DejaVu Sans;font-size:6px;font-stretch:normal;font-style:normal;font-weight:normal;text-anchor:start;" transform="rotate(-0, 117.136875, 27.572812)" x="117.136875" y="27.572812">left ankle joint</text>
    </g>
    <g id="line2d_13">
     <path d="M 100.336875 34.279688 
L 112.336875 34.279688 
" style="fill:none;stroke:#bcbd22;stroke-linecap:square;stroke-width:0.5;"/>
    </g>
    <g id="line2d_14"/>
    <g id="text_6">
     <text style="font-family:DejaVu Sans;font-size:6px;font-stretch:normal;font-style:normal;font-weight:normal;text-anchor:start;" transform="rotate(-0, 117.136875, 36.379688)" x="117.136875" y="36.379688">right ankle joint</text>
    </g>
   </g>
  </g>
 </g>
 <defs>
  <clipPath id="p568d01a0d8">
   <rect height="56.3904" width="156.3264" x="13.5936" y="0"/>
  </clipPath>
 </defs>
</svg>
