<?xml version="1.0" encoding="utf-8" standalone="no"?>
<!DOCTYPE svg PUBLIC "-//W3C//DTD SVG 1.1//EN"
  "http://www.w3.org/Graphics/SVG/1.1/DTD/svg11.dtd">
<!-- Created with matplotlib (https://matplotlib.org/) -->
<svg height="64.08pt" version="1.1" viewBox="0 0 169.92 64.08" width="169.92pt" xmlns="http://www.w3.org/2000/svg" xmlns:xlink="http://www.w3.org/1999/xlink">
 <metadata>
  <rdf:RDF xmlns:cc="http://creativecommons.org/ns#" xmlns:dc="http://purl.org/dc/elements/1.1/" xmlns:rdf="http://www.w3.org/1999/02/22-rdf-syntax-ns#">
   <cc:Work>
    <dc:type rdf:resource="http://purl.org/dc/dcmitype/StillImage"/>
    <dc:date>2022-03-31T17:58:21.491505</dc:date>
    <dc:format>image/svg+xml</dc:format>
    <dc:creator>
     <cc:Agent>
      <dc:title>Matplotlib v3.3.1, https://matplotlib.org/</dc:title>
     </cc:Agent>
    </dc:creator>
   </cc:Work>
  </rdf:RDF>
 </metadata>
 <defs>
  <style type="text/css">*{stroke-linecap:butt;stroke-linejoin:round;}</style>
 </defs>
 <g id="figure_1">
  <g id="patch_1">
   <path d="M 0 64.08 
L 169.92 64.08 
L 169.92 0 
L 0 0 
z
" style="fill:none;"/>
  </g>
  <g id="axes_1">
   <g id="PolyCollection_1">
    <defs>
     <path d="M 13.5936 -44.091984 
L 13.5936 -38.929639 
L 16.2432 -38.834538 
L 18.8928 -38.744985 
L 21.5424 -38.935011 
L 24.192 -39.169355 
L 26.8416 -39.323746 
L 29.4912 -39.470029 
L 32.1408 -39.568288 
L 34.7904 -40.468194 
L 37.44 -40.453117 
L 40.0896 -39.47652 
L 42.7392 -39.122372 
L 45.3888 -38.74415 
L 48.0384 -38.436004 
L 50.688 -38.015532 
L 53.3376 -38.048348 
L 55.9872 -38.144316 
L 58.6368 -38.124918 
L 61.2864 -38.3275 
L 63.936 -38.2546 
L 66.5856 -38.427334 
L 69.2352 -38.2455 
L 71.8848 -38.352885 
L 74.5344 -38.169913 
L 77.184 -37.875001 
L 79.8336 -37.872526 
L 82.4832 -37.819096 
L 85.1328 -37.887156 
L 87.7824 -38.327403 
L 90.432 -38.279103 
L 93.0816 -38.633261 
L 95.7312 -38.500302 
L 98.3808 -38.737566 
L 101.0304 -38.923867 
L 103.68 -38.944655 
L 106.3296 -39.467705 
L 108.9792 -39.873027 
L 111.6288 -40.40783 
L 114.2784 -40.844978 
L 116.928 -41.04794 
L 119.5776 -41.26803 
L 122.2272 -41.197545 
L 124.8768 -40.364587 
L 127.5264 -39.626042 
L 130.176 -39.52842 
L 132.8256 -39.054414 
L 135.4752 -38.47264 
L 138.1248 -37.79095 
L 140.7744 -37.266098 
L 143.424 -36.670217 
L 146.0736 -35.50261 
L 148.7232 -34.859752 
L 151.3728 -34.883501 
L 154.0224 -34.223769 
L 156.672 -34.237834 
L 159.3216 -35.089498 
L 161.9712 -35.683414 
L 164.6208 -35.304837 
L 167.2704 -35.585128 
L 169.92 -36.637717 
L 169.92 -43.71794 
L 169.92 -43.71794 
L 167.2704 -42.697356 
L 164.6208 -42.384308 
L 161.9712 -42.702127 
L 159.3216 -42.048078 
L 156.672 -41.337373 
L 154.0224 -41.032987 
L 151.3728 -41.879305 
L 148.7232 -41.666609 
L 146.0736 -42.184938 
L 143.424 -43.315792 
L 140.7744 -43.726852 
L 138.1248 -44.246288 
L 135.4752 -44.969716 
L 132.8256 -45.661543 
L 130.176 -46.106352 
L 127.5264 -46.326846 
L 124.8768 -47.060868 
L 122.2272 -48.045589 
L 119.5776 -48.080383 
L 116.928 -47.913824 
L 114.2784 -47.904197 
L 111.6288 -47.494308 
L 108.9792 -47.084225 
L 106.3296 -46.723381 
L 103.68 -46.273482 
L 101.0304 -46.288832 
L 98.3808 -46.22852 
L 95.7312 -46.080143 
L 93.0816 -46.043046 
L 90.432 -46.0635 
L 87.7824 -46.007486 
L 85.1328 -45.828211 
L 82.4832 -45.580122 
L 79.8336 -45.864801 
L 77.184 -45.749853 
L 74.5344 -46.141231 
L 71.8848 -46.229981 
L 69.2352 -46.326166 
L 66.5856 -46.409001 
L 63.936 -46.223544 
L 61.2864 -46.016279 
L 58.6368 -45.839546 
L 55.9872 -45.692653 
L 53.3376 -45.292662 
L 50.688 -45.382408 
L 48.0384 -45.533503 
L 45.3888 -45.742292 
L 42.7392 -45.934177 
L 40.0896 -46.100483 
L 37.44 -46.729714 
L 34.7904 -46.595699 
L 32.1408 -45.493237 
L 29.4912 -45.240779 
L 26.8416 -45.012509 
L 24.192 -44.709101 
L 21.5424 -44.433617 
L 18.8928 -44.067591 
L 16.2432 -44.062026 
L 13.5936 -44.091984 
z
" id="m1c4eb7ff74" style="stroke:#9467bd;stroke-opacity:0.2;stroke-width:0.5;"/>
    </defs>
    <g clip-path="url(#pa0013d72f9)">
     <use style="fill:#9467bd;fill-opacity:0.2;stroke:#9467bd;stroke-opacity:0.2;stroke-width:0.5;" x="0" xlink:href="#m1c4eb7ff74" y="64.08"/>
    </g>
   </g>
   <g id="PolyCollection_2">
    <defs>
     <path d="M 13.5936 -44.803891 
L 13.5936 -39.13168 
L 16.2432 -38.969461 
L 18.8928 -39.081864 
L 21.5424 -38.815304 
L 24.192 -38.698554 
L 26.8416 -38.295157 
L 29.4912 -37.833383 
L 32.1408 -37.250887 
L 34.7904 -36.334371 
L 37.44 -36.720144 
L 40.0896 -37.927894 
L 42.7392 -38.286689 
L 45.3888 -38.643927 
L 48.0384 -38.823541 
L 50.688 -39.063226 
L 53.3376 -39.055809 
L 55.9872 -38.613379 
L 58.6368 -38.575186 
L 61.2864 -38.699464 
L 63.936 -38.650898 
L 66.5856 -38.516909 
L 69.2352 -38.558491 
L 71.8848 -38.453746 
L 74.5344 -38.559839 
L 77.184 -38.790323 
L 79.8336 -38.670067 
L 82.4832 -38.979323 
L 85.1328 -38.875623 
L 87.7824 -38.549602 
L 90.432 -38.412861 
L 93.0816 -38.321499 
L 95.7312 -38.405621 
L 98.3808 -38.552885 
L 101.0304 -38.63766 
L 103.68 -39.346441 
L 106.3296 -39.677817 
L 108.9792 -39.949104 
L 111.6288 -40.734452 
L 114.2784 -41.596483 
L 116.928 -41.730312 
L 119.5776 -41.11188 
L 122.2272 -41.144659 
L 124.8768 -41.464611 
L 127.5264 -41.496935 
L 130.176 -41.211989 
L 132.8256 -41.160952 
L 135.4752 -41.117029 
L 138.1248 -41.174752 
L 140.7744 -41.353509 
L 143.424 -41.400629 
L 146.0736 -41.457946 
L 148.7232 -41.81225 
L 151.3728 -41.226109 
L 154.0224 -41.057725 
L 156.672 -41.10694 
L 159.3216 -40.589939 
L 161.9712 -40.320751 
L 164.6208 -40.543683 
L 167.2704 -40.355421 
L 169.92 -39.910624 
L 169.92 -46.115794 
L 169.92 -46.115794 
L 167.2704 -46.627585 
L 164.6208 -46.695705 
L 161.9712 -46.3993 
L 159.3216 -46.673018 
L 156.672 -47.019061 
L 154.0224 -46.913228 
L 151.3728 -46.849851 
L 148.7232 -47.088443 
L 146.0736 -46.550985 
L 143.424 -46.119009 
L 140.7744 -45.824356 
L 138.1248 -45.429926 
L 135.4752 -45.123672 
L 132.8256 -44.978833 
L 130.176 -44.953291 
L 127.5264 -45.061048 
L 124.8768 -45.070942 
L 122.2272 -44.621533 
L 119.5776 -44.626496 
L 116.928 -45.280819 
L 114.2784 -45.395229 
L 111.6288 -44.588462 
L 108.9792 -44.147827 
L 106.3296 -44.059186 
L 103.68 -44.053765 
L 101.0304 -43.571318 
L 98.3808 -43.716739 
L 95.7312 -43.841314 
L 93.0816 -43.864247 
L 90.432 -44.228192 
L 87.7824 -44.376224 
L 85.1328 -44.985194 
L 82.4832 -44.988842 
L 79.8336 -44.755633 
L 77.184 -44.903545 
L 74.5344 -44.673256 
L 71.8848 -44.660191 
L 69.2352 -44.799757 
L 66.5856 -44.669231 
L 63.936 -44.740178 
L 61.2864 -44.737324 
L 58.6368 -44.64009 
L 55.9872 -44.627514 
L 53.3376 -44.939461 
L 50.688 -44.842954 
L 48.0384 -44.63578 
L 45.3888 -44.315764 
L 42.7392 -44.127254 
L 40.0896 -43.666415 
L 37.44 -42.43141 
L 34.7904 -41.962017 
L 32.1408 -43.012633 
L 29.4912 -43.527402 
L 26.8416 -44.102349 
L 24.192 -44.45119 
L 21.5424 -44.575753 
L 18.8928 -44.853968 
L 16.2432 -44.713087 
L 13.5936 -44.803891 
z
" id="m458df625ce" style="stroke:#d62728;stroke-opacity:0.2;stroke-width:0.5;"/>
    </defs>
    <g clip-path="url(#pa0013d72f9)">
     <use style="fill:#d62728;fill-opacity:0.2;stroke:#d62728;stroke-opacity:0.2;stroke-width:0.5;" x="0" xlink:href="#m458df625ce" y="64.08"/>
    </g>
   </g>
   <g id="PolyCollection_3">
    <defs>
     <path d="M 13.5936 -45.022661 
L 13.5936 -41.147779 
L 16.2432 -40.788468 
L 18.8928 -39.842341 
L 21.5424 -40.119089 
L 24.192 -40.280361 
L 26.8416 -40.852228 
L 29.4912 -40.6762 
L 32.1408 -40.507931 
L 34.7904 -41.254898 
L 37.44 -41.218693 
L 40.0896 -40.893423 
L 42.7392 -40.559089 
L 45.3888 -41.022453 
L 48.0384 -41.226783 
L 50.688 -41.079458 
L 53.3376 -41.241097 
L 55.9872 -41.435107 
L 58.6368 -41.25651 
L 61.2864 -41.581029 
L 63.936 -41.502862 
L 66.5856 -41.149521 
L 69.2352 -40.973559 
L 71.8848 -41.004895 
L 74.5344 -41.733156 
L 77.184 -41.301764 
L 79.8336 -40.562356 
L 82.4832 -41.090788 
L 85.1328 -41.182885 
L 87.7824 -41.326191 
L 90.432 -41.73012 
L 93.0816 -41.554931 
L 95.7312 -41.850881 
L 98.3808 -40.813482 
L 101.0304 -39.635227 
L 103.68 -37.481637 
L 106.3296 -34.878323 
L 108.9792 -34.0156 
L 111.6288 -33.805421 
L 114.2784 -35.150771 
L 116.928 -35.979083 
L 119.5776 -35.782853 
L 122.2272 -36.589388 
L 124.8768 -38.846356 
L 127.5264 -40.430534 
L 130.176 -41.281117 
L 132.8256 -41.346738 
L 135.4752 -41.622483 
L 138.1248 -42.424493 
L 140.7744 -41.771273 
L 143.424 -41.851323 
L 146.0736 -42.265865 
L 148.7232 -41.804879 
L 151.3728 -41.443942 
L 154.0224 -41.710122 
L 156.672 -40.899378 
L 159.3216 -41.49141 
L 161.9712 -41.650207 
L 164.6208 -41.475376 
L 167.2704 -40.797239 
L 169.92 -40.554644 
L 169.92 -44.343466 
L 169.92 -44.343466 
L 167.2704 -44.547562 
L 164.6208 -45.191297 
L 161.9712 -45.22074 
L 159.3216 -45.092035 
L 156.672 -44.449845 
L 154.0224 -45.196074 
L 151.3728 -44.920574 
L 148.7232 -45.318822 
L 146.0736 -45.730081 
L 143.424 -45.259266 
L 140.7744 -45.268248 
L 138.1248 -45.853119 
L 135.4752 -45.060124 
L 132.8256 -44.766458 
L 130.176 -44.838967 
L 127.5264 -44.043864 
L 124.8768 -42.543138 
L 122.2272 -40.445328 
L 119.5776 -39.770706 
L 116.928 -40.037094 
L 114.2784 -39.258028 
L 111.6288 -37.940706 
L 108.9792 -38.156481 
L 106.3296 -38.875227 
L 103.68 -41.403127 
L 101.0304 -43.576707 
L 98.3808 -44.760404 
L 95.7312 -45.699884 
L 93.0816 -45.430633 
L 90.432 -45.559013 
L 87.7824 -45.118303 
L 85.1328 -45.075113 
L 82.4832 -44.819441 
L 79.8336 -44.421393 
L 77.184 -45.151822 
L 74.5344 -45.553491 
L 71.8848 -45.031008 
L 69.2352 -45.009905 
L 66.5856 -45.14112 
L 63.936 -45.580614 
L 61.2864 -45.666013 
L 58.6368 -45.327731 
L 55.9872 -45.448996 
L 53.3376 -45.261053 
L 50.688 -45.077219 
L 48.0384 -45.212323 
L 45.3888 -44.84143 
L 42.7392 -44.461308 
L 40.0896 -44.671919 
L 37.44 -45.046466 
L 34.7904 -45.003847 
L 32.1408 -44.244585 
L 29.4912 -44.49762 
L 26.8416 -44.633322 
L 24.192 -44.079244 
L 21.5424 -43.91105 
L 18.8928 -43.685895 
L 16.2432 -44.592724 
L 13.5936 -45.022661 
z
" id="m209a1f4f27" style="stroke:#17becf;stroke-opacity:0.2;stroke-width:0.5;"/>
    </defs>
    <g clip-path="url(#pa0013d72f9)">
     <use style="fill:#17becf;fill-opacity:0.2;stroke:#17becf;stroke-opacity:0.2;stroke-width:0.5;" x="0" xlink:href="#m209a1f4f27" y="64.08"/>
    </g>
   </g>
   <g id="PolyCollection_4">
    <defs>
     <path d="M 13.5936 -44.293472 
L 13.5936 -39.759275 
L 16.2432 -40.124505 
L 18.8928 -39.612153 
L 21.5424 -39.766235 
L 24.192 -40.716719 
L 26.8416 -40.538818 
L 29.4912 -40.222378 
L 32.1408 -40.365503 
L 34.7904 -40.843229 
L 37.44 -40.719021 
L 40.0896 -40.568637 
L 42.7392 -40.525049 
L 45.3888 -40.114019 
L 48.0384 -40.187276 
L 50.688 -40.116746 
L 53.3376 -39.902839 
L 55.9872 -40.187949 
L 58.6368 -40.120321 
L 61.2864 -39.932823 
L 63.936 -39.895915 
L 66.5856 -40.005857 
L 69.2352 -39.880661 
L 71.8848 -39.836223 
L 74.5344 -39.748246 
L 77.184 -39.74172 
L 79.8336 -39.738695 
L 82.4832 -39.723894 
L 85.1328 -39.774808 
L 87.7824 -39.929675 
L 90.432 -40.102867 
L 93.0816 -40.157695 
L 95.7312 -40.185197 
L 98.3808 -40.267573 
L 101.0304 -40.348965 
L 103.68 -40.502255 
L 106.3296 -40.493119 
L 108.9792 -40.468392 
L 111.6288 -40.590548 
L 114.2784 -40.44896 
L 116.928 -40.461478 
L 119.5776 -40.568864 
L 122.2272 -40.728468 
L 124.8768 -40.97566 
L 127.5264 -41.09788 
L 130.176 -40.986727 
L 132.8256 -40.811141 
L 135.4752 -40.796383 
L 138.1248 -40.689731 
L 140.7744 -40.654389 
L 143.424 -40.427251 
L 146.0736 -40.405199 
L 148.7232 -40.652398 
L 151.3728 -40.87844 
L 154.0224 -40.604463 
L 156.672 -39.834167 
L 159.3216 -38.750372 
L 161.9712 -38.606594 
L 164.6208 -39.237376 
L 167.2704 -39.725194 
L 169.92 -40.560815 
L 169.92 -44.731101 
L 169.92 -44.731101 
L 167.2704 -43.783298 
L 164.6208 -43.205608 
L 161.9712 -42.373464 
L 159.3216 -42.383274 
L 156.672 -43.329158 
L 154.0224 -44.082184 
L 151.3728 -44.249317 
L 148.7232 -43.989573 
L 146.0736 -43.731692 
L 143.424 -43.716152 
L 140.7744 -43.897112 
L 138.1248 -43.861294 
L 135.4752 -43.909989 
L 132.8256 -44.004815 
L 130.176 -44.089723 
L 127.5264 -44.226968 
L 124.8768 -44.115469 
L 122.2272 -43.979104 
L 119.5776 -43.831597 
L 116.928 -43.827973 
L 114.2784 -43.871355 
L 111.6288 -43.991381 
L 108.9792 -44.019836 
L 106.3296 -44.178153 
L 103.68 -44.205343 
L 101.0304 -44.08634 
L 98.3808 -44.125573 
L 95.7312 -43.972601 
L 93.0816 -43.985652 
L 90.432 -43.982979 
L 87.7824 -43.952018 
L 85.1328 -43.843568 
L 82.4832 -43.780139 
L 79.8336 -43.903646 
L 77.184 -43.905418 
L 74.5344 -43.930438 
L 71.8848 -44.033539 
L 69.2352 -44.134082 
L 66.5856 -44.294935 
L 63.936 -44.21075 
L 61.2864 -44.255587 
L 58.6368 -44.578718 
L 55.9872 -44.563752 
L 53.3376 -44.270946 
L 50.688 -44.518496 
L 48.0384 -44.667449 
L 45.3888 -44.60632 
L 42.7392 -45.123635 
L 40.0896 -45.099866 
L 37.44 -45.254561 
L 34.7904 -45.469229 
L 32.1408 -44.89022 
L 29.4912 -44.759253 
L 26.8416 -45.151027 
L 24.192 -45.265321 
L 21.5424 -44.254027 
L 18.8928 -44.132396 
L 16.2432 -44.608656 
L 13.5936 -44.293472 
z
" id="m4d294ae6b1" style="stroke:#bcbd22;stroke-opacity:0.2;stroke-width:0.5;"/>
    </defs>
    <g clip-path="url(#pa0013d72f9)">
     <use style="fill:#bcbd22;fill-opacity:0.2;stroke:#bcbd22;stroke-opacity:0.2;stroke-width:0.5;" x="0" xlink:href="#m4d294ae6b1" y="64.08"/>
    </g>
   </g>
   <g id="line2d_1">
    <path clip-path="url(#pa0013d72f9)" d="M 13.5936 22.569189 
L 16.2432 22.631718 
L 18.8928 22.673712 
L 21.5424 22.395686 
L 24.192 22.140772 
L 26.8416 21.911873 
L 29.4912 21.724596 
L 32.1408 21.549237 
L 34.7904 20.548054 
L 37.44 20.488585 
L 40.0896 21.291498 
L 42.7392 21.551726 
L 45.3888 21.836779 
L 48.0384 22.095247 
L 50.688 22.38103 
L 53.3376 22.409495 
L 55.9872 22.161515 
L 58.6368 22.097768 
L 61.2864 21.90811 
L 63.936 21.840928 
L 66.5856 21.661833 
L 69.2352 21.794167 
L 71.8848 21.788567 
L 74.5344 21.924428 
L 77.184 22.267573 
L 79.8336 22.211336 
L 82.4832 22.380391 
L 85.1328 22.222317 
L 87.7824 21.912555 
L 90.432 21.908698 
L 93.0816 21.741846 
L 95.7312 21.789777 
L 98.3808 21.596957 
L 101.0304 21.473651 
L 103.68 21.470932 
L 106.3296 20.984457 
L 108.9792 20.601374 
L 111.6288 20.128931 
L 114.2784 19.705412 
L 116.928 19.599118 
L 119.5776 19.405793 
L 122.2272 19.458433 
L 124.8768 20.367272 
L 127.5264 21.103556 
L 130.176 21.262614 
L 132.8256 21.722022 
L 135.4752 22.358822 
L 138.1248 23.061381 
L 140.7744 23.583525 
L 143.424 24.086996 
L 146.0736 25.236226 
L 148.7232 25.81682 
L 151.3728 25.698597 
L 154.0224 26.451622 
L 156.672 26.292396 
L 159.3216 25.511212 
L 161.9712 24.887229 
L 164.6208 25.235427 
L 167.2704 24.938758 
L 169.92 23.902171 
" style="fill:none;stroke:#9467bd;stroke-linecap:square;stroke-width:0.5;"/>
   </g>
   <g id="line2d_2">
    <path clip-path="url(#pa0013d72f9)" d="M 13.5936 22.112214 
L 16.2432 22.238726 
L 18.8928 22.112084 
L 21.5424 22.384472 
L 24.192 22.505128 
L 26.8416 22.881247 
L 29.4912 23.399608 
L 32.1408 23.94824 
L 34.7904 24.931806 
L 37.44 24.504223 
L 40.0896 23.282845 
L 42.7392 22.873028 
L 45.3888 22.600154 
L 48.0384 22.35034 
L 50.688 22.12691 
L 53.3376 22.082365 
L 55.9872 22.459554 
L 58.6368 22.472362 
L 61.2864 22.361606 
L 63.936 22.384462 
L 66.5856 22.48693 
L 69.2352 22.400876 
L 71.8848 22.523031 
L 74.5344 22.463453 
L 77.184 22.233066 
L 79.8336 22.36715 
L 82.4832 22.095917 
L 85.1328 22.149591 
L 87.7824 22.617087 
L 90.432 22.759473 
L 93.0816 22.987127 
L 95.7312 22.956532 
L 98.3808 22.945188 
L 101.0304 22.975511 
L 103.68 22.379897 
L 106.3296 22.211499 
L 108.9792 22.031534 
L 111.6288 21.418543 
L 114.2784 20.584144 
L 116.928 20.574435 
L 119.5776 21.210812 
L 122.2272 21.196904 
L 124.8768 20.812223 
L 127.5264 20.801009 
L 130.176 20.99736 
L 132.8256 21.010107 
L 135.4752 20.95965 
L 138.1248 20.777661 
L 140.7744 20.491068 
L 143.424 20.320181 
L 146.0736 20.075535 
L 148.7232 19.629654 
L 151.3728 20.04202 
L 154.0224 20.094524 
L 156.672 20.017 
L 159.3216 20.448522 
L 161.9712 20.719974 
L 164.6208 20.460306 
L 167.2704 20.588497 
L 169.92 21.066791 
" style="fill:none;stroke:#d62728;stroke-linecap:square;stroke-width:0.5;"/>
   </g>
   <g id="line2d_3">
    <path clip-path="url(#pa0013d72f9)" d="M 13.5936 20.99478 
L 16.2432 21.389404 
L 18.8928 22.315882 
L 21.5424 22.06493 
L 24.192 21.900197 
L 26.8416 21.337225 
L 29.4912 21.49309 
L 32.1408 21.703742 
L 34.7904 20.950628 
L 37.44 20.94742 
L 40.0896 21.297329 
L 42.7392 21.569801 
L 45.3888 21.148058 
L 48.0384 20.860447 
L 50.688 21.001661 
L 53.3376 20.828925 
L 55.9872 20.637948 
L 58.6368 20.787879 
L 61.2864 20.456479 
L 63.936 20.538262 
L 66.5856 20.934679 
L 69.2352 21.088268 
L 71.8848 21.062048 
L 74.5344 20.436677 
L 77.184 20.853207 
L 79.8336 21.588126 
L 82.4832 21.124885 
L 85.1328 20.951001 
L 87.7824 20.857753 
L 90.432 20.435433 
L 93.0816 20.587218 
L 95.7312 20.304618 
L 98.3808 21.293057 
L 101.0304 22.474033 
L 103.68 24.637618 
L 106.3296 27.203225 
L 108.9792 27.993959 
L 111.6288 28.206936 
L 114.2784 26.875601 
L 116.928 26.071911 
L 119.5776 26.30322 
L 122.2272 25.562642 
L 124.8768 23.385253 
L 127.5264 21.842801 
L 130.176 21.019958 
L 132.8256 21.023402 
L 135.4752 20.738696 
L 138.1248 19.941194 
L 140.7744 20.560239 
L 143.424 20.524706 
L 146.0736 20.082027 
L 148.7232 20.518149 
L 151.3728 20.897742 
L 154.0224 20.626902 
L 156.672 21.405388 
L 159.3216 20.788278 
L 161.9712 20.644526 
L 164.6208 20.746663 
L 167.2704 21.407599 
L 169.92 21.630945 
" style="fill:none;stroke:#17becf;stroke-linecap:square;stroke-width:0.5;"/>
   </g>
   <g id="line2d_4">
    <path clip-path="url(#pa0013d72f9)" d="M 13.5936 22.053626 
L 16.2432 21.71342 
L 18.8928 22.207725 
L 21.5424 22.069869 
L 24.192 21.08898 
L 26.8416 21.235078 
L 29.4912 21.589184 
L 32.1408 21.452139 
L 34.7904 20.923771 
L 37.44 21.093209 
L 40.0896 21.245748 
L 42.7392 21.255658 
L 45.3888 21.71983 
L 48.0384 21.652638 
L 50.688 21.762379 
L 53.3376 21.993108 
L 55.9872 21.70415 
L 58.6368 21.730481 
L 61.2864 21.985795 
L 63.936 22.026667 
L 66.5856 21.929604 
L 69.2352 22.072628 
L 71.8848 22.145119 
L 74.5344 22.240658 
L 77.184 22.256431 
L 79.8336 22.258829 
L 82.4832 22.327983 
L 85.1328 22.270812 
L 87.7824 22.139153 
L 90.432 22.037077 
L 93.0816 22.008327 
L 95.7312 22.001101 
L 98.3808 21.883427 
L 101.0304 21.862347 
L 103.68 21.726201 
L 106.3296 21.744364 
L 108.9792 21.835886 
L 111.6288 21.789036 
L 114.2784 21.919842 
L 116.928 21.935275 
L 119.5776 21.87977 
L 122.2272 21.726214 
L 124.8768 21.534435 
L 127.5264 21.417576 
L 130.176 21.541775 
L 132.8256 21.672022 
L 135.4752 21.726814 
L 138.1248 21.804487 
L 140.7744 21.804249 
L 143.424 22.008298 
L 146.0736 22.011555 
L 148.7232 21.759014 
L 151.3728 21.516121 
L 154.0224 21.736677 
L 156.672 22.498338 
L 159.3216 23.513177 
L 161.9712 23.589971 
L 164.6208 22.858508 
L 167.2704 22.325754 
L 169.92 21.434042 
" style="fill:none;stroke:#bcbd22;stroke-linecap:square;stroke-width:0.5;"/>
   </g>
   <g id="line2d_5">
    <path clip-path="url(#pa0013d72f9)" d="M 15.156864 55.826496 
L 67.089024 55.826496 
" style="fill:none;stroke:#000000;stroke-linecap:square;stroke-width:1.25;"/>
   </g>
   <g id="line2d_6">
    <path clip-path="url(#pa0013d72f9)" d="M 15.156864 55.826496 
L 15.156864 39.280017 
" style="fill:none;stroke:#000000;stroke-linecap:square;stroke-width:1.25;"/>
   </g>
   <g id="text_1">
    <text style="font-family:DejaVu Sans;font-size:6px;font-stretch:normal;font-style:normal;font-weight:normal;text-anchor:middle;" transform="rotate(-0, 41.122944, 63.205078)" x="41.122944" y="63.205078">100 ms</text>
   </g>
   <g id="text_2">
    <text style="font-family:DejaVu Sans;font-size:6px;font-stretch:normal;font-style:normal;font-weight:normal;" transform="translate(6.092731 61.566069)rotate(-90)">3 deg/ms</text>
   </g>
   <g id="legend_1">
    <g id="line2d_7">
     <path d="M 100.336875 7.859063 
L 112.336875 7.859063 
" style="fill:none;stroke:#9467bd;stroke-linecap:square;stroke-width:0.5;"/>
    </g>
    <g id="line2d_8"/>
    <g id="text_3">
     <text style="font-family:DejaVu Sans;font-size:6px;font-stretch:normal;font-style:normal;font-weight:normal;text-anchor:start;" transform="rotate(-0, 117.136875, 9.959063)" x="117.136875" y="9.959063">left wrist joint</text>
    </g>
    <g id="line2d_9">
     <path d="M 100.336875 16.665938 
L 112.336875 16.665938 
" style="fill:none;stroke:#d62728;stroke-linecap:square;stroke-width:0.5;"/>
    </g>
    <g id="line2d_10"/>
    <g id="text_4">
     <text style="font-family:DejaVu Sans;font-size:6px;font-stretch:normal;font-style:normal;font-weight:normal;text-anchor:start;" transform="rotate(-0, 117.136875, 18.765938)" x="117.136875" y="18.765938">right wrist joint</text>
    </g>
    <g id="line2d_11">
     <path d="M 100.336875 25.472812 
L 112.336875 25.472812 
" style="fill:none;stroke:#17becf;stroke-linecap:square;stroke-width:0.5;"/>
    </g>
    <g id="line2d_12"/>
    <g id="text_5">
     <text style="font-family:DejaVu Sans;font-size:6px;font-stretch:normal;font-style:normal;font-weight:normal;text-anchor:start;" transform="rotate(-0, 117.136875, 27.572812)" x="117.136875" y="27.572812">left ankle joint</text>
    </g>
    <g id="line2d_13">
     <path d="M 100.336875 34.279688 
L 112.336875 34.279688 
" style="fill:none;stroke:#bcbd22;stroke-linecap:square;stroke-width:0.5;"/>
    </g>
    <g id="line2d_14"/>
    <g id="text_6">
     <text style="font-family:DejaVu Sans;font-size:6px;font-stretch:normal;font-style:normal;font-weight:normal;text-anchor:start;" transform="rotate(-0, 117.136875, 36.379688)" x="117.136875" y="36.379688">right ankle joint</text>
    </g>
   </g>
  </g>
 </g>
 <defs>
  <clipPath id="pa0013d72f9">
   <rect height="56.3904" width="156.3264" x="13.5936" y="0"/>
  </clipPath>
 </defs>
</svg>
