<?xml version="1.0" encoding="utf-8" standalone="no"?>
<!DOCTYPE svg PUBLIC "-//W3C//DTD SVG 1.1//EN"
  "http://www.w3.org/Graphics/SVG/1.1/DTD/svg11.dtd">
<!-- Created with matplotlib (https://matplotlib.org/) -->
<svg height="64.08pt" version="1.1" viewBox="0 0 169.92 64.08" width="169.92pt" xmlns="http://www.w3.org/2000/svg" xmlns:xlink="http://www.w3.org/1999/xlink">
 <metadata>
  <rdf:RDF xmlns:cc="http://creativecommons.org/ns#" xmlns:dc="http://purl.org/dc/elements/1.1/" xmlns:rdf="http://www.w3.org/1999/02/22-rdf-syntax-ns#">
   <cc:Work>
    <dc:type rdf:resource="http://purl.org/dc/dcmitype/StillImage"/>
    <dc:date>2022-03-31T17:58:21.339772</dc:date>
    <dc:format>image/svg+xml</dc:format>
    <dc:creator>
     <cc:Agent>
      <dc:title>Matplotlib v3.3.1, https://matplotlib.org/</dc:title>
     </cc:Agent>
    </dc:creator>
   </cc:Work>
  </rdf:RDF>
 </metadata>
 <defs>
  <style type="text/css">*{stroke-linecap:butt;stroke-linejoin:round;}</style>
 </defs>
 <g id="figure_1">
  <g id="patch_1">
   <path d="M 0 64.08 
L 169.92 64.08 
L 169.92 0 
L 0 0 
z
" style="fill:none;"/>
  </g>
  <g id="axes_1">
   <g id="PolyCollection_1">
    <defs>
     <path d="M 13.5936 -32.930522 
L 13.5936 -32.196548 
L 16.2432 -32.349889 
L 18.8928 -32.463834 
L 21.5424 -32.602033 
L 24.192 -32.611483 
L 26.8416 -32.633654 
L 29.4912 -32.508386 
L 32.1408 -32.434936 
L 34.7904 -32.214428 
L 37.44 -31.848414 
L 40.0896 -31.611277 
L 42.7392 -31.462794 
L 45.3888 -31.286485 
L 48.0384 -31.187847 
L 50.688 -31.076033 
L 53.3376 -31.064655 
L 55.9872 -31.008904 
L 58.6368 -30.973181 
L 61.2864 -30.852772 
L 63.936 -30.740597 
L 66.5856 -30.538714 
L 69.2352 -30.30319 
L 71.8848 -30.036813 
L 74.5344 -29.681916 
L 77.184 -29.432147 
L 79.8336 -29.150171 
L 82.4832 -28.880522 
L 85.1328 -28.650483 
L 87.7824 -28.34383 
L 90.432 -28.048609 
L 93.0816 -27.822175 
L 95.7312 -27.584361 
L 98.3808 -27.435091 
L 101.0304 -27.156076 
L 103.68 -26.944233 
L 106.3296 -26.618892 
L 108.9792 -26.201768 
L 111.6288 -25.641742 
L 114.2784 -24.934503 
L 116.928 -24.199877 
L 119.5776 -23.488063 
L 122.2272 -22.751825 
L 124.8768 -22.171639 
L 127.5264 -21.868 
L 130.176 -21.641524 
L 132.8256 -21.502731 
L 135.4752 -21.522994 
L 138.1248 -21.666178 
L 140.7744 -21.970126 
L 143.424 -22.322184 
L 146.0736 -22.860923 
L 148.7232 -23.654178 
L 151.3728 -24.509346 
L 154.0224 -25.45791 
L 156.672 -26.685857 
L 159.3216 -27.677978 
L 161.9712 -28.600676 
L 164.6208 -29.335598 
L 167.2704 -30.305144 
L 169.92 -30.787232 
L 169.92 -31.606717 
L 169.92 -31.606717 
L 167.2704 -31.121546 
L 164.6208 -30.15896 
L 161.9712 -29.454486 
L 159.3216 -28.550853 
L 156.672 -27.524905 
L 154.0224 -26.323939 
L 151.3728 -25.372696 
L 148.7232 -24.527324 
L 146.0736 -23.670274 
L 143.424 -23.082921 
L 140.7744 -22.699852 
L 138.1248 -22.40296 
L 135.4752 -22.259419 
L 132.8256 -22.238459 
L 130.176 -22.399815 
L 127.5264 -22.615606 
L 124.8768 -22.927027 
L 122.2272 -23.526715 
L 119.5776 -24.273459 
L 116.928 -24.993095 
L 114.2784 -25.717687 
L 111.6288 -26.433896 
L 108.9792 -26.998428 
L 106.3296 -27.425487 
L 103.68 -27.737935 
L 101.0304 -27.96915 
L 98.3808 -28.26601 
L 95.7312 -28.388976 
L 93.0816 -28.650571 
L 90.432 -28.880773 
L 87.7824 -29.183876 
L 85.1328 -29.504281 
L 82.4832 -29.756845 
L 79.8336 -30.006483 
L 77.184 -30.281603 
L 74.5344 -30.524305 
L 71.8848 -30.879204 
L 69.2352 -31.138015 
L 66.5856 -31.383305 
L 63.936 -31.578449 
L 61.2864 -31.697286 
L 58.6368 -31.793495 
L 55.9872 -31.860736 
L 53.3376 -31.895161 
L 50.688 -31.921643 
L 48.0384 -32.047944 
L 45.3888 -32.147143 
L 42.7392 -32.295034 
L 40.0896 -32.435717 
L 37.44 -32.657367 
L 34.7904 -33.015226 
L 32.1408 -33.249525 
L 29.4912 -33.315296 
L 26.8416 -33.417814 
L 24.192 -33.399286 
L 21.5424 -33.378356 
L 18.8928 -33.233794 
L 16.2432 -33.099595 
L 13.5936 -32.930522 
z
" id="m22800050df" style="stroke:#9467bd;stroke-opacity:0.2;stroke-width:0.5;"/>
    </defs>
    <g clip-path="url(#p2919e385f4)">
     <use style="fill:#9467bd;fill-opacity:0.2;stroke:#9467bd;stroke-opacity:0.2;stroke-width:0.5;" x="0" xlink:href="#m22800050df" y="64.08"/>
    </g>
   </g>
   <g id="PolyCollection_2">
    <defs>
     <path d="M 13.5936 -31.032071 
L 13.5936 -30.349186 
L 16.2432 -30.396731 
L 18.8928 -30.448147 
L 21.5424 -30.512318 
L 24.192 -30.677381 
L 26.8416 -30.858161 
L 29.4912 -31.273796 
L 32.1408 -31.809666 
L 34.7904 -32.70832 
L 37.44 -33.822062 
L 40.0896 -34.557952 
L 42.7392 -34.908192 
L 45.3888 -35.103436 
L 48.0384 -35.108477 
L 50.688 -35.134971 
L 53.3376 -35.14678 
L 55.9872 -35.217391 
L 58.6368 -35.369679 
L 61.2864 -35.475312 
L 63.936 -35.669017 
L 66.5856 -35.813479 
L 69.2352 -36.080519 
L 71.8848 -36.26639 
L 74.5344 -36.586152 
L 77.184 -36.741711 
L 79.8336 -36.863794 
L 82.4832 -36.954716 
L 85.1328 -37.033557 
L 87.7824 -37.124813 
L 90.432 -37.349456 
L 93.0816 -37.56432 
L 95.7312 -37.800636 
L 98.3808 -37.998998 
L 101.0304 -38.239392 
L 103.68 -38.416521 
L 106.3296 -38.458759 
L 108.9792 -38.535003 
L 111.6288 -38.516662 
L 114.2784 -38.372337 
L 116.928 -38.0562 
L 119.5776 -37.80365 
L 122.2272 -37.527961 
L 124.8768 -37.203225 
L 127.5264 -36.756703 
L 130.176 -36.372534 
L 132.8256 -35.946481 
L 135.4752 -35.575789 
L 138.1248 -35.137242 
L 140.7744 -34.663568 
L 143.424 -34.100543 
L 146.0736 -33.544924 
L 148.7232 -32.935661 
L 151.3728 -32.33972 
L 154.0224 -31.925791 
L 156.672 -31.383585 
L 159.3216 -30.898783 
L 161.9712 -30.344961 
L 164.6208 -29.912285 
L 167.2704 -29.383032 
L 169.92 -29.001773 
L 169.92 -29.872191 
L 169.92 -29.872191 
L 167.2704 -30.223598 
L 164.6208 -30.780215 
L 161.9712 -31.18348 
L 159.3216 -31.734712 
L 156.672 -32.22153 
L 154.0224 -32.751165 
L 151.3728 -33.143384 
L 148.7232 -33.716285 
L 146.0736 -34.30849 
L 143.424 -34.829291 
L 140.7744 -35.373782 
L 138.1248 -35.81907 
L 135.4752 -36.239624 
L 132.8256 -36.599194 
L 130.176 -36.999377 
L 127.5264 -37.389511 
L 124.8768 -37.807285 
L 122.2272 -38.138424 
L 119.5776 -38.410967 
L 116.928 -38.660907 
L 114.2784 -38.972151 
L 111.6288 -39.107009 
L 108.9792 -39.121319 
L 106.3296 -39.054935 
L 103.68 -39.001224 
L 101.0304 -38.836301 
L 98.3808 -38.611352 
L 95.7312 -38.436296 
L 93.0816 -38.253192 
L 90.432 -38.044109 
L 87.7824 -37.860468 
L 85.1328 -37.749457 
L 82.4832 -37.70197 
L 79.8336 -37.55588 
L 77.184 -37.448276 
L 74.5344 -37.298182 
L 71.8848 -36.991373 
L 69.2352 -36.850206 
L 66.5856 -36.62741 
L 63.936 -36.427833 
L 61.2864 -36.258525 
L 58.6368 -36.079968 
L 55.9872 -35.891942 
L 53.3376 -35.815982 
L 50.688 -35.81268 
L 48.0384 -35.78247 
L 45.3888 -35.78012 
L 42.7392 -35.573874 
L 40.0896 -35.216849 
L 37.44 -34.482495 
L 34.7904 -33.401666 
L 32.1408 -32.508732 
L 29.4912 -31.9787 
L 26.8416 -31.565261 
L 24.192 -31.378825 
L 21.5424 -31.206396 
L 18.8928 -31.134286 
L 16.2432 -31.073632 
L 13.5936 -31.032071 
z
" id="m07537f7988" style="stroke:#d62728;stroke-opacity:0.2;stroke-width:0.5;"/>
    </defs>
    <g clip-path="url(#p2919e385f4)">
     <use style="fill:#d62728;fill-opacity:0.2;stroke:#d62728;stroke-opacity:0.2;stroke-width:0.5;" x="0" xlink:href="#m07537f7988" y="64.08"/>
    </g>
   </g>
   <g id="PolyCollection_3">
    <defs>
     <path d="M 13.5936 -39.99527 
L 13.5936 -39.44274 
L 16.2432 -39.130716 
L 18.8928 -39.088084 
L 21.5424 -39.071737 
L 24.192 -38.925873 
L 26.8416 -38.734274 
L 29.4912 -38.381308 
L 32.1408 -38.176459 
L 34.7904 -37.875077 
L 37.44 -37.545353 
L 40.0896 -37.239469 
L 42.7392 -36.946186 
L 45.3888 -36.666775 
L 48.0384 -36.230763 
L 50.688 -35.875843 
L 53.3376 -35.548963 
L 55.9872 -35.21322 
L 58.6368 -34.848394 
L 61.2864 -34.58442 
L 63.936 -34.210212 
L 66.5856 -33.995084 
L 69.2352 -33.793019 
L 71.8848 -33.687914 
L 74.5344 -33.496135 
L 77.184 -33.229183 
L 79.8336 -33.075298 
L 82.4832 -33.043361 
L 85.1328 -32.844518 
L 87.7824 -32.714613 
L 90.432 -32.495822 
L 93.0816 -32.317877 
L 95.7312 -32.098811 
L 98.3808 -31.932169 
L 101.0304 -32.085734 
L 103.68 -32.465302 
L 106.3296 -33.47228 
L 108.9792 -34.803202 
L 111.6288 -36.216449 
L 114.2784 -37.43485 
L 116.928 -38.218963 
L 119.5776 -39.056843 
L 122.2272 -39.785487 
L 124.8768 -40.168351 
L 127.5264 -39.890821 
L 130.176 -39.584807 
L 132.8256 -39.140915 
L 135.4752 -38.822507 
L 138.1248 -38.207871 
L 140.7744 -37.649182 
L 143.424 -37.177305 
L 146.0736 -36.537052 
L 148.7232 -35.868461 
L 151.3728 -35.38801 
L 154.0224 -34.840174 
L 156.672 -34.245835 
L 159.3216 -33.867879 
L 161.9712 -33.071141 
L 164.6208 -32.668093 
L 167.2704 -31.987041 
L 169.92 -31.966528 
L 169.92 -32.563124 
L 169.92 -32.563124 
L 167.2704 -32.580894 
L 164.6208 -33.25966 
L 161.9712 -33.652886 
L 159.3216 -34.44533 
L 156.672 -34.813086 
L 154.0224 -35.412093 
L 151.3728 -35.953127 
L 148.7232 -36.43781 
L 146.0736 -37.101711 
L 143.424 -37.745301 
L 140.7744 -38.220124 
L 138.1248 -38.776402 
L 135.4752 -39.386256 
L 132.8256 -39.703226 
L 130.176 -40.140066 
L 127.5264 -40.468575 
L 124.8768 -40.754867 
L 122.2272 -40.380082 
L 119.5776 -39.66468 
L 116.928 -38.832926 
L 114.2784 -38.045118 
L 111.6288 -36.825692 
L 108.9792 -35.40102 
L 106.3296 -34.043503 
L 103.68 -33.019955 
L 101.0304 -32.625971 
L 98.3808 -32.481474 
L 95.7312 -32.649631 
L 93.0816 -32.86139 
L 90.432 -33.046416 
L 87.7824 -33.270813 
L 85.1328 -33.383782 
L 82.4832 -33.618063 
L 79.8336 -33.647159 
L 77.184 -33.804248 
L 74.5344 -34.087137 
L 71.8848 -34.296904 
L 69.2352 -34.396728 
L 66.5856 -34.60436 
L 63.936 -34.813129 
L 61.2864 -35.203222 
L 58.6368 -35.468552 
L 55.9872 -35.834857 
L 53.3376 -36.169849 
L 50.688 -36.482627 
L 48.0384 -36.836655 
L 45.3888 -37.268682 
L 42.7392 -37.540372 
L 40.0896 -37.825658 
L 37.44 -38.107406 
L 34.7904 -38.460587 
L 32.1408 -38.75658 
L 29.4912 -38.934723 
L 26.8416 -39.293421 
L 24.192 -39.484473 
L 21.5424 -39.635765 
L 18.8928 -39.663496 
L 16.2432 -39.696409 
L 13.5936 -39.99527 
z
" id="m8b75463dff" style="stroke:#17becf;stroke-opacity:0.2;stroke-width:0.5;"/>
    </defs>
    <g clip-path="url(#p2919e385f4)">
     <use style="fill:#17becf;fill-opacity:0.2;stroke:#17becf;stroke-opacity:0.2;stroke-width:0.5;" x="0" xlink:href="#m8b75463dff" y="64.08"/>
    </g>
   </g>
   <g id="PolyCollection_4">
    <defs>
     <path d="M 13.5936 -34.419361 
L 13.5936 -33.818351 
L 16.2432 -33.764835 
L 18.8928 -33.554513 
L 21.5424 -33.61078 
L 24.192 -33.337924 
L 26.8416 -32.889886 
L 29.4912 -32.572488 
L 32.1408 -32.419161 
L 34.7904 -32.021896 
L 37.44 -31.453064 
L 40.0896 -30.886982 
L 42.7392 -30.372041 
L 45.3888 -29.945949 
L 48.0384 -29.616157 
L 50.688 -29.06139 
L 53.3376 -28.676971 
L 55.9872 -28.260713 
L 58.6368 -27.903116 
L 61.2864 -27.499236 
L 63.936 -27.17193 
L 66.5856 -26.761299 
L 69.2352 -26.381238 
L 71.8848 -26.017138 
L 74.5344 -25.662341 
L 77.184 -25.410998 
L 79.8336 -25.215821 
L 82.4832 -25.010517 
L 85.1328 -24.796744 
L 87.7824 -24.526611 
L 90.432 -24.21561 
L 93.0816 -23.93087 
L 95.7312 -23.719937 
L 98.3808 -23.541842 
L 101.0304 -23.337066 
L 103.68 -23.192748 
L 106.3296 -22.980407 
L 108.9792 -22.841456 
L 111.6288 -22.638941 
L 114.2784 -22.42651 
L 116.928 -22.28168 
L 119.5776 -22.124583 
L 122.2272 -21.961284 
L 124.8768 -21.769846 
L 127.5264 -21.632914 
L 130.176 -21.451363 
L 132.8256 -21.362184 
L 135.4752 -21.336041 
L 138.1248 -21.331086 
L 140.7744 -21.345539 
L 143.424 -21.382333 
L 146.0736 -21.489525 
L 148.7232 -21.616605 
L 151.3728 -21.684414 
L 154.0224 -21.784685 
L 156.672 -22.092077 
L 159.3216 -22.571195 
L 161.9712 -23.404272 
L 164.6208 -24.197812 
L 167.2704 -25.107667 
L 169.92 -25.784646 
L 169.92 -26.237227 
L 169.92 -26.237227 
L 167.2704 -25.54421 
L 164.6208 -24.643079 
L 161.9712 -23.843135 
L 159.3216 -22.958248 
L 156.672 -22.453756 
L 154.0224 -22.141647 
L 151.3728 -22.044065 
L 148.7232 -21.976882 
L 146.0736 -21.850747 
L 143.424 -21.746611 
L 140.7744 -21.717019 
L 138.1248 -21.698301 
L 135.4752 -21.699819 
L 132.8256 -21.732215 
L 130.176 -21.832363 
L 127.5264 -22.014505 
L 124.8768 -22.154883 
L 122.2272 -22.35203 
L 119.5776 -22.538449 
L 116.928 -22.705865 
L 114.2784 -22.862731 
L 111.6288 -23.097013 
L 108.9792 -23.299158 
L 106.3296 -23.474443 
L 103.68 -23.688272 
L 101.0304 -23.847034 
L 98.3808 -24.048602 
L 95.7312 -24.24332 
L 93.0816 -24.440247 
L 90.432 -24.74698 
L 87.7824 -25.067657 
L 85.1328 -25.342036 
L 82.4832 -25.562452 
L 79.8336 -25.769226 
L 77.184 -25.972858 
L 74.5344 -26.231542 
L 71.8848 -26.593432 
L 69.2352 -26.961463 
L 66.5856 -27.347424 
L 63.936 -27.763254 
L 61.2864 -28.098387 
L 58.6368 -28.503132 
L 55.9872 -28.878112 
L 53.3376 -29.293772 
L 50.688 -29.666773 
L 48.0384 -30.228009 
L 45.3888 -30.551874 
L 42.7392 -30.984984 
L 40.0896 -31.512397 
L 37.44 -32.074804 
L 34.7904 -32.638589 
L 32.1408 -33.045425 
L 29.4912 -33.191473 
L 26.8416 -33.501795 
L 24.192 -33.955938 
L 21.5424 -34.224477 
L 18.8928 -34.165761 
L 16.2432 -34.379183 
L 13.5936 -34.419361 
z
" id="ma964c1248b" style="stroke:#bcbd22;stroke-opacity:0.2;stroke-width:0.5;"/>
    </defs>
    <g clip-path="url(#p2919e385f4)">
     <use style="fill:#bcbd22;fill-opacity:0.2;stroke:#bcbd22;stroke-opacity:0.2;stroke-width:0.5;" x="0" xlink:href="#ma964c1248b" y="64.08"/>
    </g>
   </g>
   <g id="line2d_1">
    <path clip-path="url(#p2919e385f4)" d="M 13.5936 31.516465 
L 16.2432 31.355258 
L 18.8928 31.231186 
L 21.5424 31.089806 
L 24.192 31.074615 
L 26.8416 31.054266 
L 29.4912 31.168159 
L 32.1408 31.23777 
L 34.7904 31.465173 
L 37.44 31.82711 
L 40.0896 32.056503 
L 42.7392 32.201086 
L 45.3888 32.363186 
L 48.0384 32.462104 
L 50.688 32.581162 
L 53.3376 32.600092 
L 55.9872 32.64518 
L 58.6368 32.696662 
L 61.2864 32.804971 
L 63.936 32.920477 
L 66.5856 33.11899 
L 69.2352 33.359398 
L 71.8848 33.621991 
L 74.5344 33.97689 
L 77.184 34.223125 
L 79.8336 34.501673 
L 82.4832 34.761316 
L 85.1328 35.002618 
L 87.7824 35.316147 
L 90.432 35.615309 
L 93.0816 35.843627 
L 95.7312 36.093332 
L 98.3808 36.229449 
L 101.0304 36.517387 
L 103.68 36.738916 
L 106.3296 37.05781 
L 108.9792 37.479902 
L 111.6288 38.042181 
L 114.2784 38.753905 
L 116.928 39.483514 
L 119.5776 40.199239 
L 122.2272 40.94073 
L 124.8768 41.530667 
L 127.5264 41.838197 
L 130.176 42.059331 
L 132.8256 42.209405 
L 135.4752 42.188793 
L 138.1248 42.045431 
L 140.7744 41.745011 
L 143.424 41.377448 
L 146.0736 40.814401 
L 148.7232 39.989249 
L 151.3728 39.138979 
L 154.0224 38.189075 
L 156.672 36.974619 
L 159.3216 35.965585 
L 161.9712 35.052419 
L 164.6208 34.332721 
L 167.2704 33.366655 
L 169.92 32.883026 
" style="fill:none;stroke:#9467bd;stroke-linecap:square;stroke-width:0.5;"/>
   </g>
   <g id="line2d_2">
    <path clip-path="url(#p2919e385f4)" d="M 13.5936 33.389371 
L 16.2432 33.344818 
L 18.8928 33.288784 
L 21.5424 33.220643 
L 24.192 33.051897 
L 26.8416 32.868289 
L 29.4912 32.453752 
L 32.1408 31.920801 
L 34.7904 31.025007 
L 37.44 29.927721 
L 40.0896 29.192599 
L 42.7392 28.838967 
L 45.3888 28.638222 
L 48.0384 28.634526 
L 50.688 28.606175 
L 53.3376 28.598619 
L 55.9872 28.525334 
L 58.6368 28.355176 
L 61.2864 28.213082 
L 63.936 28.031575 
L 66.5856 27.859556 
L 69.2352 27.614638 
L 71.8848 27.451119 
L 74.5344 27.137833 
L 77.184 26.985006 
L 79.8336 26.870163 
L 82.4832 26.751657 
L 85.1328 26.688493 
L 87.7824 26.587359 
L 90.432 26.383217 
L 93.0816 26.171244 
L 95.7312 25.961534 
L 98.3808 25.774825 
L 101.0304 25.542154 
L 103.68 25.371127 
L 106.3296 25.323153 
L 108.9792 25.251839 
L 111.6288 25.268165 
L 114.2784 25.407756 
L 116.928 25.721446 
L 119.5776 25.972692 
L 122.2272 26.246808 
L 124.8768 26.574745 
L 127.5264 27.006893 
L 130.176 27.394044 
L 132.8256 27.807162 
L 135.4752 28.172293 
L 138.1248 28.601844 
L 140.7744 29.061325 
L 143.424 29.615083 
L 146.0736 30.153293 
L 148.7232 30.754027 
L 151.3728 31.338448 
L 154.0224 31.741522 
L 156.672 32.277443 
L 159.3216 32.763253 
L 161.9712 33.31578 
L 164.6208 33.73375 
L 167.2704 34.276685 
L 169.92 34.643018 
" style="fill:none;stroke:#d62728;stroke-linecap:square;stroke-width:0.5;"/>
   </g>
   <g id="line2d_3">
    <path clip-path="url(#p2919e385f4)" d="M 13.5936 24.360995 
L 16.2432 24.666438 
L 18.8928 24.70421 
L 21.5424 24.726249 
L 24.192 24.874827 
L 26.8416 25.066152 
L 29.4912 25.421984 
L 32.1408 25.61348 
L 34.7904 25.912168 
L 37.44 26.25362 
L 40.0896 26.547437 
L 42.7392 26.836721 
L 45.3888 27.112272 
L 48.0384 27.546291 
L 50.688 27.900765 
L 53.3376 28.220594 
L 55.9872 28.555961 
L 58.6368 28.921527 
L 61.2864 29.186179 
L 63.936 29.568329 
L 66.5856 29.780278 
L 69.2352 29.985126 
L 71.8848 30.087591 
L 74.5344 30.288364 
L 77.184 30.563284 
L 79.8336 30.718771 
L 82.4832 30.749288 
L 85.1328 30.96585 
L 87.7824 31.087287 
L 90.432 31.308881 
L 93.0816 31.490366 
L 95.7312 31.705779 
L 98.3808 31.873179 
L 101.0304 31.724147 
L 103.68 31.337371 
L 106.3296 30.322108 
L 108.9792 28.977889 
L 111.6288 27.558929 
L 114.2784 26.340016 
L 116.928 25.554056 
L 119.5776 24.719238 
L 122.2272 23.997215 
L 124.8768 23.618391 
L 127.5264 23.900302 
L 130.176 24.217563 
L 132.8256 24.657929 
L 135.4752 24.975618 
L 138.1248 25.587863 
L 140.7744 26.145347 
L 143.424 26.618697 
L 146.0736 27.260619 
L 148.7232 27.926865 
L 151.3728 28.409431 
L 154.0224 28.953866 
L 156.672 29.55054 
L 159.3216 29.923395 
L 161.9712 30.717986 
L 164.6208 31.116123 
L 167.2704 31.796033 
L 169.92 31.815174 
" style="fill:none;stroke:#17becf;stroke-linecap:square;stroke-width:0.5;"/>
   </g>
   <g id="line2d_4">
    <path clip-path="url(#p2919e385f4)" d="M 13.5936 29.961144 
L 16.2432 30.007991 
L 18.8928 30.219863 
L 21.5424 30.162372 
L 24.192 30.433069 
L 26.8416 30.884159 
L 29.4912 31.198019 
L 32.1408 31.347707 
L 34.7904 31.749757 
L 37.44 32.316066 
L 40.0896 32.88031 
L 42.7392 33.401488 
L 45.3888 33.831089 
L 48.0384 34.157917 
L 50.688 34.715918 
L 53.3376 35.094629 
L 55.9872 35.510587 
L 58.6368 35.876876 
L 61.2864 36.281188 
L 63.936 36.612408 
L 66.5856 37.025638 
L 69.2352 37.408649 
L 71.8848 37.774715 
L 74.5344 38.133059 
L 77.184 38.388072 
L 79.8336 38.587476 
L 82.4832 38.793516 
L 85.1328 39.01061 
L 87.7824 39.282866 
L 90.432 39.598705 
L 93.0816 39.894441 
L 95.7312 40.098372 
L 98.3808 40.284778 
L 101.0304 40.48795 
L 103.68 40.63949 
L 106.3296 40.852575 
L 108.9792 41.009693 
L 111.6288 41.212023 
L 114.2784 41.435379 
L 116.928 41.586227 
L 119.5776 41.748484 
L 122.2272 41.923343 
L 124.8768 42.117635 
L 127.5264 42.25629 
L 130.176 42.438137 
L 132.8256 42.5328 
L 135.4752 42.56207 
L 138.1248 42.565307 
L 140.7744 42.548721 
L 143.424 42.515528 
L 146.0736 42.409864 
L 148.7232 42.283256 
L 151.3728 42.21576 
L 154.0224 42.116834 
L 156.672 41.807083 
L 159.3216 41.315279 
L 161.9712 40.456296 
L 164.6208 39.659554 
L 167.2704 38.754062 
L 169.92 38.069063 
" style="fill:none;stroke:#bcbd22;stroke-linecap:square;stroke-width:0.5;"/>
   </g>
   <g id="line2d_5">
    <path clip-path="url(#p2919e385f4)" d="M 15.156864 55.826496 
L 67.089024 55.826496 
" style="fill:none;stroke:#000000;stroke-linecap:square;stroke-width:1.25;"/>
   </g>
   <g id="line2d_6">
    <path clip-path="url(#p2919e385f4)" d="M 15.156864 55.826496 
L 15.156864 37.497096 
" style="fill:none;stroke:#000000;stroke-linecap:square;stroke-width:1.25;"/>
   </g>
   <g id="text_1">
    <text style="font-family:DejaVu Sans;font-size:6px;font-stretch:normal;font-style:normal;font-weight:normal;text-anchor:middle;" transform="rotate(-0, 41.122944, 63.205078)" x="41.122944" y="63.205078">100 ms</text>
   </g>
   <g id="text_2">
    <text style="font-family:DejaVu Sans;font-size:6px;font-stretch:normal;font-style:normal;font-weight:normal;" transform="translate(6.092731 54.095702)rotate(-90)">2 cm</text>
   </g>
   <g id="legend_1">
    <g id="line2d_7">
     <path d="M 100.336875 7.859063 
L 112.336875 7.859063 
" style="fill:none;stroke:#9467bd;stroke-linecap:square;stroke-width:0.5;"/>
    </g>
    <g id="line2d_8"/>
    <g id="text_3">
     <text style="font-family:DejaVu Sans;font-size:6px;font-stretch:normal;font-style:normal;font-weight:normal;text-anchor:start;" transform="rotate(-0, 117.136875, 9.959063)" x="117.136875" y="9.959063">left wrist joint</text>
    </g>
    <g id="line2d_9">
     <path d="M 100.336875 16.665938 
L 112.336875 16.665938 
" style="fill:none;stroke:#d62728;stroke-linecap:square;stroke-width:0.5;"/>
    </g>
    <g id="line2d_10"/>
    <g id="text_4">
     <text style="font-family:DejaVu Sans;font-size:6px;font-stretch:normal;font-style:normal;font-weight:normal;text-anchor:start;" transform="rotate(-0, 117.136875, 18.765938)" x="117.136875" y="18.765938">right wrist joint</text>
    </g>
    <g id="line2d_11">
     <path d="M 100.336875 25.472812 
L 112.336875 25.472812 
" style="fill:none;stroke:#17becf;stroke-linecap:square;stroke-width:0.5;"/>
    </g>
    <g id="line2d_12"/>
    <g id="text_5">
     <text style="font-family:DejaVu Sans;font-size:6px;font-stretch:normal;font-style:normal;font-weight:normal;text-anchor:start;" transform="rotate(-0, 117.136875, 27.572812)" x="117.136875" y="27.572812">left ankle joint</text>
    </g>
    <g id="line2d_13">
     <path d="M 100.336875 34.279688 
L 112.336875 34.279688 
" style="fill:none;stroke:#bcbd22;stroke-linecap:square;stroke-width:0.5;"/>
    </g>
    <g id="line2d_14"/>
    <g id="text_6">
     <text style="font-family:DejaVu Sans;font-size:6px;font-stretch:normal;font-style:normal;font-weight:normal;text-anchor:start;" transform="rotate(-0, 117.136875, 36.379688)" x="117.136875" y="36.379688">right ankle joint</text>
    </g>
   </g>
  </g>
 </g>
 <defs>
  <clipPath id="p2919e385f4">
   <rect height="56.3904" width="156.3264" x="13.5936" y="0"/>
  </clipPath>
 </defs>
</svg>
