<?xml version="1.0" encoding="utf-8" standalone="no"?>
<!DOCTYPE svg PUBLIC "-//W3C//DTD SVG 1.1//EN"
  "http://www.w3.org/Graphics/SVG/1.1/DTD/svg11.dtd">
<!-- Created with matplotlib (https://matplotlib.org/) -->
<svg height="64.08pt" version="1.1" viewBox="0 0 84.96 64.08" width="84.96pt" xmlns="http://www.w3.org/2000/svg" xmlns:xlink="http://www.w3.org/1999/xlink">
 <metadata>
  <rdf:RDF xmlns:cc="http://creativecommons.org/ns#" xmlns:dc="http://purl.org/dc/elements/1.1/" xmlns:rdf="http://www.w3.org/1999/02/22-rdf-syntax-ns#">
   <cc:Work>
    <dc:type rdf:resource="http://purl.org/dc/dcmitype/StillImage"/>
    <dc:date>2022-03-31T17:58:21.729115</dc:date>
    <dc:format>image/svg+xml</dc:format>
    <dc:creator>
     <cc:Agent>
      <dc:title>Matplotlib v3.3.1, https://matplotlib.org/</dc:title>
     </cc:Agent>
    </dc:creator>
   </cc:Work>
  </rdf:RDF>
 </metadata>
 <defs>
  <style type="text/css">*{stroke-linecap:butt;stroke-linejoin:round;}</style>
 </defs>
 <g id="figure_1">
  <g id="patch_1">
   <path d="M 0 64.08 
L 84.96 64.08 
L 84.96 0 
L 0 0 
z
" style="fill:none;"/>
  </g>
  <g id="axes_1">
   <g id="patch_2">
    <path d="M 28.8 42.48 
L 77.76 42.48 
L 77.76 1.8 
L 28.8 1.8 
z
" style="fill:none;"/>
   </g>
   <g id="matplotlib.axis_1">
    <g id="xtick_1">
     <g id="line2d_1">
      <defs>
       <path d="M 0 0 
L 0 3.5 
" id="m66c02de289" style="stroke:#000000;stroke-width:0.8;"/>
      </defs>
      <g>
       <use style="stroke:#000000;stroke-width:0.8;" x="28.8" xlink:href="#m66c02de289" y="42.48"/>
      </g>
     </g>
     <g id="text_1">
      <text style="font-family:DejaVu Sans;font-size:6px;font-stretch:normal;font-style:normal;font-weight:normal;text-anchor:middle;" transform="rotate(-0, 28.8, 54.039062)" x="28.8" y="54.039062">0</text>
     </g>
    </g>
    <g id="xtick_2">
     <g id="line2d_2">
      <g>
       <use style="stroke:#000000;stroke-width:0.8;" x="53.28" xlink:href="#m66c02de289" y="42.48"/>
      </g>
     </g>
     <g id="text_2">
      <text style="font-family:DejaVu Sans;font-size:6px;font-stretch:normal;font-style:normal;font-weight:normal;text-anchor:middle;" transform="rotate(-0, 53.28, 54.039062)" x="53.28" y="54.039062">15</text>
     </g>
    </g>
    <g id="xtick_3">
     <g id="line2d_3">
      <g>
       <use style="stroke:#000000;stroke-width:0.8;" x="77.76" xlink:href="#m66c02de289" y="42.48"/>
      </g>
     </g>
     <g id="text_3">
      <text style="font-family:DejaVu Sans;font-size:6px;font-stretch:normal;font-style:normal;font-weight:normal;text-anchor:middle;" transform="rotate(-0, 77.76, 54.039062)" x="77.76" y="54.039062">30</text>
     </g>
    </g>
    <g id="text_4">
     <text style="font-family:DejaVu Sans;font-size:6px;font-stretch:normal;font-style:normal;font-weight:normal;text-anchor:middle;" transform="rotate(-0, 53.28, 61.752187)" x="53.28" y="61.752187">frequency (Hz)</text>
    </g>
   </g>
   <g id="matplotlib.axis_2">
    <g id="ytick_1">
     <g id="line2d_4">
      <defs>
       <path d="M 0 0 
L -3.5 0 
" id="mbe84e0aa91" style="stroke:#000000;stroke-width:0.8;"/>
      </defs>
      <g>
       <use style="stroke:#000000;stroke-width:0.8;" x="28.8" xlink:href="#mbe84e0aa91" y="42.48"/>
      </g>
     </g>
     <g id="text_5">
      <text style="font-family:DejaVu Sans;font-size:6px;font-stretch:normal;font-style:normal;font-weight:normal;text-anchor:end;" transform="rotate(-0, 21.8, 44.759531)" x="21.8" y="44.759531">0</text>
     </g>
    </g>
    <g id="ytick_2">
     <g id="line2d_5">
      <g>
       <use style="stroke:#000000;stroke-width:0.8;" x="28.8" xlink:href="#mbe84e0aa91" y="22.14"/>
      </g>
     </g>
     <g id="text_6">
      <text style="font-family:DejaVu Sans;font-size:6px;font-stretch:normal;font-style:normal;font-weight:normal;text-anchor:end;" transform="rotate(-0, 21.8, 24.419531)" x="21.8" y="24.419531">0.12</text>
     </g>
    </g>
    <g id="ytick_3">
     <g id="line2d_6">
      <g>
       <use style="stroke:#000000;stroke-width:0.8;" x="28.8" xlink:href="#mbe84e0aa91" y="1.8"/>
      </g>
     </g>
     <g id="text_7">
      <text style="font-family:DejaVu Sans;font-size:6px;font-stretch:normal;font-style:normal;font-weight:normal;text-anchor:end;" transform="rotate(-0, 21.8, 4.079531)" x="21.8" y="4.079531">0.24</text>
     </g>
    </g>
    <g id="text_8">
     <text style="font-family:DejaVu Sans;font-size:6px;font-stretch:normal;font-style:normal;font-weight:normal;text-anchor:middle;" transform="rotate(-90, 5.999063, 22.14)" x="5.999063" y="22.14">amplitude</text>
    </g>
   </g>
   <g id="line2d_7">
    <path clip-path="url(#p122668a6a3)" d="M 28.8 42.129793 
L 30.121785 39.260749 
L 31.44357 32.796998 
L 32.765355 20.584074 
L 34.08714 29.42966 
L 35.408926 37.539158 
L 36.730711 37.468029 
L 38.052496 37.640377 
L 39.374281 40.125609 
L 40.696066 38.40166 
L 42.017851 38.507489 
L 43.339636 39.942455 
L 44.661421 40.123175 
L 45.983207 39.455604 
L 47.304992 40.18218 
L 48.626777 40.470888 
L 49.948562 40.659906 
L 51.270347 40.854672 
L 52.592132 40.847509 
L 53.913917 40.948101 
L 55.235702 41.133757 
L 56.557488 41.140556 
L 57.879273 41.289643 
L 59.201058 41.213145 
L 60.522843 41.201818 
L 61.844628 41.295947 
L 63.166413 41.393263 
L 64.488198 41.422656 
L 65.809983 41.461518 
L 67.131769 41.489193 
L 68.453554 41.534696 
L 69.775339 41.581657 
L 71.097124 41.551067 
L 72.418909 41.626522 
L 73.740694 41.636103 
L 75.062479 41.692149 
L 76.384264 41.714495 
L 77.70605 41.656385 
L 79.027835 41.688555 
L 80.34962 41.737019 
L 81.671405 41.761466 
L 82.99319 41.778642 
L 84.314975 41.808722 
L 85.63676 41.82789 
L 85.96 41.819687 
" style="fill:none;stroke:#9467bd;stroke-linecap:square;stroke-width:0.5;"/>
   </g>
   <g id="line2d_8">
    <path clip-path="url(#p122668a6a3)" d="M 28.8 42.129793 
L 30.121785 39.558513 
L 31.44357 31.081244 
L 32.765355 19.020256 
L 34.08714 32.17084 
L 35.408926 39.500114 
L 36.730711 37.320788 
L 38.052496 36.929775 
L 39.374281 40.150637 
L 40.696066 38.562868 
L 42.017851 38.575266 
L 43.339636 39.799767 
L 44.661421 40.167177 
L 45.983207 39.665854 
L 47.304992 40.476114 
L 48.626777 40.708303 
L 49.948562 40.247129 
L 51.270347 40.741113 
L 52.592132 41.109238 
L 53.913917 40.539099 
L 55.235702 41.00046 
L 56.557488 41.241872 
L 57.879273 40.952514 
L 59.201058 41.222534 
L 60.522843 41.215403 
L 61.844628 41.164405 
L 63.166413 41.325803 
L 64.488198 41.34685 
L 65.809983 41.366427 
L 67.131769 41.452816 
L 68.453554 41.50868 
L 69.775339 41.522175 
L 71.097124 41.575398 
L 72.418909 41.597419 
L 73.740694 41.607186 
L 75.062479 41.644899 
L 76.384264 41.662778 
L 77.70605 41.717427 
L 79.027835 41.666731 
L 80.34962 41.723996 
L 81.671405 41.75121 
L 82.99319 41.762787 
L 84.314975 41.788457 
L 85.63676 41.797612 
L 85.96 41.803337 
" style="fill:none;stroke:#d62728;stroke-linecap:square;stroke-width:0.5;"/>
   </g>
   <g id="line2d_9">
    <path clip-path="url(#p122668a6a3)" d="M 28.8 42.129793 
L 30.121785 40.153279 
L 31.44357 35.292549 
L 32.765355 27.538539 
L 34.08714 35.727041 
L 35.408926 41.025436 
L 36.730711 36.864645 
L 38.052496 37.924198 
L 39.374281 39.145424 
L 40.696066 39.478143 
L 42.017851 39.793058 
L 43.339636 38.703379 
L 44.661421 39.935798 
L 45.983207 40.287491 
L 47.304992 39.618604 
L 48.626777 40.006546 
L 49.948562 40.750184 
L 51.270347 40.569692 
L 52.592132 40.313416 
L 53.913917 40.81842 
L 55.235702 40.903782 
L 56.557488 40.751081 
L 57.879273 41.018412 
L 59.201058 41.208446 
L 60.522843 41.182638 
L 61.844628 41.276481 
L 63.166413 41.301676 
L 64.488198 41.367743 
L 65.809983 41.418035 
L 67.131769 41.470395 
L 68.453554 41.554771 
L 69.775339 41.416041 
L 71.097124 41.571017 
L 72.418909 41.584196 
L 73.740694 41.587557 
L 75.062479 41.64284 
L 76.384264 41.668705 
L 77.70605 41.705741 
L 79.027835 41.705492 
L 80.34962 41.711535 
L 81.671405 41.757953 
L 82.99319 41.796803 
L 84.314975 41.774763 
L 85.63676 41.768943 
L 85.96 41.785382 
" style="fill:none;stroke:#17becf;stroke-linecap:square;stroke-width:0.5;"/>
   </g>
   <g id="line2d_10">
    <path clip-path="url(#p122668a6a3)" d="M 28.8 42.129793 
L 30.121785 38.739565 
L 31.44357 24.326465 
L 32.765355 18.149045 
L 34.08714 31.044359 
L 35.408926 37.804729 
L 36.730711 36.52473 
L 38.052496 38.502179 
L 39.374281 39.957169 
L 40.696066 38.733242 
L 42.017851 39.247848 
L 43.339636 40.271767 
L 44.661421 39.799505 
L 45.983207 40.155518 
L 47.304992 40.365473 
L 48.626777 40.350765 
L 49.948562 40.657505 
L 51.270347 40.702981 
L 52.592132 40.901734 
L 53.913917 41.053784 
L 55.235702 41.142304 
L 56.557488 41.086258 
L 57.879273 41.141488 
L 59.201058 41.283278 
L 60.522843 41.36621 
L 61.844628 41.303373 
L 63.166413 41.425886 
L 64.488198 41.497599 
L 65.809983 41.495276 
L 67.131769 41.492884 
L 68.453554 41.560786 
L 69.775339 41.640935 
L 71.097124 41.471103 
L 72.418909 41.595087 
L 73.740694 41.663634 
L 75.062479 41.650896 
L 76.384264 41.677068 
L 77.70605 41.691829 
L 79.027835 41.713246 
L 80.34962 41.741638 
L 81.671405 41.766705 
L 82.99319 41.780322 
L 84.314975 41.800363 
L 85.63676 41.828849 
L 85.96 41.829751 
" style="fill:none;stroke:#bcbd22;stroke-linecap:square;stroke-width:0.5;"/>
   </g>
   <g id="patch_3">
    <path d="M 28.8 42.48 
L 28.8 1.8 
" style="fill:none;stroke:#000000;stroke-linecap:square;stroke-linejoin:miter;stroke-width:0.8;"/>
   </g>
   <g id="patch_4">
    <path d="M 28.8 42.48 
L 77.76 42.48 
" style="fill:none;stroke:#000000;stroke-linecap:square;stroke-linejoin:miter;stroke-width:0.8;"/>
   </g>
  </g>
 </g>
 <defs>
  <clipPath id="p122668a6a3">
   <rect height="40.68" width="48.96" x="28.8" y="1.8"/>
  </clipPath>
 </defs>
</svg>
