<?xml version="1.0" encoding="utf-8" standalone="no"?>
<!DOCTYPE svg PUBLIC "-//W3C//DTD SVG 1.1//EN"
  "http://www.w3.org/Graphics/SVG/1.1/DTD/svg11.dtd">
<!-- Created with matplotlib (https://matplotlib.org/) -->
<svg height="64.08pt" version="1.1" viewBox="0 0 169.92 64.08" width="169.92pt" xmlns="http://www.w3.org/2000/svg" xmlns:xlink="http://www.w3.org/1999/xlink">
 <metadata>
  <rdf:RDF xmlns:cc="http://creativecommons.org/ns#" xmlns:dc="http://purl.org/dc/elements/1.1/" xmlns:rdf="http://www.w3.org/1999/02/22-rdf-syntax-ns#">
   <cc:Work>
    <dc:type rdf:resource="http://purl.org/dc/dcmitype/StillImage"/>
    <dc:date>2022-03-31T17:58:21.389040</dc:date>
    <dc:format>image/svg+xml</dc:format>
    <dc:creator>
     <cc:Agent>
      <dc:title>Matplotlib v3.3.1, https://matplotlib.org/</dc:title>
     </cc:Agent>
    </dc:creator>
   </cc:Work>
  </rdf:RDF>
 </metadata>
 <defs>
  <style type="text/css">*{stroke-linecap:butt;stroke-linejoin:round;}</style>
 </defs>
 <g id="figure_1">
  <g id="patch_1">
   <path d="M 0 64.08 
L 169.92 64.08 
L 169.92 0 
L 0 0 
z
" style="fill:none;"/>
  </g>
  <g id="axes_1">
   <g id="PolyCollection_1">
    <defs>
     <path d="M 13.5936 -32.630708 
L 13.5936 -30.261761 
L 16.2432 -30.374029 
L 18.8928 -30.333279 
L 21.5424 -30.13626 
L 24.192 -29.985352 
L 26.8416 -29.77415 
L 29.4912 -29.652898 
L 32.1408 -29.582361 
L 34.7904 -28.988458 
L 37.44 -29.02539 
L 40.0896 -29.440415 
L 42.7392 -29.409962 
L 45.3888 -29.477062 
L 48.0384 -29.497245 
L 50.688 -29.635093 
L 53.3376 -29.777331 
L 55.9872 -29.739848 
L 58.6368 -29.605985 
L 61.2864 -29.546584 
L 63.936 -29.416803 
L 66.5856 -29.22744 
L 69.2352 -29.193036 
L 71.8848 -28.977835 
L 74.5344 -28.98506 
L 77.184 -29.17146 
L 79.8336 -29.03817 
L 82.4832 -29.172035 
L 85.1328 -29.071004 
L 87.7824 -28.962211 
L 90.432 -29.149812 
L 93.0816 -29.1929 
L 95.7312 -29.382787 
L 98.3808 -29.322032 
L 101.0304 -29.153594 
L 103.68 -29.223312 
L 106.3296 -28.896166 
L 108.9792 -28.609063 
L 111.6288 -28.172875 
L 114.2784 -27.931743 
L 116.928 -28.008796 
L 119.5776 -27.940225 
L 122.2272 -28.039409 
L 124.8768 -28.781166 
L 127.5264 -29.338201 
L 130.176 -29.442255 
L 132.8256 -29.796122 
L 135.4752 -30.22557 
L 138.1248 -30.630208 
L 140.7744 -30.873132 
L 143.424 -31.096305 
L 146.0736 -31.806578 
L 148.7232 -32.158258 
L 151.3728 -32.092709 
L 154.0224 -32.831378 
L 156.672 -32.872906 
L 159.3216 -32.389636 
L 161.9712 -31.867729 
L 164.6208 -32.216008 
L 167.2704 -31.920627 
L 169.92 -30.938931 
L 169.92 -33.484412 
L 169.92 -33.484412 
L 167.2704 -34.49556 
L 164.6208 -34.811636 
L 161.9712 -34.519691 
L 159.3216 -35.058737 
L 156.672 -35.589979 
L 154.0224 -35.474698 
L 151.3728 -34.784757 
L 148.7232 -34.763312 
L 146.0736 -34.337932 
L 143.424 -33.534358 
L 140.7744 -33.214163 
L 138.1248 -32.898834 
L 135.4752 -32.52048 
L 132.8256 -32.135369 
L 130.176 -31.77574 
L 127.5264 -31.697987 
L 124.8768 -31.174444 
L 122.2272 -30.481916 
L 119.5776 -30.401982 
L 116.928 -30.466688 
L 114.2784 -30.403338 
L 111.6288 -30.643959 
L 108.9792 -31.10125 
L 106.3296 -31.411111 
L 103.68 -31.757925 
L 101.0304 -31.708444 
L 98.3808 -31.86646 
L 95.7312 -31.9788 
L 93.0816 -31.765276 
L 90.432 -31.796732 
L 87.7824 -31.584721 
L 85.1328 -31.753707 
L 82.4832 -31.859897 
L 79.8336 -31.7513 
L 77.184 -31.806468 
L 74.5344 -31.666768 
L 71.8848 -31.573084 
L 69.2352 -31.827844 
L 66.5856 -31.835385 
L 63.936 -32.074114 
L 61.2864 -32.166482 
L 58.6368 -32.259551 
L 55.9872 -32.306681 
L 53.3376 -32.422925 
L 50.688 -32.288532 
L 48.0384 -32.192242 
L 45.3888 -32.130905 
L 42.7392 -32.053992 
L 40.0896 -31.995801 
L 37.44 -31.55509 
L 34.7904 -31.527777 
L 32.1408 -32.09331 
L 29.4912 -32.144105 
L 26.8416 -32.244446 
L 24.192 -32.42215 
L 21.5424 -32.577146 
L 18.8928 -32.724538 
L 16.2432 -32.740813 
L 13.5936 -32.630708 
z
" id="m5da762bd1d" style="stroke:#9467bd;stroke-opacity:0.2;stroke-width:0.5;"/>
    </defs>
    <g clip-path="url(#p05bad076a5)">
     <use style="fill:#9467bd;fill-opacity:0.2;stroke:#9467bd;stroke-opacity:0.2;stroke-width:0.5;" x="0" xlink:href="#m5da762bd1d" y="64.08"/>
    </g>
   </g>
   <g id="PolyCollection_2">
    <defs>
     <path d="M 13.5936 -32.117869 
L 13.5936 -30.022891 
L 16.2432 -30.129846 
L 18.8928 -30.06716 
L 21.5424 -30.26316 
L 24.192 -30.366061 
L 26.8416 -30.695364 
L 29.4912 -31.175915 
L 32.1408 -31.762584 
L 34.7904 -32.842065 
L 37.44 -32.58505 
L 40.0896 -31.317185 
L 42.7392 -30.670624 
L 45.3888 -30.193 
L 48.0384 -29.940864 
L 50.688 -30.024772 
L 53.3376 -30.00679 
L 55.9872 -30.305371 
L 58.6368 -30.312073 
L 61.2864 -30.304643 
L 63.936 -30.243145 
L 66.5856 -30.414811 
L 69.2352 -30.31132 
L 71.8848 -30.508044 
L 74.5344 -30.599071 
L 77.184 -30.200679 
L 79.8336 -30.217833 
L 82.4832 -30.154764 
L 85.1328 -30.019899 
L 87.7824 -30.34417 
L 90.432 -30.493538 
L 93.0816 -30.551571 
L 95.7312 -30.504217 
L 98.3808 -30.613685 
L 101.0304 -30.688528 
L 103.68 -30.33543 
L 106.3296 -30.250916 
L 108.9792 -30.213174 
L 111.6288 -29.916106 
L 114.2784 -29.419015 
L 116.928 -29.285866 
L 119.5776 -29.399298 
L 122.2272 -29.291533 
L 124.8768 -28.989317 
L 127.5264 -28.934735 
L 130.176 -28.946462 
L 132.8256 -28.974617 
L 135.4752 -28.934286 
L 138.1248 -28.763046 
L 140.7744 -28.540398 
L 143.424 -28.382934 
L 146.0736 -28.323043 
L 148.7232 -28.098421 
L 151.3728 -28.50404 
L 154.0224 -28.524763 
L 156.672 -28.315571 
L 159.3216 -28.292326 
L 161.9712 -28.427228 
L 164.6208 -28.406641 
L 167.2704 -28.410554 
L 169.92 -28.737449 
L 169.92 -31.373734 
L 169.92 -31.373734 
L 167.2704 -31.102636 
L 164.6208 -31.032985 
L 161.9712 -31.070621 
L 159.3216 -30.903463 
L 156.672 -30.931448 
L 154.0224 -31.073648 
L 151.3728 -31.015163 
L 148.7232 -30.560402 
L 146.0736 -30.709829 
L 143.424 -30.708734 
L 140.7744 -30.750227 
L 138.1248 -30.909003 
L 135.4752 -31.019058 
L 132.8256 -30.992452 
L 130.176 -30.950508 
L 127.5264 -30.868558 
L 124.8768 -30.939852 
L 122.2272 -31.185323 
L 119.5776 -31.32227 
L 116.928 -31.140364 
L 114.2784 -31.281845 
L 111.6288 -31.769838 
L 108.9792 -32.06568 
L 106.3296 -32.073832 
L 103.68 -32.206469 
L 101.0304 -32.560753 
L 98.3808 -32.553999 
L 95.7312 -32.55248 
L 93.0816 -32.629426 
L 90.432 -32.721698 
L 87.7824 -32.54136 
L 85.1328 -32.342833 
L 82.4832 -32.364056 
L 79.8336 -32.490298 
L 77.184 -32.398502 
L 74.5344 -32.838148 
L 71.8848 -32.844284 
L 69.2352 -32.74057 
L 66.5856 -32.811466 
L 63.936 -32.706615 
L 61.2864 -32.584396 
L 58.6368 -32.588261 
L 55.9872 -32.461726 
L 53.3376 -32.148422 
L 50.688 -32.124895 
L 48.0384 -32.081787 
L 45.3888 -32.31505 
L 42.7392 -32.786631 
L 40.0896 -33.425635 
L 37.44 -34.700984 
L 34.7904 -34.980664 
L 32.1408 -33.9508 
L 29.4912 -33.343662 
L 26.8416 -32.908898 
L 24.192 -32.531528 
L 21.5424 -32.441582 
L 18.8928 -32.225775 
L 16.2432 -32.222323 
L 13.5936 -32.117869 
z
" id="m673c64d04f" style="stroke:#d62728;stroke-opacity:0.2;stroke-width:0.5;"/>
    </defs>
    <g clip-path="url(#p05bad076a5)">
     <use style="fill:#d62728;fill-opacity:0.2;stroke:#d62728;stroke-opacity:0.2;stroke-width:0.5;" x="0" xlink:href="#m673c64d04f" y="64.08"/>
    </g>
   </g>
   <g id="PolyCollection_3">
    <defs>
     <path d="M 13.5936 -31.148642 
L 13.5936 -29.36579 
L 16.2432 -29.64239 
L 18.8928 -30.222537 
L 21.5424 -29.912383 
L 24.192 -29.736167 
L 26.8416 -29.356968 
L 29.4912 -29.397618 
L 32.1408 -29.595449 
L 34.7904 -29.229707 
L 37.44 -29.271221 
L 40.0896 -29.348181 
L 42.7392 -29.413887 
L 45.3888 -29.151656 
L 48.0384 -28.971227 
L 50.688 -29.224752 
L 53.3376 -29.232413 
L 55.9872 -29.071549 
L 58.6368 -29.270154 
L 61.2864 -29.187179 
L 63.936 -29.239545 
L 66.5856 -29.564229 
L 69.2352 -29.71559 
L 71.8848 -29.775933 
L 74.5344 -29.414599 
L 77.184 -29.476516 
L 79.8336 -30.015646 
L 82.4832 -29.826608 
L 85.1328 -29.663735 
L 87.7824 -29.754939 
L 90.432 -29.609135 
L 93.0816 -29.676615 
L 95.7312 -29.573098 
L 98.3808 -30.144442 
L 101.0304 -30.794504 
L 103.68 -32.0078 
L 106.3296 -33.461719 
L 108.9792 -33.909571 
L 111.6288 -33.797743 
L 114.2784 -32.67809 
L 116.928 -32.134553 
L 119.5776 -32.296478 
L 122.2272 -31.764797 
L 124.8768 -30.138366 
L 127.5264 -29.188553 
L 130.176 -29.100402 
L 132.8256 -29.219822 
L 135.4752 -28.961245 
L 138.1248 -28.429332 
L 140.7744 -28.874745 
L 143.424 -28.717437 
L 146.0736 -28.26475 
L 148.7232 -28.633553 
L 151.3728 -28.881895 
L 154.0224 -28.467718 
L 156.672 -29.018228 
L 159.3216 -28.483003 
L 161.9712 -28.530581 
L 164.6208 -28.593038 
L 167.2704 -29.180569 
L 169.92 -29.780318 
L 169.92 -31.649146 
L 169.92 -31.649146 
L 167.2704 -31.039468 
L 164.6208 -30.421358 
L 161.9712 -30.334728 
L 159.3216 -30.29595 
L 156.672 -30.81843 
L 154.0224 -30.243758 
L 151.3728 -30.665617 
L 148.7232 -30.415306 
L 146.0736 -30.037517 
L 143.424 -30.472692 
L 140.7744 -30.651083 
L 138.1248 -30.196703 
L 135.4752 -30.716131 
L 132.8256 -30.956376 
L 130.176 -30.891898 
L 127.5264 -30.982248 
L 124.8768 -31.978852 
L 122.2272 -33.641757 
L 119.5776 -34.1982 
L 116.928 -34.049349 
L 114.2784 -34.577506 
L 111.6288 -35.684788 
L 108.9792 -35.783848 
L 106.3296 -35.282262 
L 103.68 -33.729489 
L 101.0304 -32.543015 
L 98.3808 -31.856533 
L 95.7312 -31.250355 
L 93.0816 -31.403441 
L 90.432 -31.328546 
L 87.7824 -31.475107 
L 85.1328 -31.440403 
L 82.4832 -31.577034 
L 79.8336 -31.816962 
L 77.184 -31.295201 
L 74.5344 -31.244235 
L 71.8848 -31.641084 
L 69.2352 -31.574706 
L 66.5856 -31.457275 
L 63.936 -31.163342 
L 61.2864 -31.116774 
L 58.6368 -31.218477 
L 55.9872 -31.022511 
L 53.3376 -31.144556 
L 50.688 -31.13967 
L 48.0384 -30.855802 
L 45.3888 -30.988935 
L 42.7392 -31.276934 
L 40.0896 -31.174094 
L 37.44 -31.101778 
L 34.7904 -30.996603 
L 32.1408 -31.357594 
L 29.4912 -31.174169 
L 26.8416 -31.114998 
L 24.192 -31.495088 
L 21.5424 -31.678169 
L 18.8928 -31.997869 
L 16.2432 -31.420109 
L 13.5936 -31.148642 
z
" id="m2a63dbdf9d" style="stroke:#17becf;stroke-opacity:0.2;stroke-width:0.5;"/>
    </defs>
    <g clip-path="url(#p05bad076a5)">
     <use style="fill:#17becf;fill-opacity:0.2;stroke:#17becf;stroke-opacity:0.2;stroke-width:0.5;" x="0" xlink:href="#m2a63dbdf9d" y="64.08"/>
    </g>
   </g>
   <g id="PolyCollection_4">
    <defs>
     <path d="M 13.5936 -32.039886 
L 13.5936 -30.121871 
L 16.2432 -29.746198 
L 18.8928 -30.019854 
L 21.5424 -30.087224 
L 24.192 -29.038822 
L 26.8416 -29.030683 
L 29.4912 -29.693033 
L 32.1408 -29.541227 
L 34.7904 -28.778351 
L 37.44 -28.618729 
L 40.0896 -28.717532 
L 42.7392 -28.86453 
L 45.3888 -29.296316 
L 48.0384 -28.976077 
L 50.688 -28.849493 
L 53.3376 -29.193078 
L 55.9872 -29.145883 
L 58.6368 -29.142609 
L 61.2864 -29.238007 
L 63.936 -29.251403 
L 66.5856 -29.13602 
L 69.2352 -29.259736 
L 71.8848 -29.24448 
L 74.5344 -29.424057 
L 77.184 -29.689282 
L 79.8336 -29.741193 
L 82.4832 -29.738324 
L 85.1328 -29.629733 
L 87.7824 -29.497268 
L 90.432 -29.4695 
L 93.0816 -29.657923 
L 95.7312 -29.872459 
L 98.3808 -29.783101 
L 101.0304 -29.911302 
L 103.68 -29.873943 
L 106.3296 -29.881083 
L 108.9792 -29.960419 
L 111.6288 -29.836006 
L 114.2784 -29.958309 
L 116.928 -30.089675 
L 119.5776 -30.065199 
L 122.2272 -29.995799 
L 124.8768 -30.119082 
L 127.5264 -30.119587 
L 130.176 -30.148849 
L 132.8256 -30.422242 
L 135.4752 -30.531272 
L 138.1248 -30.595349 
L 140.7744 -30.616041 
L 143.424 -30.745293 
L 146.0736 -30.940306 
L 148.7232 -30.852484 
L 151.3728 -30.723622 
L 154.0224 -31.116022 
L 156.672 -31.569077 
L 159.3216 -32.409219 
L 161.9712 -32.770891 
L 164.6208 -32.782995 
L 167.2704 -32.575742 
L 169.92 -32.310002 
L 169.92 -33.78144 
L 169.92 -33.78144 
L 167.2704 -33.99838 
L 164.6208 -34.141624 
L 161.9712 -34.079795 
L 159.3216 -33.6665 
L 156.672 -32.739979 
L 154.0224 -32.235756 
L 151.3728 -31.842009 
L 148.7232 -31.972991 
L 146.0736 -32.068832 
L 143.424 -31.90365 
L 140.7744 -31.774191 
L 138.1248 -31.742937 
L 135.4752 -31.693872 
L 132.8256 -31.594332 
L 130.176 -31.319815 
L 127.5264 -31.305745 
L 124.8768 -31.314519 
L 122.2272 -31.253885 
L 119.5776 -31.328445 
L 116.928 -31.424555 
L 114.2784 -31.332493 
L 111.6288 -31.220015 
L 108.9792 -31.448917 
L 106.3296 -31.394989 
L 103.68 -31.435494 
L 101.0304 -31.473066 
L 98.3808 -31.4159 
L 95.7312 -31.459029 
L 93.0816 -31.301135 
L 90.432 -31.100101 
L 87.7824 -31.182999 
L 85.1328 -31.379882 
L 82.4832 -31.441604 
L 79.8336 -31.48875 
L 77.184 -31.464247 
L 74.5344 -31.188553 
L 71.8848 -31.048787 
L 69.2352 -31.074229 
L 66.5856 -30.939449 
L 63.936 -31.088489 
L 61.2864 -31.112399 
L 58.6368 -31.06496 
L 55.9872 -31.032034 
L 53.3376 -31.097487 
L 50.688 -30.788464 
L 48.0384 -30.870315 
L 45.3888 -31.22662 
L 42.7392 -30.793553 
L 40.0896 -30.647515 
L 37.44 -30.554845 
L 34.7904 -30.718339 
L 32.1408 -31.484096 
L 29.4912 -31.635662 
L 26.8416 -30.986011 
L 24.192 -30.969751 
L 21.5424 -32.007794 
L 18.8928 -31.933836 
L 16.2432 -31.635195 
L 13.5936 -32.039886 
z
" id="m2cfc6726d6" style="stroke:#bcbd22;stroke-opacity:0.2;stroke-width:0.5;"/>
    </defs>
    <g clip-path="url(#p05bad076a5)">
     <use style="fill:#bcbd22;fill-opacity:0.2;stroke:#bcbd22;stroke-opacity:0.2;stroke-width:0.5;" x="0" xlink:href="#m2cfc6726d6" y="64.08"/>
    </g>
   </g>
   <g id="line2d_1">
    <path clip-path="url(#p05bad076a5)" d="M 13.5936 32.633765 
L 16.2432 32.522579 
L 18.8928 32.551091 
L 21.5424 32.723297 
L 24.192 32.876249 
L 26.8416 33.070702 
L 29.4912 33.181499 
L 32.1408 33.242165 
L 34.7904 33.821883 
L 37.44 33.78976 
L 40.0896 33.361892 
L 42.7392 33.348023 
L 45.3888 33.276016 
L 48.0384 33.235256 
L 50.688 33.118187 
L 53.3376 32.979872 
L 55.9872 33.056735 
L 58.6368 33.147232 
L 61.2864 33.223467 
L 63.936 33.334542 
L 66.5856 33.548588 
L 69.2352 33.56956 
L 71.8848 33.804541 
L 74.5344 33.754086 
L 77.184 33.591036 
L 79.8336 33.685265 
L 82.4832 33.564034 
L 85.1328 33.667645 
L 87.7824 33.806534 
L 90.432 33.606728 
L 93.0816 33.600912 
L 95.7312 33.399207 
L 98.3808 33.485754 
L 101.0304 33.648981 
L 103.68 33.589382 
L 106.3296 33.926361 
L 108.9792 34.224844 
L 111.6288 34.671583 
L 114.2784 34.91246 
L 116.928 34.842258 
L 119.5776 34.908896 
L 122.2272 34.819338 
L 124.8768 34.102195 
L 127.5264 33.561906 
L 130.176 33.471002 
L 132.8256 33.114254 
L 135.4752 32.706975 
L 138.1248 32.315479 
L 140.7744 32.036353 
L 143.424 31.764668 
L 146.0736 31.007745 
L 148.7232 30.619215 
L 151.3728 30.641267 
L 154.0224 29.926962 
L 156.672 29.848557 
L 159.3216 30.355813 
L 161.9712 30.88629 
L 164.6208 30.566178 
L 167.2704 30.871906 
L 169.92 31.868328 
" style="fill:none;stroke:#9467bd;stroke-linecap:square;stroke-width:0.5;"/>
   </g>
   <g id="line2d_2">
    <path clip-path="url(#p05bad076a5)" d="M 13.5936 33.00962 
L 16.2432 32.903916 
L 18.8928 32.933532 
L 21.5424 32.727629 
L 24.192 32.631205 
L 26.8416 32.277869 
L 29.4912 31.820212 
L 32.1408 31.223308 
L 34.7904 30.168635 
L 37.44 30.436983 
L 40.0896 31.70859 
L 42.7392 32.351372 
L 45.3888 32.825975 
L 48.0384 33.068675 
L 50.688 33.005166 
L 53.3376 33.002394 
L 55.9872 32.696451 
L 58.6368 32.629833 
L 61.2864 32.63548 
L 63.936 32.60512 
L 66.5856 32.466861 
L 69.2352 32.554055 
L 71.8848 32.403836 
L 74.5344 32.36139 
L 77.184 32.78041 
L 79.8336 32.725934 
L 82.4832 32.82059 
L 85.1328 32.898634 
L 87.7824 32.637235 
L 90.432 32.472382 
L 93.0816 32.489501 
L 95.7312 32.551651 
L 98.3808 32.496158 
L 101.0304 32.455359 
L 103.68 32.80905 
L 106.3296 32.917626 
L 108.9792 32.940573 
L 111.6288 33.237028 
L 114.2784 33.72957 
L 116.928 33.866885 
L 119.5776 33.719216 
L 122.2272 33.841572 
L 124.8768 34.115416 
L 127.5264 34.178353 
L 130.176 34.131515 
L 132.8256 34.096466 
L 135.4752 34.103328 
L 138.1248 34.243975 
L 140.7744 34.434687 
L 143.424 34.534166 
L 146.0736 34.563564 
L 148.7232 34.750588 
L 151.3728 34.320398 
L 154.0224 34.280794 
L 156.672 34.45649 
L 159.3216 34.482106 
L 161.9712 34.331076 
L 164.6208 34.360187 
L 167.2704 34.323405 
L 169.92 34.024408 
" style="fill:none;stroke:#d62728;stroke-linecap:square;stroke-width:0.5;"/>
   </g>
   <g id="line2d_3">
    <path clip-path="url(#p05bad076a5)" d="M 13.5936 33.822784 
L 16.2432 33.548751 
L 18.8928 32.969797 
L 21.5424 33.284724 
L 24.192 33.464373 
L 26.8416 33.844017 
L 29.4912 33.794107 
L 32.1408 33.603479 
L 34.7904 33.966845 
L 37.44 33.893501 
L 40.0896 33.818862 
L 42.7392 33.73459 
L 45.3888 34.009705 
L 48.0384 34.166485 
L 50.688 33.897789 
L 53.3376 33.891515 
L 55.9872 34.03297 
L 58.6368 33.835685 
L 61.2864 33.928024 
L 63.936 33.878556 
L 66.5856 33.569248 
L 69.2352 33.434852 
L 71.8848 33.371492 
L 74.5344 33.750583 
L 77.184 33.694142 
L 79.8336 33.163696 
L 82.4832 33.378179 
L 85.1328 33.527931 
L 87.7824 33.464977 
L 90.432 33.611159 
L 93.0816 33.539972 
L 95.7312 33.668273 
L 98.3808 33.079512 
L 101.0304 32.411241 
L 103.68 31.211356 
L 106.3296 29.708009 
L 108.9792 29.233291 
L 111.6288 29.338734 
L 114.2784 30.452202 
L 116.928 30.988049 
L 119.5776 30.832661 
L 122.2272 31.376723 
L 124.8768 33.021391 
L 127.5264 33.9946 
L 130.176 34.08385 
L 132.8256 33.991901 
L 135.4752 34.241312 
L 138.1248 34.766982 
L 140.7744 34.317086 
L 143.424 34.484936 
L 146.0736 34.928867 
L 148.7232 34.55557 
L 151.3728 34.306244 
L 154.0224 34.724262 
L 156.672 34.161671 
L 159.3216 34.690523 
L 161.9712 34.647346 
L 164.6208 34.572802 
L 167.2704 33.969982 
L 169.92 33.365268 
" style="fill:none;stroke:#17becf;stroke-linecap:square;stroke-width:0.5;"/>
   </g>
   <g id="line2d_4">
    <path clip-path="url(#p05bad076a5)" d="M 13.5936 32.999122 
L 16.2432 33.389303 
L 18.8928 33.103155 
L 21.5424 33.032491 
L 24.192 34.075714 
L 26.8416 34.071653 
L 29.4912 33.415653 
L 32.1408 33.567338 
L 34.7904 34.331655 
L 37.44 34.493213 
L 40.0896 34.397476 
L 42.7392 34.250959 
L 45.3888 33.818532 
L 48.0384 34.156804 
L 50.688 34.261022 
L 53.3376 33.934717 
L 55.9872 33.991042 
L 58.6368 33.976215 
L 61.2864 33.904797 
L 63.936 33.910054 
L 66.5856 34.042265 
L 69.2352 33.913017 
L 71.8848 33.933367 
L 74.5344 33.773695 
L 77.184 33.503236 
L 79.8336 33.465028 
L 82.4832 33.490036 
L 85.1328 33.575192 
L 87.7824 33.739867 
L 90.432 33.795199 
L 93.0816 33.600471 
L 95.7312 33.414256 
L 98.3808 33.4805 
L 101.0304 33.387816 
L 103.68 33.425281 
L 106.3296 33.441964 
L 108.9792 33.375332 
L 111.6288 33.55199 
L 114.2784 33.434599 
L 116.928 33.322885 
L 119.5776 33.383178 
L 122.2272 33.455158 
L 124.8768 33.3632 
L 127.5264 33.367334 
L 130.176 33.345668 
L 132.8256 33.071713 
L 135.4752 32.967428 
L 138.1248 32.910857 
L 140.7744 32.884884 
L 143.424 32.755528 
L 146.0736 32.575431 
L 148.7232 32.667262 
L 151.3728 32.797184 
L 154.0224 32.404111 
L 156.672 31.925472 
L 159.3216 31.042141 
L 161.9712 30.654657 
L 164.6208 30.61769 
L 167.2704 30.792939 
L 169.92 31.034279 
" style="fill:none;stroke:#bcbd22;stroke-linecap:square;stroke-width:0.5;"/>
   </g>
   <g id="line2d_5">
    <path clip-path="url(#p05bad076a5)" d="M 15.156864 55.826496 
L 67.089024 55.826496 
" style="fill:none;stroke:#000000;stroke-linecap:square;stroke-width:1.25;"/>
   </g>
   <g id="line2d_6">
    <path clip-path="url(#p05bad076a5)" d="M 15.156864 55.826496 
L 15.156864 37.038046 
" style="fill:none;stroke:#000000;stroke-linecap:square;stroke-width:1.25;"/>
   </g>
   <g id="text_1">
    <text style="font-family:DejaVu Sans;font-size:6px;font-stretch:normal;font-style:normal;font-weight:normal;text-anchor:middle;" transform="rotate(-0, 41.122944, 63.205078)" x="41.122944" y="63.205078">100 ms</text>
   </g>
   <g id="text_2">
    <text style="font-family:DejaVu Sans;font-size:6px;font-stretch:normal;font-style:normal;font-weight:normal;" transform="translate(6.092731 64.13274)rotate(-90)">0.15 cm/ms</text>
   </g>
   <g id="legend_1">
    <g id="line2d_7">
     <path d="M 100.336875 7.859063 
L 112.336875 7.859063 
" style="fill:none;stroke:#9467bd;stroke-linecap:square;stroke-width:0.5;"/>
    </g>
    <g id="line2d_8"/>
    <g id="text_3">
     <text style="font-family:DejaVu Sans;font-size:6px;font-stretch:normal;font-style:normal;font-weight:normal;text-anchor:start;" transform="rotate(-0, 117.136875, 9.959063)" x="117.136875" y="9.959063">left wrist joint</text>
    </g>
    <g id="line2d_9">
     <path d="M 100.336875 16.665938 
L 112.336875 16.665938 
" style="fill:none;stroke:#d62728;stroke-linecap:square;stroke-width:0.5;"/>
    </g>
    <g id="line2d_10"/>
    <g id="text_4">
     <text style="font-family:DejaVu Sans;font-size:6px;font-stretch:normal;font-style:normal;font-weight:normal;text-anchor:start;" transform="rotate(-0, 117.136875, 18.765938)" x="117.136875" y="18.765938">right wrist joint</text>
    </g>
    <g id="line2d_11">
     <path d="M 100.336875 25.472812 
L 112.336875 25.472812 
" style="fill:none;stroke:#17becf;stroke-linecap:square;stroke-width:0.5;"/>
    </g>
    <g id="line2d_12"/>
    <g id="text_5">
     <text style="font-family:DejaVu Sans;font-size:6px;font-stretch:normal;font-style:normal;font-weight:normal;text-anchor:start;" transform="rotate(-0, 117.136875, 27.572812)" x="117.136875" y="27.572812">left ankle joint</text>
    </g>
    <g id="line2d_13">
     <path d="M 100.336875 34.279688 
L 112.336875 34.279688 
" style="fill:none;stroke:#bcbd22;stroke-linecap:square;stroke-width:0.5;"/>
    </g>
    <g id="line2d_14"/>
    <g id="text_6">
     <text style="font-family:DejaVu Sans;font-size:6px;font-stretch:normal;font-style:normal;font-weight:normal;text-anchor:start;" transform="rotate(-0, 117.136875, 36.379688)" x="117.136875" y="36.379688">right ankle joint</text>
    </g>
   </g>
  </g>
 </g>
 <defs>
  <clipPath id="p05bad076a5">
   <rect height="56.3904" width="156.3264" x="13.5936" y="0"/>
  </clipPath>
 </defs>
</svg>
