<?xml version="1.0" encoding="utf-8" standalone="no"?>
<!DOCTYPE svg PUBLIC "-//W3C//DTD SVG 1.1//EN"
  "http://www.w3.org/Graphics/SVG/1.1/DTD/svg11.dtd">
<!-- Created with matplotlib (https://matplotlib.org/) -->
<svg height="64.08pt" version="1.1" viewBox="0 0 84.96 64.08" width="84.96pt" xmlns="http://www.w3.org/2000/svg" xmlns:xlink="http://www.w3.org/1999/xlink">
 <metadata>
  <rdf:RDF xmlns:cc="http://creativecommons.org/ns#" xmlns:dc="http://purl.org/dc/elements/1.1/" xmlns:rdf="http://www.w3.org/1999/02/22-rdf-syntax-ns#">
   <cc:Work>
    <dc:type rdf:resource="http://purl.org/dc/dcmitype/StillImage"/>
    <dc:date>2022-03-31T17:58:21.694774</dc:date>
    <dc:format>image/svg+xml</dc:format>
    <dc:creator>
     <cc:Agent>
      <dc:title>Matplotlib v3.3.1, https://matplotlib.org/</dc:title>
     </cc:Agent>
    </dc:creator>
   </cc:Work>
  </rdf:RDF>
 </metadata>
 <defs>
  <style type="text/css">*{stroke-linecap:butt;stroke-linejoin:round;}</style>
 </defs>
 <g id="figure_1">
  <g id="patch_1">
   <path d="M 0 64.08 
L 84.96 64.08 
L 84.96 0 
L 0 0 
z
" style="fill:none;"/>
  </g>
  <g id="axes_1">
   <g id="patch_2">
    <path d="M 28.8 42.48 
L 77.76 42.48 
L 77.76 1.8 
L 28.8 1.8 
z
" style="fill:none;"/>
   </g>
   <g id="matplotlib.axis_1">
    <g id="xtick_1">
     <g id="line2d_1">
      <defs>
       <path d="M 0 0 
L 0 3.5 
" id="m87b3343757" style="stroke:#000000;stroke-width:0.8;"/>
      </defs>
      <g>
       <use style="stroke:#000000;stroke-width:0.8;" x="28.8" xlink:href="#m87b3343757" y="42.48"/>
      </g>
     </g>
     <g id="text_1">
      <text style="font-family:DejaVu Sans;font-size:6px;font-stretch:normal;font-style:normal;font-weight:normal;text-anchor:middle;" transform="rotate(-0, 28.8, 54.039062)" x="28.8" y="54.039062">0</text>
     </g>
    </g>
    <g id="xtick_2">
     <g id="line2d_2">
      <g>
       <use style="stroke:#000000;stroke-width:0.8;" x="53.28" xlink:href="#m87b3343757" y="42.48"/>
      </g>
     </g>
     <g id="text_2">
      <text style="font-family:DejaVu Sans;font-size:6px;font-stretch:normal;font-style:normal;font-weight:normal;text-anchor:middle;" transform="rotate(-0, 53.28, 54.039062)" x="53.28" y="54.039062">15</text>
     </g>
    </g>
    <g id="xtick_3">
     <g id="line2d_3">
      <g>
       <use style="stroke:#000000;stroke-width:0.8;" x="77.76" xlink:href="#m87b3343757" y="42.48"/>
      </g>
     </g>
     <g id="text_3">
      <text style="font-family:DejaVu Sans;font-size:6px;font-stretch:normal;font-style:normal;font-weight:normal;text-anchor:middle;" transform="rotate(-0, 77.76, 54.039062)" x="77.76" y="54.039062">30</text>
     </g>
    </g>
    <g id="text_4">
     <text style="font-family:DejaVu Sans;font-size:6px;font-stretch:normal;font-style:normal;font-weight:normal;text-anchor:middle;" transform="rotate(-0, 53.28, 61.752187)" x="53.28" y="61.752187">frequency (Hz)</text>
    </g>
   </g>
   <g id="matplotlib.axis_2">
    <g id="ytick_1">
     <g id="line2d_4">
      <defs>
       <path d="M 0 0 
L -3.5 0 
" id="m6d3da19e31" style="stroke:#000000;stroke-width:0.8;"/>
      </defs>
      <g>
       <use style="stroke:#000000;stroke-width:0.8;" x="28.8" xlink:href="#m6d3da19e31" y="42.48"/>
      </g>
     </g>
     <g id="text_5">
      <text style="font-family:DejaVu Sans;font-size:6px;font-stretch:normal;font-style:normal;font-weight:normal;text-anchor:end;" transform="rotate(-0, 21.8, 44.759531)" x="21.8" y="44.759531">0</text>
     </g>
    </g>
    <g id="ytick_2">
     <g id="line2d_5">
      <g>
       <use style="stroke:#000000;stroke-width:0.8;" x="28.8" xlink:href="#m6d3da19e31" y="22.14"/>
      </g>
     </g>
     <g id="text_6">
      <text style="font-family:DejaVu Sans;font-size:6px;font-stretch:normal;font-style:normal;font-weight:normal;text-anchor:end;" transform="rotate(-0, 21.8, 24.419531)" x="21.8" y="24.419531">0.12</text>
     </g>
    </g>
    <g id="ytick_3">
     <g id="line2d_6">
      <g>
       <use style="stroke:#000000;stroke-width:0.8;" x="28.8" xlink:href="#m6d3da19e31" y="1.8"/>
      </g>
     </g>
     <g id="text_7">
      <text style="font-family:DejaVu Sans;font-size:6px;font-stretch:normal;font-style:normal;font-weight:normal;text-anchor:end;" transform="rotate(-0, 21.8, 4.079531)" x="21.8" y="4.079531">0.24</text>
     </g>
    </g>
    <g id="text_8">
     <text style="font-family:DejaVu Sans;font-size:6px;font-stretch:normal;font-style:normal;font-weight:normal;text-anchor:middle;" transform="rotate(-90, 5.999063, 22.14)" x="5.999063" y="22.14">amplitude</text>
    </g>
   </g>
   <g id="line2d_7">
    <path clip-path="url(#p23eb252ca1)" d="M 28.8 42.141 
L 30.079488 33.088391 
L 31.358976 34.605801 
L 32.638464 12.544957 
L 33.917952 29.696595 
L 35.19744 35.500595 
L 36.476928 36.512337 
L 37.756416 37.789105 
L 39.035904 38.784838 
L 40.315392 39.242522 
L 41.59488 39.275249 
L 42.874368 39.782599 
L 44.153856 40.141004 
L 45.433344 40.182962 
L 46.712832 40.414503 
L 47.99232 40.577664 
L 49.271808 40.722291 
L 50.551296 40.829782 
L 51.830784 40.924252 
L 53.110272 41.013005 
L 54.38976 41.077634 
L 55.669248 41.147393 
L 56.948736 41.209865 
L 58.228224 41.272063 
L 59.507712 41.309786 
L 60.7872 41.361825 
L 62.066688 41.407695 
L 63.346176 41.446393 
L 64.625664 41.480515 
L 65.905152 41.515662 
L 67.18464 41.550257 
L 68.464128 41.575544 
L 69.743616 41.606592 
L 71.023104 41.627623 
L 72.302592 41.653203 
L 73.58208 41.674374 
L 74.861568 41.697268 
L 76.141056 41.718778 
L 77.420544 41.734215 
L 78.700032 41.755023 
L 79.97952 41.77085 
L 81.259008 41.786672 
L 82.538496 41.80282 
L 83.817984 41.816904 
L 85.097472 41.830653 
L 85.96 41.83956 
" style="fill:none;stroke:#9467bd;stroke-linecap:square;stroke-width:0.5;"/>
   </g>
   <g id="line2d_8">
    <path clip-path="url(#p23eb252ca1)" d="M 28.8 42.141 
L 30.079488 35.596608 
L 31.358976 27.668259 
L 32.638464 11.075977 
L 33.917952 27.775912 
L 35.19744 35.465435 
L 36.476928 37.066374 
L 37.756416 37.484456 
L 39.035904 38.59113 
L 40.315392 38.98429 
L 41.59488 39.464575 
L 42.874368 39.705218 
L 44.153856 40.033692 
L 45.433344 40.238298 
L 46.712832 40.421222 
L 47.99232 40.584568 
L 49.271808 40.704265 
L 50.551296 40.805686 
L 51.830784 40.918199 
L 53.110272 41.004465 
L 54.38976 41.070786 
L 55.669248 41.146501 
L 56.948736 41.205444 
L 58.228224 41.263708 
L 59.507712 41.318219 
L 60.7872 41.361079 
L 62.066688 41.404247 
L 63.346176 41.445946 
L 64.625664 41.482678 
L 65.905152 41.51529 
L 67.18464 41.548044 
L 68.464128 41.577292 
L 69.743616 41.60442 
L 71.023104 41.630313 
L 72.302592 41.654184 
L 73.58208 41.676943 
L 74.861568 41.698371 
L 76.141056 41.718497 
L 77.420544 41.73735 
L 78.700032 41.755046 
L 79.97952 41.771808 
L 81.259008 41.787928 
L 82.538496 41.803153 
L 83.817984 41.817639 
L 85.097472 41.831385 
L 85.96 41.840171 
" style="fill:none;stroke:#d62728;stroke-linecap:square;stroke-width:0.5;"/>
   </g>
   <g id="line2d_9">
    <path clip-path="url(#p23eb252ca1)" d="M 28.8 42.141 
L 30.079488 23.664766 
L 31.358976 32.29251 
L 32.638464 27.823006 
L 33.917952 31.068465 
L 35.19744 37.061489 
L 36.476928 36.042475 
L 37.756416 38.025298 
L 39.035904 38.818938 
L 40.315392 39.179529 
L 41.59488 39.291289 
L 42.874368 39.77935 
L 44.153856 40.132694 
L 45.433344 40.314576 
L 46.712832 40.586155 
L 47.99232 40.498378 
L 49.271808 40.741332 
L 50.551296 40.82451 
L 51.830784 40.968659 
L 53.110272 40.984122 
L 54.38976 41.039298 
L 55.669248 41.130308 
L 56.948736 41.208199 
L 58.228224 41.274178 
L 59.507712 41.311136 
L 60.7872 41.366394 
L 62.066688 41.403719 
L 63.346176 41.453773 
L 64.625664 41.485151 
L 65.905152 41.51637 
L 67.18464 41.549209 
L 68.464128 41.576853 
L 69.743616 41.60985 
L 71.023104 41.632542 
L 72.302592 41.656362 
L 73.58208 41.674143 
L 74.861568 41.698633 
L 76.141056 41.719643 
L 77.420544 41.739202 
L 78.700032 41.758407 
L 79.97952 41.770852 
L 81.259008 41.787345 
L 82.538496 41.802952 
L 83.817984 41.820015 
L 85.097472 41.833419 
L 85.96 41.840394 
" style="fill:none;stroke:#17becf;stroke-linecap:square;stroke-width:0.5;"/>
   </g>
   <g id="line2d_10">
    <path clip-path="url(#p23eb252ca1)" d="M 28.8 42.141 
L 30.079488 37.641145 
L 31.358976 21.269627 
L 32.638464 7.453438 
L 33.917952 29.153949 
L 35.19744 35.276282 
L 36.476928 36.621132 
L 37.756416 37.827989 
L 39.035904 38.704384 
L 40.315392 39.249211 
L 41.59488 39.424174 
L 42.874368 39.837432 
L 44.153856 40.111574 
L 45.433344 40.23756 
L 46.712832 40.445114 
L 47.99232 40.596454 
L 49.271808 40.705692 
L 50.551296 40.824476 
L 51.830784 40.921774 
L 53.110272 41.009729 
L 54.38976 41.084581 
L 55.669248 41.149337 
L 56.948736 41.214354 
L 58.228224 41.267132 
L 59.507712 41.317635 
L 60.7872 41.364267 
L 62.066688 41.408638 
L 63.346176 41.448019 
L 64.625664 41.4828 
L 65.905152 41.51753 
L 67.18464 41.550056 
L 68.464128 41.577688 
L 69.743616 41.604488 
L 71.023104 41.631596 
L 72.302592 41.653829 
L 73.58208 41.676627 
L 74.861568 41.698166 
L 76.141056 41.718075 
L 77.420544 41.736195 
L 78.700032 41.754996 
L 79.97952 41.771657 
L 81.259008 41.787467 
L 82.538496 41.802723 
L 83.817984 41.816548 
L 85.097472 41.830423 
L 85.96 41.838934 
" style="fill:none;stroke:#bcbd22;stroke-linecap:square;stroke-width:0.5;"/>
   </g>
   <g id="patch_3">
    <path d="M 28.8 42.48 
L 28.8 1.8 
" style="fill:none;stroke:#000000;stroke-linecap:square;stroke-linejoin:miter;stroke-width:0.8;"/>
   </g>
   <g id="patch_4">
    <path d="M 28.8 42.48 
L 77.76 42.48 
" style="fill:none;stroke:#000000;stroke-linecap:square;stroke-linejoin:miter;stroke-width:0.8;"/>
   </g>
  </g>
 </g>
 <defs>
  <clipPath id="p23eb252ca1">
   <rect height="40.68" width="48.96" x="28.8" y="1.8"/>
  </clipPath>
 </defs>
</svg>
