<?xml version="1.0" encoding="utf-8" standalone="no"?>
<!DOCTYPE svg PUBLIC "-//W3C//DTD SVG 1.1//EN"
  "http://www.w3.org/Graphics/SVG/1.1/DTD/svg11.dtd">
<!-- Created with matplotlib (https://matplotlib.org/) -->
<svg height="64.08pt" version="1.1" viewBox="0 0 84.96 64.08" width="84.96pt" xmlns="http://www.w3.org/2000/svg" xmlns:xlink="http://www.w3.org/1999/xlink">
 <metadata>
  <rdf:RDF xmlns:cc="http://creativecommons.org/ns#" xmlns:dc="http://purl.org/dc/elements/1.1/" xmlns:rdf="http://www.w3.org/1999/02/22-rdf-syntax-ns#">
   <cc:Work>
    <dc:type rdf:resource="http://purl.org/dc/dcmitype/StillImage"/>
    <dc:date>2022-03-31T17:58:21.795614</dc:date>
    <dc:format>image/svg+xml</dc:format>
    <dc:creator>
     <cc:Agent>
      <dc:title>Matplotlib v3.3.1, https://matplotlib.org/</dc:title>
     </cc:Agent>
    </dc:creator>
   </cc:Work>
  </rdf:RDF>
 </metadata>
 <defs>
  <style type="text/css">*{stroke-linecap:butt;stroke-linejoin:round;}</style>
 </defs>
 <g id="figure_1">
  <g id="patch_1">
   <path d="M 0 64.08 
L 84.96 64.08 
L 84.96 0 
L 0 0 
z
" style="fill:none;"/>
  </g>
  <g id="axes_1">
   <g id="patch_2">
    <path d="M 28.8 42.48 
L 77.76 42.48 
L 77.76 1.8 
L 28.8 1.8 
z
" style="fill:none;"/>
   </g>
   <g id="matplotlib.axis_1">
    <g id="xtick_1">
     <g id="line2d_1">
      <defs>
       <path d="M 0 0 
L 0 3.5 
" id="m1078496d1f" style="stroke:#000000;stroke-width:0.8;"/>
      </defs>
      <g>
       <use style="stroke:#000000;stroke-width:0.8;" x="28.8" xlink:href="#m1078496d1f" y="42.48"/>
      </g>
     </g>
     <g id="text_1">
      <text style="font-family:DejaVu Sans;font-size:6px;font-stretch:normal;font-style:normal;font-weight:normal;text-anchor:middle;" transform="rotate(-0, 28.8, 54.039062)" x="28.8" y="54.039062">0</text>
     </g>
    </g>
    <g id="xtick_2">
     <g id="line2d_2">
      <g>
       <use style="stroke:#000000;stroke-width:0.8;" x="53.28" xlink:href="#m1078496d1f" y="42.48"/>
      </g>
     </g>
     <g id="text_2">
      <text style="font-family:DejaVu Sans;font-size:6px;font-stretch:normal;font-style:normal;font-weight:normal;text-anchor:middle;" transform="rotate(-0, 53.28, 54.039062)" x="53.28" y="54.039062">15</text>
     </g>
    </g>
    <g id="xtick_3">
     <g id="line2d_3">
      <g>
       <use style="stroke:#000000;stroke-width:0.8;" x="77.76" xlink:href="#m1078496d1f" y="42.48"/>
      </g>
     </g>
     <g id="text_3">
      <text style="font-family:DejaVu Sans;font-size:6px;font-stretch:normal;font-style:normal;font-weight:normal;text-anchor:middle;" transform="rotate(-0, 77.76, 54.039062)" x="77.76" y="54.039062">30</text>
     </g>
    </g>
    <g id="text_4">
     <text style="font-family:DejaVu Sans;font-size:6px;font-stretch:normal;font-style:normal;font-weight:normal;text-anchor:middle;" transform="rotate(-0, 53.28, 61.752187)" x="53.28" y="61.752187">frequency (Hz)</text>
    </g>
   </g>
   <g id="matplotlib.axis_2">
    <g id="ytick_1">
     <g id="line2d_4">
      <defs>
       <path d="M 0 0 
L -3.5 0 
" id="m21c1903558" style="stroke:#000000;stroke-width:0.8;"/>
      </defs>
      <g>
       <use style="stroke:#000000;stroke-width:0.8;" x="28.8" xlink:href="#m21c1903558" y="42.48"/>
      </g>
     </g>
     <g id="text_5">
      <text style="font-family:DejaVu Sans;font-size:6px;font-stretch:normal;font-style:normal;font-weight:normal;text-anchor:end;" transform="rotate(-0, 21.8, 44.759531)" x="21.8" y="44.759531">0</text>
     </g>
    </g>
    <g id="ytick_2">
     <g id="line2d_5">
      <g>
       <use style="stroke:#000000;stroke-width:0.8;" x="28.8" xlink:href="#m21c1903558" y="22.14"/>
      </g>
     </g>
     <g id="text_6">
      <text style="font-family:DejaVu Sans;font-size:6px;font-stretch:normal;font-style:normal;font-weight:normal;text-anchor:end;" transform="rotate(-0, 21.8, 24.419531)" x="21.8" y="24.419531">0.12</text>
     </g>
    </g>
    <g id="ytick_3">
     <g id="line2d_6">
      <g>
       <use style="stroke:#000000;stroke-width:0.8;" x="28.8" xlink:href="#m21c1903558" y="1.8"/>
      </g>
     </g>
     <g id="text_7">
      <text style="font-family:DejaVu Sans;font-size:6px;font-stretch:normal;font-style:normal;font-weight:normal;text-anchor:end;" transform="rotate(-0, 21.8, 4.079531)" x="21.8" y="4.079531">0.24</text>
     </g>
    </g>
    <g id="text_8">
     <text style="font-family:DejaVu Sans;font-size:6px;font-stretch:normal;font-style:normal;font-weight:normal;text-anchor:middle;" transform="rotate(-90, 5.999063, 22.14)" x="5.999063" y="22.14">amplitude</text>
    </g>
   </g>
   <g id="line2d_7">
    <path clip-path="url(#p81686db1c9)" d="M 28.8 42.129793 
L 30.121785 40.057965 
L 31.44357 32.597921 
L 32.765355 20.89439 
L 34.08714 31.48884 
L 35.408926 38.75854 
L 36.730711 39.260873 
L 38.052496 37.299102 
L 39.374281 39.581769 
L 40.696066 39.653071 
L 42.017851 38.889969 
L 43.339636 40.782583 
L 44.661421 39.666049 
L 45.983207 38.547452 
L 47.304992 39.836965 
L 48.626777 40.196797 
L 49.948562 40.606427 
L 51.270347 40.749541 
L 52.592132 40.997944 
L 53.913917 41.139855 
L 55.235702 41.171276 
L 56.557488 40.94335 
L 57.879273 41.353182 
L 59.201058 41.44323 
L 60.522843 40.742877 
L 61.844628 41.144006 
L 63.166413 41.370914 
L 64.488198 41.381815 
L 65.809983 41.313117 
L 67.131769 41.431481 
L 68.453554 41.438318 
L 69.775339 41.52735 
L 71.097124 41.512798 
L 72.418909 41.590673 
L 73.740694 41.579181 
L 75.062479 41.592305 
L 76.384264 41.666381 
L 77.70605 41.691985 
L 79.027835 41.668098 
L 80.34962 41.71358 
L 81.671405 41.750859 
L 82.99319 41.776854 
L 84.314975 41.798788 
L 85.63676 41.789349 
L 85.96 41.78625 
" style="fill:none;stroke:#9467bd;stroke-linecap:square;stroke-width:0.5;"/>
   </g>
   <g id="line2d_8">
    <path clip-path="url(#p81686db1c9)" d="M 28.8 42.129793 
L 30.121785 39.004835 
L 31.44357 30.686214 
L 32.765355 16.125409 
L 34.08714 31.613855 
L 35.408926 38.802232 
L 36.730711 36.738056 
L 38.052496 36.814635 
L 39.374281 39.54579 
L 40.696066 38.384712 
L 42.017851 39.421634 
L 43.339636 39.623068 
L 44.661421 40.122661 
L 45.983207 40.018328 
L 47.304992 40.47247 
L 48.626777 40.759268 
L 49.948562 40.551201 
L 51.270347 40.899834 
L 52.592132 41.17899 
L 53.913917 40.538008 
L 55.235702 41.016007 
L 56.557488 41.251454 
L 57.879273 41.000484 
L 59.201058 41.185233 
L 60.522843 41.242993 
L 61.844628 41.220066 
L 63.166413 41.359548 
L 64.488198 41.378384 
L 65.809983 41.417008 
L 67.131769 41.468889 
L 68.453554 41.549053 
L 69.775339 41.515631 
L 71.097124 41.570854 
L 72.418909 41.607289 
L 73.740694 41.602402 
L 75.062479 41.663337 
L 76.384264 41.666857 
L 77.70605 41.720457 
L 79.027835 41.678275 
L 80.34962 41.723014 
L 81.671405 41.757429 
L 82.99319 41.771576 
L 84.314975 41.783604 
L 85.63676 41.803565 
L 85.96 41.80895 
" style="fill:none;stroke:#d62728;stroke-linecap:square;stroke-width:0.5;"/>
   </g>
   <g id="line2d_9">
    <path clip-path="url(#p81686db1c9)" d="M 28.8 42.129793 
L 30.121785 40.713254 
L 31.44357 35.89773 
L 32.765355 27.846615 
L 34.08714 36.872642 
L 35.408926 40.790891 
L 36.730711 36.150784 
L 38.052496 38.546935 
L 39.374281 40.369944 
L 40.696066 38.948379 
L 42.017851 38.315532 
L 43.339636 39.359102 
L 44.661421 40.232484 
L 45.983207 39.694626 
L 47.304992 39.420083 
L 48.626777 40.192061 
L 49.948562 40.645367 
L 51.270347 40.051369 
L 52.592132 40.320345 
L 53.913917 40.867112 
L 55.235702 40.90438 
L 56.557488 40.887438 
L 57.879273 41.087952 
L 59.201058 41.194045 
L 60.522843 41.213235 
L 61.844628 41.179047 
L 63.166413 41.356673 
L 64.488198 41.427558 
L 65.809983 41.441539 
L 67.131769 41.49202 
L 68.453554 41.632222 
L 69.775339 41.297001 
L 71.097124 41.558928 
L 72.418909 41.573195 
L 73.740694 41.516431 
L 75.062479 41.621256 
L 76.384264 41.6807 
L 77.70605 41.662761 
L 79.027835 41.728088 
L 80.34962 41.705069 
L 81.671405 41.760324 
L 82.99319 41.809043 
L 84.314975 41.694841 
L 85.63676 41.773819 
L 85.96 41.785239 
" style="fill:none;stroke:#17becf;stroke-linecap:square;stroke-width:0.5;"/>
   </g>
   <g id="line2d_10">
    <path clip-path="url(#p81686db1c9)" d="M 28.8 42.129793 
L 30.121785 40.766769 
L 31.44357 35.156858 
L 32.765355 33.485869 
L 34.08714 39.994853 
L 35.408926 37.556369 
L 36.730711 35.171403 
L 38.052496 38.902115 
L 39.374281 37.871576 
L 40.696066 34.790515 
L 42.017851 38.37549 
L 43.339636 39.396741 
L 44.661421 37.751916 
L 45.983207 39.677536 
L 47.304992 39.776676 
L 48.626777 39.749496 
L 49.948562 40.303804 
L 51.270347 40.601901 
L 52.592132 40.793922 
L 53.913917 40.941017 
L 55.235702 41.095464 
L 56.557488 40.81953 
L 57.879273 41.000968 
L 59.201058 41.10845 
L 60.522843 41.282795 
L 61.844628 41.213611 
L 63.166413 41.241176 
L 64.488198 41.385276 
L 65.809983 41.360686 
L 67.131769 41.470325 
L 68.453554 41.50522 
L 69.775339 41.555619 
L 71.097124 41.474955 
L 72.418909 41.56357 
L 73.740694 41.595638 
L 75.062479 41.62418 
L 76.384264 41.668942 
L 77.70605 41.6901 
L 79.027835 41.726626 
L 80.34962 41.727802 
L 81.671405 41.762759 
L 82.99319 41.786366 
L 84.314975 41.782127 
L 85.63676 41.818259 
L 85.96 41.814677 
" style="fill:none;stroke:#bcbd22;stroke-linecap:square;stroke-width:0.5;"/>
   </g>
   <g id="patch_3">
    <path d="M 28.8 42.48 
L 28.8 1.8 
" style="fill:none;stroke:#000000;stroke-linecap:square;stroke-linejoin:miter;stroke-width:0.8;"/>
   </g>
   <g id="patch_4">
    <path d="M 28.8 42.48 
L 77.76 42.48 
" style="fill:none;stroke:#000000;stroke-linecap:square;stroke-linejoin:miter;stroke-width:0.8;"/>
   </g>
  </g>
 </g>
 <defs>
  <clipPath id="p81686db1c9">
   <rect height="40.68" width="48.96" x="28.8" y="1.8"/>
  </clipPath>
 </defs>
</svg>
